<?xml version="1.0" encoding="UTF-8"?>
<svg version="1.1" xmlns="http://www.w3.org/2000/svg" width="534" height="536">
<path d="M0 0 C176.22 0 352.44 0 534 0 C534 176.88 534 353.76 534 536 C357.78 536 181.56 536 0 536 C0 359.12 0 182.24 0 0 Z " fill="#000000" transform="translate(0,0)"/>
<path d="M0 0 C0.60827637 0.48726562 1.21655273 0.97453125 1.84326172 1.4765625 C40.62134921 32.79209226 65.72705431 80.10563109 71.69921875 129.51171875 C72.37373542 137.33436013 72.75891489 145.15282841 73 153 C73.04302246 154.21067139 73.04302246 154.21067139 73.08691406 155.44580078 C74.20214291 190.1661216 66.00153662 224.22257638 50 255 C49.34 255 48.68 255 48 255 C47.855625 255.78375 47.71125 256.5675 47.5625 257.375 C47 260 47 260 46 262 C45.34 262 44.68 262 44 262 C43.92523438 262.6909375 43.85046875 263.381875 43.7734375 264.09375 C42.78821979 267.79578019 40.87038238 270.467353 38.625 273.5 C37.96213989 274.41096436 37.96213989 274.41096436 37.28588867 275.34033203 C32.501068 281.82700065 27.29094923 287.92520644 22 294 C21.3503125 294.7734375 20.700625 295.546875 20.03125 296.34375 C16.04526558 301.05445886 11.76058804 305.08039912 7 309 C6.21061035 309.65790527 6.21061035 309.65790527 5.40527344 310.32910156 C-3.32435689 317.58357479 -12.20781744 324.23881419 -22 330 C-22.80324707 330.47469727 -23.60649414 330.94939453 -24.43408203 331.43847656 C-37.19103145 338.89245369 -49.86445857 344.70832074 -64 349 C-64.82790039 349.25563721 -65.65580078 349.51127441 -66.50878906 349.7746582 C-71.72183089 351.36697834 -76.94511184 352.81095842 -82.25 354.0625 C-82.89839844 354.22298828 -83.54679688 354.38347656 -84.21484375 354.54882812 C-98.40005567 357.91274981 -112.30545647 358.40603672 -126.8125 358.375 C-127.81066742 358.37412384 -128.80883484 358.37324768 -129.83724976 358.37234497 C-145.22964099 358.32778119 -159.98806401 357.70606344 -175 354 C-175.99112793 353.75862305 -176.98225586 353.51724609 -178.00341797 353.26855469 C-204.65865473 346.5636304 -229.66632816 335.19550208 -251.37597656 318.265625 C-252.81941824 317.14072998 -254.2796861 316.03750105 -255.7421875 314.9375 C-269.42942566 304.28724781 -282.22049254 291.33056817 -292 277 C-292.4439209 276.35208496 -292.8878418 275.70416992 -293.34521484 275.03662109 C-316.79838369 240.47533297 -329.20191703 201.76338181 -329.25 159.875 C-329.25200912 158.83218872 -329.25200912 158.83218872 -329.25405884 157.76831055 C-329.24850411 144.35269576 -328.1049295 131.25762126 -326 118 C-325.8772168 117.20658203 -325.75443359 116.41316406 -325.62792969 115.59570312 C-323.80325496 104.08466973 -321.03489981 92.9184319 -316.046875 82.34765625 C-314.81752294 79.59078839 -313.83058045 76.77906017 -312.8125 73.9375 C-309.7495803 65.80824143 -305.39705834 58.46254564 -301 51 C-300.34 51 -299.68 51 -299 51 C-298.94585937 50.33097656 -298.89171875 49.66195312 -298.8359375 48.97265625 C-297.65196989 44.76237892 -295.27603385 41.86805672 -292.625 38.4375 C-292.09060303 37.73512207 -291.55620605 37.03274414 -291.00561523 36.30908203 C-286.76803739 30.81664201 -282.24799647 25.67586958 -277.47265625 20.6484375 C-275.70196804 18.75187098 -274.0387856 16.86513007 -272.3984375 14.86328125 C-254.71812502 -6.24367159 -225.54637579 -22.03259779 -200 -31 C-199.28408691 -31.25233398 -198.56817383 -31.50466797 -197.83056641 -31.76464844 C-185.75389078 -35.94971187 -173.60485147 -38.91353586 -161 -41 C-159.96915283 -41.17789063 -159.96915283 -41.17789063 -158.91748047 -41.359375 C-103.52136566 -50.52161698 -43.60831331 -35.22079667 0 0 Z " fill="#FEFEFE" transform="translate(397,105)"/>
<path d="M0 0 C16.32460165 13.65936056 25.20554708 35.10768576 27.25 55.875 C27.35980857 58.53203468 27.43653028 61.16362297 27.453125 63.8203125 C27.45882507 64.55265106 27.46452515 65.28498962 27.47039795 66.03952026 C27.47977824 67.58069446 27.48635389 69.12188808 27.49023438 70.66308594 C27.49989002 72.9736807 27.53095891 75.28336491 27.5625 77.59375 C27.73097984 100.94377373 20.1769357 122.49237663 4.25 139.875 C-12.25664381 155.7777422 -32.62627362 159.27835849 -54.62109375 159.015625 C-70.21704798 158.66572481 -84.31925322 153.34604516 -96.75 143.875 C-97.74 143.17375 -98.73 142.4725 -99.75 141.75 C-115.28081616 128.14981016 -122.92824952 106.75878466 -124.56030273 86.74682617 C-126.04891497 64.21073127 -125.28482762 40.8344151 -113.75 20.875 C-113.21503906 19.89660156 -112.68007812 18.91820312 -112.12890625 17.91015625 C-104.84592507 5.457481 -94.68158824 -3.11757582 -81.75 -9.125 C-80.64140625 -9.65351563 -79.5328125 -10.18203125 -78.390625 -10.7265625 C-53.60230624 -20.41457354 -21.36366347 -15.07803219 0 0 Z " fill="#000000" transform="translate(317.75,190.125)"/>
</svg>
