<?xml version="1.0" encoding="UTF-8"?>
<svg xmlns="http://www.w3.org/2000/svg" xmlns:xlink="http://www.w3.org/1999/xlink" width="90px" height="90px" viewBox="0 0 90 136" version="1.1">
<defs>
<radialGradient id="radial0" gradientUnits="userSpaceOnUse" cx="57.950001" cy="31.540001" fx="57.950001" fy="31.540001" r="3.41" gradientTransform="matrix(0.48836,0,0,0.486688,0.0513215,0)">
<stop offset="0" style="stop-color:rgb(100%,100%,100%);stop-opacity:1;"/>
<stop offset="0.36" style="stop-color:rgb(94.509804%,74.117647%,85.098039%);stop-opacity:1;"/>
<stop offset="0.8" style="stop-color:rgb(88.627451%,44.705882%,68.235294%);stop-opacity:1;"/>
<stop offset="1" style="stop-color:rgb(86.27451%,33.333333%,61.960784%);stop-opacity:1;"/>
</radialGradient>
<radialGradient id="radial1" gradientUnits="userSpaceOnUse" cx="44.52" cy="36.639999" fx="44.52" fy="36.639999" r="3.62" gradientTransform="matrix(0.48836,0,0,0.486688,0.0513215,0)">
<stop offset="0" style="stop-color:rgb(100%,100%,100%);stop-opacity:1;"/>
<stop offset="0.36" style="stop-color:rgb(94.509804%,74.117647%,85.098039%);stop-opacity:1;"/>
<stop offset="0.8" style="stop-color:rgb(88.627451%,44.705882%,68.235294%);stop-opacity:1;"/>
<stop offset="1" style="stop-color:rgb(86.27451%,33.333333%,61.960784%);stop-opacity:1;"/>
</radialGradient>
</defs>
<g id="surface1">
<path style=" stroke:none;fill-rule:nonzero;fill:rgb(0%,0%,0%);fill-opacity:1;" d="M 29.640625 125.542969 C 28.796875 123.777344 28.902344 121.792969 29.5625 119.855469 C 30.179688 118.042969 31.058594 116.308594 31.644531 114.484375 C 32.367188 112.25 32.90625 109.957031 33.519531 107.6875 C 33.660156 107.160156 33.539062 106.734375 33.113281 106.316406 C 32.5625 105.777344 32.117188 105.128906 31.558594 104.441406 C 31.109375 104.347656 30.53125 104.234375 29.964844 104.082031 C 28.542969 103.707031 27.339844 102.988281 26.601562 101.679688 C 26.089844 100.765625 25.371094 100.351562 24.332031 100.058594 C 18.949219 98.558594 14.085938 96.019531 9.925781 92.269531 C 4.40625 87.296875 1.375 81.042969 0.460938 73.703125 C -0.238281 68.097656 0.0742188 62.496094 0.433594 56.894531 C 0.621094 53.921875 0.941406 50.953125 1.203125 47.984375 C 1.222656 47.789062 1.1875 47.558594 1.28125 47.402344 C 2.242188 45.777344 1.789062 44.054688 1.65625 42.359375 C 1.273438 37.441406 2.726562 32.988281 5.144531 28.789062 C 5.511719 28.148438 6.042969 27.609375 6.589844 26.914062 C 6.074219 24.355469 6.21875 21.6875 7.132812 19.070312 C 7.195312 18.886719 7.199219 18.683594 7.210938 18.488281 C 7.386719 13.722656 9.746094 10.09375 13.261719 7.109375 C 13.953125 6.523438 14.863281 6.175781 15.664062 5.722656 C 14.070312 3.902344 13.570312 2.359375 14.105469 0.480469 C 14.304688 0.792969 14.441406 0.96875 14.539062 1.160156 C 14.886719 1.855469 15.128906 2.625 15.578125 3.238281 C 16.597656 4.617188 17.671875 4.90625 19.300781 4.371094 C 20.011719 4.136719 20.6875 3.800781 21.414062 3.605469 C 22.046875 3.4375 22.714844 3.398438 23.527344 3.277344 C 24.816406 1.359375 26.824219 0.3125 29.246094 0.0429688 C 31.730469 -0.230469 34.070312 0.371094 36.078125 1.800781 C 37.859375 3.070312 39.511719 4.550781 41.113281 6.050781 C 42.34375 7.203125 43.386719 8.546875 44.558594 9.761719 C 44.828125 10.039062 45.269531 10.285156 45.644531 10.3125 C 49.640625 10.589844 53.21875 12.011719 56.535156 14.171875 C 59.058594 15.816406 61.023438 17.976562 62.425781 20.640625 C 62.671875 21.113281 62.976562 21.445312 63.519531 21.609375 C 70.71875 23.839844 76.75 27.9375 81.992188 33.246094 C 84.640625 35.925781 86.8125 38.953125 88.195312 42.476562 C 90.695312 48.859375 90.359375 55.222656 87.960938 61.550781 C 87.75 62.101562 87.515625 62.640625 87.296875 63.1875 C 87.28125 63.222656 87.289062 63.265625 87.273438 63.433594 C 88.929688 64.71875 89.058594 66.730469 89.367188 68.65625 C 90.003906 72.632812 90.296875 76.609375 89.304688 80.582031 C 88.84375 82.421875 88.179688 84.167969 87.117188 85.753906 C 86.902344 86.082031 86.6875 86.578125 86.777344 86.90625 C 87.546875 89.636719 86.707031 92.027344 85.203125 94.226562 C 84.703125 94.957031 84.429688 95.609375 84.523438 96.480469 C 84.78125 98.957031 84.039062 101.308594 83.472656 103.664062 C 82.179688 109.007812 81.5625 114.394531 81.960938 119.890625 C 82.023438 120.789062 82.082031 121.691406 82.140625 122.589844 C 82.238281 124.179688 81.929688 125.574219 80.234375 126.339844 C 80.546875 127.632812 80.839844 128.890625 81.148438 130.140625 C 81.433594 131.289062 81.207031 132.414062 80.800781 133.464844 C 80.636719 133.898438 80.0625 134.226562 79.605469 134.46875 C 79.28125 134.632812 78.839844 134.59375 78.449219 134.59375 C 73.640625 134.613281 68.835938 134.621094 64.03125 134.621094 C 63.324219 134.621094 62.605469 134.609375 61.910156 134.496094 C 60.867188 134.324219 60.589844 133.949219 60.570312 132.90625 C 60.539062 130.960938 61.320312 129.324219 62.511719 127.847656 C 62.683594 127.632812 62.875 127.433594 63.128906 127.152344 C 62.429688 125.75 62.703125 124.21875 62.691406 122.703125 C 62.683594 121.191406 62.332031 119.75 61.792969 118.347656 C 60.90625 116.03125 59.632812 113.933594 58.265625 111.820312 C 54.902344 115.617188 51.613281 119.34375 48.378906 123.003906 C 49.292969 125.246094 49.175781 125.839844 47.902344 126.464844 C 48.121094 127.882812 48.335938 129.265625 48.511719 130.382812 C 48.941406 131.308594 49.410156 132.003906 49.585938 132.761719 C 49.863281 133.984375 49.210938 134.929688 47.992188 135.253906 C 47.425781 135.40625 46.832031 135.488281 46.246094 135.511719 C 42.308594 135.683594 38.378906 135.855469 34.441406 135.964844 C 33.148438 136 31.839844 135.9375 30.558594 135.765625 C 29.007812 135.5625 28.558594 135.023438 28.328125 133.492188 C 28.082031 131.847656 28.042969 130.1875 28.445312 128.578125 C 28.695312 127.570312 29.203125 126.625 29.652344 125.515625 Z M 21.132812 10.414062 C 21.210938 10.335938 21.289062 10.257812 21.367188 10.175781 C 21.589844 10.136719 21.808594 10.09375 22.042969 10.054688 C 22.257812 10.832031 21.953125 11.34375 21.363281 11.699219 C 20.859375 12 20.34375 12.304688 19.796875 12.507812 C 18.125 13.136719 16.878906 14.222656 15.835938 15.660156 C 13.773438 18.511719 12.214844 21.632812 10.816406 24.835938 C 9.964844 26.777344 9.101562 28.714844 7.609375 30.292969 C 7.375 30.539062 7.207031 30.875 7.097656 31.207031 C 6.679688 32.472656 6.292969 33.746094 5.90625 35.023438 C 4.699219 39.03125 4.804688 43.019531 6.351562 46.90625 C 8.8125 53.101562 12.976562 57.875 18.730469 61.273438 C 19.945312 61.988281 21.222656 62.554688 22.675781 62.839844 C 22.96875 60.933594 23.996094 59.503906 25.417969 58.386719 C 26.980469 57.160156 28.640625 56.101562 30.824219 56.765625 C 31.164062 56.875 31.597656 56.757812 31.976562 56.675781 C 33.699219 56.300781 34.632812 56.636719 35.511719 57.871094 C 36.484375 57.992188 37.355469 57.984375 38.152344 58.230469 C 39.058594 58.507812 39.320312 59.414062 39.539062 60.304688 C 41.152344 60.121094 42.207031 60.914062 42.984375 62.214844 C 45.121094 61.703125 47.101562 61.03125 48.46875 59.582031 C 48.574219 58.59375 48.671875 57.824219 48.742188 57.050781 C 48.765625 56.792969 48.800781 56.496094 48.703125 56.277344 C 47.8125 54.230469 48.550781 52.511719 50.195312 51.179688 C 51.746094 49.925781 53.535156 49.285156 55.527344 49.242188 C 56.460938 49.222656 57.394531 49.242188 58.492188 49.242188 C 58.921875 47.855469 59.523438 46.390625 59.828125 44.867188 C 61.097656 38.445312 60.472656 32.15625 58.246094 26.003906 C 57.027344 22.640625 55.183594 19.75 52.359375 17.492188 C 51.734375 16.992188 51.109375 16.707031 50.324219 16.808594 C 48.371094 17.054688 46.476562 16.800781 44.644531 16.082031 C 44.515625 16.03125 44.375 16.023438 44.253906 15.996094 C 44.324219 16.640625 44.390625 17.191406 44.46875 17.847656 C 43.238281 17.632812 42.351562 17.175781 41.601562 16.453125 C 40.582031 15.476562 39.546875 14.507812 38.554688 13.496094 C 36.71875 11.617188 34.621094 10.125 32.195312 9.097656 C 31.574219 8.832031 30.964844 8.550781 30.425781 8.3125 C 30.519531 9.265625 30.65625 10.117188 30.65625 10.964844 C 30.65625 11.519531 30.773438 11.90625 31.207031 12.285156 C 32.101562 13.0625 32.625 14.074219 32.6875 15.261719 C 32.761719 16.539062 32.003906 17.257812 30.75 17.316406 C 29.574219 17.371094 28.390625 17.457031 27.234375 17.652344 C 26.011719 17.855469 25.714844 17.8125 25.164062 16.761719 C 24.894531 16.246094 24.679688 15.679688 24.558594 15.117188 C 24.015625 12.585938 26.082031 10.496094 28.644531 10.964844 C 29.015625 11.035156 29.382812 11.125 29.75 11.203125 C 29.800781 11.136719 29.855469 11.070312 29.910156 11.003906 C 29.351562 10.289062 28.796875 9.574219 28.285156 8.910156 C 24.382812 10.265625 24.136719 10.304688 23.273438 9.601562 C 24.371094 9.195312 25.40625 8.808594 26.671875 8.335938 C 24.425781 8.132812 22.671875 8.535156 21.375 10.195312 C 21.296875 10.273438 21.21875 10.355469 21.140625 10.433594 L 20.894531 10.679688 L 20.191406 11.140625 C 20.113281 11.21875 20.03125 11.296875 19.953125 11.375 L 19.921875 11.398438 L 19.945312 11.367188 C 20.023438 11.292969 20.101562 11.207031 20.179688 11.128906 C 20.414062 10.976562 20.648438 10.824219 20.886719 10.667969 C 20.96875 10.585938 21.046875 10.507812 21.128906 10.425781 Z M 12.148438 61.089844 C 12.070312 61.007812 11.988281 60.921875 11.910156 60.84375 C 11.65625 60.605469 11.402344 60.359375 11.140625 60.125 C 7.753906 57.101562 5.003906 53.617188 3.300781 49.375 C 3.085938 48.839844 2.882812 48.300781 2.679688 47.761719 C 2.339844 50.585938 2.144531 53.386719 1.957031 56.1875 C 1.589844 61.628906 1.3125 67.074219 1.800781 72.527344 C 2.046875 75.277344 2.585938 77.957031 3.605469 80.53125 C 7.507812 90.398438 15.175781 95.890625 25.050781 98.738281 C 28.15625 99.632812 30.867188 98.808594 32.9375 96.167969 C 34.792969 93.804688 36.308594 91.25 37.550781 88.527344 C 38.4375 86.605469 39.324219 84.679688 39.671875 82.5625 C 39.941406 80.929688 39.734375 79.378906 39.027344 78.007812 C 34.023438 78.355469 29.695312 76.984375 25.722656 73.792969 C 25.535156 74.308594 25.234375 74.75 25.222656 75.203125 C 25.148438 77.246094 24.152344 78.753906 22.632812 80.007812 C 22.585938 79.957031 22.535156 79.914062 22.492188 79.867188 C 22.960938 78.707031 23.535156 77.578125 23.867188 76.386719 C 24.214844 75.148438 24.238281 73.816406 25.152344 73.1875 C 25.152344 71.925781 25.105469 70.953125 25.167969 69.992188 C 25.234375 68.914062 24.878906 68.378906 23.800781 68.097656 C 23.117188 67.917969 22.441406 67.710938 21.773438 67.480469 C 16.972656 65.800781 12.976562 62.867188 9.261719 59.496094 C 9.304688 59.453125 9.351562 59.410156 9.394531 59.359375 C 10.238281 59.851562 11.082031 60.34375 11.929688 60.835938 C 12.007812 60.917969 12.089844 60.996094 12.167969 61.078125 C 12.324219 61.15625 12.476562 61.234375 12.632812 61.3125 L 12.660156 61.351562 L 12.632812 61.316406 C 12.476562 61.246094 12.3125 61.167969 12.15625 61.09375 Z M 14.992188 3.597656 L 14.957031 3.5625 L 14.996094 3.597656 C 15.074219 3.753906 15.152344 3.914062 15.234375 4.070312 C 15.636719 4.925781 16.242188 5.464844 17.257812 5.464844 C 16.554688 4.988281 15.882812 4.535156 15.21875 4.082031 C 15.140625 3.921875 15.070312 3.761719 14.992188 3.601562 Z M 21.847656 66.261719 C 21.730469 66.210938 21.613281 66.152344 21.492188 66.097656 C 21.480469 66.136719 21.464844 66.175781 21.457031 66.210938 L 21.855469 66.246094 C 22.417969 66.519531 22.984375 66.792969 23.546875 67.066406 C 23.605469 66.964844 23.664062 66.855469 23.722656 66.753906 C 23.484375 66.59375 23.261719 66.34375 23 66.292969 C 22.628906 66.210938 22.226562 66.265625 21.84375 66.265625 Z M 66.527344 126.089844 C 69.75 125.894531 72.945312 126.117188 76.039062 126.953125 C 76.34375 126.191406 76.109375 125.863281 75.539062 125.753906 C 75.035156 125.664062 74.527344 125.59375 74.019531 125.554688 C 71.5 125.347656 68.988281 125.339844 66.535156 126.105469 C 66.414062 126.128906 66.289062 126.15625 66.164062 126.179688 C 66.175781 126.203125 66.183594 126.226562 66.195312 126.25 C 66.308594 126.199219 66.414062 126.144531 66.527344 126.089844 Z M 46.1875 125.867188 L 46.132812 125.808594 L 46.203125 125.851562 C 46.320312 126.265625 46.40625 126.683594 46.554688 127.089844 C 46.722656 127.554688 46.886719 128.097656 46.398438 128.347656 C 46.105469 128.503906 45.558594 128.386719 45.214844 128.21875 C 41.910156 126.601562 38.5 126.398438 35.003906 127.449219 C 33.128906 128.011719 33.136719 128.042969 32.769531 126.167969 C 32.132812 126.167969 31.472656 126.140625 30.816406 126.183594 C 30.621094 126.199219 30.367188 126.367188 30.261719 126.539062 C 29.476562 127.792969 29.191406 129.167969 29.292969 130.617188 C 30.402344 130.484375 31.371094 130.261719 32.335938 130.273438 C 36.980469 130.300781 41.625 130.394531 46.269531 130.457031 C 46.605469 130.457031 46.945312 130.425781 47.269531 130.40625 C 47.460938 129.019531 47.34375 127.78125 46.832031 126.605469 C 46.703125 126.320312 46.410156 126.109375 46.191406 125.863281 Z M 6.007812 32.105469 C 5.851562 32.164062 5.695312 32.226562 5.363281 32.355469 C 5.988281 30.773438 6.90625 29.484375 6.730469 27.847656 C 5.964844 28.988281 5.265625 30.160156 4.714844 31.390625 C 1.839844 37.820312 1.8125 44.214844 4.992188 50.566406 C 7.433594 55.445312 11.191406 59.109375 15.667969 62.105469 C 17.925781 63.621094 20.347656 64.773438 23.144531 65.488281 C 22.96875 64.867188 22.824219 64.359375 22.753906 64.125 C 21.085938 63.402344 19.582031 62.90625 18.226562 62.140625 C 12.859375 59.101562 8.953125 54.675781 6.261719 49.183594 C 4.382812 45.34375 3.714844 41.277344 4.570312 37.054688 C 4.910156 35.371094 5.511719 33.742188 5.996094 32.09375 Z M 85.675781 87.699219 C 84.011719 88.945312 82.4375 90.335938 80.667969 91.40625 C 76.59375 93.878906 72.191406 95.71875 67.703125 97.324219 C 62.628906 99.136719 57.457031 100.65625 52.21875 101.925781 C 46.585938 103.292969 40.886719 104.222656 35.089844 104.507812 C 34.308594 104.546875 33.527344 104.511719 32.5625 104.511719 C 34.140625 106.0625 34.65625 106.296875 36.507812 106.273438 C 37.214844 106.261719 37.921875 106.203125 38.621094 106.097656 C 41.851562 105.609375 45.078125 105.125 48.296875 104.605469 C 56.453125 103.285156 64.589844 101.863281 72.554688 99.632812 C 75.519531 98.808594 78.390625 97.761719 81.015625 96.109375 C 84.140625 94.148438 85.769531 91.40625 85.660156 87.691406 L 85.671875 87.699219 Z M 16.171875 8.546875 L 16.15625 8.53125 C 16.058594 8.742188 15.988281 8.96875 15.855469 9.15625 C 14.285156 11.355469 12.671875 13.523438 11.140625 15.753906 C 9.707031 17.851562 8.828125 20.191406 8.398438 22.699219 C 7.992188 25.050781 7.597656 27.402344 7.195312 29.75 L 7.121094 29.789062 L 7.179688 29.738281 C 8.523438 27.128906 9.917969 24.539062 11.207031 21.902344 C 13.550781 17.101562 16.566406 12.863281 20.988281 9.734375 C 21.210938 9.578125 21.417969 9.386719 21.613281 9.199219 C 23.957031 6.871094 27.730469 7 29.875 9.480469 L 29.867188 9.492188 C 29.578125 8.953125 29.3125 8.40625 28.996094 7.890625 C 28.777344 7.535156 28.484375 7.222656 28.226562 6.894531 L 28.21875 6.894531 C 28.488281 6.945312 28.765625 6.953125 29.027344 7.03125 C 33.097656 8.3125 36.824219 10.160156 39.773438 13.355469 C 40.984375 14.664062 42.308594 15.871094 43.710938 17.253906 C 43.648438 16.960938 43.640625 16.847656 43.597656 16.75 C 41.777344 12.707031 39.214844 9.234375 35.652344 6.542969 C 34.308594 5.523438 32.917969 4.574219 31.546875 3.589844 L 31.53125 3.605469 C 31.6875 3.617188 31.863281 3.585938 31.996094 3.644531 C 33.917969 4.53125 35.859375 5.386719 37.46875 6.8125 C 39.8125 8.890625 41.734375 11.304688 43.199219 14.058594 C 43.582031 14.785156 44.105469 15.121094 44.867188 15.359375 C 46.695312 15.929688 48.566406 16.046875 50.449219 16.082031 C 50.503906 16.113281 50.558594 16.148438 50.542969 16.136719 C 50.558594 16.144531 50.5 16.117188 50.441406 16.09375 C 50.09375 15.847656 49.765625 15.5625 49.398438 15.351562 C 47.375 14.148438 45.738281 12.503906 44.339844 10.664062 C 41.960938 7.535156 38.984375 5.058594 35.886719 2.71875 C 33.996094 1.292969 31.753906 0.632812 29.34375 0.863281 C 27.191406 1.0625 25.363281 1.90625 24.097656 3.609375 C 24.488281 4.230469 24.816406 4.746094 25.144531 5.261719 L 25.15625 5.246094 C 24.335938 4.675781 23.433594 4.117188 22.433594 4.335938 C 20.910156 4.671875 19.417969 5.199219 17.929688 5.679688 C 17.238281 5.902344 16.546875 6.167969 15.902344 6.503906 C 12.214844 8.398438 9.949219 11.523438 8.429688 15.261719 C 8.207031 15.8125 8.089844 16.402344 7.917969 16.976562 C 8.933594 15.671875 9.75 14.289062 10.605469 12.9375 C 10.996094 12.3125 11.480469 11.75 11.921875 11.160156 L 11.910156 11.144531 C 11.707031 11.609375 11.523438 12.074219 11.304688 12.53125 C 10.214844 14.789062 9.042969 17.007812 8.046875 19.300781 C 7.179688 21.296875 6.914062 23.417969 7.207031 25.683594 C 7.292969 25.570312 7.316406 25.554688 7.324219 25.53125 C 7.332031 25.414062 7.34375 25.296875 7.34375 25.179688 C 7.527344 18.1875 11.21875 13.042969 16.171875 8.566406 Z M 38.867188 116.671875 C 42.09375 118.144531 45.089844 119.972656 47.808594 122.304688 C 48.292969 121.65625 48.773438 120.945312 49.320312 120.289062 C 51.496094 117.65625 53.640625 114.996094 55.890625 112.429688 C 57.464844 110.632812 59.195312 108.980469 60.855469 107.261719 L 60.84375 107.246094 C 60.746094 107.496094 60.675781 107.765625 60.539062 107.996094 C 60.0625 108.761719 59.574219 109.523438 59.050781 110.257812 C 58.675781 110.785156 58.699219 111.238281 59.085938 111.753906 C 59.675781 112.535156 60.242188 113.339844 60.769531 114.167969 C 62.820312 117.371094 64.265625 120.753906 63.792969 124.683594 C 63.75 125.0625 63.789062 125.453125 63.789062 125.929688 C 64.085938 125.808594 64.300781 125.722656 64.503906 125.628906 C 67.332031 124.382812 70.296875 123.871094 73.367188 124.132812 C 75.125 124.285156 76.875 124.601562 78.628906 124.824219 C 80.289062 125.039062 80.738281 124.683594 80.722656 123.039062 C 80.707031 121.550781 80.609375 120.0625 80.53125 118.570312 C 80.390625 115.867188 80.304688 113.144531 80.8125 110.472656 C 81.667969 106.011719 82.648438 101.570312 83.574219 97.117188 C 83.640625 96.800781 83.683594 96.480469 83.777344 95.925781 C 81.039062 98.101562 78.15625 99.421875 75.101562 100.390625 C 70.113281 101.976562 65.003906 103.121094 59.847656 104.011719 C 54.1875 104.988281 48.519531 105.902344 42.839844 106.765625 C 40.132812 107.171875 37.410156 107.753906 34.632812 107.261719 C 34.574219 107.25 34.503906 107.328125 34.425781 107.371094 C 34.160156 109.941406 33.789062 112.496094 32.828125 114.929688 C 32.238281 116.425781 31.648438 117.917969 31.097656 119.433594 C 30.59375 120.804688 30.300781 122.226562 30.453125 123.703125 C 30.578125 124.957031 30.765625 125.101562 32.015625 124.949219 C 35.902344 124.476562 39.789062 123.992188 43.738281 123.511719 C 42.480469 122.984375 41.246094 122.382812 39.949219 121.960938 C 38.644531 121.535156 37.296875 121.21875 35.945312 120.992188 C 34.636719 120.765625 33.304688 120.707031 31.980469 120.578125 C 33.742188 120.324219 35.511719 120.265625 37.273438 120.152344 C 38.683594 120.0625 40.035156 120.285156 41.292969 120.894531 C 43.339844 121.886719 45.355469 122.941406 47.386719 123.96875 L 47.421875 124.027344 L 47.375 123.980469 C 47.121094 123.636719 46.910156 123.25 46.613281 122.957031 C 44.492188 120.90625 42.28125 118.972656 39.769531 117.394531 C 39.449219 117.195312 39.179688 116.90625 38.886719 116.664062 L 38.875 116.679688 Z M 67.9375 69.308594 L 67.949219 69.320312 C 68.007812 69.132812 68.035156 68.933594 68.125 68.757812 C 69.222656 66.597656 69.824219 64.296875 70.132812 61.902344 C 70.429688 59.570312 69.980469 57.371094 68.851562 55.316406 C 67.875 53.539062 66.433594 52.597656 64.265625 52.867188 C 64.265625 53.082031 64.257812 53.3125 64.265625 53.535156 C 64.402344 55.921875 64.597656 58.304688 64.667969 60.695312 C 64.75 63.605469 64.367188 66.414062 62.113281 68.777344 C 62.566406 68.890625 62.898438 68.953125 63.222656 69.050781 C 64.160156 69.339844 65.117188 69.578125 66.015625 69.953125 C 67.351562 70.507812 68.601562 71.285156 69.964844 71.753906 C 72.332031 72.566406 74.75 72.613281 77.128906 71.667969 C 79.0625 70.902344 80.734375 69.753906 82.15625 68.242188 C 84.855469 65.371094 86.578125 61.960938 87.574219 58.1875 C 89.554688 50.703125 88.539062 43.722656 83.855469 37.417969 C 80.132812 32.410156 75.371094 28.59375 69.949219 25.582031 C 67.875 24.425781 65.6875 23.476562 63.304688 22.320312 C 64.738281 27.148438 64.816406 31.800781 64.96875 36.453125 C 64.863281 36.328125 64.773438 36.191406 64.75 36.042969 C 64.691406 35.699219 64.636719 35.347656 64.617188 34.996094 C 64.398438 31.503906 63.816406 28.0625 62.917969 24.679688 C 62.003906 21.25 60.210938 18.351562 57.445312 16.082031 C 54.429688 13.613281 50.949219 12.132812 47.191406 11.226562 C 46.8125 11.136719 46.402344 11.148438 45.757812 11.085938 C 46.9375 12.503906 48.144531 13.425781 49.40625 14.304688 C 50.816406 15.292969 52.21875 16.292969 53.589844 17.335938 C 55.535156 18.816406 56.992188 20.695312 58.039062 22.898438 C 60.796875 28.734375 61.964844 34.855469 61.441406 41.300781 C 61.207031 44.210938 60.734375 47.042969 59.1875 49.601562 C 60.132812 50.089844 61.0625 50.566406 62.160156 51.132812 C 62.875 50.042969 63.625 49.042969 64.21875 47.953125 C 65.28125 45.992188 66.25 43.980469 67.253906 41.992188 L 67.238281 41.980469 C 66.535156 45.175781 65.609375 48.273438 63.4375 50.839844 C 63.246094 51.066406 63.058594 51.300781 62.847656 51.566406 C 63.71875 52.269531 64.59375 52.011719 65.402344 51.929688 C 65.527344 50.78125 65.632812 49.71875 65.746094 48.652344 C 65.828125 48.660156 65.90625 48.664062 65.988281 48.667969 C 66.125 49.542969 66.261719 50.421875 66.417969 51.457031 C 69.273438 50.105469 72.050781 48.917969 75.308594 49.597656 C 72.738281 50.617188 70.082031 51.101562 67.636719 52.191406 C 68.367188 52.972656 69.121094 53.578125 69.628906 54.347656 C 71.527344 57.25 71.902344 60.402344 70.835938 63.683594 C 70.425781 64.945312 69.832031 66.15625 69.242188 67.347656 C 68.898438 68.039062 68.386719 68.640625 67.953125 69.289062 Z M 70.527344 73.554688 L 70.546875 73.566406 C 70.144531 73.421875 69.726562 73.300781 69.339844 73.113281 C 68.5625 72.746094 67.636719 72.5 67.074219 71.914062 C 66.230469 71.035156 65.238281 70.617188 64.144531 70.292969 C 63.617188 70.132812 63.09375 69.960938 62.5625 69.816406 C 61.472656 69.519531 60.382812 69.230469 59.167969 68.910156 C 57.957031 70.03125 56.417969 70.410156 54.695312 69.847656 C 52.695312 69.203125 52.410156 67.582031 52.507812 65.742188 C 51.601562 65.5 50.753906 65.144531 50.507812 64.222656 C 50.285156 63.382812 50.265625 62.492188 50.136719 61.464844 C 49.894531 61.277344 49.492188 60.972656 49.042969 60.632812 C 47.316406 61.980469 45.285156 62.570312 43.28125 63.019531 C 43.121094 63.75 43.0625 64.394531 42.820312 64.957031 C 42.566406 65.5625 42.148438 66.09375 41.894531 66.507812 C 41.976562 67.414062 42.167969 68.199219 42.097656 68.964844 C 41.96875 70.441406 41.722656 71.914062 41.460938 73.378906 C 41.238281 74.578125 40.882812 75.742188 39.9375 76.628906 C 39.804688 76.75 39.75 76.960938 39.683594 77.097656 C 41.21875 80.027344 41.523438 81.855469 40.386719 85.304688 C 39.089844 89.242188 37.179688 92.890625 34.726562 96.242188 C 32.933594 98.691406 30.765625 100.488281 27.527344 100.53125 C 28.148438 102.210938 29.269531 103.144531 31.03125 103.246094 C 31.976562 103.300781 32.925781 103.5 33.855469 103.40625 C 37.414062 103.042969 40.996094 102.765625 44.511719 102.132812 C 54.023438 100.417969 63.265625 97.699219 72.195312 93.988281 C 75.324219 92.691406 78.378906 91.230469 81.214844 89.375 C 84.453125 87.257812 86.875 84.488281 87.769531 80.648438 C 88.140625 79.058594 88.367188 77.402344 88.429688 75.765625 C 88.566406 72.136719 88.03125 68.570312 87.105469 65.058594 C 87.042969 64.820312 86.925781 64.601562 86.804688 64.296875 C 86.144531 65.324219 85.585938 66.265625 84.953125 67.15625 C 82.714844 70.296875 79.847656 72.566406 76.039062 73.542969 C 74.195312 74.019531 72.367188 73.816406 70.53125 73.554688 Z M 56.035156 61.585938 C 56.132812 61.671875 56.230469 61.761719 56.328125 61.847656 C 56.101562 62.148438 55.859375 62.441406 55.640625 62.75 C 55.019531 63.609375 54.316406 64.421875 53.820312 65.347656 C 53.101562 66.6875 53.589844 68.199219 54.8125 68.632812 C 55.976562 69.050781 57.144531 68.957031 58.179688 68.199219 C 58.355469 68.066406 58.453125 67.828125 58.6875 67.5 C 57.828125 67.636719 57.171875 67.960938 56.335938 67.488281 C 57.394531 67.125 58.265625 66.828125 59.167969 66.519531 C 59.378906 66.972656 59.59375 67.347656 59.71875 67.746094 C 59.90625 68.335938 60.339844 68.496094 60.882812 68.566406 C 61.4375 68.632812 61.753906 68.382812 62.007812 67.917969 C 62.933594 66.246094 63.605469 64.496094 63.625 62.570312 C 63.65625 59.585938 63.621094 56.601562 63.632812 53.617188 C 63.632812 53.125 63.480469 52.789062 63.039062 52.578125 C 61.769531 51.953125 60.539062 51.230469 59.222656 50.730469 C 57.203125 49.976562 55.125 50.015625 53.09375 50.746094 C 51.320312 51.382812 49.878906 52.425781 49.269531 54.308594 C 49.152344 54.667969 49.203125 55.082031 49.164062 55.648438 C 51.433594 53.734375 51.832031 53.558594 52.882812 53.925781 C 49.273438 56.011719 48.488281 58.488281 50.640625 61.179688 C 51.621094 59.753906 52.742188 58.507812 54.539062 58.128906 C 54.324219 58.507812 53.972656 58.738281 53.703125 59.039062 C 52.945312 59.878906 52.078125 60.660156 51.515625 61.613281 C 50.679688 63.035156 51.246094 64.390625 52.800781 65.167969 C 53.707031 63.820312 54.6875 62.523438 56.035156 61.589844 Z M 29.988281 57.316406 C 27.15625 57.695312 25.03125 59.109375 23.746094 61.6875 C 23.515625 62.15625 23.457031 62.757812 23.484375 63.289062 C 23.574219 65.132812 24.351562 66.746094 25.125 68.082031 C 26.746094 68.417969 28.128906 68.675781 29.5 68.988281 C 31.378906 69.410156 33.230469 69.960938 35.125 70.292969 C 36.625 70.554688 38.164062 70.597656 39.691406 70.675781 C 40.339844 70.710938 40.972656 70.488281 41.214844 69.789062 C 41.558594 68.816406 41.585938 67.828125 41.226562 66.835938 C 40.601562 66.867188 40.085938 66.890625 39.34375 66.925781 C 39.859375 66.078125 40.238281 65.449219 40.621094 64.820312 C 40.703125 64.859375 40.785156 64.898438 40.867188 64.9375 C 40.800781 65.304688 40.730469 65.671875 40.628906 66.246094 C 41.019531 65.878906 41.277344 65.6875 41.464844 65.449219 C 42.246094 64.457031 42.265625 62.980469 41.53125 62.058594 C 40.902344 61.257812 39.902344 61.074219 38.632812 61.652344 C 37.921875 61.976562 37.304688 62.480469 36.632812 62.886719 C 36.375 63.039062 36.085938 63.148438 35.808594 63.273438 L 35.652344 63.011719 C 36.328125 61.78125 37.558594 61.160156 38.695312 60.480469 C 38.097656 58.761719 36.777344 58.582031 35.453125 59.304688 C 34.1875 59.992188 33.035156 60.894531 31.832031 61.707031 C 31.628906 61.84375 31.429688 61.988281 31.226562 62.128906 C 31.164062 62.058594 31.101562 61.984375 31.039062 61.917969 C 31.890625 60.28125 33.574219 59.472656 34.988281 58.339844 C 33.753906 57.4375 32.503906 57.328125 31.277344 58.027344 C 29.917969 58.804688 28.636719 59.707031 27.332031 60.566406 C 27.023438 60.773438 26.769531 61.046875 26.285156 61.457031 C 26.335938 61.03125 26.300781 60.835938 26.378906 60.757812 C 27.550781 59.621094 28.738281 58.5 29.976562 57.316406 Z M 41.132812 71.207031 C 39.457031 71.882812 37.917969 71.886719 36.40625 71.585938 C 33.632812 71.03125 30.882812 70.378906 28.117188 69.773438 C 27.488281 69.636719 26.855469 69.507812 26.210938 69.371094 C 25.773438 71.464844 26.269531 73.011719 28.039062 74.050781 C 28.210938 74.148438 28.363281 74.273438 28.539062 74.367188 C 31.3125 75.882812 34.300781 76.621094 37.449219 76.785156 C 38.203125 76.824219 38.691406 76.511719 39.167969 75.972656 C 40.332031 74.652344 40.785156 73.070312 41.136719 71.210938 Z M 29.230469 131.609375 C 29.292969 132.253906 29.324219 132.757812 29.398438 133.261719 C 29.566406 134.417969 29.789062 134.667969 30.964844 134.753906 C 32.0625 134.832031 33.167969 134.859375 34.265625 134.820312 C 38.398438 134.667969 42.523438 134.472656 46.652344 134.292969 C 46.925781 134.28125 47.207031 134.273438 47.472656 134.210938 C 48.039062 134.066406 48.496094 133.816406 48.515625 133.125 C 48.535156 132.402344 48.226562 131.902344 47.523438 131.730469 C 47.109375 131.628906 46.671875 131.609375 46.242188 131.605469 C 40.886719 131.566406 35.535156 131.535156 30.179688 131.511719 C 29.914062 131.511719 29.652344 131.570312 29.226562 131.613281 Z M 62.277344 130.320312 C 68.214844 129.667969 74.011719 129.6875 79.972656 130.085938 C 79.878906 128.738281 79.800781 127.59375 79.722656 126.433594 C 78.648438 126.289062 77.738281 126.167969 76.742188 126.039062 C 76.828125 126.285156 76.859375 126.398438 76.898438 126.503906 C 77.335938 127.546875 76.988281 128.085938 75.863281 128.042969 C 75.433594 128.027344 75.003906 127.9375 74.589844 127.828125 C 71.972656 127.160156 69.3125 127.078125 66.621094 127.082031 C 64.578125 127.082031 63.285156 127.949219 62.492188 129.742188 C 62.449219 129.84375 62.414062 129.957031 62.273438 130.324219 Z M 61.722656 133.375 C 62.40625 133.449219 62.941406 133.5625 63.476562 133.550781 C 65.125 133.53125 66.769531 133.445312 68.421875 133.425781 C 71.722656 133.386719 75.023438 133.375 78.320312 133.351562 C 79.800781 133.34375 79.996094 133.117188 79.804688 131.449219 C 73.863281 130.917969 67.894531 130.976562 61.824219 131.289062 C 61.785156 132.042969 61.753906 132.640625 61.722656 133.367188 Z M 30.304688 16.640625 C 31.867188 17.078125 32.039062 16.382812 32.003906 15.234375 C 31.949219 13.199219 29.625 11.246094 27.613281 11.496094 C 26.160156 11.675781 25.097656 12.703125 25.015625 14.09375 C 24.953125 15.195312 25.332031 16.171875 26.011719 17.027344 C 26.324219 17.421875 26.675781 17.546875 27.042969 17.078125 C 26.082031 15.609375 25.996094 14.777344 26.734375 13.992188 C 27.453125 13.234375 28.582031 13.023438 29.425781 13.492188 C 30.464844 14.070312 30.757812 15.078125 30.304688 16.640625 Z M 45.746094 126.980469 C 45.707031 125.253906 44.921875 124.574219 43.394531 124.761719 C 41.988281 124.933594 40.582031 125.070312 39.175781 125.226562 C 37.648438 125.394531 36.121094 125.5625 34.601562 125.765625 C 34.140625 125.828125 33.503906 125.871094 33.871094 126.800781 C 37.8125 125.269531 41.753906 125.195312 45.746094 126.980469 Z M 28.503906 16.964844 C 29.742188 16.917969 30.089844 16.570312 30.054688 15.421875 C 30.027344 14.453125 29.265625 13.71875 28.308594 13.730469 C 27.425781 13.738281 26.621094 14.464844 26.648438 15.234375 C 26.675781 16.1875 27.546875 17 28.503906 16.960938 Z M 47.710938 125.058594 C 47.675781 125.070312 47.621094 125.078125 47.617188 125.097656 C 47.609375 125.15625 47.617188 125.21875 47.617188 125.277344 C 47.660156 125.238281 47.714844 125.199219 47.75 125.152344 C 47.757812 125.136719 47.726562 125.09375 47.707031 125.058594 Z M 47.710938 125.058594 "/>
<path style=" stroke:none;fill-rule:nonzero;fill:rgb(96.078432%,61.56863%,61.56863%);fill-opacity:1;" d="M 21.382812 10.191406 C 22.675781 8.53125 24.433594 8.132812 26.679688 8.332031 C 25.417969 8.804688 24.382812 9.1875 23.28125 9.597656 C 24.148438 10.296875 24.390625 10.257812 28.292969 8.90625 C 28.804688 9.566406 29.363281 10.285156 29.917969 11 C 29.867188 11.066406 29.8125 11.128906 29.757812 11.199219 C 29.390625 11.117188 29.027344 11.027344 28.65625 10.960938 C 26.089844 10.496094 24.023438 12.585938 24.566406 15.113281 C 24.6875 15.679688 24.902344 16.246094 25.171875 16.757812 C 25.722656 17.8125 26.023438 17.851562 27.242188 17.648438 C 28.402344 17.453125 29.582031 17.363281 30.757812 17.3125 C 32.015625 17.253906 32.765625 16.53125 32.699219 15.257812 C 32.628906 14.066406 32.105469 13.054688 31.21875 12.277344 C 30.785156 11.898438 30.667969 11.515625 30.667969 10.960938 C 30.667969 10.113281 30.523438 9.261719 30.4375 8.308594 C 30.972656 8.546875 31.585938 8.828125 32.203125 9.089844 C 34.632812 10.117188 36.726562 11.613281 38.5625 13.492188 C 39.554688 14.503906 40.585938 15.472656 41.609375 16.449219 C 42.363281 17.171875 43.246094 17.632812 44.476562 17.84375 C 44.398438 17.179688 44.335938 16.628906 44.261719 15.992188 C 44.382812 16.015625 44.527344 16.027344 44.652344 16.074219 C 46.484375 16.796875 48.375 17.046875 50.332031 16.804688 C 51.125 16.707031 51.746094 16.992188 52.371094 17.488281 C 55.191406 19.746094 57.03125 22.636719 58.253906 26 C 60.480469 32.152344 61.105469 38.4375 59.835938 44.863281 C 59.535156 46.386719 58.9375 47.851562 58.503906 49.238281 C 57.40625 49.238281 56.472656 49.222656 55.539062 49.238281 C 53.542969 49.28125 51.753906 49.917969 50.207031 51.175781 C 48.558594 52.507812 47.824219 54.230469 48.710938 56.269531 C 48.808594 56.496094 48.773438 56.792969 48.75 57.042969 C 48.683594 57.820312 48.585938 58.585938 48.476562 59.574219 C 47.109375 61.027344 45.132812 61.699219 42.992188 62.207031 C 42.210938 60.910156 41.160156 60.117188 39.550781 60.300781 C 39.332031 59.414062 39.0625 58.507812 38.164062 58.226562 C 37.367188 57.980469 36.488281 57.988281 35.519531 57.867188 C 34.636719 56.632812 33.710938 56.296875 31.984375 56.667969 C 31.609375 56.753906 31.175781 56.863281 30.832031 56.761719 C 28.65625 56.09375 26.996094 57.160156 25.425781 58.382812 C 24.003906 59.496094 22.980469 60.929688 22.6875 62.835938 C 21.230469 62.550781 19.957031 61.984375 18.742188 61.269531 C 12.988281 57.871094 8.828125 53.097656 6.359375 46.902344 C 4.8125 43.011719 4.714844 39.027344 5.917969 35.015625 C 6.296875 33.742188 6.6875 32.46875 7.109375 31.203125 C 7.214844 30.875 7.386719 30.535156 7.621094 30.285156 C 9.109375 28.710938 9.976562 26.773438 10.824219 24.832031 C 12.226562 21.625 13.777344 18.507812 15.84375 15.65625 C 16.886719 14.214844 18.128906 13.125 19.804688 12.503906 C 20.351562 12.296875 20.871094 11.996094 21.375 11.695312 C 21.964844 11.34375 22.265625 10.832031 22.050781 10.050781 C 21.816406 10.09375 21.597656 10.132812 21.378906 10.171875 L 21.394531 10.1875 Z M 20.894531 20.796875 C 21.789062 20.246094 22.671875 19.683594 23.570312 19.140625 C 24.042969 18.855469 24.214844 18.386719 24.109375 17.929688 C 23.855469 16.875 23.621094 15.785156 23.140625 14.820312 C 22.574219 13.671875 21.277344 13.222656 20.003906 13.480469 C 17.738281 13.9375 15.953125 16.566406 16.378906 18.816406 C 16.640625 20.210938 17.921875 21.511719 19.277344 21.761719 C 20.230469 21.933594 20.621094 21.695312 20.90625 20.777344 L 20.890625 20.792969 Z M 18.371094 25.992188 C 18.234375 25.972656 18.097656 25.949219 17.960938 25.929688 C 17.695312 27.015625 17.339844 28.085938 17.183594 29.1875 C 16.484375 34.074219 17.902344 38.148438 22.148438 40.925781 C 23.546875 41.839844 25.109375 42.613281 26.699219 43.105469 C 32.273438 44.832031 37.5625 44.347656 42.113281 40.390625 C 46.039062 36.980469 48.605469 31.054688 46.011719 25.039062 C 44.265625 20.996094 40.9375 19.257812 36.886719 18.445312 C 36.796875 18.425781 36.683594 18.5 36.414062 18.570312 C 38.730469 19.320312 40.554688 20.574219 42.1875 22.144531 C 44.628906 24.503906 45.921875 27.414062 45.550781 30.730469 C 44.957031 36.03125 42.085938 39.894531 36.984375 41.730469 C 31.773438 43.601562 26.90625 42.453125 22.441406 39.363281 C 20.132812 37.761719 18.671875 35.542969 18.320312 32.765625 C 18.105469 31.070312 18.238281 29.328125 18.242188 27.609375 C 18.242188 27.074219 18.320312 26.539062 18.363281 26.003906 Z M 43.796875 50.410156 C 42.695312 50.425781 41.546875 51.324219 41.40625 52.210938 C 41.371094 52.441406 41.460938 52.796875 41.621094 52.917969 C 41.753906 53.015625 42.167969 52.9375 42.308594 52.789062 C 42.859375 52.222656 43.496094 51.949219 44.292969 51.929688 C 44.515625 51.925781 44.878906 51.613281 44.917969 51.394531 C 44.957031 51.179688 44.714844 50.835938 44.507812 50.675781 C 44.277344 50.492188 43.933594 50.460938 43.792969 50.410156 Z M 43.796875 50.410156 "/>
<path style=" stroke:none;fill-rule:nonzero;fill:rgb(90.196079%,90.588236%,90.980393%);fill-opacity:1;" d="M 70.527344 73.554688 C 72.363281 73.816406 74.1875 74.015625 76.035156 73.542969 C 79.84375 72.566406 82.710938 70.292969 84.949219 67.15625 C 85.582031 66.265625 86.140625 65.316406 86.796875 64.296875 C 86.921875 64.597656 87.042969 64.820312 87.101562 65.058594 C 88.023438 68.570312 88.5625 72.140625 88.425781 75.765625 C 88.363281 77.402344 88.136719 79.050781 87.765625 80.648438 C 86.871094 84.488281 84.449219 87.253906 81.210938 89.375 C 78.371094 91.234375 75.316406 92.691406 72.191406 93.988281 C 63.261719 97.699219 54.023438 100.417969 44.507812 102.132812 C 40.992188 102.765625 37.410156 103.042969 33.851562 103.40625 C 32.925781 103.5 31.96875 103.300781 31.027344 103.246094 C 29.265625 103.144531 28.140625 102.210938 27.523438 100.53125 C 30.757812 100.488281 32.925781 98.691406 34.71875 96.242188 C 37.175781 92.890625 39.085938 89.242188 40.378906 85.304688 C 41.519531 81.855469 41.214844 80.027344 39.675781 77.097656 C 39.75 76.960938 39.800781 76.753906 39.929688 76.628906 C 40.875 75.742188 41.234375 74.578125 41.453125 73.378906 C 41.71875 71.917969 41.960938 70.441406 42.09375 68.964844 C 42.164062 68.203125 41.972656 67.421875 41.890625 66.507812 C 42.144531 66.09375 42.566406 65.558594 42.816406 64.957031 C 43.050781 64.394531 43.109375 63.75 43.277344 63.019531 C 45.273438 62.570312 47.308594 61.984375 49.039062 60.632812 C 49.488281 60.972656 49.886719 61.277344 50.132812 61.464844 C 50.257812 62.492188 50.277344 63.386719 50.503906 64.222656 C 50.746094 65.144531 51.597656 65.492188 52.5 65.742188 C 52.402344 67.582031 52.691406 69.203125 54.6875 69.847656 C 56.40625 70.410156 57.953125 70.03125 59.164062 68.910156 C 60.378906 69.234375 61.472656 69.519531 62.554688 69.816406 C 63.089844 69.960938 63.613281 70.136719 64.140625 70.292969 C 65.234375 70.617188 66.222656 71.035156 67.070312 71.914062 C 67.628906 72.496094 68.558594 72.746094 69.335938 73.113281 C 69.722656 73.300781 70.136719 73.417969 70.542969 73.566406 C 69.625 73.6875 69.453125 73.960938 70.015625 74.59375 C 70.742188 75.414062 71.507812 76.214844 72.359375 76.898438 C 75.21875 79.183594 78.128906 81.417969 81.019531 83.667969 C 81.078125 83.601562 81.136719 83.539062 81.203125 83.476562 C 81.125 83.363281 81.058594 83.242188 80.960938 83.144531 C 78.703125 80.925781 76.65625 78.492188 74.042969 76.632812 C 72.777344 75.734375 71.6875 74.585938 70.523438 73.554688 Z M 44.0625 68.496094 C 44.0625 68.496094 44.023438 68.496094 44.007812 68.496094 C 44.0625 69.398438 44.039062 70.308594 44.195312 71.1875 C 44.277344 71.640625 44.585938 72.171875 44.957031 72.429688 C 45.757812 72.988281 46.699219 72.914062 47.539062 72.472656 C 48.371094 72.035156 48.558594 71.230469 48.453125 70.347656 C 48.242188 68.675781 47.578125 67.175781 46.683594 65.777344 C 46.519531 65.519531 46.300781 65.226562 46.03125 65.117188 C 45.746094 65.007812 45.226562 64.964844 45.089844 65.125 C 44.554688 65.742188 43.773438 66.277344 44.050781 67.320312 C 44.148438 67.683594 44.066406 68.097656 44.066406 68.492188 Z M 44.0625 68.496094 "/>
<path style=" stroke:none;fill-rule:nonzero;fill:rgb(90.196079%,90.588236%,90.980393%);fill-opacity:1;" d="M 67.238281 42.007812 C 66.234375 43.996094 65.265625 46.011719 64.203125 47.96875 C 63.613281 49.058594 62.859375 50.0625 62.144531 51.144531 C 61.046875 50.582031 60.121094 50.105469 59.171875 49.617188 C 60.71875 47.058594 61.195312 44.230469 61.429688 41.316406 C 61.949219 34.871094 60.789062 28.75 58.023438 22.914062 C 56.984375 20.707031 55.519531 18.828125 53.574219 17.351562 C 52.207031 16.304688 50.804688 15.300781 49.390625 14.316406 C 48.136719 13.441406 46.925781 12.519531 45.742188 11.101562 C 46.386719 11.160156 46.792969 11.148438 47.179688 11.242188 C 50.933594 12.148438 54.414062 13.628906 57.429688 16.09375 C 60.199219 18.363281 61.996094 21.261719 62.902344 24.695312 C 63.800781 28.078125 64.382812 31.511719 64.601562 35.011719 C 64.628906 35.363281 64.675781 35.714844 64.734375 36.058594 C 64.757812 36.203125 64.847656 36.339844 64.953125 36.46875 C 64.804688 31.816406 64.726562 27.160156 63.289062 22.335938 C 65.667969 23.492188 67.859375 24.441406 69.9375 25.59375 C 75.355469 28.609375 80.117188 32.421875 83.839844 37.429688 C 88.527344 43.738281 89.542969 50.71875 87.5625 58.203125 C 86.5625 61.976562 84.84375 65.390625 82.140625 68.257812 C 80.71875 69.765625 79.046875 70.914062 77.113281 71.683594 C 74.734375 72.628906 72.320312 72.578125 69.949219 71.765625 C 68.585938 71.300781 67.335938 70.519531 66 69.964844 C 65.101562 69.589844 64.144531 69.351562 63.207031 69.066406 C 62.882812 68.96875 62.550781 68.90625 62.097656 68.792969 C 64.355469 66.429688 64.734375 63.625 64.652344 60.710938 C 64.582031 58.320312 64.386719 55.933594 64.25 53.550781 C 64.238281 53.328125 64.25 53.097656 64.25 52.882812 C 66.417969 52.605469 67.863281 53.554688 68.835938 55.332031 C 69.964844 57.386719 70.414062 59.585938 70.117188 61.917969 C 69.8125 64.304688 69.207031 66.613281 68.109375 68.773438 C 68.019531 68.945312 67.992188 69.144531 67.933594 69.332031 L 67.921875 69.324219 C 68.359375 68.679688 68.871094 68.074219 69.214844 67.382812 C 69.804688 66.191406 70.394531 64.976562 70.804688 63.71875 C 71.878906 60.4375 71.5 57.28125 69.597656 54.382812 C 69.09375 53.613281 68.339844 53.003906 67.605469 52.226562 C 70.054688 51.136719 72.710938 50.648438 75.277344 49.632812 C 72.019531 48.945312 69.238281 50.136719 66.390625 51.492188 C 66.230469 50.453125 66.09375 49.578125 65.960938 48.703125 C 65.878906 48.699219 65.800781 48.691406 65.714844 48.6875 C 65.605469 49.75 65.496094 50.816406 65.375 51.964844 C 64.5625 52.046875 63.691406 52.300781 62.820312 51.597656 C 63.03125 51.335938 63.214844 51.101562 63.40625 50.875 C 65.578125 48.308594 66.507812 45.207031 67.210938 42.015625 C 67.273438 41.902344 67.34375 41.792969 67.40625 41.683594 C 67.363281 41.671875 67.316406 41.652344 67.273438 41.636719 C 67.257812 41.765625 67.238281 41.898438 67.226562 42.03125 Z M 67.238281 42.007812 "/>
<path style=" stroke:none;fill-rule:nonzero;fill:rgb(90.196079%,90.588236%,90.980393%);fill-opacity:1;" d="M 11.917969 60.828125 C 11.074219 60.335938 10.230469 59.84375 9.382812 59.351562 C 9.296875 59.285156 9.207031 59.214844 9.121094 59.140625 C 9.023438 59.078125 8.925781 59.019531 8.828125 58.957031 C 8.671875 58.878906 8.515625 58.800781 8.359375 58.722656 C 8.273438 58.640625 8.195312 58.5625 8.113281 58.480469 L 8.128906 58.464844 C 8.210938 58.546875 8.289062 58.625 8.371094 58.710938 C 8.527344 58.785156 8.683594 58.863281 8.84375 58.9375 C 8.894531 59.039062 8.949219 59.140625 9.007812 59.246094 C 9.085938 59.324219 9.167969 59.398438 9.246094 59.476562 C 12.964844 62.847656 16.957031 65.78125 21.757812 67.460938 C 22.421875 67.695312 23.101562 67.898438 23.785156 68.078125 C 24.863281 68.359375 25.222656 68.894531 25.152344 69.972656 C 25.09375 70.933594 25.136719 71.90625 25.136719 73.167969 C 24.226562 73.796875 24.199219 75.128906 23.855469 76.367188 C 23.523438 77.5625 22.945312 78.6875 22.476562 79.847656 C 22.421875 79.949219 22.371094 80.050781 22.316406 80.152344 L 22.277344 80.183594 L 22.296875 80.136719 L 22.617188 79.992188 C 24.136719 78.742188 25.136719 77.226562 25.207031 75.1875 C 25.222656 74.734375 25.519531 74.292969 25.710938 73.777344 C 29.679688 76.96875 34.007812 78.34375 39.011719 77.992188 C 39.726562 79.367188 39.925781 80.917969 39.65625 82.546875 C 39.3125 84.664062 38.421875 86.589844 37.539062 88.515625 C 36.292969 91.230469 34.777344 93.789062 32.921875 96.15625 C 30.851562 98.792969 28.140625 99.621094 25.035156 98.722656 C 15.167969 95.878906 7.492188 90.378906 3.59375 80.519531 C 2.574219 77.941406 2.035156 75.261719 1.785156 72.511719 C 1.296875 67.0625 1.574219 61.621094 1.941406 56.171875 C 2.132812 53.375 2.328125 50.578125 2.664062 47.75 C 2.871094 48.285156 3.070312 48.824219 3.285156 49.359375 C 4.988281 53.605469 7.734375 57.089844 11.128906 60.109375 C 11.390625 60.34375 11.640625 60.59375 11.894531 60.832031 L 11.910156 60.816406 Z M 11.917969 60.828125 "/>
<path style=" stroke:none;fill-rule:nonzero;fill:rgb(79.607844%,25.490198%,58.823532%);fill-opacity:1;" d="M 47.378906 123.964844 C 45.347656 122.9375 43.328125 121.882812 41.285156 120.886719 C 40.023438 120.28125 38.675781 120.054688 37.265625 120.148438 C 35.5 120.261719 33.738281 120.320312 31.96875 120.570312 C 33.292969 120.703125 34.632812 120.761719 35.9375 120.984375 C 37.289062 121.21875 38.636719 121.53125 39.941406 121.953125 C 41.234375 122.378906 42.46875 122.980469 43.730469 123.507812 C 39.773438 123.992188 35.890625 124.46875 32.003906 124.941406 C 30.753906 125.09375 30.570312 124.949219 30.441406 123.695312 C 30.296875 122.222656 30.582031 120.800781 31.085938 119.429688 C 31.636719 117.917969 32.234375 116.425781 32.820312 114.925781 C 33.777344 112.492188 34.148438 109.9375 34.417969 107.367188 C 34.496094 107.324219 34.5625 107.246094 34.621094 107.257812 C 37.394531 107.746094 40.117188 107.167969 42.832031 106.761719 C 48.511719 105.898438 54.175781 104.984375 59.835938 104.003906 C 64.992188 103.113281 70.097656 101.972656 75.09375 100.382812 C 78.144531 99.414062 81.03125 98.097656 83.765625 95.921875 C 83.671875 96.480469 83.628906 96.800781 83.566406 97.113281 C 82.636719 101.5625 81.65625 106 80.800781 110.46875 C 80.292969 113.140625 80.382812 115.855469 80.523438 118.566406 C 80.601562 120.054688 80.699219 121.546875 80.714844 123.035156 C 80.726562 124.679688 80.277344 125.035156 78.617188 124.820312 C 76.867188 124.59375 75.121094 124.28125 73.359375 124.128906 C 70.289062 123.867188 67.324219 124.378906 64.496094 125.625 C 64.285156 125.714844 64.074219 125.800781 63.777344 125.925781 C 63.777344 125.449219 63.738281 125.058594 63.78125 124.679688 C 64.257812 120.746094 62.808594 117.371094 60.757812 114.164062 C 60.230469 113.335938 59.660156 112.53125 59.074219 111.75 C 58.6875 111.234375 58.667969 110.785156 59.039062 110.253906 C 59.5625 109.519531 60.050781 108.753906 60.53125 107.992188 C 60.671875 107.765625 60.734375 107.496094 60.832031 107.242188 C 60.914062 107.160156 60.992188 107.082031 61.078125 107 C 61.078125 107 61.089844 107.011719 61.089844 107.011719 C 61.007812 107.09375 60.929688 107.171875 60.847656 107.257812 C 59.1875 108.972656 57.453125 110.632812 55.878906 112.425781 C 53.628906 114.988281 51.484375 117.652344 49.3125 120.285156 C 48.769531 120.941406 48.285156 121.652344 47.796875 122.300781 C 45.082031 119.96875 42.085938 118.136719 38.855469 116.667969 C 38.789062 116.648438 38.71875 116.628906 38.652344 116.609375 C 38.722656 116.625 38.796875 116.640625 38.871094 116.652344 C 39.164062 116.902344 39.433594 117.183594 39.753906 117.382812 C 42.265625 118.960938 44.476562 120.898438 46.597656 122.945312 C 46.898438 123.238281 47.109375 123.625 47.359375 123.96875 L 47.375 123.960938 Z M 71.246094 121.136719 C 73.070312 120.972656 74.917969 120.894531 76.730469 120.605469 C 78.085938 120.390625 79.179688 119.574219 79.945312 118.414062 C 80.148438 118.113281 80.1875 117.710938 80.296875 117.355469 C 79.835938 117.375 79.582031 117.472656 79.378906 117.636719 C 78.339844 118.5 77.171875 119.082031 75.875 119.480469 C 74.3125 119.957031 72.800781 120.585938 71.269531 121.152344 L 71.226562 121.179688 L 71.257812 121.140625 Z M 71.246094 121.136719 "/>
<path style=" stroke:none;fill-rule:nonzero;fill:rgb(74.509805%,11.764706%,17.647059%);fill-opacity:1;" d="M 11.921875 11.140625 C 11.484375 11.730469 11 12.292969 10.605469 12.917969 C 9.746094 14.269531 8.933594 15.652344 7.917969 16.957031 C 8.085938 16.386719 8.207031 15.792969 8.429688 15.242188 C 9.949219 11.503906 12.210938 8.378906 15.902344 6.484375 C 16.546875 6.152344 17.238281 5.890625 17.929688 5.660156 C 19.417969 5.179688 20.90625 4.652344 22.433594 4.316406 C 23.433594 4.097656 24.335938 4.664062 25.15625 5.226562 L 25.1875 5.261719 L 25.144531 5.238281 C 24.816406 4.722656 24.488281 4.203125 24.097656 3.585938 C 25.363281 1.882812 27.191406 1.035156 29.34375 0.835938 C 31.753906 0.613281 33.996094 1.269531 35.886719 2.695312 C 38.984375 5.03125 41.960938 7.507812 44.339844 10.640625 C 45.738281 12.480469 47.375 14.125 49.398438 15.324219 C 49.765625 15.542969 50.09375 15.820312 50.441406 16.070312 L 50.449219 16.054688 C 48.566406 16.023438 46.695312 15.90625 44.867188 15.335938 C 44.105469 15.097656 43.589844 14.761719 43.199219 14.035156 C 41.734375 11.28125 39.8125 8.867188 37.46875 6.789062 C 35.859375 5.363281 33.917969 4.5 31.996094 3.621094 C 31.863281 3.558594 31.6875 3.589844 31.53125 3.582031 C 31.375 3.503906 31.21875 3.421875 31.0625 3.34375 C 31.003906 3.3125 30.949219 3.28125 30.941406 3.277344 C 30.953125 3.28125 31.011719 3.304688 31.078125 3.328125 C 31.234375 3.40625 31.390625 3.484375 31.546875 3.566406 C 32.917969 4.550781 34.308594 5.5 35.652344 6.515625 C 39.21875 9.207031 41.777344 12.6875 43.597656 16.726562 C 43.640625 16.820312 43.648438 16.933594 43.710938 17.230469 C 42.308594 15.847656 40.984375 14.640625 39.773438 13.332031 C 36.824219 10.136719 33.09375 8.289062 29.027344 7.007812 C 28.765625 6.925781 28.488281 6.921875 28.21875 6.875 L 28.171875 6.832031 L 28.226562 6.871094 C 28.484375 7.203125 28.777344 7.507812 28.996094 7.863281 C 29.3125 8.378906 29.578125 8.929688 29.867188 9.464844 L 29.875 9.457031 C 27.738281 6.972656 23.957031 6.847656 21.613281 9.175781 C 21.417969 9.367188 21.210938 9.554688 20.988281 9.710938 C 16.566406 12.839844 13.550781 17.078125 11.207031 21.875 C 9.917969 24.515625 8.523438 27.105469 7.179688 29.710938 L 7.195312 29.726562 C 7.597656 27.375 7.988281 25.027344 8.398438 22.675781 C 8.832031 20.171875 9.710938 17.828125 11.140625 15.730469 C 12.664062 13.5 14.28125 11.332031 15.855469 9.128906 C 15.988281 8.945312 16.058594 8.714844 16.15625 8.507812 L 16.222656 8.46875 L 16.167969 8.515625 C 11.214844 12.996094 7.523438 18.140625 7.335938 25.132812 C 7.335938 25.25 7.328125 25.367188 7.316406 25.484375 C 7.316406 25.503906 7.289062 25.523438 7.199219 25.632812 C 6.90625 23.371094 7.171875 21.242188 8.039062 19.253906 C 9.039062 16.957031 10.210938 14.738281 11.296875 12.484375 C 11.519531 12.03125 11.703125 11.558594 11.902344 11.097656 C 12.058594 10.863281 12.214844 10.628906 12.378906 10.390625 L 12.417969 10.363281 L 12.390625 10.402344 C 12.234375 10.632812 12.078125 10.871094 11.921875 11.105469 Z M 11.921875 11.140625 "/>
<path style=" stroke:none;fill-rule:nonzero;fill:rgb(96.078432%,61.56863%,61.56863%);fill-opacity:1;" d="M 56.035156 61.582031 C 54.683594 62.515625 53.707031 63.804688 52.800781 65.15625 C 51.246094 64.382812 50.675781 63.027344 51.515625 61.605469 C 52.078125 60.644531 52.945312 59.867188 53.703125 59.03125 C 53.976562 58.730469 54.324219 58.5 54.539062 58.121094 C 52.742188 58.5 51.621094 59.746094 50.640625 61.171875 C 48.488281 58.480469 49.273438 56.007812 52.882812 53.914062 C 51.832031 53.550781 51.433594 53.726562 49.164062 55.636719 C 49.203125 55.074219 49.152344 54.660156 49.269531 54.300781 C 49.875 52.417969 51.320312 51.375 53.09375 50.738281 C 55.125 50.007812 57.210938 49.96875 59.222656 50.722656 C 60.539062 51.21875 61.769531 51.945312 63.039062 52.566406 C 63.480469 52.78125 63.636719 53.121094 63.632812 53.609375 C 63.617188 56.59375 63.65625 59.574219 63.625 62.558594 C 63.605469 64.484375 62.925781 66.238281 62.007812 67.90625 C 61.753906 68.371094 61.433594 68.621094 60.882812 68.554688 C 60.339844 68.488281 59.90625 68.324219 59.71875 67.738281 C 59.59375 67.339844 59.378906 66.964844 59.167969 66.511719 C 58.265625 66.820312 57.394531 67.117188 56.335938 67.480469 C 57.175781 67.945312 57.835938 67.625 58.6875 67.488281 C 58.453125 67.820312 58.363281 68.0625 58.179688 68.191406 C 57.144531 68.953125 55.984375 69.042969 54.8125 68.621094 C 53.589844 68.191406 53.105469 66.675781 53.820312 65.335938 C 54.3125 64.414062 55.019531 63.601562 55.640625 62.738281 C 55.859375 62.433594 56.101562 62.136719 56.328125 61.839844 C 56.230469 61.75 56.132812 61.664062 56.035156 61.574219 Z M 56.035156 61.582031 "/>
<path style=" stroke:none;fill-rule:nonzero;fill:rgb(96.078432%,61.56863%,61.56863%);fill-opacity:1;" d="M 29.988281 57.3125 C 28.746094 58.496094 27.5625 59.613281 26.386719 60.753906 C 26.308594 60.832031 26.347656 61.027344 26.296875 61.453125 C 26.773438 61.039062 27.035156 60.761719 27.339844 60.5625 C 28.644531 59.695312 29.933594 58.796875 31.285156 58.023438 C 32.511719 57.320312 33.761719 57.433594 35 58.335938 C 33.582031 59.46875 31.898438 60.277344 31.046875 61.910156 C 31.109375 61.984375 31.175781 62.058594 31.238281 62.125 C 31.4375 61.984375 31.636719 61.839844 31.84375 61.703125 C 33.046875 60.890625 34.199219 59.988281 35.460938 59.296875 C 36.785156 58.578125 38.109375 58.757812 38.703125 60.476562 C 37.5625 61.15625 36.332031 61.773438 35.664062 63.007812 L 35.820312 63.269531 C 36.09375 63.144531 36.386719 63.035156 36.644531 62.878906 C 37.3125 62.476562 37.9375 61.976562 38.640625 61.648438 C 39.90625 61.070312 40.914062 61.253906 41.542969 62.050781 C 42.273438 62.980469 42.253906 64.457031 41.472656 65.445312 C 41.285156 65.683594 41.03125 65.875 40.640625 66.242188 C 40.746094 65.667969 40.808594 65.304688 40.878906 64.933594 C 40.796875 64.894531 40.710938 64.855469 40.628906 64.816406 C 40.25 65.445312 39.867188 66.074219 39.355469 66.917969 C 40.09375 66.886719 40.609375 66.859375 41.234375 66.832031 C 41.597656 67.824219 41.566406 68.8125 41.226562 69.785156 C 40.980469 70.480469 40.351562 70.707031 39.703125 70.671875 C 38.175781 70.59375 36.632812 70.546875 35.136719 70.289062 C 33.242188 69.957031 31.390625 69.40625 29.507812 68.984375 C 28.140625 68.671875 26.757812 68.414062 25.132812 68.078125 C 24.363281 66.738281 23.585938 65.128906 23.492188 63.285156 C 23.46875 62.753906 23.523438 62.148438 23.757812 61.683594 C 25.039062 59.101562 27.164062 57.6875 29.996094 57.3125 Z M 29.988281 57.3125 "/>
<path style=" stroke:none;fill-rule:nonzero;fill:rgb(90.196079%,90.588236%,90.980393%);fill-opacity:1;" d="M 85.660156 87.691406 C 85.769531 91.40625 84.140625 94.15625 81.015625 96.109375 C 78.390625 97.761719 75.519531 98.800781 72.554688 99.632812 C 64.589844 101.863281 56.453125 103.285156 48.296875 104.605469 C 45.074219 105.125 41.851562 105.617188 38.621094 106.097656 C 37.921875 106.203125 37.214844 106.261719 36.507812 106.273438 C 34.65625 106.296875 34.144531 106.070312 32.5625 104.511719 C 33.527344 104.511719 34.308594 104.546875 35.089844 104.507812 C 40.886719 104.222656 46.585938 103.289062 52.21875 101.925781 C 57.457031 100.65625 62.625 99.136719 67.703125 97.324219 C 72.191406 95.722656 76.585938 93.882812 80.667969 91.40625 C 82.4375 90.335938 84.015625 88.941406 85.675781 87.699219 L 85.664062 87.691406 Z M 85.660156 87.691406 "/>
<path style=" stroke:none;fill-rule:nonzero;fill:rgb(90.196079%,90.588236%,90.980393%);fill-opacity:1;" d="M 5.996094 32.09375 C 5.511719 33.746094 4.910156 35.378906 4.570312 37.054688 C 3.714844 41.277344 4.382812 45.34375 6.261719 49.183594 C 8.953125 54.675781 12.859375 59.101562 18.226562 62.140625 C 19.582031 62.90625 21.085938 63.402344 22.753906 64.125 C 22.824219 64.359375 22.964844 64.867188 23.144531 65.488281 C 20.347656 64.773438 17.925781 63.621094 15.667969 62.105469 C 11.191406 59.109375 7.433594 55.445312 4.992188 50.566406 C 1.8125 44.214844 1.832031 37.820312 4.714844 31.390625 C 5.265625 30.15625 5.964844 28.988281 6.730469 27.847656 C 6.90625 29.484375 5.988281 30.773438 5.363281 32.355469 C 5.695312 32.226562 5.851562 32.164062 6.007812 32.105469 Z M 5.996094 32.09375 "/>
<path style=" stroke:none;fill-rule:nonzero;fill:rgb(90.196079%,90.588236%,90.980393%);fill-opacity:1;" d="M 41.132812 71.203125 C 40.78125 73.0625 40.328125 74.644531 39.164062 75.960938 C 38.691406 76.503906 38.195312 76.8125 37.445312 76.773438 C 34.296875 76.609375 31.3125 75.875 28.53125 74.355469 C 28.363281 74.261719 28.207031 74.136719 28.035156 74.039062 C 26.269531 73.003906 25.773438 71.457031 26.207031 69.363281 C 26.851562 69.5 27.488281 69.625 28.113281 69.761719 C 30.871094 70.371094 33.625 71.027344 36.398438 71.578125 C 37.914062 71.878906 39.453125 71.875 41.128906 71.199219 Z M 41.132812 71.203125 "/>
<path style=" stroke:none;fill-rule:nonzero;fill:rgb(54.11765%,36.470589%,23.137255%);fill-opacity:1;" d="M 46.1875 125.867188 C 46.40625 126.109375 46.703125 126.324219 46.828125 126.613281 C 47.339844 127.789062 47.453125 129.027344 47.265625 130.414062 C 46.9375 130.425781 46.601562 130.464844 46.265625 130.460938 C 41.621094 130.398438 36.976562 130.304688 32.332031 130.277344 C 31.363281 130.273438 30.394531 130.492188 29.289062 130.621094 C 29.1875 129.167969 29.46875 127.800781 30.257812 126.542969 C 30.363281 126.375 30.617188 126.203125 30.8125 126.1875 C 31.46875 126.144531 32.125 126.171875 32.765625 126.171875 C 33.132812 128.050781 33.128906 128.023438 35 127.453125 C 38.496094 126.398438 41.902344 126.605469 45.210938 128.222656 C 45.558594 128.394531 46.097656 128.511719 46.390625 128.355469 C 46.878906 128.097656 46.71875 127.554688 46.546875 127.09375 C 46.402344 126.695312 46.308594 126.269531 46.195312 125.859375 L 46.183594 125.871094 Z M 46.1875 125.867188 "/>
<path style=" stroke:none;fill-rule:nonzero;fill:rgb(54.11765%,36.470589%,23.137255%);fill-opacity:1;" d="M 62.277344 130.316406 C 62.414062 129.945312 62.449219 129.832031 62.496094 129.730469 C 63.285156 127.941406 64.578125 127.078125 66.625 127.074219 C 69.316406 127.074219 71.976562 127.152344 74.59375 127.820312 C 75.015625 127.925781 75.445312 128.019531 75.871094 128.03125 C 76.992188 128.070312 77.339844 127.535156 76.90625 126.496094 C 76.859375 126.394531 76.832031 126.28125 76.75 126.027344 C 77.746094 126.160156 78.652344 126.28125 79.726562 126.421875 C 79.804688 127.585938 79.882812 128.734375 79.976562 130.078125 C 74.019531 129.679688 68.222656 129.652344 62.28125 130.3125 Z M 62.277344 130.316406 "/>
<path style=" stroke:none;fill-rule:nonzero;fill:rgb(100%,100%,100%);fill-opacity:1;" d="M 30.304688 16.640625 C 30.757812 15.078125 30.464844 14.070312 29.425781 13.492188 C 28.582031 13.023438 27.453125 13.234375 26.734375 13.992188 C 25.996094 14.769531 26.082031 15.601562 27.042969 17.078125 C 26.675781 17.550781 26.320312 17.421875 26.011719 17.027344 C 25.332031 16.171875 24.949219 15.191406 25.015625 14.09375 C 25.097656 12.703125 26.160156 11.675781 27.613281 11.496094 C 29.632812 11.246094 31.949219 13.199219 32.003906 15.234375 C 32.035156 16.382812 31.867188 17.082031 30.304688 16.640625 Z M 30.304688 16.640625 "/>
<path style=" stroke:none;fill-rule:nonzero;fill:rgb(34.509805%,34.901962%,35.686275%);fill-opacity:1;" d="M 45.746094 126.988281 C 41.753906 125.199219 37.8125 125.273438 33.871094 126.804688 C 33.503906 125.871094 34.132812 125.832031 34.601562 125.769531 C 36.121094 125.566406 37.648438 125.398438 39.175781 125.230469 C 40.582031 125.070312 41.992188 124.9375 43.394531 124.765625 C 44.921875 124.582031 45.707031 125.257812 45.746094 126.988281 Z M 45.746094 126.988281 "/>
<path style=" stroke:none;fill-rule:nonzero;fill:rgb(34.509805%,34.901962%,35.686275%);fill-opacity:1;" d="M 66.535156 126.105469 C 68.988281 125.339844 71.492188 125.347656 74.019531 125.554688 C 74.527344 125.597656 75.039062 125.664062 75.539062 125.753906 C 76.109375 125.863281 76.34375 126.191406 76.039062 126.953125 C 72.9375 126.117188 69.75 125.894531 66.527344 126.089844 Z M 66.535156 126.105469 "/>
<path style=" stroke:none;fill-rule:nonzero;fill:url(#radial0);" d="M 28.503906 16.964844 C 27.546875 17.003906 26.675781 16.191406 26.648438 15.238281 C 26.621094 14.46875 27.425781 13.742188 28.308594 13.734375 C 29.265625 13.722656 30.027344 14.460938 30.054688 15.429688 C 30.089844 16.578125 29.742188 16.921875 28.503906 16.972656 Z M 27.289062 14.492188 C 26.707031 15.324219 27.425781 15.648438 27.730469 16.023438 C 27.902344 16.230469 28.410156 16.390625 28.621094 16.285156 C 28.957031 16.113281 29.253906 15.738281 29.40625 15.378906 C 29.476562 15.214844 29.230469 14.78125 29.015625 14.660156 C 28.714844 14.484375 28.308594 14.484375 28.054688 14.429688 C 27.9375 14.757812 27.855469 14.996094 27.6875 15.480469 C 27.488281 14.984375 27.414062 14.800781 27.292969 14.492188 Z M 27.289062 14.492188 "/>
<path style=" stroke:none;fill-rule:nonzero;fill:rgb(74.509805%,11.764706%,17.647059%);fill-opacity:1;" d="M 15.214844 4.074219 C 15.878906 4.527344 16.546875 4.980469 17.25 5.457031 C 16.234375 5.457031 15.625 4.914062 15.230469 4.058594 L 15.214844 4.070312 Z M 15.214844 4.074219 "/>
<path style=" stroke:none;fill-rule:nonzero;fill:rgb(100%,100%,100%);fill-opacity:1;" d="M 21.847656 66.261719 C 22.234375 66.261719 22.632812 66.203125 23.003906 66.285156 C 23.269531 66.34375 23.488281 66.589844 23.726562 66.75 C 23.667969 66.851562 23.609375 66.957031 23.550781 67.0625 C 22.988281 66.789062 22.421875 66.515625 21.863281 66.242188 L 21.847656 66.257812 Z M 21.847656 66.261719 "/>
<path style=" stroke:none;fill-rule:nonzero;fill:rgb(100%,100%,100%);fill-opacity:1;" d="M 20.890625 10.652344 C 20.65625 10.808594 20.421875 10.960938 20.1875 11.117188 L 20.199219 11.128906 L 20.90625 10.667969 Z M 20.890625 10.652344 "/>
<path style=" stroke:none;fill-rule:nonzero;fill:rgb(100%,100%,100%);fill-opacity:1;" d="M 47.710938 125.058594 C 47.726562 125.089844 47.765625 125.136719 47.753906 125.152344 C 47.71875 125.199219 47.667969 125.238281 47.621094 125.277344 C 47.621094 125.21875 47.613281 125.15625 47.621094 125.097656 C 47.621094 125.082031 47.679688 125.074219 47.714844 125.058594 Z M 47.710938 125.058594 "/>
<path style=" stroke:none;fill-rule:nonzero;fill:rgb(100%,100%,100%);fill-opacity:1;" d="M 66.527344 126.089844 C 66.414062 126.144531 66.308594 126.199219 66.195312 126.25 C 66.183594 126.226562 66.175781 126.203125 66.164062 126.179688 C 66.289062 126.15625 66.414062 126.128906 66.535156 126.105469 Z M 66.527344 126.089844 "/>
<path style=" stroke:none;fill-rule:nonzero;fill:rgb(100%,100%,100%);fill-opacity:1;" d="M 21.855469 66.246094 L 21.457031 66.210938 C 21.464844 66.171875 21.480469 66.132812 21.492188 66.097656 C 21.609375 66.152344 21.726562 66.210938 21.847656 66.261719 L 21.863281 66.246094 Z M 21.855469 66.246094 "/>
<path style=" stroke:none;fill-rule:nonzero;fill:rgb(100%,100%,100%);fill-opacity:1;" d="M 15.230469 4.0625 C 15.152344 3.90625 15.074219 3.746094 14.992188 3.589844 C 15.070312 3.757812 15.140625 3.914062 15.21875 4.074219 L 15.234375 4.0625 Z M 15.230469 4.0625 "/>
<path style=" stroke:none;fill-rule:nonzero;fill:rgb(100%,100%,100%);fill-opacity:1;" d="M 12.148438 61.085938 C 12.304688 61.15625 12.464844 61.234375 12.621094 61.308594 C 12.464844 61.226562 12.3125 61.148438 12.15625 61.070312 L 12.144531 61.085938 Z M 12.148438 61.085938 "/>
<path style=" stroke:none;fill-rule:nonzero;fill:rgb(100%,100%,100%);fill-opacity:1;" d="M 50.441406 16.085938 C 50.5 16.109375 50.5625 16.136719 50.542969 16.128906 C 50.558594 16.136719 50.503906 16.105469 50.449219 16.070312 Z M 50.441406 16.085938 "/>
<path style=" stroke:none;fill-rule:nonzero;fill:rgb(100%,100%,100%);fill-opacity:1;" d="M 12.164062 61.074219 C 12.085938 60.992188 12 60.914062 11.921875 60.832031 L 11.910156 60.84375 C 11.988281 60.929688 12.070312 61.011719 12.148438 61.089844 Z M 12.164062 61.074219 "/>
<path style=" stroke:none;fill-rule:nonzero;fill:rgb(100%,100%,100%);fill-opacity:1;" d="M 19.957031 11.363281 C 20.035156 11.285156 20.117188 11.207031 20.195312 11.128906 L 20.179688 11.117188 C 20.101562 11.195312 20.023438 11.277344 19.945312 11.355469 L 19.953125 11.355469 Z M 19.957031 11.363281 "/>
<path style=" stroke:none;fill-rule:nonzero;fill:rgb(100%,100%,100%);fill-opacity:1;" d="M 12.621094 61.3125 L 12.652344 61.347656 L 12.625 61.308594 Z M 12.621094 61.3125 "/>
<path style=" stroke:none;fill-rule:nonzero;fill:rgb(100%,100%,100%);fill-opacity:1;" d="M 46.203125 125.851562 L 46.132812 125.808594 L 46.1875 125.867188 Z M 46.203125 125.851562 "/>
<path style=" stroke:none;fill-rule:nonzero;fill:rgb(100%,100%,100%);fill-opacity:1;" d="M 47.367188 123.972656 L 47.414062 124.023438 L 47.378906 123.964844 Z M 47.367188 123.972656 "/>
<path style=" stroke:none;fill-rule:nonzero;fill:rgb(100%,100%,100%);fill-opacity:1;" d="M 14.992188 3.589844 L 14.957031 3.558594 L 14.992188 3.597656 Z M 14.992188 3.589844 "/>
<path style=" stroke:none;fill-rule:nonzero;fill:rgb(100%,100%,100%);fill-opacity:1;" d="M 85.671875 87.699219 L 85.660156 87.691406 Z M 85.671875 87.699219 "/>
<path style=" stroke:none;fill-rule:nonzero;fill:rgb(100%,100%,100%);fill-opacity:1;" d="M 29.871094 9.484375 L 29.878906 9.476562 Z M 29.871094 9.484375 "/>
<path style=" stroke:none;fill-rule:nonzero;fill:rgb(100%,100%,100%);fill-opacity:1;" d="M 21.144531 10.425781 C 21.222656 10.347656 21.300781 10.265625 21.378906 10.1875 L 21.363281 10.171875 C 21.285156 10.25 21.207031 10.328125 21.128906 10.410156 Z M 21.144531 10.425781 "/>
<path style=" stroke:none;fill-rule:nonzero;fill:rgb(100%,100%,100%);fill-opacity:1;" d="M 20.90625 10.667969 L 21.148438 10.425781 L 21.132812 10.410156 C 21.050781 10.492188 20.972656 10.570312 20.890625 10.652344 Z M 20.90625 10.667969 "/>
<path style=" stroke:none;fill-rule:nonzero;fill:rgb(100%,100%,100%);fill-opacity:1;" d="M 19.953125 11.359375 L 19.925781 11.386719 L 19.957031 11.363281 Z M 19.953125 11.359375 "/>
<path style=" stroke:none;fill-rule:nonzero;fill:rgb(100%,100%,100%);fill-opacity:1;" d="M 7.1875 29.738281 L 7.128906 29.789062 L 7.199219 29.746094 Z M 7.1875 29.738281 "/>
<path style=" stroke:none;fill-rule:nonzero;fill:rgb(100%,100%,100%);fill-opacity:1;" d="M 6.007812 32.105469 L 6 32.097656 Z M 6.007812 32.105469 "/>
<path style=" stroke:none;fill-rule:nonzero;fill:rgb(0%,0%,0%);fill-opacity:1;" d="M 18.371094 25.992188 C 18.324219 26.53125 18.246094 27.066406 18.246094 27.601562 C 18.246094 29.316406 18.117188 31.058594 18.324219 32.753906 C 18.675781 35.53125 20.132812 37.753906 22.449219 39.355469 C 26.910156 42.445312 31.78125 43.59375 36.992188 41.71875 C 42.089844 39.890625 44.960938 36.023438 45.558594 30.71875 C 45.929688 27.410156 44.632812 24.496094 42.191406 22.132812 C 40.5625 20.558594 38.734375 19.3125 36.417969 18.5625 C 36.683594 18.488281 36.796875 18.417969 36.894531 18.4375 C 40.941406 19.25 44.273438 20.984375 46.015625 25.03125 C 48.609375 31.046875 46.046875 36.96875 42.117188 40.378906 C 37.566406 44.335938 32.277344 44.824219 26.707031 43.097656 C 25.113281 42.601562 23.550781 41.832031 22.15625 40.914062 C 17.90625 38.136719 16.488281 34.066406 17.1875 29.175781 C 17.34375 28.078125 17.699219 27.007812 17.964844 25.921875 C 18.101562 25.941406 18.238281 25.964844 18.375 25.984375 Z M 18.371094 25.992188 "/>
<path style=" stroke:none;fill-rule:nonzero;fill:rgb(0%,0%,0%);fill-opacity:1;" d="M 20.90625 20.78125 C 20.621094 21.703125 20.226562 21.941406 19.277344 21.765625 C 17.921875 21.511719 16.640625 20.210938 16.378906 18.820312 C 15.953125 16.570312 17.738281 13.9375 20.003906 13.484375 C 21.277344 13.226562 22.574219 13.675781 23.140625 14.824219 C 23.613281 15.789062 23.847656 16.878906 24.109375 17.933594 C 24.21875 18.390625 24.050781 18.859375 23.570312 19.144531 C 22.671875 19.6875 21.785156 20.246094 20.894531 20.800781 C 20.925781 20.578125 20.953125 20.359375 20.984375 20.144531 C 19.257812 18.960938 18.925781 17.609375 20.050781 16.363281 C 20.796875 15.535156 21.679688 15.160156 22.789062 15.609375 L 22.78125 15.617188 C 22.539062 14.609375 21.808594 14.246094 20.859375 14.214844 C 18.570312 14.148438 16.496094 16.921875 17.242188 19.078125 C 17.5625 20.011719 18.199219 20.664062 19.164062 21.015625 C 19.808594 21.25 20.382812 21.273438 20.90625 20.785156 Z M 21.515625 19.609375 C 22.023438 19.339844 22.480469 19.121094 22.910156 18.855469 C 23.132812 18.71875 23.367188 18.527344 23.464844 18.304688 C 23.722656 17.714844 23.359375 16.621094 22.859375 16.300781 C 22.246094 15.910156 21.367188 15.996094 20.78125 16.507812 C 19.566406 17.574219 19.835938 18.796875 21.511719 19.609375 Z M 21.515625 19.609375 "/>
<path style=" stroke:none;fill-rule:nonzero;fill:rgb(0%,0%,0%);fill-opacity:1;" d="M 43.792969 50.410156 C 43.933594 50.460938 44.277344 50.492188 44.507812 50.675781 C 44.714844 50.835938 44.957031 51.179688 44.917969 51.394531 C 44.878906 51.613281 44.515625 51.925781 44.292969 51.929688 C 43.492188 51.949219 42.859375 52.214844 42.308594 52.789062 C 42.167969 52.9375 41.753906 53.019531 41.621094 52.917969 C 41.460938 52.796875 41.371094 52.445312 41.40625 52.210938 C 41.542969 51.324219 42.695312 50.421875 43.796875 50.410156 Z M 43.792969 50.410156 "/>
<path style=" stroke:none;fill-rule:nonzero;fill:rgb(0%,0%,0%);fill-opacity:1;" d="M 70.527344 73.554688 C 71.695312 74.589844 72.78125 75.734375 74.046875 76.632812 C 76.660156 78.496094 78.707031 80.929688 80.96875 83.144531 C 81.066406 83.238281 81.128906 83.363281 81.207031 83.476562 C 81.148438 83.539062 81.089844 83.601562 81.027344 83.667969 C 78.136719 81.414062 75.226562 79.183594 72.363281 76.898438 C 71.507812 76.214844 70.746094 75.414062 70.019531 74.59375 C 69.457031 73.960938 69.628906 73.6875 70.546875 73.566406 Z M 70.527344 73.554688 "/>
<path style=" stroke:none;fill-rule:nonzero;fill:rgb(0%,0%,0%);fill-opacity:1;" d="M 44.066406 68.496094 C 44.066406 68.101562 44.148438 67.6875 44.050781 67.324219 C 43.769531 66.28125 44.554688 65.75 45.089844 65.128906 C 45.230469 64.96875 45.753906 65.011719 46.03125 65.125 C 46.292969 65.230469 46.519531 65.523438 46.683594 65.78125 C 47.578125 67.183594 48.246094 68.679688 48.453125 70.351562 C 48.566406 71.230469 48.375 72.039062 47.539062 72.476562 C 46.699219 72.914062 45.757812 72.988281 44.957031 72.433594 C 44.585938 72.175781 44.277344 71.644531 44.195312 71.191406 C 44.039062 70.3125 44.058594 69.402344 44.007812 68.5 C 44.027344 68.5 44.046875 68.5 44.0625 68.5 Z M 45.363281 65.558594 C 45.042969 66.066406 44.664062 66.394531 44.667969 66.71875 C 44.667969 68.046875 44.769531 69.371094 44.867188 70.699219 C 44.941406 71.648438 45.375 71.972656 46.367188 71.898438 C 47.265625 71.832031 47.65625 71.457031 47.539062 70.511719 C 47.324219 68.785156 46.699219 67.195312 45.367188 65.558594 Z M 45.363281 65.558594 "/>
<path style=" stroke:none;fill-rule:nonzero;fill:rgb(0%,0%,0%);fill-opacity:1;" d="M 67.238281 42.007812 C 67.253906 41.875 67.273438 41.742188 67.289062 41.613281 C 67.332031 41.625 67.375 41.644531 67.421875 41.660156 C 67.355469 41.773438 67.289062 41.882812 67.226562 41.992188 L 67.238281 42 Z M 67.238281 42.007812 "/>
<path style=" stroke:none;fill-rule:nonzero;fill:rgb(0%,0%,0%);fill-opacity:1;" d="M 67.9375 69.308594 L 67.949219 69.320312 Z M 67.9375 69.308594 "/>
<path style=" stroke:none;fill-rule:nonzero;fill:rgb(0%,0%,0%);fill-opacity:1;" d="M 8.851562 58.941406 C 8.695312 58.863281 8.539062 58.785156 8.382812 58.714844 L 8.367188 58.730469 C 8.523438 58.804688 8.679688 58.882812 8.835938 58.960938 L 8.851562 58.949219 Z M 8.851562 58.941406 "/>
<path style=" stroke:none;fill-rule:nonzero;fill:rgb(0%,0%,0%);fill-opacity:1;" d="M 22.304688 80.148438 L 22.285156 80.191406 L 22.324219 80.167969 Z M 22.304688 80.148438 "/>
<path style=" stroke:none;fill-rule:nonzero;fill:rgb(0%,0%,0%);fill-opacity:1;" d="M 22.628906 80 L 22.304688 80.148438 L 22.320312 80.167969 C 22.375 80.066406 22.429688 79.960938 22.480469 79.859375 C 22.53125 79.910156 22.578125 79.953125 22.625 80 Z M 22.628906 80 "/>
<path style=" stroke:none;fill-rule:nonzero;fill:rgb(0%,0%,0%);fill-opacity:1;" d="M 8.136719 58.46875 L 8.125 58.484375 Z M 8.136719 58.46875 "/>
<path style=" stroke:none;fill-rule:nonzero;fill:rgb(0%,0%,0%);fill-opacity:1;" d="M 8.382812 58.714844 C 8.300781 58.632812 8.222656 58.554688 8.136719 58.46875 L 8.125 58.484375 C 8.207031 58.566406 8.285156 58.644531 8.367188 58.730469 Z M 8.382812 58.714844 "/>
<path style=" stroke:none;fill-rule:nonzero;fill:rgb(0%,0%,0%);fill-opacity:1;" d="M 9.011719 59.253906 C 8.960938 59.152344 8.90625 59.050781 8.847656 58.949219 L 8.832031 58.960938 C 8.929688 59.027344 9.027344 59.082031 9.121094 59.148438 C 9.082031 59.1875 9.046875 59.21875 9.007812 59.253906 Z M 9.011719 59.253906 "/>
<path style=" stroke:none;fill-rule:nonzero;fill:rgb(0%,0%,0%);fill-opacity:1;" d="M 9.125 59.140625 C 9.214844 59.210938 9.300781 59.277344 9.390625 59.351562 C 9.34375 59.394531 9.300781 59.4375 9.257812 59.488281 C 9.179688 59.410156 9.097656 59.332031 9.019531 59.253906 C 9.058594 59.21875 9.089844 59.179688 9.128906 59.148438 Z M 9.125 59.140625 "/>
<path style=" stroke:none;fill-rule:nonzero;fill:rgb(0%,0%,0%);fill-opacity:1;" d="M 71.257812 121.152344 C 72.792969 120.585938 74.304688 119.957031 75.863281 119.480469 C 77.167969 119.082031 78.332031 118.503906 79.371094 117.636719 C 79.570312 117.472656 79.828125 117.375 80.289062 117.355469 C 80.175781 117.710938 80.136719 118.113281 79.9375 118.414062 C 79.171875 119.574219 78.082031 120.398438 76.71875 120.605469 C 74.90625 120.886719 73.066406 120.964844 71.234375 121.136719 L 71.25 121.152344 Z M 71.257812 121.152344 "/>
<path style=" stroke:none;fill-rule:nonzero;fill:rgb(0%,0%,0%);fill-opacity:1;" d="M 38.875 116.660156 C 38.800781 116.644531 38.730469 116.628906 38.65625 116.613281 C 38.722656 116.632812 38.792969 116.652344 38.859375 116.671875 L 38.871094 116.660156 Z M 38.875 116.660156 "/>
<path style=" stroke:none;fill-rule:nonzero;fill:rgb(0%,0%,0%);fill-opacity:1;" d="M 71.246094 121.136719 L 71.214844 121.179688 L 71.257812 121.152344 Z M 71.246094 121.136719 "/>
<path style=" stroke:none;fill-rule:nonzero;fill:rgb(0%,0%,0%);fill-opacity:1;" d="M 61.097656 107.019531 L 61.082031 107.003906 Z M 61.097656 107.019531 "/>
<path style=" stroke:none;fill-rule:nonzero;fill:rgb(0%,0%,0%);fill-opacity:1;" d="M 60.851562 107.257812 C 60.933594 107.171875 61.011719 107.09375 61.097656 107.011719 C 61.097656 107.011719 61.082031 107 61.082031 107 C 61 107.082031 60.921875 107.160156 60.835938 107.242188 Z M 60.851562 107.257812 "/>
<path style=" stroke:none;fill-rule:nonzero;fill:rgb(0%,0%,0%);fill-opacity:1;" d="M 12.378906 10.421875 C 12.222656 10.652344 12.066406 10.886719 11.902344 11.125 L 11.917969 11.140625 C 12.074219 10.90625 12.230469 10.667969 12.386719 10.433594 L 12.371094 10.425781 Z M 12.378906 10.421875 "/>
<path style=" stroke:none;fill-rule:nonzero;fill:rgb(0%,0%,0%);fill-opacity:1;" d="M 31.066406 3.359375 C 31.222656 3.4375 31.378906 3.519531 31.535156 3.597656 L 31.550781 3.582031 C 31.394531 3.503906 31.238281 3.425781 31.082031 3.34375 L 31.070312 3.359375 Z M 31.066406 3.359375 "/>
<path style=" stroke:none;fill-rule:nonzero;fill:rgb(0%,0%,0%);fill-opacity:1;" d="M 31.078125 3.347656 C 31.011719 3.324219 30.953125 3.300781 30.941406 3.292969 C 30.949219 3.300781 31.007812 3.332031 31.0625 3.363281 L 31.070312 3.347656 Z M 31.078125 3.347656 "/>
<path style=" stroke:none;fill-rule:nonzero;fill:rgb(0%,0%,0%);fill-opacity:1;" d="M 25.144531 5.246094 L 25.183594 5.265625 L 25.152344 5.230469 Z M 25.144531 5.246094 "/>
<path style=" stroke:none;fill-rule:nonzero;fill:rgb(0%,0%,0%);fill-opacity:1;" d="M 28.230469 6.886719 L 28.175781 6.847656 L 28.226562 6.890625 Z M 28.230469 6.886719 "/>
<path style=" stroke:none;fill-rule:nonzero;fill:rgb(0%,0%,0%);fill-opacity:1;" d="M 16.171875 8.546875 L 16.226562 8.496094 L 16.164062 8.53125 Z M 16.171875 8.546875 "/>
<path style=" stroke:none;fill-rule:nonzero;fill:rgb(0%,0%,0%);fill-opacity:1;" d="M 12.390625 10.433594 L 12.417969 10.394531 L 12.378906 10.421875 Z M 12.390625 10.433594 "/>
<path style=" stroke:none;fill-rule:nonzero;fill:rgb(0%,0%,0%);fill-opacity:1;" d="M 27.289062 14.492188 C 27.410156 14.800781 27.484375 14.984375 27.683594 15.480469 C 27.855469 14.996094 27.9375 14.761719 28.050781 14.429688 C 28.304688 14.484375 28.707031 14.484375 29.011719 14.660156 C 29.226562 14.78125 29.46875 15.214844 29.402344 15.378906 C 29.25 15.734375 28.953125 16.109375 28.617188 16.285156 C 28.40625 16.390625 27.898438 16.230469 27.726562 16.023438 C 27.425781 15.648438 26.699219 15.332031 27.28125 14.492188 Z M 27.289062 14.492188 "/>
<path style=" stroke:none;fill-rule:nonzero;fill:rgb(100%,100%,100%);fill-opacity:1;" d="M 22.789062 15.601562 C 21.679688 15.160156 20.796875 15.53125 20.050781 16.359375 C 18.925781 17.601562 19.257812 18.957031 20.984375 20.140625 C 20.953125 20.347656 20.925781 20.574219 20.894531 20.796875 L 20.910156 20.78125 C 20.382812 21.269531 19.816406 21.238281 19.171875 21.011719 C 18.203125 20.664062 17.570312 20.007812 17.246094 19.074219 C 16.5 16.921875 18.574219 14.144531 20.867188 14.210938 C 21.808594 14.242188 22.539062 14.605469 22.785156 15.613281 L 22.792969 15.601562 Z M 22.789062 15.601562 "/>
<path style=" stroke:none;fill-rule:nonzero;fill:url(#radial1);" d="M 21.515625 19.609375 C 19.839844 18.796875 19.570312 17.570312 20.785156 16.507812 C 21.367188 15.996094 22.253906 15.910156 22.863281 16.300781 C 23.359375 16.621094 23.722656 17.710938 23.46875 18.304688 C 23.371094 18.527344 23.132812 18.71875 22.917969 18.855469 C 22.488281 19.121094 22.027344 19.339844 21.519531 19.609375 Z M 20.898438 16.835938 C 20.421875 17.875 21.183594 18.121094 21.632812 18.425781 C 22.105469 18.753906 22.625 18.566406 22.988281 18.128906 C 23.320312 17.738281 23.339844 17.269531 22.902344 17.015625 C 22.539062 16.804688 22.058594 16.816406 21.660156 16.738281 C 21.621094 17.121094 21.597656 17.375 21.574219 17.621094 C 21.5 17.628906 21.425781 17.632812 21.355469 17.636719 C 21.230469 17.417969 21.109375 17.203125 20.898438 16.835938 Z M 20.898438 16.835938 "/>
<path style=" stroke:none;fill-rule:nonzero;fill:rgb(100%,100%,100%);fill-opacity:1;" d="M 22.78125 15.613281 L 22.789062 15.601562 Z M 22.78125 15.613281 "/>
<path style=" stroke:none;fill-rule:nonzero;fill:rgb(42.745098%,43.137255%,43.921569%);fill-opacity:1;" d="M 45.355469 65.558594 C 46.695312 67.195312 47.316406 68.785156 47.53125 70.511719 C 47.648438 71.457031 47.257812 71.832031 46.359375 71.898438 C 45.367188 71.972656 44.929688 71.648438 44.859375 70.699219 C 44.753906 69.378906 44.65625 68.046875 44.65625 66.71875 C 44.65625 66.394531 45.035156 66.066406 45.351562 65.558594 Z M 45.929688 70.496094 C 46.078125 71.054688 46.328125 71.363281 46.847656 71.074219 C 46.988281 70.996094 47.128906 70.628906 47.066406 70.511719 C 46.777344 70.003906 46.390625 70.136719 45.929688 70.492188 Z M 45.929688 70.496094 "/>
<path style=" stroke:none;fill-rule:nonzero;fill:rgb(0%,0%,0%);fill-opacity:1;" d="M 20.898438 16.835938 C 21.109375 17.203125 21.230469 17.421875 21.355469 17.636719 C 21.425781 17.632812 21.5 17.628906 21.574219 17.621094 C 21.597656 17.375 21.621094 17.121094 21.660156 16.738281 C 22.050781 16.816406 22.539062 16.808594 22.902344 17.015625 C 23.339844 17.269531 23.320312 17.738281 22.988281 18.128906 C 22.617188 18.566406 22.101562 18.753906 21.632812 18.425781 C 21.1875 18.121094 20.421875 17.871094 20.898438 16.835938 Z M 20.898438 16.835938 "/>
<path style=" stroke:none;fill-rule:nonzero;fill:rgb(0%,0%,0%);fill-opacity:1;" d="M 45.933594 70.492188 C 46.398438 70.136719 46.789062 70.003906 47.070312 70.511719 C 47.140625 70.628906 46.992188 70.996094 46.851562 71.074219 C 46.328125 71.363281 46.085938 71.054688 45.933594 70.496094 Z M 45.933594 70.492188 "/>
<path style=" stroke:none;fill-rule:nonzero;fill:rgb(100%,100%,100%);fill-opacity:1;" d="M 21.796875 17 C 21.796875 16.621094 21.59375 16.3125 21.34375 16.3125 C 21.09375 16.3125 20.890625 16.621094 20.890625 17 C 20.890625 17.378906 21.09375 17.6875 21.34375 17.6875 C 21.59375 17.6875 21.796875 17.378906 21.796875 17 Z M 21.796875 17 "/>
<path style=" stroke:none;fill-rule:nonzero;fill:rgb(100%,100%,100%);fill-opacity:1;" d="M 28.058594 14.828125 C 28.058594 14.402344 27.894531 14.054688 27.6875 14.054688 C 27.484375 14.054688 27.316406 14.402344 27.316406 14.828125 C 27.316406 15.257812 27.484375 15.601562 27.6875 15.601562 C 27.894531 15.601562 28.058594 15.257812 28.058594 14.828125 Z M 28.058594 14.828125 "/>
</g>
</svg>
