<?xml version="1.0" encoding="UTF-8"?>
<svg xmlns="http://www.w3.org/2000/svg" xmlns:xlink="http://www.w3.org/1999/xlink" width="90px" height="90px" viewBox="0 0 90 160" version="1.1">
<defs>
<linearGradient id="linear0" gradientUnits="userSpaceOnUse" x1="144.570007" y1="192.960007" x2="110.349998" y2="158.740005" gradientTransform="matrix(0.424188,0,0,0.421825,0,0.0535558)">
<stop offset="0" style="stop-color:rgb(100%,100%,100%);stop-opacity:1;"/>
<stop offset="0.11" style="stop-color:rgb(92.941176%,92.941176%,92.941176%);stop-opacity:1;"/>
<stop offset="0.34" style="stop-color:rgb(75.294118%,74.901961%,74.901961%);stop-opacity:1;"/>
<stop offset="0.66" style="stop-color:rgb(46.666667%,45.882353%,45.882353%);stop-opacity:1;"/>
<stop offset="1" style="stop-color:rgb(13.72549%,12.156863%,12.54902%);stop-opacity:1;"/>
</linearGradient>
</defs>
<g id="surface1">
<path style=" stroke:none;fill-rule:nonzero;fill:rgb(16.862746%,21.960784%,56.078434%);fill-opacity:1;" d="M 61.15625 80.734375 C 61.15625 80.734375 60.066406 92.242188 61.015625 94.800781 C 61.058594 94.914062 61.105469 95.007812 61.15625 95.082031 C 61.15625 95.082031 65.089844 87.566406 63.53125 80.734375 Z M 61.15625 80.734375 "/>
<path style=" stroke:none;fill-rule:nonzero;fill:rgb(68.235296%,57.647061%,77.254903%);fill-opacity:1;" d="M 22.316406 69.402344 C 22.316406 69.402344 23.691406 75.164062 26.003906 75.78125 C 28.316406 76.390625 29.1875 74.429688 29.1875 74.429688 C 29.1875 74.429688 30.8125 77.636719 32.5625 79.308594 C 34.308594 80.984375 41.222656 84.289062 43.867188 84.394531 C 46.507812 84.5 49.628906 82.964844 49.371094 81.511719 C 49.113281 80.0625 46.300781 79.566406 45.804688 79.71875 C 45.308594 79.871094 45.179688 78.863281 45.179688 78.863281 L 37.953125 77.324219 C 37.953125 77.324219 35.101562 76.117188 38.621094 73.039062 L 42.246094 70.988281 C 42.246094 70.988281 46.242188 73.226562 47.925781 72.453125 C 49.613281 71.671875 49.386719 70.800781 49.386719 70.800781 C 49.386719 70.800781 41.074219 62.828125 35.859375 62.976562 C 30.652344 63.125 25.21875 67.265625 23.71875 69.300781 L 22.324219 69.402344 Z M 22.316406 69.402344 "/>
<path style=" stroke:none;fill-rule:nonzero;fill:rgb(68.235296%,57.647061%,77.254903%);fill-opacity:1;" d="M 53.65625 79.996094 L 54.632812 80.375 C 54.632812 80.375 54.566406 83.160156 53.351562 82.792969 C 53.351562 82.792969 53.164062 81.761719 53.035156 81.308594 C 52.910156 80.859375 53.652344 79.996094 53.652344 79.996094 Z M 53.65625 79.996094 "/>
<path style=" stroke:none;fill-rule:nonzero;fill:rgb(0%,0%,0%);fill-opacity:1;" d="M 21.839844 159.117188 C 21.214844 158.730469 20.601562 158.363281 19.996094 157.992188 C 19.890625 156.003906 21.683594 155.855469 22.84375 154.984375 C 20.492188 154.613281 18.246094 154.59375 15.980469 154.734375 C 12.066406 154.972656 8.148438 155.03125 4.265625 154.355469 C 3.242188 154.179688 2.210938 153.859375 1.265625 153.429688 C -0.09375 152.8125 -0.324219 151.632812 0.742188 150.582031 C 1.539062 149.792969 2.476562 149.074219 3.472656 148.566406 C 6.300781 147.121094 9.308594 146.132812 12.429688 145.546875 C 13.289062 145.386719 13.925781 145.050781 14.515625 144.394531 C 15.324219 143.484375 16.285156 142.699219 17.242188 141.800781 C 17.234375 140.136719 17.96875 138.632812 19.101562 137.378906 C 21.714844 134.484375 24.417969 131.671875 27.101562 128.839844 C 27.429688 128.5 27.863281 128.257812 28.183594 128.023438 C 25.269531 121.449219 22.46875 115.140625 19.679688 108.828125 C 19.429688 108.261719 19.070312 107.867188 18.515625 107.5 C 17.863281 107.070312 17.421875 106.320312 16.902344 105.722656 C 17.050781 107.0625 16.945312 108.425781 15.585938 109.375 C 15.769531 109.816406 15.910156 110.222656 16.113281 110.597656 C 16.664062 111.613281 17.152344 112.613281 16.699219 113.832031 C 16.601562 114.089844 16.796875 114.511719 16.960938 114.796875 C 17.597656 115.925781 17.941406 117.128906 18.078125 118.402344 C 18.597656 123.273438 18.546875 128.117188 16.832031 132.777344 C 16.261719 134.316406 15.382812 135.753906 14.53125 137.175781 C 13.9375 138.171875 13.011719 138.863281 11.890625 139.25 C 10.269531 139.8125 9.21875 139.410156 8.503906 138.15625 C 6.480469 137.65625 4.625 137.246094 2.796875 136.730469 C 1.566406 136.378906 1.046875 135.46875 1.222656 134.203125 C 1.292969 133.691406 1.453125 133.191406 1.574219 132.699219 C -0.515625 131.214844 -0.515625 129.542969 1.550781 127.984375 C 1.933594 127.699219 2.355469 127.4375 2.796875 127.25 C 4.34375 126.59375 5.320312 125.398438 6.039062 123.949219 C 7.476562 121.050781 7.996094 117.886719 8.695312 114.78125 C 8.785156 114.386719 8.421875 113.898438 8.339844 113.445312 C 8.199219 112.628906 8.117188 111.804688 8.003906 110.941406 C 7.835938 110.878906 7.683594 110.796875 7.519531 110.769531 C 5.316406 110.464844 4.242188 109.023438 3.855469 107.015625 C 3.523438 105.304688 3.261719 103.566406 3.117188 101.828125 C 2.855469 98.558594 2.675781 95.28125 2.503906 92.007812 C 2.144531 85.269531 2.316406 78.535156 2.8125 71.816406 C 3.117188 67.675781 3.644531 63.550781 4.144531 59.429688 C 4.484375 56.632812 4.5625 53.894531 3.769531 51.125 C 3.101562 48.785156 3.421875 46.34375 3.652344 43.953125 C 3.691406 43.566406 4.175781 43.21875 4.609375 42.640625 C 4.707031 37.308594 6.828125 32.273438 9.195312 27.324219 C 12.820312 19.761719 17.90625 13.382812 24.890625 8.59375 C 29.109375 5.707031 33.535156 3.226562 38.414062 1.589844 C 45.113281 -0.65625 51.828125 -0.386719 58.316406 2.070312 C 62.226562 3.550781 65.914062 5.695312 69.089844 8.550781 C 71.984375 11.152344 73.394531 14.480469 73.902344 18.214844 C 74.710938 24.167969 73.710938 29.886719 71.257812 35.355469 C 70.90625 36.140625 70.757812 36.902344 70.773438 37.753906 C 70.847656 42.519531 70.964844 47.289062 70.90625 52.054688 C 70.851562 56.558594 70.734375 61.078125 69.457031 65.449219 C 69.019531 66.949219 68.34375 68.378906 67.785156 69.84375 C 67.457031 70.695312 67.148438 71.554688 66.78125 72.539062 C 67.507812 72.714844 68.140625 72.847656 68.761719 73.011719 C 69.355469 73.167969 69.960938 73.304688 70.519531 73.539062 C 71.847656 74.109375 72.132812 74.894531 71.503906 76.15625 C 69.804688 79.574219 67.207031 81.511719 63.191406 81.101562 C 62.667969 81.046875 62.140625 81.066406 61.613281 81.066406 C 61.542969 81.066406 61.464844 81.140625 61.332031 81.21875 C 61.3125 81.34375 61.269531 81.507812 61.261719 81.675781 C 61.160156 84.652344 61.042969 87.621094 60.972656 90.59375 C 60.960938 91.097656 61.121094 91.601562 61.203125 92.105469 L 61.179688 92.085938 C 61.097656 92.699219 61.007812 93.3125 60.921875 93.921875 C 60.902344 93.992188 60.875 94.066406 60.855469 94.136719 C 60.871094 94.0625 60.886719 93.984375 60.90625 93.910156 C 61.40625 92.761719 62.007812 91.648438 62.390625 90.464844 C 63.253906 87.789062 63.890625 85.0625 63.527344 82.210938 C 63.515625 82.105469 63.59375 81.992188 63.714844 81.652344 C 63.894531 82.304688 64.039062 82.75 64.140625 83.199219 C 65.300781 88.476562 63.695312 93.140625 60.816406 97.472656 C 58.847656 100.429688 56.226562 102.640625 52.828125 103.847656 C 49.554688 105.011719 46.484375 104.546875 43.710938 102.5 C 42.269531 101.429688 40.898438 100.25 39.597656 99.019531 C 37.3125 96.851562 35.105469 94.59375 32.851562 92.382812 C 30.621094 90.195312 29.421875 87.492188 29.210938 84.445312 C 29.015625 81.664062 29.136719 78.859375 29.085938 76.066406 C 29.074219 75.421875 28.945312 74.78125 28.851562 74.140625 C 28.78125 73.636719 28.691406 73.140625 28.566406 72.386719 C 28.863281 72.640625 28.984375 72.691406 29.011719 72.777344 C 30.921875 78.578125 35.113281 81.773438 40.941406 83.078125 C 42.835938 83.5 44.734375 83.890625 46.675781 83.351562 C 48.039062 82.976562 49.03125 82.242188 49.40625 80.824219 C 48.917969 80.09375 48.203125 80.078125 47.5 80.101562 C 46.140625 80.148438 44.777344 80.234375 43.414062 80.289062 C 42.914062 80.308594 42.414062 80.289062 41.917969 80.289062 C 41.910156 80.199219 41.902344 80.113281 41.894531 80.023438 L 45.023438 79.328125 L 45.03125 79.132812 C 43.671875 78.917969 42.304688 78.742188 40.949219 78.476562 C 39.878906 78.265625 38.792969 78.035156 37.777344 77.648438 C 36.550781 77.175781 36.300781 76.5 36.613281 75.234375 C 36.898438 74.070312 37.578125 73.171875 38.59375 72.5625 C 39.601562 71.949219 40.652344 71.410156 41.769531 70.796875 C 41.535156 70.316406 41.222656 69.800781 41.039062 69.242188 C 40.875 68.734375 40.855469 68.183594 40.914062 67.597656 C 41.582031 69.558594 42.671875 71.105469 44.683594 71.765625 C 46.015625 72.199219 47.355469 72.128906 48.777344 71.347656 C 48.527344 70.984375 48.378906 70.613281 48.101562 70.390625 C 46.226562 68.871094 44.398438 67.28125 42.417969 65.914062 C 38.164062 62.980469 33.691406 62.839844 29.070312 65.125 C 26.695312 66.300781 24.714844 67.890625 23.140625 70 L 23.15625 70.023438 C 23.058594 70.023438 22.957031 70.023438 22.859375 70.023438 L 22.886719 69.996094 C 22.886719 70.183594 22.886719 70.367188 22.886719 70.554688 L 22.863281 70.539062 C 23.132812 72.46875 24.269531 73.84375 25.808594 74.890625 C 26.160156 75.128906 26.785156 75.066406 27.261719 74.996094 C 27.667969 74.9375 28.039062 74.660156 28.429688 74.484375 L 28.417969 74.472656 C 28.546875 76.050781 27.105469 76.078125 26.164062 76.589844 C 26.253906 77.234375 26.292969 77.800781 26.40625 78.347656 C 26.742188 79.960938 26.1875 81.289062 25.058594 82.394531 C 23.828125 83.597656 22.441406 84.585938 20.648438 85.183594 C 20.964844 85.621094 21.234375 86.054688 21.558594 86.453125 C 23.480469 88.84375 25.414062 91.222656 27.335938 93.613281 C 27.691406 94.058594 28.023438 94.527344 28.339844 94.996094 C 29.285156 96.402344 29.804688 97.886719 29.082031 99.609375 C 29.34375 99.851562 29.570312 100.128906 29.855469 100.3125 C 30.773438 100.917969 31.125 101.808594 31.320312 102.839844 C 31.40625 103.285156 31.609375 103.746094 31.878906 104.113281 C 35.3125 108.871094 38.777344 113.605469 42.214844 118.359375 C 44.265625 121.191406 44.464844 124.351562 43.6875 127.640625 C 42.683594 131.902344 40.78125 135.777344 38.351562 139.402344 C 37.632812 140.472656 36.738281 141.375 35.523438 141.667969 C 35.15625 142.59375 34.824219 143.433594 34.425781 144.4375 C 36.105469 144.632812 37.871094 144.925781 39.640625 145.027344 C 43.679688 145.257812 47.726562 145.316406 51.757812 145.613281 C 53.714844 145.757812 55.652344 146.234375 57.578125 146.660156 C 58.539062 146.871094 59.503906 147.339844 59.539062 148.5 C 59.570312 149.632812 58.558594 150.078125 57.710938 150.300781 C 55.207031 150.949219 52.679688 151.511719 50.136719 151.980469 C 46.082031 152.734375 42.003906 152.699219 38 152.046875 C 37.871094 152.164062 37.757812 152.226562 37.761719 152.28125 C 37.929688 154.136719 36.9375 155.367188 35.476562 156.253906 C 34.394531 156.914062 33.21875 157.414062 32.097656 158.011719 C 31.625 158.261719 31.191406 158.605469 30.714844 158.863281 C 30.613281 158.917969 30.480469 158.910156 30.109375 159.101562 C 25.269531 160.972656 21.824219 159.101562 21.824219 159.101562 Z M 60.125 47.714844 C 59.234375 48.257812 58.332031 48.777344 57.464844 49.355469 C 57 49.667969 56.628906 50.097656 56.992188 50.992188 C 58.113281 49.816406 59.117188 48.761719 60.125 47.703125 L 60.164062 47.65625 L 60.125 47.710938 Z M 11.269531 52.957031 C 11.324219 51.59375 12.007812 50.484375 12.757812 49.40625 C 13.152344 48.84375 13.582031 48.296875 14.097656 47.613281 C 13.753906 47.273438 13.46875 46.988281 12.976562 46.503906 C 13.230469 47.902344 13.171875 48.003906 12.203125 48.09375 C 11.855469 48.128906 11.503906 48.109375 11.15625 48.082031 C 8.816406 47.898438 7.101562 46.558594 5.492188 45.027344 C 5.195312 44.746094 4.894531 44.46875 4.429688 44.027344 C 4.429688 46.480469 4.414062 48.65625 4.445312 50.832031 C 4.445312 51.089844 4.640625 51.433594 4.851562 51.582031 C 6.796875 52.964844 8.90625 53.601562 11.289062 52.933594 C 11.40625 53.1875 11.640625 53.449219 11.628906 53.695312 C 11.398438 58.230469 12.09375 62.679688 12.949219 67.101562 C 13.339844 69.101562 13.910156 71.066406 14.398438 73.046875 C 14.503906 73.046875 14.605469 73.050781 14.710938 73.054688 C 14.898438 72.582031 15.070312 72.101562 15.273438 71.636719 C 16.371094 69.109375 18.886719 67.917969 21.414062 68.800781 C 22.300781 69.113281 22.976562 68.789062 23.832031 68.507812 C 23.027344 68.058594 22.269531 67.785156 21.707031 67.292969 C 17.558594 63.683594 15.144531 59.136719 14.648438 53.667969 C 14.5 52.042969 14.625 50.390625 14.625 48.753906 C 14.03125 49.179688 13.632812 49.691406 13.257812 50.207031 C 12.589844 51.125 11.933594 52.042969 11.269531 52.964844 Z M 9.4375 126.496094 L 9.417969 126.480469 C 8.957031 129.578125 5.894531 132.3125 2.222656 132.902344 C 1.683594 135.167969 2.316406 135.976562 4.574219 135.855469 C 6.503906 135.75 7.984375 134.746094 9.179688 133.34375 C 10.808594 131.429688 12.046875 129.285156 12.773438 126.875 C 12.507812 131.390625 10.976562 135.109375 6.324219 136.941406 C 6.917969 137.007812 7.453125 137.039062 7.949219 136.925781 C 9.820312 136.511719 11.15625 135.363281 12.128906 133.769531 C 13.28125 131.875 13.867188 129.769531 14.394531 127.648438 C 14.464844 127.351562 14.585938 127.066406 14.691406 126.777344 C 15.085938 131.65625 13.554688 135.542969 8.949219 137.785156 C 9.484375 138.597656 10.164062 138.683594 10.894531 138.601562 C 11.929688 138.488281 12.738281 137.910156 13.277344 137.105469 C 14.074219 135.910156 14.871094 134.679688 15.398438 133.355469 C 17.09375 129.074219 17.285156 124.585938 16.886719 120.058594 C 16.730469 118.292969 16.425781 116.53125 16.1875 114.78125 L 9.4375 114.78125 C 9.351562 115.128906 9.265625 115.414062 9.210938 115.710938 C 8.726562 118.464844 8.292969 121.222656 7.214844 123.839844 C 6.367188 125.886719 5.210938 127.597656 3.050781 128.5 C 2.476562 128.738281 1.960938 129.242188 1.5625 129.738281 C 0.929688 130.523438 1.25 131.359375 2.253906 131.421875 C 3.050781 131.472656 3.953125 131.378906 4.65625 131.039062 C 6.296875 130.25 7.648438 129.054688 8.671875 127.527344 C 8.90625 127.175781 9.183594 126.847656 9.4375 126.503906 Z M 50.632812 27.773438 L 50.609375 27.753906 C 50.523438 28.277344 50.441406 28.796875 50.355469 29.320312 L 50.320312 29.355469 L 50.347656 29.3125 C 51.097656 28.652344 51.808594 27.941406 52.617188 27.355469 C 53.140625 26.972656 53.773438 27.050781 54.347656 27.433594 C 54.882812 27.792969 54.691406 28.292969 54.617188 28.742188 C 54.328125 30.503906 54.050781 32.273438 53.683594 34.023438 C 53.367188 35.550781 52.9375 37.050781 52.53125 38.667969 C 54.273438 38.789062 55.632812 38.183594 56.804688 37.113281 C 58.257812 35.785156 58.835938 34.066406 58.785156 32.160156 C 58.75 30.871094 58.550781 29.59375 58.425781 28.3125 C 58.785156 28.910156 59.082031 29.542969 59.253906 30.207031 C 59.96875 32.925781 59.199219 36.738281 56.015625 38.507812 C 54.738281 39.214844 53.359375 39.355469 51.9375 39.3125 C 51.886719 38.835938 51.832031 38.359375 51.78125 37.871094 C 50.554688 37.351562 50.074219 36.808594 50.046875 35.878906 C 50.019531 35.117188 50.464844 34.296875 51.101562 34.058594 C 51.6875 33.835938 52.269531 33.796875 52.789062 34.40625 C 52.269531 34.652344 51.835938 34.855469 51.125 35.1875 C 51.734375 35.519531 52.074219 35.707031 52.578125 35.984375 C 53.15625 33.1875 53.691406 30.605469 54.296875 27.667969 C 53.449219 28.027344 52.796875 28.171875 52.320312 28.539062 C 49.910156 30.378906 48.867188 34.179688 49.988281 36.960938 C 50.375 37.933594 50.882812 38.863281 51.953125 39.296875 C 52.183594 39.402344 52.410156 39.59375 52.640625 39.605469 C 55.34375 39.71875 57.960938 39.292969 60.558594 38.363281 C 60.46875 36.863281 61.757812 35.632812 61.1875 34.089844 C 61.152344 33.992188 61.214844 33.808594 61.300781 33.722656 C 62.109375 32.894531 61.996094 31.785156 62.164062 30.78125 C 62.410156 29.316406 62.808594 28.027344 64.457031 27.707031 C 65.121094 24.300781 64.972656 20.964844 64.59375 17.757812 C 64.050781 17.308594 63.625 16.757812 63.191406 16.207031 C 62.828125 15.746094 62.683594 15.1875 63.101562 14.769531 C 63.6875 14.183594 63.550781 13.609375 63.339844 12.96875 C 63.121094 12.308594 62.972656 11.617188 62.707031 10.976562 C 62.421875 10.285156 62.269531 9.648438 62.863281 9.09375 C 61.929688 7.546875 60.527344 6.652344 59.347656 5.8125 C 56.457031 6.519531 53.746094 7.265625 51 7.820312 C 49.773438 8.0625 48.921875 8.609375 48.222656 9.578125 C 45.894531 12.828125 45.800781 18.195312 48.046875 21.480469 C 50.445312 24.988281 55.019531 25.566406 58.121094 22.671875 C 60.695312 20.265625 61.742188 17.25 61.203125 13.769531 C 61.03125 12.660156 60.613281 11.59375 60.308594 10.507812 C 60.351562 10.460938 60.40625 10.417969 60.449219 10.371094 C 60.6875 10.730469 60.976562 11.070312 61.160156 11.457031 C 63 15.308594 62.039062 19.988281 58.785156 23.125 C 55.429688 26.351562 50.128906 25.8125 47.550781 21.953125 C 45.683594 19.15625 45.40625 16.101562 46.207031 12.898438 C 46.621094 11.242188 47.359375 9.742188 48.511719 8.40625 C 48 8.390625 47.578125 8.453125 47.15625 8.539062 C 44.386719 9.136719 41.804688 10.230469 39.253906 11.425781 C 35.835938 13.023438 32.429688 14.660156 28.988281 16.210938 C 26.414062 17.371094 23.695312 17.757812 20.871094 17.414062 C 19.566406 17.261719 18.253906 17.222656 16.914062 17.125 C 16.625 17.464844 16.335938 17.796875 16.0625 18.132812 C 12.0625 23.152344 9.160156 28.757812 7.019531 34.78125 C 6.074219 37.445312 5.398438 40.136719 5.410156 42.972656 C 5.410156 43.5 5.34375 44.023438 5.890625 44.375 C 6.894531 45.007812 7.839844 45.734375 8.878906 46.289062 C 9.886719 46.828125 10.996094 47.117188 12.214844 46.824219 C 12.886719 44.367188 14.308594 42.390625 16.226562 40.785156 C 21.140625 36.667969 26.796875 35.050781 33.171875 35.960938 C 33.847656 36.054688 34.515625 36.15625 35.308594 36.269531 C 35.222656 32.789062 35.140625 29.433594 35.054688 26.085938 C 35.433594 27.460938 35.613281 28.84375 35.765625 30.230469 C 36.085938 33.097656 36.363281 35.972656 36.703125 38.832031 C 37.207031 42.953125 37.6875 47.074219 38.3125 51.179688 C 38.535156 52.628906 39.085938 54.042969 39.613281 55.421875 C 39.789062 55.878906 40.328125 56.417969 40.777344 56.503906 C 41.453125 56.632812 41.824219 55.945312 42.0625 55.378906 C 42.402344 54.574219 42.683594 53.742188 42.929688 52.910156 C 45.035156 45.648438 47.109375 38.378906 49.25 31.128906 C 49.585938 29.976562 50.167969 28.894531 50.636719 27.78125 Z M 24.097656 37.503906 C 21.226562 38.464844 18.753906 39.746094 16.664062 41.675781 C 16.351562 41.960938 16.144531 42.46875 16.097656 42.898438 C 15.902344 44.589844 15.785156 46.292969 15.652344 47.992188 C 15.25 53.148438 15.980469 58.078125 19.066406 62.371094 C 20.507812 64.375 22.332031 66.097656 24.054688 68.027344 C 24.53125 67.523438 24.867188 67.191406 25.179688 66.835938 C 29.8125 61.667969 36.695312 61.382812 41.308594 63.8125 C 44.484375 65.488281 47.09375 67.910156 49.722656 70.292969 C 50.011719 70.554688 50.4375 70.761719 50.820312 70.796875 C 53.921875 71.113281 57.03125 71.359375 60.132812 71.683594 C 62.046875 71.882812 63.949219 72.1875 65.886719 72.441406 C 66.132812 71.941406 66.347656 71.566406 66.511719 71.164062 C 68.699219 65.933594 69.796875 60.484375 69.859375 54.824219 C 69.894531 51.847656 70 48.875 70.035156 45.902344 C 70.0625 43.304688 70.039062 40.710938 70.039062 37.933594 C 69.347656 38.992188 68.730469 39.890625 68.171875 40.820312 C 68.027344 41.054688 68.019531 41.398438 68.011719 41.691406 C 67.839844 47.722656 67.789062 53.765625 67.476562 59.789062 C 67.335938 62.496094 66.679688 65.183594 66.253906 67.878906 C 66.148438 67.867188 66.042969 67.847656 65.929688 67.835938 C 66.410156 59.304688 66.890625 50.773438 67.382812 42.050781 C 66.335938 43.222656 65.445312 44.292969 64.472656 45.28125 C 63.992188 45.765625 63.800781 46.226562 63.90625 46.90625 C 64.042969 47.765625 64.160156 48.648438 64.125 49.515625 C 63.886719 56.25 63.621094 62.976562 63.335938 69.710938 C 63.308594 70.296875 63.121094 70.875 63.003906 71.457031 C 62.914062 71.441406 62.832031 71.429688 62.742188 71.421875 C 62.375 63.148438 63.621094 54.90625 63.398438 46.566406 C 61.054688 48.339844 58.839844 50.019531 56.621094 51.699219 C 55.753906 50.761719 55.621094 50.175781 56.34375 49.234375 C 56.785156 48.664062 56.941406 48.144531 56.878906 47.449219 C 56.746094 46.066406 57.101562 44.851562 58.273438 43.957031 C 58.496094 43.789062 58.683594 43.488281 58.746094 43.21875 C 58.992188 42.164062 59.179688 41.101562 59.363281 40.152344 C 56.644531 40.398438 53.960938 40.640625 51.359375 40.878906 C 51.285156 44.089844 51.199219 47.359375 51.125 50.632812 C 51.046875 53.921875 51.125 57.210938 50.597656 60.476562 C 50.089844 53.855469 50.574219 47.246094 50.8125 40.617188 C 49.578125 40.3125 48.492188 40.046875 47.351562 39.765625 C 47.210938 40.207031 47.078125 40.574219 46.972656 40.949219 C 45.832031 45.125 44.71875 49.304688 43.546875 53.472656 C 43.277344 54.433594 42.949219 55.414062 42.441406 56.261719 C 41.476562 57.859375 39.953125 57.878906 39.019531 56.273438 C 38.414062 55.234375 37.972656 54.054688 37.667969 52.882812 C 36.640625 48.980469 36.179688 44.980469 35.757812 40.980469 C 35.625 39.691406 35.492188 38.40625 35.351562 37.105469 C 34.5 36.988281 33.8125 36.894531 32.929688 36.773438 L 32.929688 56.722656 C 31.640625 50.117188 32.335938 43.46875 32.324219 36.773438 C 31.742188 36.71875 31.265625 36.652344 30.792969 36.636719 C 30.09375 36.617188 29.390625 36.632812 28.601562 36.632812 C 28.28125 45.019531 28.5 53.261719 28.820312 61.511719 C 27.382812 53.339844 27.550781 45.109375 27.964844 36.6875 C 26.910156 36.882812 25.871094 37.078125 24.863281 37.265625 C 24.625 46.414062 24.386719 55.363281 24.152344 64.308594 C 23.449219 59.90625 23.5625 55.488281 23.664062 51.074219 C 23.765625 46.617188 23.949219 42.164062 24.101562 37.511719 Z M 16.546875 103.347656 C 17.242188 103.347656 17.910156 103.410156 18.554688 103.332031 C 19.816406 103.1875 21.089844 103.039062 22.324219 102.746094 C 24.101562 102.332031 25.710938 101.503906 27.066406 100.273438 C 28.4375 99.035156 28.644531 97.765625 27.730469 96.175781 C 27.269531 95.382812 26.71875 94.636719 26.148438 93.917969 C 24.726562 92.136719 23.25 90.398438 21.824219 88.625 C 19.570312 85.820312 17.464844 82.925781 15.953125 79.636719 C 12.390625 71.863281 10.824219 63.695312 10.945312 55.183594 C 10.949219 54.8125 10.90625 54.433594 10.882812 54.019531 C 8.523438 54.050781 6.445312 53.523438 4.503906 52.039062 C 5.179688 54.578125 5.117188 56.9375 4.835938 59.277344 C 3.871094 67.234375 3.359375 75.210938 3.335938 83.226562 C 3.3125 89.617188 3.703125 95.988281 4.261719 102.351562 C 4.402344 103.953125 4.699219 105.554688 5.050781 107.128906 C 5.433594 108.828125 6.242188 109.433594 7.964844 109.671875 C 9.648438 109.910156 11.300781 109.726562 12.933594 109.339844 C 15.769531 108.667969 16.480469 107.617188 15.777344 104.828125 C 14.992188 101.738281 14.117188 98.667969 13.183594 95.617188 C 10.21875 85.902344 8.859375 75.996094 9.375 65.84375 C 9.398438 65.363281 9.417969 64.882812 9.441406 64.402344 C 9.464844 63.984375 9.496094 63.566406 9.523438 63.148438 C 9.53125 76.898438 12.046875 90.1875 16.554688 103.332031 Z M 20.136719 108.039062 C 20.25 108.296875 20.34375 108.53125 20.457031 108.753906 C 21.382812 110.589844 22.371094 112.394531 23.222656 114.261719 C 25.097656 118.359375 26.898438 122.488281 28.746094 126.597656 C 29.390625 128.027344 29.382812 128.089844 28.316406 129.21875 C 26 131.675781 23.660156 134.113281 21.425781 136.636719 C 20.503906 137.675781 19.714844 138.863281 19.058594 140.085938 C 18.324219 141.449219 18.628906 142.484375 19.890625 143.410156 C 20.589844 143.929688 21.371094 144.359375 22.160156 144.730469 C 24.035156 145.617188 25.113281 145.503906 26.550781 143.988281 C 27.628906 142.855469 28.59375 141.574219 29.382812 140.226562 C 30.84375 137.738281 32.117188 135.140625 33.503906 132.605469 C 35.363281 129.207031 35.335938 125.769531 33.878906 122.246094 C 32.226562 118.25 30.621094 114.230469 29 110.21875 C 28.804688 109.738281 28.652344 109.238281 28.484375 108.75 C 30.492188 112.125 32.292969 115.574219 34.019531 119.058594 C 34.660156 120.351562 35.15625 121.710938 35.644531 123.066406 C 36.757812 126.128906 36.683594 129.171875 35.238281 132.109375 C 34.15625 134.308594 32.992188 136.464844 31.863281 138.640625 C 31.636719 139.085938 31.414062 139.539062 31.105469 140.144531 C 31.953125 140.234375 32.601562 140.304688 33.246094 140.371094 C 35.277344 140.582031 36.730469 139.746094 37.671875 137.96875 C 38.816406 135.804688 40.050781 133.683594 41.074219 131.464844 C 41.746094 130.003906 42.191406 128.425781 42.585938 126.867188 C 43.402344 123.652344 42.632812 120.757812 40.722656 118.0625 C 37.664062 113.738281 34.691406 109.351562 31.679688 104.996094 C 31.488281 104.71875 31.269531 104.460938 31.0625 104.191406 C 28.5 106.121094 24.421875 107.589844 20.140625 108.027344 Z M 62.058594 35.621094 C 64.3125 35.273438 66.402344 34.757812 68.496094 35.527344 C 67.035156 35.8125 65.558594 36 64.089844 36.210938 C 63.484375 36.300781 62.863281 36.382812 62.28125 36.554688 C 61.421875 36.808594 61.261719 37.214844 61.519531 38.355469 C 62.941406 38.050781 64.363281 37.601562 65.851562 37.851562 C 64.753906 38.351562 63.640625 38.75 62.507812 39.078125 C 60.273438 39.71875 59.585938 40.683594 59.75 43.15625 C 60.980469 43.089844 62.222656 42.636719 63.714844 43.089844 C 62.878906 43.34375 62.300781 43.53125 61.71875 43.699219 C 61.128906 43.867188 60.523438 43.988281 59.9375 44.175781 C 58.105469 44.769531 57.414062 45.945312 57.734375 47.980469 C 59.34375 47.421875 61.050781 47.140625 62.1875 45.667969 C 62.71875 44.980469 63.394531 44.398438 63.980469 43.746094 C 70.195312 36.792969 73.394531 28.757812 72.730469 19.378906 C 72.488281 15.953125 71.554688 12.707031 69.109375 10.15625 C 66.761719 7.714844 64.214844 5.488281 60.96875 4.25 C 59.574219 3.71875 58.183594 3.171875 56.753906 2.742188 C 50.808594 0.964844 44.820312 0.535156 38.859375 2.589844 C 31.050781 5.28125 24.195312 9.515625 18.417969 15.421875 C 18.167969 15.679688 17.976562 15.996094 17.660156 16.417969 C 19.101562 16.417969 20.332031 16.382812 21.558594 16.425781 C 23.800781 16.5 25.921875 16.03125 27.960938 15.136719 C 28.847656 14.75 29.738281 14.382812 30.609375 13.960938 C 33.886719 12.371094 37.132812 10.71875 40.433594 9.175781 C 43.152344 7.90625 46 7.089844 49.03125 6.847656 C 51.210938 6.675781 53.375 6.238281 55.53125 5.828125 C 57.210938 5.511719 58.859375 5.054688 60.527344 4.671875 C 60.625 4.652344 60.742188 4.714844 60.929688 4.753906 C 60.59375 4.980469 60.332031 5.15625 60.171875 5.265625 C 61.425781 6.507812 62.628906 7.695312 63.835938 8.886719 C 65.214844 9.273438 66.667969 9.683594 68.125 10.097656 C 68.101562 10.199219 68.082031 10.304688 68.0625 10.40625 C 66.5 10.492188 64.957031 9.773438 63.289062 10.050781 C 63.683594 11.4375 64.039062 12.679688 64.34375 13.75 L 70.308594 13.75 C 68.367188 14.4375 65.960938 14.253906 63.589844 15.386719 C 64.320312 16.050781 64.875 16.550781 65.355469 16.988281 C 67.074219 16.371094 68.527344 15.53125 70.292969 15.933594 C 69.769531 16.316406 69.203125 16.585938 68.613281 16.792969 C 67.910156 17.035156 67.175781 17.191406 66.472656 17.457031 C 65.9375 17.660156 65.457031 17.980469 65.683594 18.804688 C 67.570312 18.589844 69.40625 18.375 71.242188 18.164062 C 69.632812 19.722656 67.4375 19.234375 65.550781 19.984375 C 65.644531 20.792969 65.726562 21.515625 65.820312 22.347656 C 67.496094 22.441406 69.183594 22.285156 70.664062 23.355469 L 65.738281 23.355469 C 65.601562 24.742188 65.480469 25.984375 65.359375 27.222656 C 67.222656 27 68.898438 26.796875 70.578125 26.59375 C 70.59375 26.683594 70.609375 26.777344 70.625 26.863281 C 70.46875 26.917969 70.320312 26.988281 70.164062 27.035156 C 68.3125 27.566406 66.449219 28.089844 64.601562 28.632812 C 64 28.808594 63.417969 29.03125 63.269531 29.75 C 63.0625 30.710938 62.863281 31.679688 62.632812 32.773438 C 64.972656 32.617188 67.105469 32.121094 69.277344 32.773438 C 66.882812 33.140625 64.480469 33.511719 62.058594 33.882812 L 62.058594 35.628906 Z M 42.171875 84.449219 C 41.472656 84.285156 40.890625 84.148438 40.292969 84.007812 C 40.230469 84.222656 40.164062 84.347656 40.164062 84.464844 C 40.140625 88.664062 40.117188 92.859375 40.132812 97.054688 C 40.132812 97.4375 40.347656 97.933594 40.632812 98.179688 C 42.105469 99.421875 43.546875 100.726562 45.15625 101.777344 C 47.753906 103.480469 51.429688 103.539062 54.542969 101.167969 C 54.242188 94.617188 55.230469 88.117188 55.792969 81.589844 C 55.980469 88.023438 55.199219 94.425781 55.097656 100.871094 C 56.320312 100.449219 56.761719 99.65625 56.585938 98.363281 C 56.445312 97.335938 56.507812 96.273438 56.5625 95.230469 C 56.785156 91.035156 57.050781 86.847656 57.285156 82.65625 C 57.324219 82.015625 57.289062 81.367188 57.289062 80.667969 C 56.875 80.609375 56.488281 80.546875 56.105469 80.5 C 55.734375 80.453125 55.355469 80.429688 54.953125 80.390625 C 55.234375 82.445312 54.90625 82.882812 52.976562 83.226562 C 52.765625 83.261719 52.566406 83.375 52.359375 83.421875 C 51.414062 83.621094 50.476562 83.820312 49.53125 83.988281 C 48.214844 84.222656 46.890625 84.433594 45.429688 84.679688 C 45.429688 86.078125 45.460938 87.332031 45.421875 88.589844 C 45.386719 89.855469 45.28125 91.121094 45.21875 92.386719 C 45.152344 93.652344 45.132812 94.921875 45.023438 96.1875 C 44.917969 97.390625 44.71875 98.585938 44.5625 99.785156 C 43.925781 94.769531 44.738281 89.832031 44.925781 84.769531 C 44.199219 84.691406 43.523438 84.621094 42.71875 84.53125 C 42.457031 89.117188 42.199219 93.589844 41.941406 98.058594 C 41.84375 98.054688 41.746094 98.050781 41.648438 98.046875 C 41.242188 93.527344 41.847656 89.023438 42.179688 84.449219 Z M 32.003906 156.707031 C 33.160156 156 34.21875 155.460938 35.148438 154.753906 C 36.777344 153.511719 36.679688 152.476562 34.949219 151.433594 C 34.800781 151.34375 34.644531 151.257812 34.476562 151.199219 C 32.945312 150.671875 31.4375 150.046875 29.871094 149.652344 C 27.789062 149.136719 25.664062 148.757812 23.542969 148.402344 C 22.976562 148.308594 22.359375 148.503906 21.765625 148.585938 C 21.292969 148.652344 20.789062 148.910156 20.359375 148.808594 C 18.3125 148.328125 16.210938 147.910156 14.46875 146.65625 C 13.890625 146.242188 13.398438 146.125 12.777344 146.339844 C 10.453125 147.136719 8.101562 147.867188 5.820312 148.769531 C 4.609375 149.246094 3.496094 149.988281 2.390625 150.695312 C 1.957031 150.972656 1.667969 151.476562 1.167969 152.046875 C 1.96875 152.367188 2.507812 152.683594 3.089844 152.792969 C 4.550781 153.0625 6.03125 153.402344 7.507812 153.425781 C 13 153.5 18.5 153.453125 23.996094 153.476562 C 25.453125 153.480469 26.894531 153.5 28.289062 152.980469 C 28.613281 152.859375 29.007812 152.921875 29.367188 152.902344 C 29.386719 152.972656 29.410156 153.046875 29.425781 153.117188 C 29.019531 153.367188 28.613281 153.613281 28.121094 153.917969 C 29.863281 154.226562 31.429688 154.550781 32 156.710938 Z M 47.5 146.535156 C 46.949219 146.472656 46.566406 146.417969 46.179688 146.390625 C 43.292969 146.164062 40.390625 146.027344 37.515625 145.691406 C 35.488281 145.457031 33.410156 145.253906 31.640625 144.03125 C 30.96875 143.566406 30.273438 143.128906 29.566406 142.660156 C 29.414062 142.839844 29.269531 143.007812 29.132812 143.175781 C 27.710938 145.007812 26.207031 146.699219 23.589844 146.707031 C 23.363281 146.707031 23.140625 147.0625 22.699219 147.445312 C 23.285156 147.507812 23.539062 147.589844 23.777344 147.554688 C 26.136719 147.203125 28.429688 147.671875 30.675781 148.261719 C 33.011719 148.878906 35.335938 149.566406 37.175781 151.28125 C 37.417969 151.511719 37.898438 151.597656 38.253906 151.578125 C 40.746094 151.425781 43.242188 151.226562 45.835938 151.039062 C 46.378906 149.5625 46.917969 148.105469 47.5 146.53125 Z M 71.160156 74.964844 C 70.292969 74.585938 69.722656 74.269531 69.113281 74.09375 C 68.398438 73.886719 67.652344 73.78125 66.910156 73.675781 C 61.601562 72.933594 56.289062 72.199219 50.980469 71.472656 C 50.734375 71.4375 50.46875 71.519531 50.214844 71.546875 C 50.695312 71.871094 51.152344 72.011719 51.621094 72.066406 C 55.9375 72.597656 60.257812 73.09375 64.570312 73.652344 C 65.886719 73.828125 67.277344 73.753906 68.488281 74.445312 C 67.773438 76.675781 66.246094 77.550781 64.042969 77.417969 C 63.386719 77.378906 62.71875 77.394531 62.066406 77.335938 C 57.648438 76.933594 53.21875 76.589844 48.8125 76.078125 C 46.109375 75.765625 43.433594 75.210938 40.761719 74.703125 C 40.203125 74.597656 39.488281 74.597656 39.226562 73.832031 C 39.933594 72.578125 41.511719 72.53125 42.5625 71.582031 C 42.34375 71.511719 42.195312 71.40625 42.125 71.441406 C 40.871094 72.152344 39.554688 72.785156 38.40625 73.640625 C 37.867188 74.042969 37.597656 74.847656 37.308594 75.515625 C 37.039062 76.125 37.277344 76.660156 37.933594 76.871094 C 38.808594 77.144531 39.691406 77.445312 40.59375 77.566406 C 44.425781 78.101562 48.253906 78.628906 52.101562 79.042969 C 56.070312 79.46875 60.042969 79.804688 64.019531 80.097656 C 65.789062 80.230469 67.480469 79.820312 68.6875 78.417969 C 69.539062 77.429688 70.21875 76.300781 71.160156 74.96875 Z M 25.464844 77.445312 C 23.851562 78.128906 22.503906 77.878906 21.386719 76.710938 C 20.453125 75.734375 19.960938 74.550781 19.875 73.179688 C 19.789062 71.875 20.253906 70.734375 20.878906 69.574219 C 19.507812 69.152344 18.410156 69.546875 17.539062 70.410156 C 16.707031 71.238281 16.042969 72.226562 15.289062 73.128906 C 14.878906 73.621094 14.824219 74.121094 15.085938 74.699219 C 16.011719 76.765625 16.867188 78.871094 17.863281 80.90625 C 18.46875 82.140625 19.296875 83.269531 20.109375 84.585938 C 21.628906 83.558594 23.046875 82.6875 24.351562 81.679688 C 25.71875 80.628906 26 79.195312 25.460938 77.441406 Z M 40.183594 73.605469 C 40.191406 73.71875 40.195312 73.824219 40.203125 73.933594 C 41.578125 74.183594 42.941406 74.503906 44.324219 74.679688 C 48.589844 75.214844 52.859375 75.746094 57.132812 76.175781 C 59.621094 76.425781 62.125 76.488281 64.625 76.613281 C 66.117188 76.691406 67.082031 75.859375 68.058594 74.675781 C 66.867188 74.527344 65.917969 74.410156 64.964844 74.285156 C 60.917969 73.78125 56.867188 73.285156 52.820312 72.757812 C 51.203125 72.546875 49.675781 72.179688 48 72.902344 C 46.316406 73.632812 44.558594 73.023438 42.929688 72.105469 C 42.003906 72.613281 41.089844 73.109375 40.179688 73.605469 Z M 36.789062 82.796875 C 36.722656 82.960938 36.6875 82.996094 36.6875 83.039062 C 36.515625 86.433594 36.332031 89.835938 36.179688 93.234375 C 36.167969 93.511719 36.226562 93.886719 36.40625 94.070312 C 37.433594 95.121094 38.507812 96.128906 39.652344 97.234375 C 39.683594 96.921875 39.707031 96.796875 39.707031 96.667969 C 39.65625 92.742188 39.601562 88.8125 39.542969 84.886719 C 39.539062 84.511719 39.460938 84.136719 39.417969 83.777344 C 38.5 83.4375 37.679688 83.132812 36.792969 82.796875 Z M 29.828125 76.714844 C 29.828125 78.042969 29.691406 79.667969 29.863281 81.261719 C 30.070312 83.25 30.433594 85.234375 30.910156 87.171875 C 31.277344 88.648438 32.101562 89.945312 33.363281 90.988281 C 33.488281 87.792969 33.5 84.625 33.472656 81.453125 C 33.472656 81.144531 33.292969 80.785156 33.089844 80.539062 C 31.953125 79.171875 30.789062 77.828125 29.828125 76.714844 Z M 16.863281 103.847656 C 17.1875 104.441406 17.519531 105.046875 17.839844 105.648438 C 18.347656 106.605469 19.160156 107.0625 20.222656 106.949219 C 23.40625 106.601562 26.363281 105.570312 29.128906 103.972656 C 29.277344 103.890625 29.464844 103.78125 29.523438 103.636719 C 29.679688 103.261719 29.957031 102.804688 29.859375 102.480469 C 29.625 101.726562 29.195312 101.027344 28.839844 100.292969 C 25.316406 103.527344 21.570312 105.285156 16.863281 103.84375 Z M 46.789062 151.023438 C 48.128906 150.859375 49.339844 150.777344 50.527344 150.554688 C 52.675781 150.160156 54.8125 149.703125 56.945312 149.222656 C 57.410156 149.117188 57.824219 148.796875 58.261719 148.574219 L 58.203125 148.226562 C 55.046875 146.855469 51.660156 146.71875 48.222656 146.472656 C 47.816406 147.710938 47.429688 148.855469 47.054688 150.007812 C 46.964844 150.285156 46.902344 150.574219 46.789062 151.019531 Z M 21.695312 156.8125 C 22.886719 158.652344 27.765625 158.621094 31.003906 156.820312 C 31.003906 156.230469 30.765625 155.71875 30.246094 155.429688 C 28.816406 154.628906 27.246094 154.3125 25.703125 154.867188 C 24.320312 155.367188 23.035156 156.148438 21.695312 156.8125 Z M 34.058594 81.316406 C 34.058594 81.925781 34.058594 82.347656 34.058594 82.773438 C 34.058594 85.347656 34.179688 87.929688 34.011719 90.492188 C 33.914062 91.941406 34.621094 92.605469 35.714844 93.378906 C 35.847656 89.640625 35.980469 86.054688 36.105469 82.46875 C 35.40625 82.078125 34.8125 81.746094 34.058594 81.324219 Z M 15.210938 109.96875 C 13.023438 110.347656 10.96875 110.707031 8.796875 111.085938 C 8.941406 111.863281 9.097656 112.695312 9.253906 113.546875 L 15.324219 113.546875 C 15.792969 111.996094 15.746094 111.261719 15.214844 109.96875 Z M 14.839844 145.558594 C 15.402344 145.875 15.792969 146.160156 16.226562 146.316406 C 17.25 146.691406 18.320312 146.949219 19.332031 147.355469 C 20.648438 147.886719 21.664062 147.4375 22.699219 146.527344 C 20.601562 145.578125 18.558594 144.699219 17.335938 142.558594 C 16.472656 143.597656 15.703125 144.519531 14.839844 145.558594 Z M 59.511719 80.859375 C 59.328125 86.398438 59.144531 91.738281 58.957031 97.21875 C 59.769531 96.414062 60.1875 95.644531 60.039062 94.570312 C 59.933594 93.800781 59.949219 93.003906 59.996094 92.21875 C 60.179688 89.207031 60.386719 86.199219 60.605469 83.1875 C 60.65625 82.460938 60.785156 81.746094 60.890625 80.917969 C 60.351562 80.890625 59.933594 80.875 59.507812 80.855469 Z M 57.132812 99.167969 C 58.246094 98.417969 58.289062 98.296875 58.3125 97.394531 C 58.40625 94.125 58.542969 90.855469 58.640625 87.585938 C 58.699219 85.535156 58.722656 83.488281 58.757812 81.433594 C 58.765625 81.011719 58.714844 80.617188 58.226562 80.769531 C 57.863281 86.945312 57.5 93.0625 57.136719 99.164062 Z M 21.707031 70.113281 C 20.003906 71.976562 20.691406 74.59375 21.949219 75.902344 C 23.035156 77.03125 24.359375 77.113281 25.78125 76.097656 C 23.386719 74.835938 22.703125 72.421875 21.707031 70.113281 Z M 34.691406 141.851562 C 33.410156 141.339844 32.21875 140.863281 31 140.375 C 30.785156 140.683594 30.59375 140.917969 30.433594 141.171875 C 30.304688 141.386719 30.210938 141.621094 30.027344 142.007812 C 30.210938 142.125 30.394531 142.242188 30.578125 142.359375 C 30.839844 142.519531 31.09375 142.683594 31.359375 142.828125 C 33.253906 143.847656 33.445312 143.792969 34.691406 141.851562 Z M 49.363281 83.304688 C 50.375 83.035156 51.117188 82.929688 51.777344 82.636719 C 52.667969 82.25 52.792969 81.582031 52.398438 80.679688 C 51.972656 79.707031 51.085938 80.074219 50.113281 79.71875 C 50.828125 81.125 50.152344 82.070312 49.363281 83.304688 Z M 48.542969 35.546875 C 48.273438 36.546875 47.96875 37.660156 47.628906 38.90625 C 48.730469 39.113281 49.667969 39.289062 50.460938 39.433594 C 49.808594 38.109375 49.164062 36.808594 48.539062 35.546875 Z M 15.355469 43.300781 C 15.273438 43.257812 15.199219 43.210938 15.117188 43.167969 C 14.515625 44.089844 13.917969 45.011719 13.257812 46.019531 C 13.78125 46.371094 14.183594 46.644531 14.726562 47.007812 C 14.957031 45.640625 15.15625 44.46875 15.351562 43.300781 Z M 53.65625 80.382812 L 53.65625 82.183594 C 53.75 82.207031 53.84375 82.234375 53.929688 82.257812 C 54.148438 81.675781 54.363281 81.089844 54.632812 80.382812 Z M 53.65625 80.382812 "/>
<path style=" stroke:none;fill-rule:nonzero;fill:rgb(0%,0%,0%);fill-opacity:1;" d="M 61.203125 92.105469 C 61.1875 91.628906 61.125 91.148438 61.175781 90.679688 C 61.425781 88.257812 61.707031 85.839844 61.976562 83.421875 C 61.996094 83.257812 62.046875 83.09375 62.09375 82.882812 C 62.867188 84.265625 62.289062 89.941406 61.183594 92.085938 L 61.207031 92.105469 Z M 61.203125 92.105469 "/>
<path style=" stroke:none;fill-rule:nonzero;fill:rgb(0%,0%,0%);fill-opacity:1;" d="M 90 158.859375 L 90 158.9375 L 89.910156 158.898438 Z M 90 158.859375 "/>
<path style=" stroke:none;fill-rule:nonzero;fill:rgb(0%,0%,0%);fill-opacity:1;" d="M 79.097656 158.941406 L 79.097656 158.855469 L 79.199219 158.898438 Z M 79.097656 158.941406 "/>
<path style=" stroke:none;fill-rule:nonzero;fill:rgb(0%,0%,0%);fill-opacity:1;" d="M 47.132812 158.957031 C 47.105469 158.933594 47.082031 158.914062 47.054688 158.886719 C 47.085938 158.875 47.117188 158.84375 47.148438 158.851562 C 47.179688 158.851562 47.199219 158.886719 47.230469 158.914062 Z M 47.132812 158.957031 "/>
<path style=" stroke:none;fill-rule:nonzero;fill:rgb(0%,0%,0%);fill-opacity:1;" d="M 23.152344 70.007812 C 23.058594 70.191406 22.96875 70.371094 22.875 70.554688 L 22.898438 70.566406 C 22.898438 70.378906 22.898438 70.195312 22.898438 70.007812 L 22.871094 70.035156 C 22.96875 70.035156 23.070312 70.035156 23.167969 70.035156 L 23.152344 70.011719 Z M 23.152344 70.007812 "/>
<path style=" stroke:none;fill-rule:nonzero;fill:rgb(0%,0%,0%);fill-opacity:1;" d="M 28.441406 74.496094 L 28.484375 74.429688 L 28.429688 74.484375 Z M 28.441406 74.496094 "/>
<path style=" stroke:none;fill-rule:nonzero;fill:rgb(0%,0%,0%);fill-opacity:1;" d="M 40.976562 158.839844 L 41.007812 158.921875 L 40.929688 158.914062 Z M 40.976562 158.839844 "/>
<path style=" stroke:none;fill-rule:nonzero;fill:rgb(68.235296%,57.647061%,77.254903%);fill-opacity:1;" d="M 51.941406 39.308594 C 53.363281 39.355469 54.742188 39.210938 56.019531 38.503906 C 59.203125 36.734375 59.972656 32.921875 59.257812 30.203125 C 59.085938 29.539062 58.789062 28.90625 58.433594 28.308594 C 58.554688 29.589844 58.753906 30.871094 58.789062 32.15625 C 58.835938 34.066406 58.261719 35.78125 56.808594 37.109375 C 55.636719 38.179688 54.277344 38.785156 52.535156 38.664062 C 52.941406 37.046875 53.367188 35.546875 53.691406 34.019531 C 54.054688 32.269531 54.335938 30.5 54.621094 28.738281 C 54.695312 28.289062 54.886719 27.789062 54.351562 27.429688 C 53.777344 27.046875 53.148438 26.96875 52.621094 27.351562 C 51.816406 27.9375 51.101562 28.644531 50.351562 29.308594 L 50.359375 29.316406 C 50.445312 28.792969 50.527344 28.273438 50.613281 27.75 C 50.640625 27.675781 50.664062 27.597656 50.6875 27.519531 C 50.667969 27.601562 50.652344 27.683594 50.632812 27.765625 C 50.164062 28.882812 49.582031 29.964844 49.242188 31.117188 C 47.109375 38.367188 45.03125 45.636719 42.921875 52.894531 C 42.683594 53.734375 42.398438 54.566406 42.058594 55.367188 C 41.820312 55.933594 41.449219 56.621094 40.773438 56.488281 C 40.324219 56.40625 39.789062 55.867188 39.609375 55.410156 C 39.082031 54.03125 38.527344 52.617188 38.308594 51.167969 C 37.683594 47.066406 37.195312 42.941406 36.699219 38.820312 C 36.351562 35.957031 36.082031 33.082031 35.761719 30.21875 C 35.609375 28.835938 35.429688 27.449219 35.050781 26.070312 C 35.136719 29.425781 35.214844 32.773438 35.304688 36.257812 C 34.511719 36.144531 33.839844 36.042969 33.167969 35.945312 C 26.796875 35.039062 21.136719 36.65625 16.222656 40.773438 C 14.308594 42.375 12.886719 44.347656 12.210938 46.8125 C 10.992188 47.105469 9.882812 46.8125 8.875 46.277344 C 7.835938 45.71875 6.882812 45 5.886719 44.363281 C 5.339844 44.015625 5.402344 43.488281 5.402344 42.960938 C 5.394531 40.121094 6.070312 37.429688 7.015625 34.769531 C 9.152344 28.742188 12.058594 23.140625 16.058594 18.121094 C 16.332031 17.777344 16.621094 17.453125 16.90625 17.113281 C 18.25 17.203125 19.5625 17.246094 20.867188 17.402344 C 23.691406 17.746094 26.410156 17.351562 28.984375 16.195312 C 32.429688 14.648438 35.832031 13.011719 39.25 11.414062 C 41.800781 10.222656 44.382812 9.121094 47.152344 8.527344 C 47.574219 8.4375 47.996094 8.375 48.507812 8.394531 C 47.355469 9.730469 46.617188 11.226562 46.203125 12.886719 C 45.40625 16.085938 45.679688 19.144531 47.546875 21.941406 C 50.125 25.804688 55.425781 26.339844 58.78125 23.109375 C 62.035156 19.980469 62.996094 15.292969 61.15625 11.441406 C 60.972656 11.054688 60.683594 10.71875 60.445312 10.359375 C 60.25 10.117188 60.054688 9.878906 59.863281 9.632812 L 59.824219 9.589844 L 59.878906 9.617188 C 60.019531 9.90625 60.160156 10.199219 60.300781 10.492188 C 60.609375 11.582031 61.027344 12.652344 61.199219 13.757812 C 61.738281 17.238281 60.695312 20.257812 58.117188 22.660156 C 55.011719 25.554688 50.441406 24.976562 48.042969 21.46875 C 45.796875 18.1875 45.890625 12.8125 48.21875 9.566406 C 48.917969 8.589844 49.769531 8.050781 50.996094 7.808594 C 53.746094 7.253906 56.449219 6.507812 59.34375 5.796875 C 60.523438 6.636719 61.929688 7.53125 62.859375 9.082031 C 62.269531 9.636719 62.421875 10.273438 62.703125 10.960938 C 62.964844 11.605469 63.121094 12.296875 63.335938 12.957031 C 63.546875 13.597656 63.683594 14.175781 63.097656 14.757812 C 62.679688 15.175781 62.824219 15.734375 63.1875 16.191406 C 63.621094 16.742188 64.046875 17.292969 64.589844 17.746094 C 64.96875 20.949219 65.117188 24.289062 64.449219 27.695312 C 62.808594 28.015625 62.40625 29.304688 62.160156 30.765625 C 61.992188 31.769531 62.105469 32.878906 61.296875 33.710938 C 61.214844 33.796875 61.152344 33.976562 61.183594 34.078125 C 61.753906 35.621094 60.460938 36.855469 60.554688 38.351562 C 57.957031 39.277344 55.339844 39.707031 52.636719 39.589844 C 52.402344 39.582031 52.179688 39.390625 51.949219 39.285156 L 51.933594 39.304688 Z M 54.945312 9.136719 C 53.785156 9.023438 53 9.359375 52.535156 10.085938 C 51.984375 10.953125 51.375 11.90625 51.226562 12.890625 C 50.730469 16.226562 51.296875 19.421875 53.085938 22.335938 C 53.386719 22.824219 53.890625 23.195312 54.296875 23.621094 C 54.414062 23.578125 54.535156 23.535156 54.65625 23.496094 C 55.605469 18.761719 56.148438 14.019531 54.945312 9.132812 Z M 11.550781 32.277344 C 11.582031 32.40625 11.609375 32.539062 11.636719 32.667969 C 11.871094 32.703125 12.113281 32.730469 12.351562 32.769531 C 13.730469 32.972656 15.128906 33.105469 16.488281 33.402344 C 17.949219 33.726562 18.820312 34.714844 19.105469 36.191406 C 19.148438 36.417969 19.207031 36.648438 19.253906 36.875 C 19.578125 36.296875 19.679688 35.703125 19.835938 35.125 C 20.074219 34.253906 19.789062 33.539062 19.117188 33.03125 C 17.441406 31.769531 15.539062 31.210938 13.441406 31.554688 C 12.789062 31.664062 12.175781 32.027344 11.542969 32.273438 Z M 11.550781 32.277344 "/>
<path style=" stroke:none;fill-rule:nonzero;fill:rgb(16.862746%,21.960784%,56.078434%);fill-opacity:1;" d="M 24.097656 37.503906 C 23.945312 42.15625 23.761719 46.609375 23.660156 51.066406 C 23.558594 55.480469 23.449219 59.902344 24.148438 64.300781 C 24.382812 55.355469 24.617188 46.40625 24.859375 37.257812 C 25.871094 37.074219 26.910156 36.878906 27.960938 36.679688 C 27.546875 45.101562 27.371094 53.332031 28.816406 61.503906 C 28.496094 53.257812 28.277344 45.011719 28.597656 36.625 C 29.386719 36.625 30.085938 36.609375 30.789062 36.628906 C 31.261719 36.644531 31.734375 36.714844 32.320312 36.765625 C 32.332031 43.464844 31.636719 50.113281 32.925781 56.714844 L 32.925781 36.765625 C 33.808594 36.886719 34.496094 36.980469 35.347656 37.097656 C 35.484375 38.402344 35.617188 39.6875 35.753906 40.96875 C 36.175781 44.972656 36.636719 48.972656 37.664062 52.875 C 37.972656 54.046875 38.410156 55.222656 39.015625 56.265625 C 39.949219 57.863281 41.476562 57.847656 42.4375 56.253906 C 42.945312 55.40625 43.277344 54.421875 43.542969 53.464844 C 44.714844 49.296875 45.828125 45.117188 46.96875 40.941406 C 47.070312 40.566406 47.203125 40.199219 47.347656 39.753906 C 48.488281 40.039062 49.578125 40.304688 50.808594 40.609375 C 50.570312 47.242188 50.082031 53.847656 50.59375 60.46875 C 51.117188 57.207031 51.042969 53.914062 51.117188 50.625 C 51.195312 47.351562 51.277344 44.078125 51.355469 40.871094 C 53.957031 40.632812 56.640625 40.386719 59.359375 40.144531 C 59.175781 41.089844 58.988281 42.15625 58.742188 43.210938 C 58.679688 43.480469 58.492188 43.78125 58.269531 43.949219 C 57.101562 44.84375 56.742188 46.058594 56.875 47.441406 C 56.9375 48.132812 56.78125 48.65625 56.339844 49.226562 C 55.617188 50.167969 55.75 50.753906 56.617188 51.6875 C 58.835938 50.011719 61.054688 48.335938 63.394531 46.558594 C 63.617188 54.894531 62.367188 63.140625 62.738281 71.414062 C 62.828125 71.425781 62.910156 71.4375 63 71.449219 C 63.113281 70.867188 63.304688 70.289062 63.332031 69.699219 C 63.617188 62.972656 63.882812 56.242188 64.121094 49.507812 C 64.148438 48.640625 64.039062 47.757812 63.902344 46.898438 C 63.796875 46.21875 63.988281 45.757812 64.46875 45.273438 C 65.441406 44.28125 66.332031 43.214844 67.378906 42.042969 C 66.886719 50.765625 66.40625 59.292969 65.925781 67.828125 C 66.035156 67.839844 66.140625 67.859375 66.25 67.871094 C 66.675781 65.175781 67.332031 62.492188 67.472656 59.78125 C 67.785156 53.757812 67.839844 47.714844 68.003906 41.683594 C 68.015625 41.386719 68.023438 41.050781 68.167969 40.808594 C 68.726562 39.882812 69.34375 38.984375 70.035156 37.925781 C 70.035156 40.699219 70.058594 43.292969 70.027344 45.894531 C 69.996094 48.867188 69.890625 51.839844 69.855469 54.816406 C 69.792969 60.476562 68.699219 65.925781 66.507812 71.15625 C 66.34375 71.558594 66.125 71.933594 65.878906 72.433594 C 63.945312 72.175781 62.042969 71.875 60.128906 71.675781 C 57.027344 71.351562 53.917969 71.105469 50.816406 70.789062 C 50.4375 70.75 50.007812 70.539062 49.71875 70.285156 C 47.089844 67.894531 44.480469 65.472656 41.304688 63.804688 C 36.691406 61.375 29.808594 61.660156 25.175781 66.828125 C 24.863281 67.179688 24.527344 67.515625 24.050781 68.019531 C 22.328125 66.089844 20.5 64.359375 19.0625 62.363281 C 15.976562 58.070312 15.246094 53.140625 15.648438 47.984375 C 15.78125 46.285156 15.902344 44.585938 16.09375 42.890625 C 16.144531 42.460938 16.347656 41.949219 16.65625 41.667969 C 18.75 39.738281 21.222656 38.457031 24.09375 37.496094 Z M 47.640625 60.925781 C 47.730469 60.925781 47.820312 60.925781 47.90625 60.925781 C 47.992188 58.09375 48.078125 55.253906 48.15625 52.417969 C 48.253906 48.925781 48.363281 45.429688 48.4375 41.9375 C 48.445312 41.472656 48.316406 41.003906 48.246094 40.539062 C 48.136719 40.554688 48.023438 40.566406 47.910156 40.582031 C 47.832031 47.367188 46.984375 54.140625 47.640625 60.925781 Z M 21.34375 60.960938 C 21.152344 58.585938 20.902344 56.214844 20.78125 53.839844 C 20.65625 51.445312 20.601562 49.039062 20.625 46.644531 C 20.648438 44.261719 20.804688 41.878906 20.910156 39.5 C 20.765625 39.5 20.621094 39.5 20.476562 39.5 C 19.835938 46.679688 19.394531 53.851562 21.34375 60.964844 Z M 59.757812 68.554688 C 60.988281 63.8125 61.1875 52.179688 60.210938 50.695312 C 60.054688 56.742188 59.90625 62.648438 59.757812 68.554688 Z M 54.269531 41.167969 C 54.175781 41.15625 54.085938 41.140625 53.992188 41.125 C 53.511719 47.390625 53.605469 53.65625 53.914062 59.917969 L 54.269531 59.917969 Z M 54.269531 41.167969 "/>
<path style=" stroke:none;fill-rule:nonzero;fill:rgb(14.901961%,13.333334%,38.039216%);fill-opacity:1;" d="M 16.546875 103.347656 C 12.039062 90.199219 9.523438 76.90625 9.515625 63.164062 C 9.488281 63.582031 9.460938 64 9.433594 64.414062 C 9.410156 64.898438 9.386719 65.378906 9.367188 65.859375 C 8.855469 76.007812 10.210938 85.917969 13.175781 95.628906 C 14.105469 98.679688 14.980469 101.746094 15.765625 104.839844 C 16.476562 107.632812 15.765625 108.679688 12.925781 109.351562 C 11.292969 109.742188 9.640625 109.921875 7.957031 109.6875 C 6.238281 109.445312 5.425781 108.84375 5.042969 107.140625 C 4.691406 105.570312 4.394531 103.964844 4.253906 102.363281 C 3.695312 96 3.304688 89.628906 3.324219 83.238281 C 3.351562 75.222656 3.867188 67.246094 4.828125 59.289062 C 5.113281 56.945312 5.171875 54.589844 4.496094 52.050781 C 6.433594 53.535156 8.511719 54.0625 10.875 54.03125 C 10.898438 54.449219 10.941406 54.824219 10.9375 55.195312 C 10.816406 63.707031 12.386719 71.878906 15.945312 79.648438 C 17.449219 82.9375 19.5625 85.832031 21.816406 88.636719 C 23.242188 90.414062 24.71875 92.152344 26.136719 93.929688 C 26.710938 94.648438 27.261719 95.394531 27.71875 96.1875 C 28.640625 97.777344 28.433594 99.046875 27.058594 100.289062 C 25.703125 101.515625 24.09375 102.34375 22.316406 102.757812 C 21.082031 103.046875 19.808594 103.199219 18.546875 103.347656 C 17.902344 103.421875 17.234375 103.359375 16.539062 103.359375 Z M 16.546875 103.347656 "/>
<path style=" stroke:none;fill-rule:nonzero;fill:rgb(16.862746%,21.960784%,56.078434%);fill-opacity:1;" d="M 20.136719 108.039062 C 24.421875 107.601562 28.5 106.132812 31.058594 104.203125 C 31.261719 104.46875 31.484375 104.730469 31.675781 105.007812 C 34.6875 109.367188 37.660156 113.753906 40.71875 118.074219 C 42.625 120.773438 43.394531 123.664062 42.578125 126.878906 C 42.179688 128.441406 41.738281 130.019531 41.070312 131.476562 C 40.046875 133.695312 38.8125 135.816406 37.667969 137.980469 C 36.730469 139.753906 35.269531 140.589844 33.242188 140.382812 C 32.597656 140.316406 31.949219 140.246094 31.101562 140.160156 C 31.40625 139.550781 31.628906 139.101562 31.859375 138.652344 C 32.984375 136.476562 34.152344 134.320312 35.234375 132.121094 C 36.679688 129.179688 36.75 126.140625 35.640625 123.078125 C 35.148438 121.726562 34.652344 120.359375 34.015625 119.070312 C 32.289062 115.585938 30.488281 112.140625 28.480469 108.761719 C 28.648438 109.25 28.800781 109.75 28.996094 110.230469 C 30.617188 114.242188 32.226562 118.261719 33.875 122.261719 C 35.332031 125.777344 35.359375 129.214844 33.5 132.617188 C 32.109375 135.148438 30.839844 137.746094 29.378906 140.238281 C 28.589844 141.585938 27.617188 142.867188 26.546875 144 C 25.109375 145.515625 24.035156 145.625 22.15625 144.742188 C 21.367188 144.371094 20.585938 143.941406 19.886719 143.421875 C 18.628906 142.496094 18.320312 141.460938 19.054688 140.097656 C 19.710938 138.875 20.5 137.6875 21.421875 136.648438 C 23.65625 134.121094 25.996094 131.683594 28.308594 129.234375 C 29.378906 128.101562 29.386719 128.039062 28.742188 126.609375 C 26.894531 122.5 25.09375 118.371094 23.21875 114.277344 C 22.367188 112.410156 21.378906 110.601562 20.453125 108.765625 C 20.339844 108.542969 20.246094 108.304688 20.132812 108.054688 Z M 20.136719 108.039062 "/>
<path style=" stroke:none;fill-rule:nonzero;fill:rgb(16.862746%,21.960784%,56.078434%);fill-opacity:1;" d="M 62.058594 35.621094 L 62.058594 33.875 C 64.480469 33.503906 66.882812 33.136719 69.277344 32.765625 C 67.109375 32.117188 64.972656 32.613281 62.632812 32.765625 C 62.859375 31.667969 63.0625 30.703125 63.269531 29.742188 C 63.421875 29.023438 64.003906 28.800781 64.601562 28.625 C 66.453125 28.078125 68.3125 27.554688 70.164062 27.023438 C 70.320312 26.980469 70.46875 26.914062 70.625 26.855469 C 70.605469 26.769531 70.589844 26.675781 70.578125 26.585938 C 68.898438 26.789062 67.222656 26.992188 65.359375 27.214844 C 65.476562 25.976562 65.601562 24.734375 65.738281 23.347656 L 70.664062 23.347656 C 69.1875 22.273438 67.496094 22.429688 65.820312 22.339844 C 65.722656 21.507812 65.644531 20.785156 65.550781 19.976562 C 67.433594 19.226562 69.632812 19.714844 71.242188 18.152344 C 69.40625 18.363281 67.570312 18.574219 65.683594 18.796875 C 65.457031 17.972656 65.929688 17.65625 66.472656 17.449219 C 67.171875 17.1875 67.910156 17.03125 68.613281 16.78125 C 69.203125 16.578125 69.769531 16.3125 70.292969 15.925781 C 68.527344 15.523438 67.074219 16.359375 65.355469 16.980469 C 64.875 16.546875 64.320312 16.046875 63.589844 15.378906 C 65.960938 14.242188 68.371094 14.429688 70.308594 13.742188 L 64.34375 13.742188 C 64.039062 12.671875 63.6875 11.429688 63.289062 10.042969 C 64.957031 9.757812 66.496094 10.484375 68.0625 10.398438 C 68.082031 10.296875 68.101562 10.191406 68.125 10.089844 C 66.667969 9.679688 65.214844 9.265625 63.835938 8.878906 C 62.632812 7.6875 61.429688 6.5 60.171875 5.257812 C 60.332031 5.148438 60.59375 4.972656 60.929688 4.746094 C 60.742188 4.703125 60.625 4.640625 60.527344 4.664062 C 58.859375 5.046875 57.210938 5.5 55.53125 5.820312 C 53.375 6.230469 51.210938 6.667969 49.03125 6.839844 C 46 7.082031 43.152344 7.898438 40.433594 9.167969 C 37.132812 10.707031 33.886719 12.363281 30.609375 13.953125 C 29.738281 14.375 28.84375 14.742188 27.960938 15.128906 C 25.921875 16.023438 23.800781 16.492188 21.558594 16.417969 C 20.328125 16.375 19.097656 16.40625 17.660156 16.40625 C 17.976562 15.984375 18.167969 15.667969 18.417969 15.414062 C 24.195312 9.507812 31.054688 5.273438 38.859375 2.582031 C 44.820312 0.527344 50.808594 0.957031 56.753906 2.730469 C 58.183594 3.15625 59.574219 3.707031 60.96875 4.242188 C 64.214844 5.476562 66.761719 7.707031 69.109375 10.148438 C 71.558594 12.699219 72.488281 15.945312 72.730469 19.367188 C 73.398438 28.75 70.199219 36.785156 63.980469 43.738281 C 63.394531 44.390625 62.71875 44.96875 62.1875 45.660156 C 61.042969 47.132812 59.34375 47.410156 57.734375 47.972656 C 57.414062 45.933594 58.105469 44.761719 59.9375 44.167969 C 60.523438 43.976562 61.128906 43.859375 61.71875 43.691406 C 62.300781 43.527344 62.878906 43.335938 63.714844 43.078125 C 62.222656 42.628906 60.980469 43.078125 59.75 43.148438 C 59.589844 40.675781 60.273438 39.710938 62.507812 39.066406 C 63.640625 38.742188 64.75 38.34375 65.851562 37.84375 C 64.363281 37.589844 62.941406 38.046875 61.519531 38.347656 C 61.261719 37.207031 61.421875 36.796875 62.28125 36.546875 C 62.863281 36.371094 63.484375 36.292969 64.089844 36.203125 C 65.558594 35.992188 67.035156 35.804688 68.496094 35.519531 C 66.402344 34.75 64.308594 35.261719 62.058594 35.613281 Z M 62.058594 35.621094 "/>
<path style=" stroke:none;fill-rule:nonzero;fill:rgb(16.862746%,21.960784%,56.078434%);fill-opacity:1;" d="M 42.175781 84.449219 C 41.84375 89.019531 41.238281 93.527344 41.640625 98.046875 C 41.738281 98.050781 41.835938 98.054688 41.933594 98.058594 C 42.195312 93.589844 42.453125 89.117188 42.714844 84.53125 C 43.523438 84.617188 44.195312 84.6875 44.921875 84.769531 C 44.738281 89.832031 43.921875 94.773438 44.558594 99.785156 C 44.714844 98.585938 44.914062 97.390625 45.019531 96.1875 C 45.128906 94.925781 45.152344 93.65625 45.214844 92.386719 C 45.28125 91.121094 45.382812 89.855469 45.417969 88.589844 C 45.453125 87.332031 45.425781 86.078125 45.425781 84.679688 C 46.886719 84.433594 48.207031 84.222656 49.527344 83.988281 C 50.472656 83.820312 51.410156 83.621094 52.351562 83.421875 C 52.566406 83.382812 52.761719 83.261719 52.972656 83.226562 C 54.898438 82.886719 55.226562 82.445312 54.949219 80.390625 C 55.351562 80.429688 55.730469 80.457031 56.101562 80.5 C 56.488281 80.546875 56.871094 80.609375 57.285156 80.667969 C 57.285156 81.371094 57.316406 82.019531 57.28125 82.65625 C 57.042969 86.847656 56.78125 91.035156 56.558594 95.230469 C 56.5 96.273438 56.441406 97.339844 56.582031 98.363281 C 56.757812 99.660156 56.320312 100.449219 55.09375 100.871094 C 55.195312 94.425781 55.976562 88.023438 55.789062 81.589844 C 55.226562 88.117188 54.238281 94.621094 54.539062 101.167969 C 51.425781 103.539062 47.75 103.480469 45.152344 101.777344 C 43.542969 100.722656 42.101562 99.421875 40.628906 98.179688 C 40.339844 97.933594 40.128906 97.4375 40.128906 97.054688 C 40.105469 92.859375 40.136719 88.664062 40.15625 84.464844 C 40.15625 84.34375 40.226562 84.222656 40.289062 84.007812 C 40.886719 84.148438 41.46875 84.285156 42.167969 84.449219 Z M 49.171875 84.394531 C 48.5 85.816406 47.515625 99.667969 47.894531 101.109375 C 48.902344 95.449219 49.382812 89.941406 49.171875 84.394531 Z M 49.171875 84.394531 "/>
<path style=" stroke:none;fill-rule:nonzero;fill:rgb(68.235296%,57.647061%,77.254903%);fill-opacity:1;" d="M 9.4375 126.496094 C 9.179688 126.835938 8.90625 127.167969 8.671875 127.519531 C 7.648438 129.046875 6.296875 130.242188 4.65625 131.03125 C 3.953125 131.371094 3.050781 131.464844 2.253906 131.414062 C 1.25 131.351562 0.933594 130.519531 1.5625 129.730469 C 1.960938 129.234375 2.476562 128.730469 3.050781 128.492188 C 5.210938 127.589844 6.367188 125.875 7.214844 123.828125 C 8.292969 121.214844 8.726562 118.457031 9.210938 115.703125 C 9.261719 115.40625 9.347656 115.117188 9.4375 114.773438 L 16.1875 114.773438 C 16.425781 116.527344 16.730469 118.28125 16.886719 120.050781 C 17.285156 124.578125 17.09375 129.066406 15.398438 133.347656 C 14.871094 134.671875 14.074219 135.902344 13.277344 137.097656 C 12.738281 137.902344 11.929688 138.480469 10.894531 138.59375 C 10.164062 138.671875 9.484375 138.59375 8.949219 137.773438 C 13.554688 135.535156 15.085938 131.644531 14.691406 126.769531 C 14.585938 127.0625 14.464844 127.34375 14.394531 127.640625 C 13.867188 129.765625 13.28125 131.871094 12.128906 133.757812 C 11.15625 135.355469 9.816406 136.5 7.949219 136.917969 C 7.449219 137.027344 6.917969 137 6.324219 136.933594 C 10.976562 135.105469 12.511719 131.378906 12.773438 126.867188 C 12.046875 129.277344 10.808594 131.421875 9.179688 133.332031 C 7.984375 134.738281 6.5 135.742188 4.574219 135.847656 C 2.316406 135.96875 1.683594 135.160156 2.222656 132.894531 C 5.894531 132.304688 8.953125 129.570312 9.417969 126.46875 C 9.484375 126.335938 9.550781 126.203125 9.621094 126.070312 C 9.574219 126.054688 9.527344 126.035156 9.480469 126.023438 C 9.464844 126.179688 9.449219 126.332031 9.433594 126.488281 Z M 9.4375 126.496094 "/>
<path style=" stroke:none;fill-rule:nonzero;fill:rgb(65.098041%,65.882355%,67.058825%);fill-opacity:1;" d="M 32.007812 156.707031 C 31.433594 154.546875 29.867188 154.222656 28.128906 153.914062 C 28.625 153.609375 29.027344 153.363281 29.433594 153.113281 C 29.414062 153.042969 29.390625 152.96875 29.375 152.898438 C 29.015625 152.917969 28.621094 152.855469 28.296875 152.976562 C 26.902344 153.496094 25.460938 153.480469 24.003906 153.472656 C 18.507812 153.449219 13.015625 153.5 7.515625 153.421875 C 6.039062 153.398438 4.558594 153.0625 3.097656 152.789062 C 2.515625 152.683594 1.976562 152.363281 1.175781 152.042969 C 1.679688 151.476562 1.96875 150.96875 2.402344 150.691406 C 3.503906 149.988281 4.621094 149.246094 5.828125 148.765625 C 8.109375 147.859375 10.460938 147.132812 12.785156 146.335938 C 13.410156 146.117188 13.902344 146.234375 14.476562 146.652344 C 16.226562 147.90625 18.320312 148.324219 20.371094 148.804688 C 20.792969 148.90625 21.300781 148.648438 21.773438 148.582031 C 22.363281 148.5 22.984375 148.304688 23.550781 148.398438 C 25.671875 148.75 27.796875 149.125 29.878906 149.648438 C 31.445312 150.042969 32.957031 150.667969 34.488281 151.195312 C 34.652344 151.25 34.804688 151.335938 34.957031 151.429688 C 36.6875 152.472656 36.785156 153.503906 35.15625 154.75 C 34.226562 155.457031 33.167969 155.992188 32.011719 156.703125 Z M 32.007812 156.707031 "/>
<path style=" stroke:none;fill-rule:nonzero;fill:rgb(65.098041%,65.882355%,67.058825%);fill-opacity:1;" d="M 47.503906 146.535156 C 46.921875 148.105469 46.390625 149.566406 45.84375 151.042969 C 43.246094 151.230469 40.757812 151.429688 38.257812 151.582031 C 37.902344 151.601562 37.421875 151.515625 37.179688 151.285156 C 35.339844 149.566406 33.015625 148.878906 30.679688 148.265625 C 28.433594 147.671875 26.144531 147.207031 23.78125 147.558594 C 23.542969 147.589844 23.289062 147.511719 22.703125 147.449219 C 23.144531 147.066406 23.367188 146.710938 23.59375 146.710938 C 26.210938 146.707031 27.714844 145.015625 29.136719 143.179688 C 29.269531 143.011719 29.414062 142.84375 29.570312 142.664062 C 30.28125 143.132812 30.972656 143.570312 31.644531 144.035156 C 33.410156 145.261719 35.492188 145.460938 37.519531 145.695312 C 40.394531 146.035156 43.296875 146.167969 46.1875 146.394531 C 46.570312 146.421875 46.953125 146.476562 47.503906 146.539062 Z M 47.503906 146.535156 "/>
<path style=" stroke:none;fill-rule:nonzero;fill:rgb(50.196081%,50.588238%,51.764709%);fill-opacity:1;" d="M 71.160156 74.964844 C 70.214844 76.296875 69.53125 77.425781 68.6875 78.410156 C 67.480469 79.816406 65.789062 80.226562 64.019531 80.09375 C 60.042969 79.800781 56.066406 79.464844 52.101562 79.039062 C 48.261719 78.628906 44.425781 78.09375 40.59375 77.5625 C 39.691406 77.4375 38.808594 77.140625 37.933594 76.867188 C 37.273438 76.660156 37.039062 76.121094 37.308594 75.507812 C 37.597656 74.84375 37.867188 74.039062 38.40625 73.636719 C 39.554688 72.785156 40.871094 72.148438 42.125 71.4375 C 42.195312 71.402344 42.34375 71.503906 42.5625 71.578125 C 41.511719 72.527344 39.9375 72.574219 39.226562 73.828125 C 39.492188 74.597656 40.203125 74.597656 40.761719 74.699219 C 43.4375 75.207031 46.113281 75.757812 48.8125 76.074219 C 53.21875 76.589844 57.648438 76.929688 62.066406 77.332031 C 62.726562 77.390625 63.386719 77.375 64.042969 77.410156 C 66.246094 77.542969 67.773438 76.667969 68.488281 74.441406 C 67.273438 73.75 65.886719 73.824219 64.570312 73.648438 C 60.257812 73.089844 55.9375 72.59375 51.621094 72.0625 C 51.148438 72.003906 50.691406 71.863281 50.214844 71.542969 C 50.46875 71.519531 50.734375 71.433594 50.980469 71.46875 C 56.289062 72.195312 61.601562 72.929688 66.910156 73.671875 C 67.648438 73.777344 68.394531 73.882812 69.113281 74.089844 C 69.722656 74.265625 70.292969 74.582031 71.160156 74.960938 Z M 59.585938 78.980469 C 59.609375 78.859375 59.632812 78.730469 59.65625 78.609375 C 58.945312 77.964844 58.128906 77.539062 57.121094 77.5625 C 56.703125 77.578125 56.175781 77.472656 56.101562 78.089844 C 56.03125 78.726562 56.53125 78.933594 57.015625 78.964844 C 57.867188 79.023438 58.722656 78.980469 59.582031 78.980469 Z M 64.496094 78.859375 C 63.539062 78.261719 62.726562 78.292969 61.84375 78.777344 C 62.585938 79.457031 63.207031 79.488281 64.496094 78.859375 Z M 64.496094 78.859375 "/>
<path style=" stroke:none;fill-rule:nonzero;fill:rgb(14.901961%,13.333334%,38.039216%);fill-opacity:1;" d="M 25.464844 77.445312 C 26.003906 79.195312 25.722656 80.636719 24.355469 81.683594 C 23.046875 82.6875 21.632812 83.558594 20.113281 84.589844 C 19.300781 83.277344 18.472656 82.144531 17.867188 80.910156 C 16.867188 78.875 16.011719 76.769531 15.089844 74.703125 C 14.828125 74.125 14.882812 73.625 15.292969 73.136719 C 16.046875 72.226562 16.714844 71.242188 17.542969 70.414062 C 18.414062 69.546875 19.511719 69.15625 20.882812 69.578125 C 20.257812 70.738281 19.792969 71.878906 19.878906 73.183594 C 19.964844 74.554688 20.453125 75.738281 21.390625 76.714844 C 22.507812 77.882812 23.855469 78.132812 25.46875 77.449219 Z M 25.464844 77.445312 "/>
<path style=" stroke:none;fill-rule:nonzero;fill:url(#linear0);" d="M 40.1875 73.601562 C 41.097656 73.105469 42.011719 72.609375 42.9375 72.101562 C 44.566406 73.023438 46.324219 73.628906 48.007812 72.898438 C 49.683594 72.171875 51.210938 72.542969 52.828125 72.753906 C 56.875 73.28125 60.925781 73.777344 64.972656 74.28125 C 65.925781 74.398438 66.882812 74.519531 68.066406 74.671875 C 67.089844 75.855469 66.125 76.6875 64.632812 76.609375 C 62.136719 76.484375 59.628906 76.421875 57.140625 76.171875 C 52.867188 75.742188 48.59375 75.210938 44.332031 74.675781 C 42.949219 74.5 41.582031 74.179688 40.214844 73.929688 C 40.203125 73.816406 40.199219 73.710938 40.191406 73.601562 Z M 40.1875 73.601562 "/>
<path style=" stroke:none;fill-rule:nonzero;fill:rgb(10.196079%,10.588235%,21.176471%);fill-opacity:1;" d="M 11.289062 52.933594 C 8.902344 53.601562 6.792969 52.957031 4.851562 51.582031 C 4.640625 51.433594 4.449219 51.089844 4.445312 50.832031 C 4.410156 48.65625 4.429688 46.480469 4.429688 44.027344 C 4.898438 44.46875 5.195312 44.746094 5.492188 45.027344 C 7.101562 46.558594 8.816406 47.898438 11.15625 48.082031 C 11.503906 48.113281 11.859375 48.128906 12.203125 48.09375 C 13.171875 48.003906 13.230469 47.902344 12.976562 46.503906 C 13.46875 46.996094 13.753906 47.273438 14.097656 47.613281 C 13.585938 48.296875 13.152344 48.835938 12.757812 49.40625 C 12.007812 50.484375 11.324219 51.59375 11.269531 52.957031 L 11.292969 52.933594 Z M 11.289062 52.933594 "/>
<path style=" stroke:none;fill-rule:nonzero;fill:rgb(16.862746%,21.960784%,56.078434%);fill-opacity:1;" d="M 36.789062 82.796875 C 37.675781 83.128906 38.496094 83.429688 39.414062 83.777344 C 39.457031 84.136719 39.53125 84.511719 39.539062 84.886719 C 39.601562 88.8125 39.652344 92.742188 39.703125 96.667969 C 39.703125 96.796875 39.683594 96.925781 39.648438 97.234375 C 38.503906 96.125 37.429688 95.121094 36.402344 94.070312 C 36.226562 93.886719 36.160156 93.511719 36.175781 93.234375 C 36.332031 89.835938 36.511719 86.4375 36.683594 83.039062 C 36.683594 82.996094 36.71875 82.960938 36.785156 82.796875 Z M 36.789062 82.796875 "/>
<path style=" stroke:none;fill-rule:nonzero;fill:rgb(16.862746%,21.960784%,56.078434%);fill-opacity:1;" d="M 29.828125 76.714844 C 30.789062 77.828125 31.953125 79.171875 33.089844 80.539062 C 33.292969 80.78125 33.46875 81.144531 33.472656 81.453125 C 33.503906 84.625 33.488281 87.796875 33.363281 90.988281 C 32.101562 89.941406 31.269531 88.648438 30.910156 87.171875 C 30.433594 85.234375 30.070312 83.25 29.863281 81.261719 C 29.691406 79.667969 29.828125 78.042969 29.828125 76.714844 Z M 29.828125 76.714844 "/>
<path style=" stroke:none;fill-rule:nonzero;fill:rgb(10.196079%,10.588235%,21.176471%);fill-opacity:1;" d="M 16.863281 103.847656 C 21.570312 105.285156 25.316406 103.53125 28.839844 100.296875 C 29.195312 101.03125 29.621094 101.726562 29.859375 102.484375 C 29.960938 102.808594 29.679688 103.265625 29.523438 103.640625 C 29.464844 103.785156 29.277344 103.890625 29.128906 103.980469 C 26.363281 105.574219 23.402344 106.609375 20.222656 106.953125 C 19.160156 107.066406 18.351562 106.609375 17.839844 105.652344 C 17.519531 105.046875 17.1875 104.445312 16.863281 103.851562 Z M 16.863281 103.847656 "/>
<path style=" stroke:none;fill-rule:nonzero;fill:rgb(42.745098%,43.137255%,43.921569%);fill-opacity:1;" d="M 46.789062 151.023438 C 46.90625 150.578125 46.964844 150.289062 47.054688 150.011719 C 47.429688 148.859375 47.816406 147.714844 48.222656 146.476562 C 51.660156 146.722656 55.046875 146.863281 58.203125 148.230469 L 58.261719 148.578125 C 57.824219 148.800781 57.410156 149.121094 56.945312 149.226562 C 54.816406 149.707031 52.679688 150.164062 50.527344 150.5625 C 49.339844 150.78125 48.125 150.863281 46.789062 151.027344 Z M 46.789062 151.023438 "/>
<path style=" stroke:none;fill-rule:nonzero;fill:rgb(42.745098%,43.137255%,43.921569%);fill-opacity:1;" d="M 21.695312 156.808594 C 23.035156 156.144531 24.316406 155.359375 25.703125 154.863281 C 27.246094 154.308594 28.816406 154.621094 30.246094 155.425781 C 30.765625 155.714844 31.007812 156.226562 31.003906 156.816406 C 27.765625 158.617188 22.886719 158.648438 21.695312 156.808594 Z M 21.695312 156.808594 "/>
<path style=" stroke:none;fill-rule:nonzero;fill:rgb(100%,100%,100%);fill-opacity:1;" d="M 51.957031 39.289062 C 50.890625 38.855469 50.386719 37.925781 49.992188 36.949219 C 48.871094 34.167969 49.914062 30.367188 52.324219 28.53125 C 52.804688 28.167969 53.453125 28.023438 54.300781 27.65625 C 53.695312 30.597656 53.160156 33.179688 52.582031 35.976562 C 52.078125 35.699219 51.734375 35.511719 51.128906 35.179688 C 51.839844 34.847656 52.273438 34.644531 52.792969 34.398438 C 52.273438 33.785156 51.691406 33.828125 51.105469 34.046875 C 50.46875 34.289062 50.023438 35.105469 50.050781 35.871094 C 50.078125 36.796875 50.5625 37.34375 51.785156 37.863281 C 51.839844 38.355469 51.890625 38.828125 51.941406 39.304688 L 51.957031 39.285156 Z M 51.957031 39.289062 "/>
<path style=" stroke:none;fill-rule:nonzero;fill:rgb(16.862746%,21.960784%,56.078434%);fill-opacity:1;" d="M 34.0625 81.3125 C 34.8125 81.734375 35.410156 82.070312 36.109375 82.460938 C 35.984375 86.046875 35.855469 89.632812 35.722656 93.371094 C 34.625 92.597656 33.917969 91.929688 34.015625 90.484375 C 34.191406 87.925781 34.0625 85.34375 34.0625 82.765625 C 34.0625 82.34375 34.0625 81.921875 34.0625 81.308594 Z M 34.0625 81.3125 "/>
<path style=" stroke:none;fill-rule:nonzero;fill:rgb(10.196079%,10.588235%,21.176471%);fill-opacity:1;" d="M 15.210938 109.964844 C 15.746094 111.257812 15.789062 111.992188 15.320312 113.542969 L 9.25 113.542969 C 9.09375 112.695312 8.9375 111.863281 8.792969 111.082031 C 10.964844 110.703125 13.019531 110.34375 15.207031 109.964844 Z M 15.210938 109.964844 "/>
<path style=" stroke:none;fill-rule:nonzero;fill:rgb(42.745098%,43.137255%,43.921569%);fill-opacity:1;" d="M 14.839844 145.554688 C 15.703125 144.515625 16.472656 143.597656 17.335938 142.554688 C 18.558594 144.691406 20.601562 145.574219 22.699219 146.523438 C 21.667969 147.433594 20.648438 147.878906 19.332031 147.351562 C 18.320312 146.945312 17.246094 146.6875 16.226562 146.3125 C 15.792969 146.152344 15.402344 145.867188 14.839844 145.554688 Z M 14.839844 145.554688 "/>
<path style=" stroke:none;fill-rule:nonzero;fill:rgb(16.862746%,21.960784%,56.078434%);fill-opacity:1;" d="M 59.511719 80.859375 C 59.9375 80.878906 60.359375 80.894531 60.894531 80.921875 C 60.789062 81.746094 60.660156 82.464844 60.609375 83.191406 C 60.390625 86.199219 60.183594 89.210938 60 92.222656 C 59.953125 93.003906 59.933594 93.804688 60.042969 94.578125 C 60.191406 95.644531 59.777344 96.414062 58.960938 97.222656 C 59.148438 91.742188 59.332031 86.40625 59.519531 80.863281 Z M 59.511719 80.859375 "/>
<path style=" stroke:none;fill-rule:nonzero;fill:rgb(16.862746%,21.960784%,56.078434%);fill-opacity:1;" d="M 57.132812 99.167969 C 57.496094 93.066406 57.859375 86.949219 58.222656 80.773438 C 58.710938 80.621094 58.761719 81.015625 58.753906 81.4375 C 58.71875 83.488281 58.695312 85.539062 58.636719 87.589844 C 58.539062 90.859375 58.402344 94.128906 58.308594 97.398438 C 58.285156 98.296875 58.246094 98.421875 57.128906 99.175781 Z M 57.132812 99.167969 "/>
<path style=" stroke:none;fill-rule:nonzero;fill:rgb(10.196079%,10.588235%,21.176471%);fill-opacity:1;" d="M 21.707031 70.109375 C 22.703125 72.417969 23.386719 74.832031 25.78125 76.089844 C 24.359375 77.109375 23.035156 77.027344 21.949219 75.898438 C 20.691406 74.589844 20.003906 71.96875 21.707031 70.109375 Z M 21.707031 70.109375 "/>
<path style=" stroke:none;fill-rule:nonzero;fill:rgb(42.745098%,43.137255%,43.921569%);fill-opacity:1;" d="M 34.691406 141.851562 C 33.445312 143.792969 33.253906 143.855469 31.359375 142.828125 C 31.09375 142.683594 30.839844 142.519531 30.578125 142.359375 C 30.394531 142.246094 30.210938 142.125 30.027344 142.007812 C 30.210938 141.621094 30.304688 141.386719 30.433594 141.171875 C 30.59375 140.914062 30.777344 140.675781 31 140.375 C 32.21875 140.859375 33.410156 141.335938 34.691406 141.851562 Z M 34.691406 141.851562 "/>
<path style=" stroke:none;fill-rule:nonzero;fill:rgb(68.235296%,57.647061%,77.254903%);fill-opacity:1;" d="M 49.367188 83.300781 C 50.15625 82.070312 50.835938 81.121094 50.117188 79.714844 C 51.085938 80.070312 51.976562 79.703125 52.402344 80.675781 C 52.796875 81.578125 52.671875 82.246094 51.78125 82.632812 C 51.117188 82.925781 50.378906 83.03125 49.367188 83.300781 Z M 49.367188 83.300781 "/>
<path style=" stroke:none;fill-rule:nonzero;fill:rgb(68.235296%,57.647061%,77.254903%);fill-opacity:1;" d="M 48.542969 35.542969 C 49.167969 36.804688 49.808594 38.101562 50.464844 39.429688 C 49.671875 39.285156 48.734375 39.109375 47.632812 38.902344 C 47.972656 37.65625 48.277344 36.542969 48.546875 35.542969 Z M 48.542969 35.542969 "/>
<path style=" stroke:none;fill-rule:nonzero;fill:rgb(16.862746%,21.960784%,56.078434%);fill-opacity:1;" d="M 60.125 47.707031 C 59.117188 48.761719 58.113281 49.820312 56.992188 50.996094 C 56.628906 50.097656 57 49.671875 57.464844 49.359375 C 58.332031 48.777344 59.234375 48.265625 60.125 47.71875 Z M 60.125 47.707031 "/>
<path style=" stroke:none;fill-rule:nonzero;fill:rgb(100%,100%,100%);fill-opacity:1;" d="M 60.90625 93.910156 C 60.886719 93.984375 60.871094 94.0625 60.855469 94.136719 C 60.875 94.066406 60.902344 93.992188 60.921875 93.921875 Z M 60.90625 93.910156 "/>
<path style=" stroke:none;fill-rule:nonzero;fill:rgb(100%,100%,100%);fill-opacity:1;" d="M 50.351562 29.308594 L 50.324219 29.355469 L 50.359375 29.320312 Z M 50.351562 29.308594 "/>
<path style=" stroke:none;fill-rule:nonzero;fill:rgb(100%,100%,100%);fill-opacity:1;" d="M 60.125 47.714844 L 60.164062 47.660156 L 60.125 47.707031 Z M 60.125 47.714844 "/>
<path style=" stroke:none;fill-rule:nonzero;fill:rgb(0%,0%,0%);fill-opacity:1;" d="M 54.945312 9.136719 C 56.148438 14.019531 55.605469 18.765625 54.65625 23.5 C 54.539062 23.539062 54.417969 23.582031 54.296875 23.625 C 53.890625 23.199219 53.386719 22.828125 53.085938 22.339844 C 51.296875 19.429688 50.734375 16.226562 51.226562 12.894531 C 51.371094 11.910156 51.980469 10.957031 52.535156 10.089844 C 53 9.363281 53.785156 9.027344 54.945312 9.140625 Z M 54.433594 18.335938 C 54.949219 15.859375 54.734375 10.933594 54.042969 9.710938 C 51.214844 10.664062 51.15625 16.367188 52.511719 19.15625 C 53.140625 18.886719 53.769531 18.617188 54.433594 18.335938 Z M 54.511719 19.621094 C 54.097656 19.117188 53.636719 19.1875 53.222656 19.488281 C 52.796875 19.789062 52.597656 20.210938 52.953125 20.6875 C 53.386719 20.714844 53.808594 20.738281 54.304688 20.769531 C 54.359375 20.46875 54.4375 20.046875 54.511719 19.621094 Z M 54.511719 19.621094 "/>
<path style=" stroke:none;fill-rule:nonzero;fill:rgb(0%,0%,0%);fill-opacity:1;" d="M 11.550781 32.277344 C 12.183594 32.03125 12.792969 31.667969 13.449219 31.558594 C 15.542969 31.210938 17.445312 31.773438 19.125 33.035156 C 19.800781 33.542969 20.082031 34.257812 19.84375 35.128906 C 19.6875 35.707031 19.585938 36.296875 19.261719 36.878906 C 19.210938 36.652344 19.15625 36.421875 19.113281 36.195312 C 18.828125 34.71875 17.957031 33.730469 16.496094 33.40625 C 15.140625 33.109375 13.738281 32.976562 12.359375 32.773438 C 12.125 32.742188 11.882812 32.707031 11.644531 32.671875 C 11.613281 32.542969 11.585938 32.410156 11.558594 32.28125 Z M 11.550781 32.277344 "/>
<path style=" stroke:none;fill-rule:nonzero;fill:rgb(0%,0%,0%);fill-opacity:1;" d="M 60.300781 10.496094 C 60.164062 10.207031 60.023438 9.914062 59.878906 9.621094 L 59.863281 9.636719 C 60.054688 9.878906 60.25 10.117188 60.445312 10.363281 C 60.398438 10.410156 60.347656 10.453125 60.300781 10.496094 Z M 60.300781 10.496094 "/>
<path style=" stroke:none;fill-rule:nonzero;fill:rgb(0%,0%,0%);fill-opacity:1;" d="M 50.632812 27.773438 C 50.648438 27.6875 50.664062 27.605469 50.6875 27.523438 C 50.660156 27.597656 50.636719 27.675781 50.613281 27.753906 L 50.636719 27.773438 Z M 50.632812 27.773438 "/>
<path style=" stroke:none;fill-rule:nonzero;fill:rgb(0%,0%,0%);fill-opacity:1;" d="M 59.878906 9.621094 L 59.824219 9.59375 L 59.863281 9.636719 Z M 59.878906 9.621094 "/>
<path style=" stroke:none;fill-rule:nonzero;fill:rgb(0%,0%,0%);fill-opacity:1;" d="M 47.644531 60.929688 C 46.988281 54.144531 47.835938 47.371094 47.917969 40.585938 C 48.027344 40.574219 48.140625 40.5625 48.25 40.542969 C 48.320312 41.007812 48.453125 41.476562 48.441406 41.941406 C 48.367188 45.4375 48.261719 48.929688 48.164062 52.421875 C 48.082031 55.257812 47.996094 58.097656 47.910156 60.929688 C 47.824219 60.929688 47.734375 60.929688 47.644531 60.929688 Z M 47.644531 60.929688 "/>
<path style=" stroke:none;fill-rule:nonzero;fill:rgb(0%,0%,0%);fill-opacity:1;" d="M 21.347656 60.964844 C 19.398438 53.851562 19.839844 46.679688 20.480469 39.5 C 20.625 39.5 20.769531 39.5 20.914062 39.5 C 20.8125 41.882812 20.652344 44.261719 20.628906 46.644531 C 20.601562 49.042969 20.664062 51.445312 20.785156 53.839844 C 20.910156 56.214844 21.152344 58.585938 21.347656 60.960938 Z M 21.347656 60.964844 "/>
<path style=" stroke:none;fill-rule:nonzero;fill:rgb(0%,0%,0%);fill-opacity:1;" d="M 59.765625 68.554688 C 59.914062 62.648438 60.0625 56.742188 60.214844 50.695312 C 61.195312 52.179688 60.992188 63.8125 59.765625 68.554688 Z M 59.765625 68.554688 "/>
<path style=" stroke:none;fill-rule:nonzero;fill:rgb(0%,0%,0%);fill-opacity:1;" d="M 54.273438 41.167969 L 54.273438 59.917969 L 53.917969 59.917969 C 53.609375 53.65625 53.515625 47.390625 53.996094 41.125 C 54.089844 41.140625 54.179688 41.15625 54.273438 41.167969 Z M 54.273438 41.167969 "/>
<path style=" stroke:none;fill-rule:nonzero;fill:rgb(0%,0%,0%);fill-opacity:1;" d="M 49.171875 84.394531 C 49.382812 89.941406 48.902344 95.453125 47.894531 101.109375 C 47.523438 99.667969 48.5 85.816406 49.171875 84.394531 Z M 49.171875 84.394531 "/>
<path style=" stroke:none;fill-rule:nonzero;fill:rgb(0%,0%,0%);fill-opacity:1;" d="M 9.4375 126.496094 C 9.457031 126.339844 9.46875 126.1875 9.484375 126.03125 C 9.53125 126.046875 9.578125 126.066406 9.625 126.078125 C 9.558594 126.214844 9.488281 126.34375 9.421875 126.480469 L 9.441406 126.496094 Z M 9.4375 126.496094 "/>
<path style=" stroke:none;fill-rule:nonzero;fill:rgb(0%,0%,0%);fill-opacity:1;" d="M 59.589844 78.980469 C 58.734375 78.980469 57.875 79.023438 57.023438 78.964844 C 56.539062 78.929688 56.039062 78.722656 56.113281 78.089844 C 56.179688 77.472656 56.707031 77.578125 57.128906 77.5625 C 58.140625 77.539062 58.953125 77.964844 59.667969 78.609375 C 59.640625 78.730469 59.621094 78.859375 59.59375 78.980469 Z M 59.589844 78.980469 "/>
<path style=" stroke:none;fill-rule:nonzero;fill:rgb(0%,0%,0%);fill-opacity:1;" d="M 64.503906 78.859375 C 63.214844 79.488281 62.589844 79.457031 61.847656 78.777344 C 62.730469 78.292969 63.542969 78.261719 64.503906 78.859375 Z M 64.503906 78.859375 "/>
<path style=" stroke:none;fill-rule:nonzero;fill:rgb(100%,100%,100%);fill-opacity:1;" d="M 54.433594 18.335938 C 53.769531 18.617188 53.140625 18.886719 52.511719 19.15625 C 51.15625 16.367188 51.210938 10.667969 54.042969 9.710938 C 54.738281 10.933594 54.949219 15.855469 54.433594 18.335938 Z M 54.433594 18.335938 "/>
<path style=" stroke:none;fill-rule:nonzero;fill:rgb(100%,100%,100%);fill-opacity:1;" d="M 54.515625 19.621094 C 54.441406 20.046875 54.363281 20.46875 54.308594 20.769531 C 53.8125 20.738281 53.390625 20.714844 52.957031 20.6875 C 52.597656 20.210938 52.804688 19.796875 53.226562 19.488281 C 53.636719 19.1875 54.101562 19.117188 54.515625 19.621094 Z M 54.515625 19.621094 "/>
<path style=" stroke:none;fill-rule:nonzero;fill:rgb(100%,100%,100%);fill-opacity:1;" d="M 52.582031 35.230469 C 52.582031 34.816406 52.242188 34.480469 51.820312 34.480469 C 51.398438 34.480469 51.054688 34.816406 51.054688 35.230469 C 51.054688 35.644531 51.398438 35.980469 51.820312 35.980469 C 52.242188 35.980469 52.582031 35.644531 52.582031 35.230469 Z M 52.582031 35.230469 "/>
<path style=" stroke:none;fill-rule:nonzero;fill:rgb(100%,100%,100%);fill-opacity:1;" d="M 54.582031 20.367188 C 54.582031 19.882812 54.167969 19.488281 53.65625 19.488281 C 53.144531 19.488281 52.730469 19.882812 52.730469 20.367188 C 52.730469 20.855469 53.144531 21.25 53.65625 21.25 C 54.167969 21.25 54.582031 20.855469 54.582031 20.367188 Z M 54.582031 20.367188 "/>
<path style=" stroke:none;fill-rule:nonzero;fill:rgb(68.235296%,57.647061%,77.254903%);fill-opacity:1;" d="M 13.636719 51.398438 L 12.234375 53.199219 C 12.234375 53.199219 11.953125 52.835938 12.234375 54.539062 C 12.511719 56.242188 14.929688 70.007812 14.929688 70.007812 C 14.929688 70.007812 16.636719 67.328125 18.605469 67.605469 C 20.574219 67.882812 12.796875 57.359375 13.640625 51.398438 Z M 13.636719 51.398438 "/>
<path style=" stroke:none;fill-rule:nonzero;fill:rgb(68.235296%,57.647061%,77.254903%);fill-opacity:1;" d="M 14.714844 44.550781 L 14.714844 46.320312 L 13.777344 45.996094 Z M 14.714844 44.550781 "/>
</g>
</svg>
