<?xml version="1.0" encoding="UTF-8"?>
<svg xmlns="http://www.w3.org/2000/svg" xmlns:xlink="http://www.w3.org/1999/xlink" width="90px" height="90px" viewBox="0 0 90 95" version="1.1">
<defs>
<radialGradient id="radial0" gradientUnits="userSpaceOnUse" cx="121.470001" cy="78.580002" fx="121.470001" fy="78.580002" r="18.24" gradientTransform="matrix(0.384451,0,0,0.382901,0,0.0911274)">
<stop offset="0" style="stop-color:rgb(100%,100%,100%);stop-opacity:1;"/>
<stop offset="0.1" style="stop-color:rgb(88.627451%,94.901961%,93.72549%);stop-opacity:1;"/>
<stop offset="0.55" style="stop-color:rgb(41.176471%,73.72549%,68.235294%);stop-opacity:1;"/>
<stop offset="0.86" style="stop-color:rgb(11.372549%,60.784314%,52.156863%);stop-opacity:1;"/>
<stop offset="1" style="stop-color:rgb(0%,55.686275%,46.27451%);stop-opacity:1;"/>
</radialGradient>
<radialGradient id="radial1" gradientUnits="userSpaceOnUse" cx="73.75" cy="97.400002" fx="73.75" fy="97.400002" r="16.42" gradientTransform="matrix(0.384451,0,0,0.382901,0,0.0911274)">
<stop offset="0" style="stop-color:rgb(100%,100%,100%);stop-opacity:1;"/>
<stop offset="0.1" style="stop-color:rgb(88.627451%,94.901961%,93.72549%);stop-opacity:1;"/>
<stop offset="0.55" style="stop-color:rgb(41.176471%,73.72549%,68.235294%);stop-opacity:1;"/>
<stop offset="0.86" style="stop-color:rgb(11.372549%,60.784314%,52.156863%);stop-opacity:1;"/>
<stop offset="1" style="stop-color:rgb(0%,55.686275%,46.27451%);stop-opacity:1;"/>
</radialGradient>
</defs>
<g id="surface1">
<path style=" stroke:none;fill-rule:nonzero;fill:rgb(2.352941%,27.843139%,29.803923%);fill-opacity:1;" d="M 45.785156 87.988281 C 45.785156 87.988281 49.433594 89.964844 51.4375 89.0625 L 50.886719 91.164062 C 50.886719 91.164062 53.414062 91.542969 53.480469 92.277344 C 53.542969 93.011719 54.03125 93.851562 52.175781 94.527344 C 50.382812 95.171875 45.980469 93.671875 45.601562 93.453125 C 45.585938 93.445312 45.578125 93.4375 45.574219 93.433594 C 45.488281 93.308594 45.632812 88.226562 45.785156 87.992188 Z M 45.785156 87.988281 "/>
<path style=" stroke:none;fill-rule:nonzero;fill:rgb(0%,0%,0%);fill-opacity:1;" d="M 42.453125 83.542969 C 41.617188 84.867188 40.933594 86.304688 39.582031 87.230469 C 39.527344 87.269531 39.449219 87.320312 39.441406 87.375 C 39.195312 89.035156 37.792969 90.109375 37.292969 91.691406 C 36.683594 93.613281 35.085938 94.269531 33.414062 93.632812 C 31.652344 92.964844 30.53125 90.785156 31.175781 89.136719 C 31.429688 88.484375 31.820312 87.847656 32.277344 87.316406 C 32.988281 86.488281 33.8125 85.757812 34.582031 84.976562 C 35.183594 84.367188 35.820312 83.945312 36.644531 84.671875 C 38.058594 83.667969 39.421875 82.699219 40.820312 81.703125 C 40.757812 81.5 40.726562 81.339844 40.660156 81.195312 C 40.152344 80.121094 40.414062 79.203125 41.246094 78.414062 C 42.167969 77.542969 43.167969 76.742188 44.019531 75.8125 C 45.261719 74.453125 46.402344 73 47.59375 71.589844 C 47.984375 71.128906 48.023438 70.710938 47.800781 70.113281 C 47.449219 69.140625 47.285156 68.097656 47.050781 67.113281 L 41.800781 67.113281 C 42.171875 67.605469 43.457031 67.71875 45.660156 67.460938 C 44.433594 68.8125 42.699219 68.882812 41.328125 67.601562 C 39.972656 68.683594 38.640625 68.4375 37.34375 67.4375 C 37.433594 67.1875 37.523438 66.941406 37.59375 66.738281 C 36.265625 66.375 34.960938 66.015625 33.386719 65.582031 C 33.886719 66.441406 34.242188 67.160156 34.699219 67.804688 C 34.96875 68.183594 35.414062 68.261719 35.890625 68.023438 C 36.367188 67.78125 36.882812 67.605469 37.378906 67.402344 C 36.667969 68.390625 35.800781 69.164062 34.648438 69.621094 C 32.164062 70.609375 29.625 70.917969 26.988281 70.367188 C 26.1875 70.203125 25.460938 70.191406 24.585938 70.570312 C 23.050781 71.238281 21.371094 71.0625 19.796875 70.339844 C 19.417969 70.164062 18.972656 70.144531 18.558594 70.058594 C 17.625 69.863281 16.691406 69.640625 15.75 69.488281 C 15.257812 69.40625 14.714844 69.3125 14.253906 69.445312 C 11.875 70.148438 9.917969 69.433594 8.285156 67.71875 C 6.609375 65.960938 6.46875 63.90625 7.277344 61.710938 C 7.3125 61.617188 7.375 61.53125 7.410156 61.4375 C 7.429688 61.378906 7.421875 61.304688 7.429688 61.242188 C 4.066406 62.839844 3.636719 66.035156 5.394531 68.382812 C 5.882812 69.03125 6.285156 69.746094 6.660156 70.519531 C 5.234375 70.097656 4.007812 69.355469 2.945312 68.371094 C -0.890625 64.8125 -0.964844 59.890625 2.726562 55.792969 C 3.113281 55.359375 3.511719 54.921875 3.953125 54.546875 C 6.300781 52.542969 7.585938 49.996094 8.097656 46.980469 C 8.289062 45.847656 8.695312 44.746094 9.0625 43.644531 C 9.710938 41.707031 10.9375 40.140625 12.527344 38.90625 C 13.132812 38.429688 13.195312 37.984375 13.082031 37.332031 C 7.832031 39.902344 4.753906 44.09375 3.535156 49.722656 C 3.472656 49.695312 3.40625 49.664062 3.339844 49.636719 C 3.480469 48.933594 3.597656 48.226562 3.757812 47.523438 C 4.308594 45.054688 4.746094 42.484375 6.796875 40.734375 C 8.425781 39.34375 10.234375 38.148438 11.964844 36.867188 C 12.613281 36.390625 13.257812 35.894531 13.9375 35.457031 C 14.234375 35.261719 14.609375 35.179688 15.050781 35.007812 C 14.894531 32.554688 15.679688 30.230469 16.699219 27.984375 C 18.773438 23.441406 21.644531 19.542969 26.085938 17.015625 C 27.988281 15.933594 30.035156 15.25 32.277344 15.675781 C 32.875 15.785156 33.449219 16.015625 34.175781 16.234375 C 33.628906 14.972656 32.703125 14.117188 31.675781 13.386719 C 30.585938 12.617188 29.476562 11.847656 28.285156 11.265625 C 27.128906 10.703125 25.886719 10.214844 24.628906 10.003906 C 23.363281 9.789062 22.035156 9.957031 20.742188 9.894531 C 23.523438 9.148438 26.238281 8.773438 28.890625 10.460938 C 30.660156 11.585938 32.488281 12.589844 33.875 14.203125 C 33.933594 14.269531 34.039062 14.296875 34.175781 14.371094 C 34.027344 11.765625 33.28125 9.367188 32.335938 7.023438 C 31.410156 4.71875 30.476562 2.425781 29.601562 0.105469 C 32.398438 5.066406 35.339844 9.972656 34.847656 16.253906 C 35.148438 15.898438 35.335938 15.734375 35.457031 15.53125 C 37.515625 12.085938 40.667969 10.257812 44.523438 9.605469 C 47.96875 9.023438 51.429688 9.007812 54.835938 9.9375 C 57.539062 10.679688 60.03125 11.886719 62.25 13.597656 C 62.964844 14.148438 63.503906 14.945312 64.074219 15.667969 C 64.414062 16.105469 64.738281 16.332031 65.34375 16.3125 C 66.683594 16.257812 67.023438 16.539062 67.503906 17.84375 C 68.390625 17.730469 69.292969 17.617188 70.199219 17.503906 C 75.140625 16.90625 79.632812 18.246094 83.871094 20.65625 C 84.285156 20.894531 84.683594 21.164062 85.082031 21.433594 C 87.800781 23.265625 89.519531 25.667969 89.894531 29.035156 C 90.277344 32.457031 89.769531 35.628906 87.898438 38.546875 C 87.023438 39.910156 85.703125 40.753906 84.339844 41.554688 C 84.679688 41.171875 85.011719 40.785156 85.355469 40.402344 C 87.226562 38.296875 88.609375 35.945312 89.199219 33.15625 C 89.597656 31.289062 89.441406 29.464844 88.867188 27.699219 C 88.585938 26.84375 87.988281 26.078125 87.460938 25.324219 C 85.835938 23 83.480469 21.601562 80.980469 20.421875 C 76.742188 18.421875 72.273438 17.855469 67.640625 18.382812 C 67.429688 18.40625 67.230469 18.582031 67.023438 18.683594 C 67.042969 18.804688 67.0625 18.921875 67.082031 19.039062 C 69.773438 18.433594 72.378906 18.8125 75.039062 19.523438 C 72.136719 19.679688 69.320312 19.832031 66.5 19.984375 L 66.429688 19.785156 C 66.160156 20.160156 65.886719 20.535156 65.492188 21.085938 C 67.953125 20.671875 70.136719 20.921875 72.328125 21.9375 C 69.921875 21.9375 67.640625 21.9375 65.359375 21.9375 C 64.824219 21.9375 64.824219 21.933594 64.5 22.464844 C 66.425781 23.136719 68.628906 23.074219 70.398438 24.714844 C 67.8125 24.765625 65.660156 23.800781 63.433594 23.152344 C 63.382812 23.210938 63.332031 23.265625 63.28125 23.320312 C 63.648438 23.761719 64.019531 24.203125 64.257812 24.484375 C 66.5 24.675781 68.132812 25.582031 69.386719 27.257812 C 68.007812 26.695312 66.632812 26.132812 65.363281 25.617188 C 66.316406 27.570312 67.261719 29.535156 68.234375 31.484375 C 68.355469 31.726562 68.578125 31.984375 68.816406 32.09375 C 69.898438 32.605469 71.015625 33.039062 72.097656 33.558594 C 74.625 34.769531 76.949219 36.289062 78.6875 38.519531 C 80.320312 40.601562 81.222656 42.914062 80.460938 45.859375 C 80.203125 44.9375 79.941406 44.242188 79.820312 43.527344 C 79.40625 41.0625 78.171875 39.070312 76.339844 37.414062 C 74.113281 35.398438 71.503906 34.015625 68.65625 32.636719 C 68.886719 33.460938 69.050781 34.109375 69.253906 34.742188 C 69.308594 34.90625 69.449219 35.078125 69.601562 35.164062 C 70.984375 35.96875 72.445312 36.65625 73.761719 37.5625 C 75.976562 39.082031 77.675781 41.085938 78.757812 43.5625 C 79.453125 45.152344 79.457031 46.585938 78.851562 47.707031 C 77.382812 41.957031 74.21875 37.886719 69.535156 35.78125 C 69.722656 36.808594 69.949219 37.804688 70.078125 38.808594 C 70.136719 39.277344 70.359375 39.515625 70.707031 39.769531 C 71.8125 40.582031 72.957031 41.351562 73.953125 42.28125 C 75.648438 43.871094 76.945312 45.671875 76.5 48.226562 C 76.410156 48.730469 76.667969 49.296875 76.765625 49.847656 C 78.203125 48.769531 79.53125 47.808594 80.8125 46.789062 C 81.476562 46.257812 82.09375 45.65625 82.652344 45.015625 C 83.367188 44.199219 83.671875 43.265625 83.152344 42.191406 C 82.964844 41.796875 82.898438 41.339844 82.769531 40.917969 C 81.347656 36.347656 78.425781 33.242188 73.761719 31.890625 C 72.378906 31.492188 70.96875 31.207031 69.578125 30.851562 C 69.226562 30.765625 68.890625 30.628906 68.546875 30.511719 C 68.570312 30.425781 68.59375 30.332031 68.621094 30.246094 C 69.089844 30.265625 69.566406 30.246094 70.03125 30.316406 C 71.082031 30.480469 72.125 30.660156 73.160156 30.898438 C 77.347656 31.847656 80.707031 33.957031 82.667969 37.882812 C 83.285156 39.117188 83.65625 40.46875 84.136719 41.765625 C 84.058594 42.125 83.933594 42.484375 83.917969 42.851562 C 83.835938 44.640625 83.0625 46.097656 81.660156 47.160156 C 80.148438 48.316406 78.828125 49.761719 76.976562 50.371094 C 76.90625 50.96875 76.855469 51.507812 76.777344 52.042969 C 76.5625 53.507812 75.78125 54.640625 74.640625 55.542969 C 72.828125 56.980469 70.78125 57.734375 68.441406 57.566406 C 67.707031 57.511719 67.234375 57.738281 66.730469 58.347656 C 65.535156 59.808594 63.820312 60.453125 62.007812 60.84375 C 61.847656 60.875 61.683594 60.898438 61.417969 60.949219 C 62.679688 62.917969 63.351562 64.902344 61.878906 67.09375 C 63.121094 68.058594 64.09375 69.175781 63.738281 70.890625 C 63.519531 71.941406 63.167969 72.9375 62.308594 73.65625 C 60.949219 74.796875 59.242188 74.609375 57.890625 73.171875 C 57.308594 73.667969 56.730469 74.167969 56.109375 74.695312 C 56.214844 75.113281 56.289062 75.550781 56.4375 75.964844 C 57.347656 78.519531 57.585938 81.21875 58.171875 83.847656 C 58.226562 84.082031 58.261719 84.316406 58.285156 84.554688 C 58.386719 85.664062 58.058594 86.226562 56.933594 86.3125 C 55.265625 86.445312 53.582031 86.398438 51.90625 86.417969 C 51.636719 86.417969 51.367188 86.367188 51.027344 86.332031 L 51.027344 88.53125 C 51.234375 88.640625 51.5 88.773438 51.773438 88.921875 C 51.554688 89.621094 51.351562 90.28125 51.132812 90.988281 C 52.121094 90.875 52.96875 91.109375 53.628906 91.890625 C 54.503906 92.933594 54.230469 94.300781 52.925781 94.683594 C 52.097656 94.929688 51.164062 94.960938 50.292969 94.886719 C 48.96875 94.769531 47.648438 94.511719 46.335938 94.261719 C 45.347656 94.074219 45.191406 93.8125 45.269531 92.773438 C 45.363281 91.476562 45.457031 90.183594 45.558594 88.886719 C 45.570312 88.753906 45.609375 88.628906 45.679688 88.304688 C 46.191406 90.085938 45.949219 91.699219 45.875 93.40625 C 48.003906 93.890625 50.113281 94.261719 52.277344 94.035156 C 52.644531 93.996094 53.152344 93.609375 53.246094 93.285156 C 53.335938 92.984375 53.0625 92.382812 52.769531 92.199219 C 52.09375 91.773438 51.308594 91.523438 50.527344 91.1875 C 50.675781 90.683594 50.851562 90.074219 51.039062 89.433594 C 49.300781 89.304688 47.5 89.527344 46.058594 88.195312 L 46.996094 88.195312 C 47.28125 87.378906 47.574219 86.519531 47.839844 85.75 C 46.148438 84.957031 44.546875 84.199219 42.933594 83.460938 C 42.8125 83.40625 42.625 83.507812 42.46875 83.53125 C 42.082031 83.019531 41.695312 82.507812 41.347656 82.050781 C 39.796875 83.296875 38.371094 84.445312 36.945312 85.59375 C 37.984375 87.074219 38.609375 87.144531 39.839844 85.910156 C 40.011719 85.742188 40.152344 85.546875 40.328125 85.390625 C 41.035156 84.769531 41.753906 84.164062 42.46875 83.550781 Z M 54.625 73.527344 L 54.597656 73.496094 C 54.914062 73.898438 55.25 73.71875 55.585938 73.523438 C 56.550781 72.976562 57.125 72.113281 57.664062 71.179688 C 58.167969 70.304688 57.53125 69.605469 57.433594 68.832031 C 57.347656 68.191406 56.707031 68.484375 56.324219 68.355469 C 55.929688 68.21875 55.488281 68.132812 55.082031 68.171875 C 54.949219 68.183594 54.832031 68.65625 54.761719 68.933594 C 54.6875 69.21875 54.566406 69.585938 54.675781 69.808594 C 54.816406 70.082031 55.175781 70.238281 55.445312 70.445312 C 55.59375 70.183594 55.796875 69.941406 55.882812 69.660156 C 55.941406 69.472656 55.84375 69.234375 55.800781 68.859375 C 56.351562 69.410156 56.589844 69.945312 56.207031 70.425781 C 55.984375 70.703125 55.386719 70.921875 55.054688 70.828125 C 53.945312 70.511719 54.191406 69.546875 54.289062 68.699219 C 53.683594 68.78125 53.148438 68.902344 52.613281 68.910156 C 52.035156 68.921875 51.457031 68.828125 50.867188 68.78125 C 50.417969 69.632812 50.039062 69.847656 49.308594 69.648438 C 48.691406 69.480469 48.191406 68.835938 48.308594 68.28125 C 48.382812 67.9375 48.441406 67.457031 49.0625 67.605469 C 48.527344 68.484375 48.816406 69.25 49.652344 69.242188 C 49.847656 69.242188 50.128906 69.089844 50.214844 68.929688 C 50.285156 68.789062 50.203125 68.480469 50.078125 68.332031 C 49.578125 67.714844 49.035156 67.128906 48.460938 66.476562 C 48.261719 66.546875 47.949219 66.660156 47.660156 66.761719 C 47.457031 70.324219 51.21875 73.648438 53.847656 73.824219 C 54.101562 73.835938 54.367188 73.632812 54.628906 73.523438 Z M 43.285156 80.105469 C 43.5625 80.367188 44.105469 80.679688 44.0625 80.871094 C 43.957031 81.371094 43.597656 81.808594 43.28125 82.375 C 47.523438 84.738281 52.105469 85.890625 57.128906 85.167969 C 56.664062 81.625 56.21875 78.230469 55.757812 74.75 C 53.835938 75.441406 52.199219 74.703125 50.507812 73.695312 C 50.632812 74.410156 50.589844 74.921875 49.890625 75.011719 C 49.300781 75.089844 48.875 74.832031 48.695312 74.273438 C 48.613281 74.027344 48.566406 73.675781 48.6875 73.484375 C 48.871094 73.179688 49.210938 72.96875 49.5 72.699219 C 49.128906 72.265625 48.742188 71.8125 48.355469 71.355469 C 47.484375 72.683594 46.644531 73.960938 45.78125 75.277344 C 46.320312 75.578125 47.066406 75.785156 46.804688 76.574219 C 46.667969 76.980469 46.332031 77.441406 45.957031 77.617188 C 45.238281 77.957031 44.675781 77.542969 44.296875 76.675781 C 43.40625 77.617188 42.652344 78.414062 41.894531 79.207031 C 41.402344 79.71875 41.285156 80.257812 41.800781 80.921875 C 42.144531 80.34375 42.523438 79.804688 43.308594 80.132812 C 43.074219 80.261719 42.75 80.335938 42.628906 80.535156 C 42.496094 80.75 42.453125 81.121094 42.558594 81.339844 C 42.628906 81.480469 43.070312 81.582031 43.253906 81.496094 C 43.433594 81.414062 43.589844 81.074219 43.585938 80.851562 C 43.585938 80.605469 43.390625 80.359375 43.277344 80.109375 Z M 54.171875 24.378906 C 53.5 24.152344 52.828125 23.921875 52.160156 23.695312 C 52.238281 24.402344 52.386719 24.976562 52.363281 25.546875 C 52.179688 30.183594 47.296875 34.007812 42.738281 33.09375 C 41.488281 32.84375 40.414062 32.28125 39.671875 31.203125 C 39.554688 31.039062 39.4375 30.871094 39.226562 30.574219 C 39.191406 32.222656 39.570312 33.59375 40.082031 34.941406 C 40.449219 35.910156 41.21875 36.433594 42.175781 36.554688 C 44.761719 36.878906 47.277344 36.5625 49.457031 35.039062 C 52.929688 32.605469 54.339844 29.1875 53.980469 25.015625 C 53.957031 24.75 53.761719 24.476562 54.183594 24.375 C 54.207031 24.496094 54.183594 24.671875 54.253906 24.738281 C 55.03125 25.445312 55.058594 26.3125 54.941406 27.28125 C 54.75 28.910156 54.167969 30.386719 53.390625 31.796875 C 50.925781 36.28125 46.210938 37.722656 42.167969 37.03125 C 41.894531 36.984375 41.628906 36.917969 41.140625 36.820312 C 42.824219 38.875 44.789062 39.949219 47.199219 40.074219 C 50.582031 40.25 53.683594 39.242188 56.601562 37.621094 C 57.808594 36.949219 58.878906 36.097656 59.6875 34.957031 C 60.796875 33.382812 61.066406 31.695312 60.238281 29.933594 C 59.882812 29.171875 59.386719 28.460938 58.855469 27.800781 C 57.605469 26.253906 55.882812 25.316406 54.175781 24.375 Z M 45.074219 22.035156 C 45.335938 22.023438 45.605469 22.039062 45.855469 21.992188 C 47.964844 21.605469 50.035156 21.839844 52.058594 22.453125 C 55.183594 23.40625 57.867188 25.035156 59.863281 27.683594 C 61.988281 30.503906 61.929688 33.644531 59.4375 36.117188 C 56.113281 39.410156 51.921875 40.648438 47.328125 40.53125 C 44.34375 40.460938 42.058594 38.992188 40.449219 36.484375 C 39.261719 34.640625 38.867188 32.570312 38.78125 30.4375 C 38.65625 27.421875 39.714844 24.953125 42.347656 23.285156 C 42.484375 23.195312 42.613281 23.089844 42.742188 22.992188 C 39.621094 23.464844 36.691406 23.378906 34.488281 20.859375 C 32.941406 21.824219 31.46875 22.742188 29.988281 23.667969 C 29.738281 27.902344 26.542969 30.890625 22.730469 30.402344 C 22.753906 30.140625 22.78125 29.882812 22.808594 29.628906 C 22.75 29.589844 22.695312 29.550781 22.632812 29.507812 C 22.304688 29.910156 21.902344 30.273438 21.664062 30.722656 C 19.53125 34.71875 18.648438 39.023438 19.082031 43.496094 C 19.625 49.140625 21.761719 54.195312 25.457031 58.546875 C 29.414062 63.207031 34.429688 65.75 40.570312 65.957031 C 42.730469 66.03125 44.894531 65.960938 47.058594 65.910156 C 47.621094 65.898438 48.234375 65.820312 48.738281 65.585938 C 52.03125 64.070312 55.355469 62.605469 58.566406 60.921875 C 62.59375 58.816406 65.722656 55.761719 67.53125 51.523438 C 68.960938 48.183594 69.328125 44.675781 69.109375 41.085938 C 68.800781 36.054688 67.378906 31.371094 64.761719 27.046875 C 62.484375 23.292969 59.273438 20.777344 54.921875 19.90625 C 52.621094 19.445312 50.269531 19.226562 48.253906 18.941406 C 47.03125 20.125 46.0625 21.066406 45.070312 22.027344 Z M 29.164062 69.800781 C 29.210938 69.730469 29.257812 69.65625 29.304688 69.582031 C 27.988281 68.734375 27.347656 67.484375 27.152344 66.015625 C 27.050781 65.242188 27.078125 64.445312 27.050781 63.660156 C 27 62.191406 26.574219 60.957031 25.496094 59.808594 C 21.972656 56.058594 19.820312 51.570312 18.765625 46.550781 C 18.628906 45.914062 18.507812 45.273438 18.375 44.632812 C 18.300781 44.632812 18.222656 44.632812 18.144531 44.628906 C 17.785156 46.15625 17.417969 47.691406 17.007812 49.429688 C 16.785156 47.195312 17.332031 45.347656 18.21875 43.566406 C 16.488281 44.851562 16.585938 47 15.671875 48.921875 C 15.671875 46.699219 15.980469 44.816406 17.382812 43.238281 C 17.109375 43.382812 16.902344 43.550781 16.710938 43.742188 C 15.164062 45.332031 14.675781 47.339844 14.484375 49.445312 C 14.257812 52.042969 13.929688 54.589844 12.714844 56.972656 C 11.851562 58.660156 11.4375 60.511719 11.597656 62.429688 C 11.796875 64.746094 12.523438 66.851562 14.445312 68.34375 C 14.820312 68.632812 15.34375 68.742188 15.796875 68.933594 C 15.835938 68.859375 15.878906 68.785156 15.917969 68.710938 C 14.769531 67.726562 14.019531 66.492188 13.917969 65.011719 C 13.804688 63.417969 13.894531 61.8125 13.894531 60.207031 C 14.070312 60.914062 14.140625 61.632812 14.273438 62.332031 C 14.699219 64.507812 14.964844 66.75 16.777344 68.359375 C 16.875 68.445312 16.988281 68.578125 16.996094 68.691406 C 17.027344 69.378906 17.4375 69.269531 17.964844 69.1875 C 17.699219 68.84375 17.492188 68.574219 17.28125 68.308594 C 15.621094 66.222656 14.816406 63.84375 14.851562 61.183594 C 14.882812 58.773438 15.835938 56.671875 17.027344 54.65625 C 18.03125 52.949219 19.179688 51.308594 19.125 49.191406 C 19.550781 50.515625 19.589844 51.8125 18.921875 53.054688 C 18.308594 54.199219 17.636719 55.3125 17.027344 56.457031 C 14.734375 60.769531 15.441406 65.535156 18.882812 68.992188 C 19.265625 69.375 19.78125 69.625 20.234375 69.9375 C 20.308594 69.871094 20.382812 69.800781 20.457031 69.738281 C 18.3125 67.910156 18.207031 65.460938 18.257812 62.960938 C 18.753906 65.402344 19.359375 67.785156 21.019531 69.769531 C 21.363281 70.183594 21.609375 70.300781 22.234375 70.144531 C 20.21875 68.019531 20.171875 65.5 20.257812 63.109375 C 21.066406 65.390625 21.933594 67.8125 22.816406 70.292969 C 23.324219 70.191406 23.757812 70.105469 24.308594 69.992188 C 24.0625 69.703125 23.9375 69.550781 23.800781 69.394531 C 21.238281 66.476562 20.578125 63.082031 21.265625 59.34375 C 21.484375 58.160156 22.195312 57.007812 21.515625 55.703125 C 21.769531 55.765625 21.980469 55.84375 22.089844 55.996094 C 22.332031 56.320312 22.472656 56.738281 22.746094 57.023438 C 24.496094 58.832031 25.203125 60.953125 25.089844 63.464844 C 25.039062 64.59375 25.226562 65.824219 25.667969 66.859375 C 26.097656 67.851562 26.921875 68.714844 27.707031 69.503906 C 27.996094 69.792969 28.664062 69.710938 29.160156 69.796875 Z M 64.273438 16.269531 C 63.105469 15.480469 62.023438 14.773438 60.960938 14.03125 C 55.332031 10.109375 49.148438 9.425781 42.605469 10.976562 C 41.082031 11.335938 39.695312 12.042969 38.53125 13.144531 C 40.277344 12.28125 42.082031 11.621094 44.019531 11.324219 C 46.539062 10.941406 48.390625 11.175781 49.648438 11.96875 C 46.75 12.03125 43.84375 11.742188 41.089844 12.824219 C 42.96875 13.003906 44.855469 13.03125 46.714844 13.253906 C 48.605469 13.484375 50.472656 13.910156 52.347656 14.246094 C 50.277344 14.269531 48.238281 14.066406 46.191406 13.9375 C 43.871094 13.789062 41.539062 13.679688 39.214844 13.613281 C 38.398438 13.589844 37.644531 13.875 37.003906 14.550781 C 41.722656 14.09375 47.804688 14.605469 50.230469 15.714844 C 45.558594 15.464844 41.046875 15.222656 36.492188 14.980469 C 35.960938 15.816406 35.476562 16.578125 34.949219 17.40625 C 35.304688 17.539062 35.519531 17.59375 35.703125 17.695312 C 39.25 19.628906 42.914062 19.878906 46.683594 18.433594 C 47.167969 18.25 47.597656 17.898438 47.992188 18.582031 C 48.058594 18.699219 48.425781 18.671875 48.652344 18.660156 C 49.199219 18.636719 49.746094 18.535156 50.289062 18.546875 C 53.800781 18.625 57.152344 19.339844 60.269531 21.011719 C 60.464844 21.121094 60.6875 21.179688 60.945312 21.28125 C 60.976562 20.894531 60.988281 20.589844 61.023438 20.289062 C 61.0625 19.957031 61.125 19.625 61.160156 19.40625 C 60.332031 18.816406 59.574219 18.269531 58.8125 17.730469 C 58.875 17.640625 58.941406 17.542969 59 17.453125 C 59.777344 17.917969 60.554688 18.390625 61.351562 18.867188 C 61.53125 18.578125 61.703125 18.292969 61.867188 18.035156 C 61.410156 17.542969 60.992188 17.09375 60.574219 16.644531 L 60.800781 16.390625 C 61.296875 16.753906 61.789062 17.121094 62.289062 17.488281 C 62.878906 17.125 63.488281 16.753906 64.273438 16.273438 Z M 21.886719 27.257812 C 21.707031 27.644531 21.515625 28.027344 21.347656 28.417969 C 20.355469 30.773438 19.332031 33.121094 18.402344 35.5 C 18.15625 36.136719 18.222656 36.890625 18.132812 37.691406 C 17.09375 37.144531 15.96875 36.546875 14.875 35.972656 C 13.8125 36.71875 13.582031 37.769531 14.136719 39.070312 C 14.785156 40.605469 16.609375 41.667969 18.167969 41.425781 C 18.40625 40.882812 18.238281 40.589844 17.671875 40.339844 C 16.179688 39.679688 14.742188 38.925781 14.734375 36.996094 C 15.878906 37.863281 17.035156 38.746094 18.296875 39.703125 C 18.355469 39.339844 18.386719 39.144531 18.414062 38.953125 C 18.765625 36.222656 19.511719 33.613281 20.828125 31.1875 C 21.367188 30.199219 21.90625 29.226562 22.875 28.542969 C 23.609375 28.027344 24.105469 27.296875 24.410156 26.429688 C 24.6875 25.625 25.003906 24.832031 25.394531 24.070312 C 25.792969 23.289062 26.207031 22.480469 26.769531 21.8125 C 27.683594 20.734375 28.960938 20.960938 29.589844 22.21875 C 29.726562 22.488281 29.835938 22.761719 29.992188 23.105469 C 31.238281 22.183594 32.429688 21.324219 33.597656 20.425781 C 33.8125 20.261719 33.917969 19.960938 34.070312 19.722656 C 34.011719 19.671875 33.949219 19.617188 33.894531 19.570312 C 33.359375 19.792969 32.828125 20.007812 32.292969 20.230469 C 32.253906 20.148438 32.222656 20.0625 32.183594 19.976562 C 32.660156 19.734375 33.203125 19.570312 33.589844 19.226562 C 33.964844 18.890625 34.179688 18.367188 34.464844 17.925781 C 34.414062 17.871094 34.359375 17.8125 34.304688 17.757812 C 32.816406 18.148438 31.332031 18.535156 29.84375 18.925781 C 29.8125 18.839844 29.789062 18.757812 29.757812 18.671875 C 31.066406 18.148438 32.378906 17.625 33.65625 17.109375 C 33.601562 17.082031 33.441406 16.960938 33.261719 16.886719 C 31.960938 16.335938 30.652344 16.480469 29.339844 16.855469 C 26.511719 17.664062 24.285156 19.378906 22.289062 21.460938 C 18.644531 25.273438 16.882812 30.011719 15.554688 34.96875 C 15.503906 35.152344 15.707031 35.402344 15.796875 35.625 C 15.878906 35.613281 15.953125 35.597656 16.035156 35.585938 C 16.933594 32.046875 18.546875 28.84375 20.589844 25.832031 C 20.585938 26.03125 20.539062 26.21875 20.460938 26.394531 C 19.789062 27.925781 19.085938 29.441406 18.445312 30.988281 C 17.847656 32.4375 17.296875 33.910156 16.769531 35.382812 C 16.539062 36.027344 16.589844 36.042969 17.316406 36.300781 C 18.679688 31.855469 19.789062 29.597656 21.875 27.257812 Z M 5.070312 69.171875 C 4.996094 69.070312 4.933594 68.96875 4.851562 68.875 C 2.804688 66.441406 2.964844 63.542969 5.308594 61.394531 C 6.117188 60.65625 7.035156 60.046875 7.890625 59.351562 C 9.707031 57.878906 11.269531 56.195312 11.648438 53.785156 C 11.871094 52.371094 11.835938 50.921875 11.992188 49.496094 C 12.144531 48.078125 12.285156 46.640625 12.625 45.257812 C 13.011719 43.695312 13.929688 42.480469 15.609375 42.039062 C 15.65625 42.027344 15.683594 41.929688 15.742188 41.832031 C 15.511719 41.707031 15.28125 41.589844 15.054688 41.46875 C 14.953125 41.390625 14.847656 41.316406 14.746094 41.242188 C 13.761719 42.40625 12.777344 43.570312 11.796875 44.738281 C 11.742188 44.683594 11.683594 44.628906 11.628906 44.578125 C 12.308594 43.167969 13.238281 41.964844 14.640625 41.105469 C 13.683594 40.707031 13.085938 41.371094 12.480469 41.835938 C 11.824219 42.332031 11.253906 42.9375 10.644531 43.496094 C 11.203125 41.925781 12.164062 40.753906 13.859375 40.246094 C 13.628906 39.792969 13.441406 39.421875 13.21875 38.988281 C 11.726562 40.296875 10.511719 41.652344 9.949219 43.425781 C 9.445312 45.011719 9.003906 46.636719 8.714844 48.273438 C 8.277344 50.757812 7.253906 52.875 5.402344 54.597656 C 4.796875 55.15625 4.203125 55.726562 3.660156 56.34375 C 2.378906 57.796875 1.292969 59.367188 1.0625 61.359375 C 0.660156 64.828125 2.785156 67.050781 5.070312 69.167969 Z M 70.304688 46.90625 C 70.210938 46.933594 70.121094 46.96875 70.027344 47 C 69.695312 47.878906 69.734375 48.601562 70.460938 49.375 C 71.042969 49.996094 71.390625 50.878906 71.671875 51.707031 C 71.984375 52.625 72.050781 53.597656 71.175781 54.355469 C 71.039062 54.472656 70.980469 54.695312 70.90625 54.878906 C 70.703125 55.40625 70.507812 55.9375 70.292969 56.515625 C 72.367188 55.933594 74.285156 55.039062 75.398438 53.003906 C 75.683594 52.484375 75.898438 51.816406 75.847656 51.246094 C 75.742188 50.070312 75.59375 48.855469 75.171875 47.765625 C 74.292969 45.488281 72.488281 43.929688 70.546875 42.535156 C 70.511719 42.511719 70.433594 42.546875 70.367188 42.554688 L 70.367188 43.445312 C 72.421875 43.8125 73.851562 47.425781 72.925781 49.882812 C 72.410156 47.800781 71.867188 45.761719 70.445312 44.035156 C 69.992188 45.144531 70.25 45.867188 71.023438 46.671875 C 71.671875 47.34375 72.007812 48.367188 72.351562 49.285156 C 72.5625 49.855469 72.558594 50.53125 71.957031 51.148438 C 71.378906 49.652344 70.839844 48.277344 70.304688 46.90625 Z M 35.984375 84.703125 C 34.480469 85.957031 33.238281 87.164062 32.285156 88.609375 C 31.398438 89.960938 31.65625 91.308594 32.863281 92.371094 C 34.175781 93.53125 35.742188 93.21875 36.488281 91.644531 C 36.660156 91.277344 36.804688 90.898438 36.996094 90.441406 C 35.3125 90.140625 34.199219 89.222656 33.503906 87.777344 C 34.65625 88.570312 35.546875 89.777344 37.089844 89.875 C 37.636719 89.148438 38.179688 88.433594 38.746094 87.683594 C 37.335938 87.441406 35.921875 86.5 35.984375 84.699219 Z M 12.644531 68.132812 C 10.265625 64.929688 10.042969 61.503906 11.171875 57.800781 C 10.484375 58.453125 9.96875 59.074219 9.332031 59.511719 C 8.386719 60.167969 7.976562 61.078125 7.679688 62.121094 C 6.824219 65.132812 8.25 67.777344 11.273438 68.707031 C 11.402344 68.746094 11.535156 68.796875 11.667969 68.808594 C 11.769531 68.820312 11.871094 68.789062 11.976562 68.773438 C 9.753906 67.632812 8.816406 65.894531 9.199219 63.449219 C 9.734375 65.402344 10.644531 67.082031 12.648438 68.136719 Z M 56.6875 65.113281 C 56.175781 65.34375 55.609375 65.828125 55.285156 65.703125 C 54.882812 65.546875 54.683594 64.882812 54.34375 64.351562 C 54.25 64.546875 54.085938 64.757812 54.050781 64.992188 C 53.914062 65.898438 54.425781 66.515625 55.144531 66.910156 C 56.597656 67.703125 58.109375 68.066406 59.765625 67.453125 C 61.960938 66.644531 62.695312 63.980469 61.046875 61.980469 C 60.636719 62.75 60.226562 63.433594 59.894531 64.152344 C 59.691406 64.589844 59.4375 65.03125 58.953125 64.847656 C 58.546875 64.695312 58.441406 64.835938 58.210938 65.070312 C 57.542969 65.726562 57.363281 65.707031 56.6875 65.117188 Z M 26.082031 69.410156 C 24.941406 68.230469 24.359375 66.898438 24.21875 65.421875 C 24.113281 64.304688 24.140625 63.171875 24.195312 62.046875 C 24.273438 60.414062 23.65625 59.078125 22.558594 57.792969 C 22.414062 58.410156 22.28125 58.925781 22.175781 59.445312 C 21.5 62.75 21.980469 65.804688 24.085938 68.542969 C 24.578125 69.1875 25.136719 69.457031 26.082031 69.414062 Z M 45.882812 19.832031 C 42.144531 20.636719 38.664062 20.046875 35.410156 18.132812 C 34.875 19.140625 34.882812 19.605469 35.574219 20.304688 C 35.972656 20.710938 36.449219 21.070312 36.953125 21.347656 C 38.367188 22.117188 39.921875 22.179688 41.460938 21.953125 C 43.128906 21.710938 44.6875 21.136719 45.882812 19.828125 Z M 23.820312 30.039062 C 25.996094 29.363281 27.972656 28.285156 28.6875 25.84375 C 28.957031 24.933594 28.851562 23.894531 28.808594 22.917969 C 28.792969 22.625 28.4375 22.234375 28.144531 22.113281 C 27.960938 22.035156 27.492188 22.300781 27.339844 22.53125 C 26.910156 23.179688 26.542969 23.875 26.21875 24.582031 C 25.410156 26.375 24.636719 28.179688 23.820312 30.039062 Z M 66.65625 17.359375 C 66.179688 17.25 65.777344 17.078125 65.367188 17.074219 C 63.359375 17.058594 61.898438 18.515625 61.433594 20.808594 C 61.28125 21.5625 61.476562 21.941406 62.113281 22.152344 C 62.460938 21.335938 62.789062 20.574219 63.195312 19.621094 C 63.539062 20.941406 62.417969 21.894531 62.90625 23.085938 C 64.179688 21.722656 66.210938 18.664062 66.660156 17.355469 Z M 53.40625 64.84375 C 51.945312 65.316406 50.570312 65.753906 49.195312 66.199219 C 49.160156 66.296875 49.121094 66.394531 49.085938 66.492188 C 49.472656 66.886719 49.808594 67.339844 50.246094 67.660156 C 51.71875 68.742188 53.269531 68.089844 54.992188 67.851562 C 53.878906 67.03125 53.242188 66.144531 53.40625 64.84375 Z M 28.070312 62.402344 C 28.121094 63.402344 28.203125 64.21875 28.199219 65.03125 C 28.191406 66.730469 28.886719 68.011719 30.246094 69.042969 C 30.976562 69.597656 31.589844 69.660156 32.433594 69.203125 C 30.566406 68.027344 29.703125 66.375 29.65625 64.292969 C 29.632812 63.316406 28.933594 62.925781 28.070312 62.402344 Z M 50.738281 25.621094 C 50.746094 24.597656 49.792969 23.460938 48.9375 23.476562 C 48.105469 23.488281 47.351562 24.277344 47.324219 25.15625 C 47.296875 26.1875 48.136719 27.085938 49.15625 27.113281 C 50.085938 27.136719 50.730469 26.527344 50.738281 25.617188 Z M 30.050781 63.816406 C 30.339844 64.589844 30.625 65.335938 30.898438 66.089844 C 31.324219 67.269531 32.074219 68.15625 33.230469 68.683594 C 33.632812 68.867188 33.992188 68.917969 34.335938 68.503906 C 33.519531 67.816406 33.195312 66.96875 33.226562 65.9375 C 33.234375 65.691406 32.960938 65.328125 32.714844 65.191406 C 31.859375 64.699219 30.957031 64.277344 30.050781 63.820312 Z M 58.625 71.988281 C 59.789062 71.820312 60.535156 71.804688 60.667969 73.453125 C 61.070312 73.203125 61.421875 72.980469 61.789062 72.75 C 60.558594 71.289062 60.730469 70.398438 62.636719 69.871094 C 62.457031 69.179688 62.28125 68.484375 62.109375 67.792969 C 61.535156 69.285156 60.605469 70.15625 59.117188 70.277344 C 58.941406 70.894531 58.785156 71.433594 58.628906 71.992188 Z M 48.253906 85.714844 C 48.03125 86.574219 47.820312 87.378906 47.589844 88.257812 C 48.429688 88.625 49.375 88.859375 50.058594 88.421875 C 50.667969 88.035156 50.84375 87.128906 50.625 86.285156 C 49.867188 86.101562 49.144531 85.929688 48.253906 85.710938 Z M 18.167969 41.761719 C 17.707031 41.894531 17.328125 42.09375 16.9375 42.101562 C 16.042969 42.117188 15.535156 42.648438 15.003906 43.257812 C 13.199219 45.355469 13.109375 48.09375 13.144531 51.511719 C 13.257812 50.527344 13.339844 49.644531 13.472656 48.777344 C 13.699219 47.257812 14.070312 45.777344 14.890625 44.441406 C 15.621094 43.25 16.5625 42.574219 18.03125 42.996094 C 18.074219 43.007812 18.136719 42.929688 18.246094 42.855469 C 18.222656 42.527344 18.195312 42.171875 18.164062 41.761719 Z M 70.28125 40.207031 C 70.421875 40.984375 69.996094 41.628906 70.714844 42.054688 C 72.476562 43.097656 74.023438 44.398438 75.296875 46.007812 C 74.46875 43.433594 72.394531 41.960938 70.28125 40.207031 Z M 62.371094 60.074219 C 65.191406 59.46875 66.972656 57.515625 67.140625 55.0625 C 65.570312 56.710938 63.910156 58.457031 62.371094 60.074219 Z M 68.882812 56.90625 C 69.4375 56.96875 69.773438 56.707031 69.824219 56.28125 C 70.003906 54.679688 69.867188 53.132812 68.699219 51.6875 C 68.535156 52.347656 67.945312 52.746094 68.382812 53.402344 C 69.097656 54.46875 69.296875 55.628906 68.886719 56.90625 Z M 57.890625 68.179688 C 57.859375 68.285156 57.832031 68.398438 57.800781 68.503906 C 58.527344 68.648438 58.605469 69.832031 59.628906 69.488281 C 60.375 69.238281 60.84375 68.726562 60.992188 67.90625 C 59.914062 68.003906 58.902344 68.089844 57.894531 68.179688 Z M 59.214844 64.363281 C 59.804688 63.34375 60.355469 62.394531 60.933594 61.386719 C 60.90625 61.34375 60.808594 61.210938 60.714844 61.082031 C 58.820312 62 58.347656 62.996094 59.210938 64.363281 Z M 69.601562 49.46875 C 69.015625 50.515625 69.015625 50.597656 69.34375 51.152344 C 69.886719 52.082031 70.414062 53.023438 70.914062 53.914062 C 70.875 52.378906 70.546875 50.851562 69.601562 49.46875 Z M 57.363281 65.015625 C 58.136719 64.496094 58.351562 63.953125 58.382812 62.445312 C 56.503906 62.992188 56.273438 63.964844 57.363281 65.015625 Z M 48.550781 28.535156 C 48.210938 28.285156 47.894531 27.890625 47.515625 27.8125 C 46.949219 27.699219 46.414062 28.238281 46.425781 28.753906 C 46.4375 29.355469 46.832031 29.574219 47.359375 29.59375 C 47.875 29.613281 48.433594 29.117188 48.550781 28.535156 Z M 67.589844 53.898438 L 67.589844 57.4375 C 67.882812 57.15625 68.214844 56.984375 68.222656 56.796875 C 68.246094 55.828125 68.371094 54.828125 67.589844 53.894531 Z M 45.851562 75.589844 C 44.960938 76.167969 44.699219 76.621094 45.09375 76.976562 C 45.269531 77.136719 45.738281 77.167969 45.960938 77.050781 C 46.515625 76.757812 46.46875 76.347656 45.851562 75.589844 Z M 41 67.039062 C 40.011719 66.960938 39.027344 66.882812 37.875 66.792969 C 38.871094 67.785156 39.203125 67.808594 41 67.039062 Z M 55.574219 65.558594 C 55.902344 64.777344 56.148438 64.195312 56.445312 63.484375 C 54.851562 64.046875 54.726562 64.300781 55.574219 65.558594 Z M 62.730469 70.328125 C 61.328125 70.867188 61.273438 71.085938 62.097656 72.417969 C 62.3125 71.707031 62.492188 71.121094 62.730469 70.328125 Z M 60.085938 73.492188 C 60.15625 73.425781 60.222656 73.355469 60.292969 73.28125 C 60.097656 72.988281 59.960938 72.589844 59.691406 72.4375 C 59.496094 72.324219 59.113281 72.546875 58.816406 72.621094 C 58.964844 72.84375 59.066406 73.132812 59.269531 73.265625 C 59.492188 73.417969 59.8125 73.425781 60.089844 73.492188 Z M 49.6875 73.050781 C 49.382812 73.429688 49.078125 73.6875 49.125 73.78125 C 49.257812 74.066406 49.527344 74.292969 49.746094 74.542969 C 49.871094 74.335938 50.082031 74.132812 50.089844 73.921875 C 50.09375 73.703125 49.898438 73.476562 49.691406 73.050781 Z M 49.6875 73.050781 "/>
<path style=" stroke:none;fill-rule:nonzero;fill:rgb(2.352941%,27.843139%,29.803923%);fill-opacity:1;" d="M 84.125 41.742188 C 83.640625 40.445312 83.273438 39.09375 82.65625 37.859375 C 80.695312 33.9375 77.335938 31.824219 73.148438 30.875 C 72.117188 30.644531 71.066406 30.460938 70.019531 30.292969 C 69.558594 30.222656 69.082031 30.246094 68.609375 30.222656 C 68.585938 30.308594 68.5625 30.402344 68.535156 30.488281 C 68.878906 30.605469 69.214844 30.742188 69.566406 30.832031 C 70.957031 31.183594 72.371094 31.464844 73.75 31.867188 C 78.414062 33.21875 81.332031 36.324219 82.757812 40.898438 C 82.886719 41.320312 82.953125 41.773438 83.140625 42.167969 C 83.65625 43.242188 83.355469 44.175781 82.640625 44.992188 C 82.082031 45.632812 81.464844 46.238281 80.800781 46.765625 C 79.523438 47.789062 78.195312 48.746094 76.753906 49.824219 C 76.65625 49.273438 76.398438 48.707031 76.488281 48.203125 C 76.933594 45.648438 75.636719 43.847656 73.941406 42.261719 C 72.945312 41.328125 71.800781 40.558594 70.695312 39.75 C 70.351562 39.492188 70.125 39.257812 70.066406 38.785156 C 69.941406 37.78125 69.714844 36.785156 69.523438 35.757812 C 74.207031 37.863281 77.375 41.929688 78.839844 47.6875 C 79.449219 46.5625 79.441406 45.128906 78.746094 43.539062 C 77.664062 41.066406 75.964844 39.0625 73.75 37.539062 C 72.433594 36.636719 70.976562 35.941406 69.589844 35.140625 C 69.441406 35.054688 69.292969 34.886719 69.242188 34.71875 C 69.039062 34.085938 68.875 33.4375 68.644531 32.613281 C 71.492188 33.988281 74.101562 35.371094 76.328125 37.390625 C 78.164062 39.050781 79.394531 41.039062 79.808594 43.503906 C 79.925781 44.21875 80.191406 44.914062 80.449219 45.835938 C 81.210938 42.890625 80.308594 40.574219 78.679688 38.496094 C 76.933594 36.269531 74.609375 34.746094 72.085938 33.535156 C 71.003906 33.015625 69.886719 32.582031 68.804688 32.070312 C 68.566406 31.957031 68.347656 31.703125 68.226562 31.460938 C 67.253906 29.511719 66.304688 27.550781 65.351562 25.59375 C 66.621094 26.109375 67.996094 26.671875 69.375 27.234375 C 68.121094 25.554688 66.488281 24.652344 64.246094 24.460938 C 64.007812 24.179688 63.636719 23.738281 63.269531 23.296875 C 63.320312 23.242188 63.371094 23.1875 63.421875 23.128906 C 65.644531 23.777344 67.800781 24.742188 70.386719 24.691406 C 68.617188 23.050781 66.410156 23.109375 64.488281 22.441406 C 64.8125 21.910156 64.8125 21.917969 65.347656 21.917969 C 67.628906 21.917969 69.90625 21.917969 72.316406 21.917969 C 70.128906 20.898438 67.941406 20.648438 65.480469 21.0625 C 65.875 20.511719 66.144531 20.136719 66.417969 19.761719 L 66.488281 19.960938 C 69.308594 19.808594 72.125 19.652344 75.03125 19.5 C 72.367188 18.785156 69.761719 18.40625 67.070312 19.019531 C 67.050781 18.898438 67.03125 18.78125 67.011719 18.660156 C 67.21875 18.558594 67.414062 18.386719 67.628906 18.359375 C 72.261719 17.832031 76.734375 18.398438 80.96875 20.398438 C 83.46875 21.578125 85.824219 22.976562 87.449219 25.300781 C 87.976562 26.054688 88.574219 26.820312 88.855469 27.675781 C 89.429688 29.441406 89.585938 31.269531 89.1875 33.132812 C 88.597656 35.921875 87.214844 38.273438 85.34375 40.378906 C 85.007812 40.761719 84.667969 41.148438 84.328125 41.53125 C 84.261719 41.601562 84.195312 41.671875 84.125 41.742188 Z M 85.847656 33.050781 C 83.648438 30.308594 77.175781 29.058594 75.816406 31.207031 C 79.398438 30.597656 82.535156 31.722656 85.847656 33.050781 Z M 77.015625 29.890625 C 77.777344 29.777344 78.300781 29.671875 78.832031 29.621094 C 80.566406 29.445312 82.210938 29.925781 83.871094 30.308594 C 84.273438 30.402344 84.691406 30.417969 85.238281 30.484375 C 83.878906 28.648438 78.4375 28.210938 77.019531 29.894531 Z M 85.257812 28.902344 C 84.96875 27.796875 84.636719 27.53125 82.769531 27.058594 C 81.445312 26.726562 80.097656 26.417969 78.796875 27.199219 C 79.855469 27.476562 80.9375 27.527344 81.972656 27.773438 C 83.0625 28.039062 84.097656 28.496094 85.253906 28.902344 Z M 80.875 25.371094 C 82.722656 25.914062 84.554688 26.449219 86.316406 26.96875 C 84.757812 25.324219 82.058594 24.53125 80.875 25.371094 Z M 80.875 25.371094 "/>
<path style=" stroke:none;fill-rule:nonzero;fill:rgb(74.509805%,11.764706%,17.647059%);fill-opacity:1;" d="M 42.453125 83.542969 C 41.738281 84.15625 41.019531 84.765625 40.3125 85.382812 C 40.136719 85.539062 39.992188 85.734375 39.824219 85.902344 C 38.59375 87.136719 37.972656 87.066406 36.929688 85.585938 C 38.355469 84.4375 39.785156 83.289062 41.332031 82.042969 C 41.675781 82.496094 42.066406 83.011719 42.453125 83.523438 Z M 42.453125 83.542969 "/>
<path style=" stroke:none;fill-rule:nonzero;fill:rgb(0%,67.450982%,63.921571%);fill-opacity:1;" d="M 45.066406 22.03125 C 46.058594 21.066406 47.027344 20.128906 48.25 18.945312 C 50.265625 19.226562 52.617188 19.449219 54.917969 19.910156 C 59.269531 20.777344 62.476562 23.292969 64.757812 27.050781 C 67.375 31.375 68.800781 36.058594 69.105469 41.089844 C 69.324219 44.679688 68.957031 48.1875 67.527344 51.527344 C 65.71875 55.765625 62.589844 58.816406 58.5625 60.925781 C 55.351562 62.605469 52.027344 64.074219 48.734375 65.589844 C 48.230469 65.824219 47.617188 65.898438 47.054688 65.914062 C 44.890625 65.964844 42.722656 66.035156 40.566406 65.960938 C 34.425781 65.753906 29.40625 63.210938 25.453125 58.550781 C 21.757812 54.199219 19.621094 49.144531 19.078125 43.5 C 18.644531 39.027344 19.527344 34.722656 21.660156 30.726562 C 21.898438 30.277344 22.300781 29.914062 22.628906 29.511719 C 22.6875 29.550781 22.742188 29.589844 22.804688 29.632812 C 22.777344 29.886719 22.75 30.144531 22.726562 30.40625 C 26.542969 30.898438 29.734375 27.910156 29.984375 23.671875 C 31.464844 22.746094 32.941406 21.828125 34.484375 20.863281 C 36.683594 23.382812 39.613281 23.46875 42.738281 22.996094 C 42.609375 23.09375 42.480469 23.199219 42.34375 23.289062 C 39.710938 24.957031 38.648438 27.425781 38.777344 30.441406 C 38.863281 32.574219 39.257812 34.644531 40.445312 36.488281 C 42.054688 38.996094 44.339844 40.464844 47.324219 40.535156 C 51.917969 40.652344 56.109375 39.414062 59.433594 36.121094 C 61.925781 33.648438 61.984375 30.507812 59.859375 27.6875 C 57.863281 25.039062 55.179688 23.410156 52.054688 22.457031 C 50.03125 21.839844 47.964844 21.609375 45.851562 21.996094 C 45.601562 22.042969 45.335938 22.027344 45.070312 22.039062 Z M 21.144531 41.996094 C 21.257812 42.914062 21.316406 43.835938 21.492188 44.738281 C 21.617188 45.398438 21.855469 46.050781 22.105469 46.683594 C 23.683594 50.636719 27.191406 52.140625 31.113281 50.546875 C 37.738281 47.859375 40.46875 38.367188 36.261719 32.578125 C 33.578125 28.886719 28.6875 28.101562 25.25 31.644531 C 22.457031 34.53125 21.484375 38.125 21.140625 41.988281 Z M 45.996094 57.167969 C 46.789062 56.976562 48.199219 56.792969 49.488281 56.289062 C 52.152344 55.25 53.878906 53.320312 54.367188 50.441406 C 54.613281 48.996094 54.394531 47.644531 53.257812 46.578125 C 52.417969 45.792969 51.304688 45.796875 50.507812 46.621094 C 50.183594 46.957031 49.941406 47.382812 49.710938 47.796875 C 49.292969 48.539062 48.953125 49.324219 48.519531 50.058594 C 47.925781 51.0625 47.085938 51.832031 45.929688 52.113281 C 44.175781 52.535156 42.414062 52.621094 40.65625 52.074219 C 39.496094 51.710938 38.691406 52.441406 38.894531 53.652344 C 39.046875 54.558594 39.605469 55.1875 40.324219 55.691406 C 41.84375 56.761719 43.589844 57.039062 45.992188 57.171875 Z M 45.996094 57.167969 "/>
<path style=" stroke:none;fill-rule:nonzero;fill:rgb(2.352941%,27.843139%,29.803923%);fill-opacity:1;" d="M 29.160156 69.796875 C 28.664062 69.710938 27.996094 69.792969 27.707031 69.503906 C 26.921875 68.714844 26.097656 67.851562 25.667969 66.859375 C 25.226562 65.828125 25.039062 64.59375 25.089844 63.464844 C 25.199219 60.953125 24.492188 58.828125 22.746094 57.023438 C 22.472656 56.738281 22.332031 56.320312 22.089844 55.996094 C 21.980469 55.84375 21.769531 55.765625 21.515625 55.703125 C 22.195312 57.007812 21.484375 58.160156 21.265625 59.34375 C 20.574219 63.082031 21.238281 66.476562 23.800781 69.394531 C 23.9375 69.550781 24.0625 69.703125 24.308594 69.992188 C 23.757812 70.105469 23.324219 70.1875 22.816406 70.292969 C 21.933594 67.8125 21.070312 65.386719 20.257812 63.109375 C 20.175781 65.496094 20.21875 68.019531 22.234375 70.144531 C 21.605469 70.300781 21.359375 70.183594 21.019531 69.769531 C 19.363281 67.785156 18.757812 65.398438 18.257812 62.960938 C 18.207031 65.460938 18.3125 67.910156 20.457031 69.738281 C 20.382812 69.800781 20.308594 69.871094 20.234375 69.9375 C 19.78125 69.621094 19.265625 69.375 18.882812 68.992188 C 15.4375 65.539062 14.734375 60.769531 17.027344 56.457031 C 17.636719 55.3125 18.308594 54.195312 18.921875 53.054688 C 19.589844 51.8125 19.550781 50.515625 19.125 49.191406 C 19.179688 51.3125 18.03125 52.953125 17.027344 54.65625 C 15.835938 56.675781 14.878906 58.773438 14.851562 61.183594 C 14.820312 63.84375 15.625 66.222656 17.28125 68.308594 C 17.492188 68.574219 17.695312 68.84375 17.964844 69.1875 C 17.4375 69.269531 17.027344 69.378906 16.996094 68.691406 C 16.992188 68.578125 16.878906 68.445312 16.777344 68.359375 C 14.964844 66.75 14.699219 64.507812 14.273438 62.332031 C 14.136719 61.632812 14.070312 60.914062 13.894531 60.207031 C 13.894531 61.808594 13.808594 63.414062 13.917969 65.011719 C 14.019531 66.492188 14.769531 67.726562 15.917969 68.710938 C 15.878906 68.785156 15.835938 68.859375 15.796875 68.933594 C 15.34375 68.742188 14.820312 68.636719 14.445312 68.34375 C 12.523438 66.855469 11.796875 64.75 11.597656 62.429688 C 11.4375 60.511719 11.851562 58.664062 12.714844 56.972656 C 13.929688 54.589844 14.253906 52.042969 14.484375 49.445312 C 14.671875 47.339844 15.164062 45.332031 16.710938 43.742188 C 16.898438 43.550781 17.109375 43.382812 17.382812 43.238281 C 15.984375 44.8125 15.675781 46.699219 15.671875 48.921875 C 16.585938 47 16.488281 44.851562 18.21875 43.566406 C 17.332031 45.351562 16.785156 47.195312 17.007812 49.429688 C 17.417969 47.691406 17.785156 46.160156 18.144531 44.628906 C 18.222656 44.628906 18.300781 44.628906 18.375 44.632812 C 18.503906 45.273438 18.628906 45.914062 18.765625 46.550781 C 19.820312 51.566406 21.972656 56.058594 25.496094 59.808594 C 26.574219 60.953125 27.003906 62.1875 27.050781 63.660156 C 27.078125 64.445312 27.050781 65.238281 27.152344 66.015625 C 27.351562 67.484375 27.992188 68.734375 29.304688 69.582031 C 29.257812 69.65625 29.210938 69.730469 29.164062 69.800781 Z M 29.160156 69.796875 "/>
<path style=" stroke:none;fill-rule:nonzero;fill:rgb(2.352941%,27.843139%,29.803923%);fill-opacity:1;" d="M 64.273438 16.269531 C 63.488281 16.75 62.878906 17.121094 62.289062 17.484375 C 61.789062 17.117188 61.292969 16.75 60.800781 16.386719 L 60.574219 16.640625 C 60.992188 17.089844 61.410156 17.539062 61.867188 18.03125 C 61.703125 18.289062 61.53125 18.574219 61.351562 18.863281 C 60.554688 18.386719 59.777344 17.914062 59 17.449219 C 58.941406 17.539062 58.875 17.636719 58.8125 17.726562 C 59.570312 18.269531 60.332031 18.8125 61.160156 19.402344 C 61.125 19.621094 61.0625 19.953125 61.023438 20.285156 C 60.988281 20.585938 60.972656 20.894531 60.945312 21.277344 C 60.6875 21.175781 60.46875 21.117188 60.269531 21.007812 C 57.15625 19.335938 53.800781 18.621094 50.289062 18.542969 C 49.742188 18.53125 49.199219 18.636719 48.652344 18.65625 C 48.425781 18.667969 48.058594 18.691406 47.992188 18.578125 C 47.597656 17.894531 47.167969 18.246094 46.683594 18.429688 C 42.914062 19.875 39.253906 19.625 35.703125 17.691406 C 35.515625 17.589844 35.300781 17.535156 34.949219 17.402344 C 35.472656 16.578125 35.960938 15.816406 36.492188 14.976562 C 41.046875 15.21875 45.558594 15.460938 50.230469 15.710938 C 47.804688 14.601562 41.722656 14.089844 37.003906 14.546875 C 37.644531 13.871094 38.398438 13.582031 39.214844 13.609375 C 41.539062 13.675781 43.871094 13.785156 46.191406 13.933594 C 48.238281 14.0625 50.277344 14.265625 52.347656 14.242188 C 50.472656 13.902344 48.601562 13.476562 46.714844 13.25 C 44.855469 13.027344 42.96875 13 41.089844 12.820312 C 43.84375 11.738281 46.75 12.027344 49.648438 11.964844 C 48.394531 11.171875 46.542969 10.9375 44.019531 11.320312 C 42.078125 11.617188 40.277344 12.28125 38.53125 13.140625 C 39.695312 12.039062 41.082031 11.332031 42.605469 10.972656 C 49.144531 9.421875 55.332031 10.105469 60.960938 14.027344 C 62.023438 14.769531 63.105469 15.476562 64.273438 16.265625 Z M 53.722656 17.703125 C 52.191406 17.210938 50.769531 16.742188 49.34375 16.292969 C 49.019531 16.1875 48.683594 16.085938 48.347656 16.058594 C 45.890625 15.863281 43.4375 15.589844 40.980469 15.542969 C 39.558594 15.515625 38.132812 15.871094 36.707031 16.023438 C 35.980469 16.105469 35.769531 16.527344 35.746094 17.230469 C 41.714844 18.761719 47.703125 17.792969 53.726562 17.699219 Z M 60.960938 20.546875 C 60 19.660156 59.007812 19.222656 57.730469 18.914062 C 59.1875 20.160156 59.816406 20.484375 60.960938 20.546875 Z M 60.960938 20.546875 "/>
<path style=" stroke:none;fill-rule:nonzero;fill:rgb(100%,100%,100%);fill-opacity:1;" d="M 54.167969 24.375 C 55.875 25.316406 57.597656 26.253906 58.847656 27.800781 C 59.378906 28.460938 59.875 29.171875 60.230469 29.933594 C 61.0625 31.695312 60.792969 33.382812 59.679688 34.957031 C 58.871094 36.097656 57.800781 36.949219 56.59375 37.621094 C 53.675781 39.242188 50.570312 40.25 47.191406 40.074219 C 44.785156 39.949219 42.816406 38.875 41.132812 36.820312 C 41.621094 36.917969 41.890625 36.984375 42.160156 37.03125 C 46.203125 37.71875 50.917969 36.28125 53.386719 31.796875 C 54.160156 30.386719 54.742188 28.910156 54.933594 27.28125 C 55.050781 26.3125 55.023438 25.445312 54.246094 24.738281 C 54.171875 24.671875 54.195312 24.496094 54.175781 24.375 L 54.164062 24.375 Z M 54.167969 24.375 "/>
<path style=" stroke:none;fill-rule:nonzero;fill:rgb(68.235296%,52.549022%,73.725492%);fill-opacity:1;" d="M 43.3125 80.125 C 42.527344 79.796875 42.148438 80.339844 41.804688 80.914062 C 41.292969 80.246094 41.410156 79.710938 41.898438 79.199219 C 42.65625 78.40625 43.40625 77.609375 44.300781 76.667969 C 44.679688 77.53125 45.242188 77.949219 45.960938 77.609375 C 46.335938 77.433594 46.671875 76.972656 46.808594 76.566406 C 47.066406 75.777344 46.324219 75.570312 45.785156 75.269531 C 46.648438 73.953125 47.488281 72.675781 48.359375 71.347656 C 48.746094 71.800781 49.128906 72.257812 49.5 72.691406 C 49.214844 72.960938 48.875 73.175781 48.691406 73.476562 C 48.570312 73.671875 48.621094 74.023438 48.699219 74.265625 C 48.878906 74.824219 49.304688 75.085938 49.894531 75.003906 C 50.589844 74.914062 50.632812 74.402344 50.511719 73.6875 C 52.203125 74.695312 53.839844 75.429688 55.761719 74.742188 C 56.21875 78.222656 56.664062 81.621094 57.132812 85.160156 C 52.113281 85.882812 47.527344 84.730469 43.285156 82.367188 C 43.601562 81.800781 43.960938 81.363281 44.066406 80.863281 C 44.105469 80.667969 43.566406 80.355469 43.289062 80.097656 L 43.316406 80.121094 Z M 47.613281 79.675781 L 47.652344 79.710938 C 46.84375 79.289062 46.332031 79.308594 45.960938 79.800781 C 45.621094 80.246094 45.714844 80.703125 46.039062 81.105469 C 46.546875 81.738281 47.597656 81.691406 48.089844 81.035156 C 48.527344 80.457031 48.367188 80.015625 47.617188 79.675781 Z M 51.980469 77.859375 L 52.015625 77.894531 C 51.398438 77.429688 50.960938 77.453125 50.375 77.976562 C 49.824219 78.472656 49.769531 79.09375 50.234375 79.578125 C 50.710938 80.066406 51.375 80.015625 51.9375 79.445312 C 52.5 78.875 52.511719 78.386719 51.976562 77.859375 Z M 54.90625 79.710938 C 54.117188 79.710938 53.441406 80.367188 53.453125 81.128906 C 53.460938 81.675781 53.949219 82.160156 54.511719 82.175781 C 55.207031 82.199219 55.9375 81.523438 55.953125 80.839844 C 55.964844 80.226562 55.492188 79.714844 54.90625 79.714844 Z M 50.0625 84.683594 C 50.824219 84.6875 51.460938 84.175781 51.507812 83.523438 C 51.542969 83.03125 50.902344 82.40625 50.371094 82.417969 C 49.730469 82.429688 48.894531 83.21875 48.921875 83.78125 C 48.949219 84.308594 49.417969 84.679688 50.066406 84.683594 Z M 50.0625 84.683594 "/>
<path style=" stroke:none;fill-rule:nonzero;fill:rgb(2.352941%,27.843139%,29.803923%);fill-opacity:1;" d="M 21.882812 27.257812 C 19.792969 29.601562 18.6875 31.855469 17.324219 36.300781 C 16.597656 36.046875 16.546875 36.027344 16.777344 35.382812 C 17.308594 33.90625 17.859375 32.433594 18.453125 30.988281 C 19.09375 29.441406 19.796875 27.925781 20.46875 26.394531 C 20.546875 26.21875 20.589844 26.03125 20.597656 25.832031 C 18.554688 28.839844 16.941406 32.042969 16.042969 35.585938 C 15.960938 35.597656 15.886719 35.613281 15.804688 35.625 C 15.71875 35.40625 15.511719 35.152344 15.5625 34.96875 C 16.886719 30.015625 18.652344 25.273438 22.296875 21.460938 C 24.289062 19.375 26.515625 17.664062 29.347656 16.855469 C 30.664062 16.480469 31.972656 16.335938 33.269531 16.886719 C 33.445312 16.960938 33.609375 17.078125 33.664062 17.109375 C 32.382812 17.625 31.070312 18.148438 29.765625 18.671875 C 29.796875 18.757812 29.820312 18.839844 29.851562 18.925781 C 31.339844 18.535156 32.824219 18.148438 34.3125 17.757812 C 34.367188 17.816406 34.417969 17.871094 34.472656 17.925781 C 34.1875 18.367188 33.972656 18.890625 33.597656 19.226562 C 33.210938 19.574219 32.664062 19.734375 32.191406 19.976562 C 32.230469 20.058594 32.261719 20.144531 32.300781 20.230469 C 32.835938 20.007812 33.367188 19.792969 33.902344 19.570312 C 33.957031 19.617188 34.019531 19.671875 34.078125 19.722656 C 33.925781 19.960938 33.816406 20.261719 33.605469 20.425781 C 32.441406 21.324219 31.25 22.183594 30 23.105469 C 29.84375 22.761719 29.734375 22.484375 29.597656 22.21875 C 28.96875 20.960938 27.691406 20.734375 26.777344 21.8125 C 26.210938 22.480469 25.796875 23.289062 25.402344 24.070312 C 25.015625 24.832031 24.699219 25.628906 24.417969 26.429688 C 24.113281 27.296875 23.621094 28.03125 22.882812 28.542969 C 21.914062 29.222656 21.371094 30.195312 20.835938 31.1875 C 19.519531 33.617188 18.769531 36.222656 18.421875 38.953125 C 18.398438 39.148438 18.363281 39.339844 18.304688 39.703125 C 17.042969 38.742188 15.886719 37.859375 14.742188 36.996094 C 14.75 38.925781 16.1875 39.679688 17.679688 40.339844 C 18.246094 40.589844 18.417969 40.882812 18.175781 41.425781 C 16.613281 41.667969 14.792969 40.601562 14.144531 39.070312 C 13.589844 37.765625 13.820312 36.71875 14.882812 35.972656 C 15.976562 36.550781 17.105469 37.144531 18.140625 37.691406 C 18.230469 36.890625 18.164062 36.136719 18.410156 35.5 C 19.335938 33.121094 20.359375 30.773438 21.355469 28.417969 C 21.523438 28.023438 21.714844 27.644531 21.894531 27.257812 Z M 21.882812 27.257812 "/>
<path style=" stroke:none;fill-rule:nonzero;fill:rgb(2.352941%,27.843139%,29.803923%);fill-opacity:1;" d="M 5.070312 69.171875 C 2.785156 67.050781 0.660156 64.832031 1.0625 61.363281 C 1.292969 59.371094 2.378906 57.800781 3.660156 56.347656 C 4.203125 55.730469 4.796875 55.160156 5.402344 54.601562 C 7.253906 52.878906 8.28125 50.761719 8.714844 48.277344 C 9.003906 46.640625 9.445312 45.015625 9.949219 43.429688 C 10.511719 41.65625 11.726562 40.300781 13.21875 38.992188 C 13.441406 39.425781 13.628906 39.796875 13.859375 40.25 C 12.164062 40.757812 11.203125 41.933594 10.644531 43.5 C 11.253906 42.941406 11.824219 42.335938 12.480469 41.839844 C 13.089844 41.375 13.683594 40.710938 14.640625 41.109375 C 13.238281 41.96875 12.308594 43.171875 11.628906 44.582031 C 11.683594 44.632812 11.742188 44.6875 11.796875 44.742188 C 12.777344 43.578125 13.761719 42.414062 14.746094 41.246094 C 14.851562 41.320312 14.957031 41.394531 15.054688 41.472656 C 15.28125 41.589844 15.511719 41.710938 15.742188 41.835938 C 15.683594 41.933594 15.65625 42.03125 15.609375 42.042969 C 13.929688 42.484375 13.011719 43.699219 12.625 45.261719 C 12.285156 46.644531 12.144531 48.082031 11.992188 49.5 C 11.835938 50.925781 11.871094 52.375 11.648438 53.789062 C 11.269531 56.195312 9.703125 57.878906 7.890625 59.355469 C 7.039062 60.046875 6.117188 60.660156 5.308594 61.398438 C 2.964844 63.546875 2.808594 66.445312 4.851562 68.878906 C 4.929688 68.976562 4.996094 69.074219 5.070312 69.175781 Z M 9.007812 49.457031 C 8.925781 49.429688 8.847656 49.398438 8.765625 49.371094 C 8.699219 49.976562 8.667969 50.589844 8.570312 51.183594 C 8.203125 53.339844 7.125 55.128906 5.65625 56.714844 C 5.144531 57.265625 4.648438 57.835938 4.148438 58.394531 C 7.140625 56.132812 9.15625 53.34375 9.011719 49.460938 Z M 9.007812 49.457031 "/>
<path style=" stroke:none;fill-rule:nonzero;fill:url(#radial0);" d="M 54.179688 24.375 C 53.757812 24.476562 53.953125 24.753906 53.976562 25.015625 C 54.332031 29.1875 52.925781 32.605469 49.453125 35.039062 C 47.273438 36.5625 44.761719 36.875 42.171875 36.554688 C 41.214844 36.4375 40.449219 35.910156 40.078125 34.941406 C 39.566406 33.59375 39.1875 32.222656 39.222656 30.574219 C 39.433594 30.871094 39.550781 31.035156 39.667969 31.203125 C 40.410156 32.28125 41.484375 32.84375 42.734375 33.09375 C 47.292969 34.003906 52.175781 30.179688 52.359375 25.546875 C 52.382812 24.976562 52.238281 24.402344 52.15625 23.695312 C 52.824219 23.921875 53.496094 24.152344 54.167969 24.378906 L 54.179688 24.378906 Z M 54.179688 24.375 "/>
<path style=" stroke:none;fill-rule:nonzero;fill:rgb(2.352941%,27.843139%,29.803923%);fill-opacity:1;" d="M 70.308594 46.90625 C 70.84375 48.277344 71.382812 49.652344 71.960938 51.148438 C 72.558594 50.53125 72.566406 49.859375 72.355469 49.285156 C 72.015625 48.367188 71.679688 47.347656 71.027344 46.671875 C 70.25 45.867188 69.992188 45.144531 70.449219 44.035156 C 71.871094 45.757812 72.414062 47.800781 72.929688 49.882812 C 73.855469 47.425781 72.421875 43.8125 70.371094 43.445312 L 70.371094 42.554688 C 70.4375 42.546875 70.515625 42.511719 70.550781 42.535156 C 72.492188 43.929688 74.296875 45.488281 75.175781 47.765625 C 75.59375 48.855469 75.746094 50.070312 75.851562 51.246094 C 75.90625 51.816406 75.6875 52.484375 75.402344 53.003906 C 74.289062 55.039062 72.375 55.933594 70.296875 56.515625 C 70.515625 55.9375 70.707031 55.40625 70.910156 54.878906 C 70.984375 54.695312 71.042969 54.476562 71.179688 54.355469 C 72.054688 53.597656 71.984375 52.625 71.675781 51.707031 C 71.394531 50.878906 71.046875 49.996094 70.464844 49.375 C 69.738281 48.597656 69.699219 47.878906 70.03125 47 C 70.125 46.96875 70.214844 46.933594 70.308594 46.90625 Z M 70.308594 46.90625 "/>
<path style=" stroke:none;fill-rule:nonzero;fill:rgb(68.235296%,52.549022%,73.725492%);fill-opacity:1;" d="M 54.625 73.523438 C 54.363281 73.628906 54.097656 73.835938 53.84375 73.824219 C 51.21875 73.648438 47.453125 70.324219 47.65625 66.761719 C 47.945312 66.660156 48.261719 66.542969 48.457031 66.476562 C 49.035156 67.128906 49.574219 67.714844 50.074219 68.332031 C 50.195312 68.480469 50.28125 68.789062 50.210938 68.929688 C 50.125 69.09375 49.84375 69.242188 49.648438 69.242188 C 48.8125 69.25 48.527344 68.484375 49.058594 67.605469 C 48.441406 67.460938 48.382812 67.9375 48.304688 68.28125 C 48.1875 68.839844 48.691406 69.480469 49.304688 69.648438 C 50.035156 69.847656 50.414062 69.632812 50.863281 68.78125 C 51.449219 68.828125 52.03125 68.921875 52.609375 68.910156 C 53.148438 68.898438 53.679688 68.78125 54.285156 68.699219 C 54.1875 69.546875 53.941406 70.511719 55.050781 70.828125 C 55.378906 70.925781 55.980469 70.707031 56.203125 70.425781 C 56.585938 69.945312 56.34375 69.40625 55.796875 68.859375 C 55.839844 69.234375 55.9375 69.472656 55.878906 69.660156 C 55.792969 69.941406 55.589844 70.183594 55.441406 70.445312 C 55.175781 70.238281 54.8125 70.082031 54.671875 69.808594 C 54.558594 69.585938 54.683594 69.21875 54.757812 68.933594 C 54.828125 68.65625 54.941406 68.1875 55.078125 68.171875 C 55.484375 68.132812 55.925781 68.21875 56.320312 68.355469 C 56.703125 68.484375 57.34375 68.191406 57.429688 68.832031 C 57.527344 69.605469 58.164062 70.304688 57.660156 71.179688 C 57.121094 72.113281 56.546875 72.976562 55.582031 73.523438 C 55.242188 73.71875 54.910156 73.898438 54.59375 73.496094 C 54.683594 73.5 54.816406 73.550781 54.859375 73.507812 C 55.347656 73.070312 55.351562 72.664062 54.882812 72.097656 C 54.484375 71.621094 53.660156 71.523438 53.132812 71.960938 C 52.699219 72.3125 52.378906 72.75 52.925781 73.40625 C 52.992188 73.15625 53.015625 73 53.070312 72.851562 C 53.242188 72.386719 53.570312 72.082031 54.078125 72.183594 C 54.539062 72.28125 54.71875 72.652344 54.65625 73.121094 C 54.636719 73.253906 54.632812 73.394531 54.621094 73.527344 Z M 54.625 73.523438 "/>
<path style=" stroke:none;fill-rule:nonzero;fill:rgb(2.352941%,27.843139%,29.803923%);fill-opacity:1;" d="M 35.984375 84.703125 C 35.925781 86.503906 37.335938 87.449219 38.746094 87.6875 C 38.175781 88.4375 37.632812 89.152344 37.089844 89.878906 C 35.546875 89.78125 34.652344 88.570312 33.503906 87.777344 C 34.199219 89.226562 35.3125 90.148438 36.996094 90.445312 C 36.804688 90.902344 36.660156 91.28125 36.488281 91.648438 C 35.742188 93.21875 34.179688 93.53125 32.863281 92.375 C 31.65625 91.3125 31.398438 89.964844 32.285156 88.613281 C 33.238281 87.164062 34.480469 85.957031 35.984375 84.707031 Z M 35.984375 84.703125 "/>
<path style=" stroke:none;fill-rule:nonzero;fill:rgb(2.352941%,27.843139%,29.803923%);fill-opacity:1;" d="M 12.648438 68.132812 C 10.644531 67.078125 9.738281 65.398438 9.199219 63.445312 C 8.816406 65.894531 9.757812 67.628906 11.976562 68.769531 C 11.871094 68.785156 11.769531 68.816406 11.667969 68.804688 C 11.535156 68.792969 11.402344 68.746094 11.273438 68.703125 C 8.25 67.777344 6.824219 65.128906 7.679688 62.117188 C 7.976562 61.074219 8.386719 60.164062 9.332031 59.507812 C 9.96875 59.070312 10.480469 58.449219 11.171875 57.796875 C 10.042969 61.5 10.265625 64.925781 12.644531 68.128906 Z M 12.648438 68.132812 "/>
<path style=" stroke:none;fill-rule:nonzero;fill:rgb(0%,67.450982%,63.921571%);fill-opacity:1;" d="M 56.6875 65.113281 C 57.363281 65.703125 57.539062 65.722656 58.210938 65.066406 C 58.445312 64.835938 58.546875 64.695312 58.953125 64.84375 C 59.441406 65.027344 59.695312 64.585938 59.894531 64.152344 C 60.226562 63.429688 60.636719 62.746094 61.046875 61.976562 C 62.699219 63.976562 61.960938 66.640625 59.765625 67.449219 C 58.109375 68.0625 56.59375 67.703125 55.144531 66.90625 C 54.425781 66.511719 53.914062 65.894531 54.050781 64.988281 C 54.085938 64.753906 54.25 64.542969 54.34375 64.347656 C 54.683594 64.878906 54.882812 65.542969 55.285156 65.699219 C 55.613281 65.824219 56.175781 65.34375 56.6875 65.109375 Z M 56.6875 65.113281 "/>
<path style=" stroke:none;fill-rule:nonzero;fill:rgb(2.352941%,27.843139%,29.803923%);fill-opacity:1;" d="M 26.082031 69.410156 C 25.136719 69.453125 24.578125 69.183594 24.085938 68.539062 C 21.984375 65.796875 21.5 62.746094 22.175781 59.441406 C 22.28125 58.921875 22.414062 58.40625 22.558594 57.789062 C 23.65625 59.078125 24.269531 60.410156 24.195312 62.042969 C 24.140625 63.167969 24.113281 64.304688 24.21875 65.417969 C 24.363281 66.894531 24.945312 68.226562 26.082031 69.40625 Z M 26.082031 69.410156 "/>
<path style=" stroke:none;fill-rule:nonzero;fill:rgb(2.352941%,27.843139%,29.803923%);fill-opacity:1;" d="M 45.882812 19.832031 C 44.6875 21.140625 43.128906 21.714844 41.460938 21.957031 C 39.921875 22.183594 38.367188 22.117188 36.953125 21.351562 C 36.449219 21.078125 35.972656 20.71875 35.574219 20.308594 C 34.886719 19.609375 34.878906 19.144531 35.410156 18.136719 C 38.664062 20.046875 42.144531 20.640625 45.882812 19.835938 Z M 45.882812 19.832031 "/>
<path style=" stroke:none;fill-rule:nonzero;fill:rgb(2.352941%,27.843139%,29.803923%);fill-opacity:1;" d="M 23.820312 30.039062 C 24.636719 28.179688 25.410156 26.375 26.21875 24.582031 C 26.542969 23.875 26.910156 23.179688 27.339844 22.53125 C 27.492188 22.300781 27.960938 22.035156 28.144531 22.113281 C 28.4375 22.234375 28.792969 22.625 28.808594 22.917969 C 28.855469 23.890625 28.957031 24.933594 28.6875 25.84375 C 27.96875 28.285156 25.996094 29.363281 23.820312 30.039062 Z M 23.820312 30.039062 "/>
<path style=" stroke:none;fill-rule:nonzero;fill:rgb(2.352941%,27.843139%,29.803923%);fill-opacity:1;" d="M 66.65625 17.363281 C 66.207031 18.671875 64.175781 21.730469 62.902344 23.09375 C 62.417969 21.902344 63.539062 20.945312 63.191406 19.628906 C 62.785156 20.582031 62.457031 21.34375 62.109375 22.160156 C 61.472656 21.949219 61.277344 21.570312 61.429688 20.816406 C 61.898438 18.519531 63.355469 17.0625 65.363281 17.082031 C 65.773438 17.082031 66.179688 17.257812 66.652344 17.367188 Z M 66.65625 17.363281 "/>
<path style=" stroke:none;fill-rule:nonzero;fill:rgb(68.235296%,52.549022%,73.725492%);fill-opacity:1;" d="M 53.402344 64.84375 C 53.238281 66.144531 53.878906 67.03125 54.988281 67.851562 C 53.265625 68.089844 51.714844 68.742188 50.242188 67.660156 C 49.804688 67.339844 49.46875 66.886719 49.082031 66.492188 C 49.117188 66.394531 49.15625 66.296875 49.191406 66.199219 C 50.566406 65.753906 51.941406 65.316406 53.402344 64.84375 Z M 53.402344 64.84375 "/>
<path style=" stroke:none;fill-rule:nonzero;fill:rgb(2.352941%,27.843139%,29.803923%);fill-opacity:1;" d="M 28.066406 62.402344 C 28.929688 62.925781 29.632812 63.320312 29.652344 64.292969 C 29.699219 66.375 30.5625 68.027344 32.429688 69.203125 C 31.585938 69.660156 30.972656 69.59375 30.242188 69.042969 C 28.882812 68.011719 28.183594 66.730469 28.195312 65.03125 C 28.199219 64.214844 28.117188 63.398438 28.066406 62.402344 Z M 28.066406 62.402344 "/>
<path style=" stroke:none;fill-rule:nonzero;fill:rgb(100%,100%,100%);fill-opacity:1;" d="M 50.734375 25.621094 C 50.726562 26.53125 50.082031 27.140625 49.152344 27.117188 C 48.128906 27.089844 47.289062 26.191406 47.320312 25.160156 C 47.347656 24.277344 48.101562 23.492188 48.933594 23.480469 C 49.789062 23.464844 50.742188 24.597656 50.734375 25.625 Z M 50.734375 25.621094 "/>
<path style=" stroke:none;fill-rule:nonzero;fill:rgb(2.352941%,27.843139%,29.803923%);fill-opacity:1;" d="M 30.050781 63.816406 C 30.960938 64.277344 31.859375 64.695312 32.714844 65.1875 C 32.960938 65.324219 33.234375 65.6875 33.226562 65.933594 C 33.199219 66.964844 33.523438 67.8125 34.335938 68.5 C 33.988281 68.917969 33.632812 68.863281 33.230469 68.679688 C 32.074219 68.152344 31.324219 67.265625 30.898438 66.089844 C 30.625 65.332031 30.339844 64.585938 30.050781 63.8125 Z M 30.050781 63.816406 "/>
<path style=" stroke:none;fill-rule:nonzero;fill:rgb(68.235296%,52.549022%,73.725492%);fill-opacity:1;" d="M 58.625 71.988281 C 58.78125 71.433594 58.9375 70.894531 59.113281 70.273438 C 60.601562 70.152344 61.53125 69.28125 62.105469 67.789062 C 62.28125 68.480469 62.457031 69.175781 62.632812 69.867188 C 60.726562 70.394531 60.550781 71.285156 61.785156 72.746094 C 61.417969 72.976562 61.066406 73.199219 60.664062 73.449219 C 60.53125 71.800781 59.785156 71.816406 58.621094 71.984375 Z M 58.625 71.988281 "/>
<path style=" stroke:none;fill-rule:nonzero;fill:rgb(74.509805%,11.764706%,17.647059%);fill-opacity:1;" d="M 48.253906 85.714844 C 49.140625 85.929688 49.867188 86.105469 50.625 86.289062 C 50.84375 87.132812 50.667969 88.039062 50.058594 88.425781 C 49.375 88.859375 48.433594 88.628906 47.589844 88.261719 C 47.816406 87.382812 48.03125 86.578125 48.253906 85.71875 Z M 48.253906 85.714844 "/>
<path style=" stroke:none;fill-rule:nonzero;fill:rgb(2.352941%,27.843139%,29.803923%);fill-opacity:1;" d="M 18.167969 41.761719 C 18.199219 42.171875 18.222656 42.527344 18.25 42.855469 C 18.140625 42.929688 18.074219 43.007812 18.035156 42.996094 C 16.566406 42.574219 15.625 43.25 14.894531 44.441406 C 14.074219 45.777344 13.707031 47.257812 13.476562 48.777344 C 13.34375 49.648438 13.261719 50.527344 13.148438 51.511719 C 13.113281 48.097656 13.203125 45.355469 15.007812 43.257812 C 15.539062 42.648438 16.046875 42.117188 16.941406 42.101562 C 17.332031 42.09375 17.710938 41.894531 18.171875 41.761719 Z M 18.167969 41.761719 "/>
<path style=" stroke:none;fill-rule:nonzero;fill:rgb(2.352941%,27.843139%,29.803923%);fill-opacity:1;" d="M 70.28125 40.207031 C 72.394531 41.957031 74.46875 43.433594 75.296875 46.007812 C 74.023438 44.398438 72.476562 43.097656 70.714844 42.054688 C 70 41.628906 70.421875 40.984375 70.28125 40.207031 Z M 70.28125 40.207031 "/>
<path style=" stroke:none;fill-rule:nonzero;fill:rgb(2.352941%,27.843139%,29.803923%);fill-opacity:1;" d="M 62.371094 60.074219 C 63.910156 58.453125 65.570312 56.710938 67.140625 55.0625 C 66.972656 57.515625 65.195312 59.46875 62.371094 60.074219 Z M 62.371094 60.074219 "/>
<path style=" stroke:none;fill-rule:nonzero;fill:rgb(2.352941%,27.843139%,29.803923%);fill-opacity:1;" d="M 37.371094 67.394531 C 36.875 67.597656 36.363281 67.773438 35.882812 68.015625 C 35.40625 68.253906 34.960938 68.175781 34.691406 67.796875 C 34.234375 67.152344 33.878906 66.4375 33.378906 65.574219 C 34.953125 66.007812 36.257812 66.367188 37.585938 66.730469 C 37.515625 66.929688 37.425781 67.179688 37.335938 67.429688 Z M 37.371094 67.394531 "/>
<path style=" stroke:none;fill-rule:nonzero;fill:rgb(2.352941%,27.843139%,29.803923%);fill-opacity:1;" d="M 68.882812 56.902344 C 69.292969 55.621094 69.09375 54.464844 68.378906 53.398438 C 67.941406 52.746094 68.53125 52.347656 68.695312 51.683594 C 69.863281 53.128906 70.003906 54.675781 69.820312 56.277344 C 69.769531 56.703125 69.433594 56.964844 68.878906 56.902344 Z M 68.882812 56.902344 "/>
<path style=" stroke:none;fill-rule:nonzero;fill:rgb(0%,67.450982%,63.921571%);fill-opacity:1;" d="M 57.894531 68.179688 C 58.90625 68.089844 59.914062 68.003906 60.992188 67.90625 C 60.847656 68.726562 60.375 69.238281 59.628906 69.488281 C 58.605469 69.828125 58.53125 68.648438 57.800781 68.503906 C 57.832031 68.398438 57.859375 68.285156 57.890625 68.179688 Z M 57.894531 68.179688 "/>
<path style=" stroke:none;fill-rule:nonzero;fill:rgb(0%,67.450982%,63.921571%);fill-opacity:1;" d="M 59.214844 64.359375 C 58.351562 62.992188 58.824219 61.996094 60.71875 61.078125 C 60.8125 61.207031 60.910156 61.339844 60.9375 61.382812 C 60.355469 62.390625 59.808594 63.339844 59.21875 64.359375 Z M 59.214844 64.359375 "/>
<path style=" stroke:none;fill-rule:nonzero;fill:rgb(2.352941%,27.843139%,29.803923%);fill-opacity:1;" d="M 69.601562 49.464844 C 70.546875 50.847656 70.875 52.375 70.914062 53.910156 C 70.410156 53.019531 69.886719 52.078125 69.34375 51.148438 C 69.019531 50.59375 69.015625 50.515625 69.601562 49.464844 Z M 69.601562 49.464844 "/>
<path style=" stroke:none;fill-rule:nonzero;fill:rgb(0%,67.450982%,63.921571%);fill-opacity:1;" d="M 57.363281 65.011719 C 56.273438 63.960938 56.503906 62.992188 58.382812 62.441406 C 58.351562 63.945312 58.136719 64.492188 57.363281 65.011719 Z M 57.363281 65.011719 "/>
<path style=" stroke:none;fill-rule:nonzero;fill:rgb(100%,100%,100%);fill-opacity:1;" d="M 48.550781 28.535156 C 48.433594 29.117188 47.871094 29.613281 47.359375 29.59375 C 46.832031 29.574219 46.433594 29.355469 46.425781 28.753906 C 46.417969 28.234375 46.949219 27.695312 47.515625 27.8125 C 47.894531 27.890625 48.210938 28.285156 48.550781 28.535156 Z M 48.550781 28.535156 "/>
<path style=" stroke:none;fill-rule:nonzero;fill:rgb(2.352941%,27.843139%,29.803923%);fill-opacity:1;" d="M 67.589844 53.898438 C 68.371094 54.828125 68.246094 55.828125 68.222656 56.800781 C 68.21875 56.984375 67.882812 57.15625 67.589844 57.441406 Z M 67.589844 53.898438 "/>
<path style=" stroke:none;fill-rule:nonzero;fill:rgb(68.235296%,52.549022%,73.725492%);fill-opacity:1;" d="M 45.851562 75.589844 C 46.46875 76.347656 46.511719 76.757812 45.960938 77.050781 C 45.734375 77.167969 45.265625 77.136719 45.09375 76.976562 C 44.699219 76.621094 44.960938 76.167969 45.851562 75.589844 Z M 45.851562 75.589844 "/>
<path style=" stroke:none;fill-rule:nonzero;fill:rgb(2.352941%,27.843139%,29.803923%);fill-opacity:1;" d="M 41 67.039062 C 39.203125 67.808594 38.871094 67.785156 37.875 66.792969 C 39.027344 66.878906 40.011719 66.960938 41 67.039062 Z M 41 67.039062 "/>
<path style=" stroke:none;fill-rule:nonzero;fill:rgb(0%,67.450982%,63.921571%);fill-opacity:1;" d="M 55.574219 65.558594 C 54.726562 64.304688 54.851562 64.046875 56.445312 63.484375 C 56.144531 64.191406 55.898438 64.777344 55.574219 65.558594 Z M 55.574219 65.558594 "/>
<path style=" stroke:none;fill-rule:nonzero;fill:rgb(68.235296%,52.549022%,73.725492%);fill-opacity:1;" d="M 62.730469 70.328125 C 62.488281 71.121094 62.3125 71.707031 62.097656 72.417969 C 61.273438 71.085938 61.328125 70.867188 62.730469 70.328125 Z M 62.730469 70.328125 "/>
<path style=" stroke:none;fill-rule:nonzero;fill:rgb(68.235296%,52.549022%,73.725492%);fill-opacity:1;" d="M 43.28125 80.105469 C 43.394531 80.355469 43.585938 80.601562 43.589844 80.847656 C 43.589844 81.070312 43.4375 81.410156 43.257812 81.492188 C 43.074219 81.578125 42.632812 81.476562 42.5625 81.335938 C 42.457031 81.117188 42.5 80.746094 42.632812 80.53125 C 42.753906 80.332031 43.078125 80.257812 43.3125 80.128906 L 43.285156 80.105469 Z M 43.28125 80.105469 "/>
<path style=" stroke:none;fill-rule:nonzero;fill:rgb(68.235296%,52.549022%,73.725492%);fill-opacity:1;" d="M 60.085938 73.496094 C 59.808594 73.429688 59.488281 73.421875 59.265625 73.269531 C 59.0625 73.132812 58.960938 72.847656 58.8125 72.625 C 59.109375 72.550781 59.492188 72.332031 59.6875 72.441406 C 59.960938 72.597656 60.097656 72.996094 60.289062 73.285156 C 60.21875 73.355469 60.152344 73.425781 60.082031 73.496094 Z M 60.085938 73.496094 "/>
<path style=" stroke:none;fill-rule:nonzero;fill:rgb(68.235296%,52.549022%,73.725492%);fill-opacity:1;" d="M 49.691406 73.054688 C 49.902344 73.480469 50.097656 73.707031 50.089844 73.925781 C 50.085938 74.136719 49.871094 74.339844 49.746094 74.546875 C 49.527344 74.296875 49.257812 74.070312 49.125 73.785156 C 49.078125 73.6875 49.386719 73.433594 49.6875 73.054688 Z M 49.691406 73.054688 "/>
<path style=" stroke:none;fill-rule:nonzero;fill:rgb(0%,0%,0%);fill-opacity:1;" d="M 85.847656 33.054688 C 82.539062 31.726562 79.398438 30.605469 75.816406 31.210938 C 77.171875 29.0625 83.648438 30.3125 85.847656 33.054688 Z M 85.847656 33.054688 "/>
<path style=" stroke:none;fill-rule:nonzero;fill:rgb(0%,0%,0%);fill-opacity:1;" d="M 77.015625 29.894531 C 78.4375 28.210938 83.875 28.648438 85.234375 30.484375 C 84.6875 30.417969 84.269531 30.40625 83.867188 30.308594 C 82.207031 29.925781 80.5625 29.445312 78.828125 29.621094 C 78.296875 29.675781 77.773438 29.777344 77.011719 29.890625 Z M 77.015625 29.894531 "/>
<path style=" stroke:none;fill-rule:nonzero;fill:rgb(0%,0%,0%);fill-opacity:1;" d="M 85.257812 28.910156 C 84.101562 28.503906 83.0625 28.046875 81.976562 27.78125 C 80.941406 27.53125 79.859375 27.480469 78.800781 27.207031 C 80.097656 26.425781 81.445312 26.734375 82.773438 27.066406 C 84.640625 27.539062 84.972656 27.804688 85.257812 28.910156 Z M 85.257812 28.910156 "/>
<path style=" stroke:none;fill-rule:nonzero;fill:rgb(0%,0%,0%);fill-opacity:1;" d="M 80.875 25.378906 C 82.058594 24.535156 84.757812 25.332031 86.316406 26.972656 C 84.554688 26.457031 82.722656 25.921875 80.875 25.378906 Z M 80.875 25.378906 "/>
<path style=" stroke:none;fill-rule:nonzero;fill:rgb(0%,0%,0%);fill-opacity:1;" d="M 21.148438 42 C 21.492188 38.136719 22.464844 34.542969 25.257812 31.65625 C 28.691406 28.109375 33.585938 28.898438 36.269531 32.589844 C 40.476562 38.378906 37.746094 47.871094 31.121094 50.558594 C 27.199219 52.148438 23.691406 50.648438 22.113281 46.695312 C 21.859375 46.0625 21.625 45.410156 21.5 44.75 C 21.324219 43.847656 21.265625 42.925781 21.152344 42.007812 Z M 21.921875 42.476562 C 21.59375 44.222656 22.621094 46.992188 23.628906 48.234375 C 24.90625 49.8125 26.488281 50.820312 28.605469 50.527344 C 29.511719 50.402344 30.421875 50.128906 31.253906 49.753906 C 38.566406 46.457031 38.621094 38.003906 36.253906 33.566406 C 36.066406 33.210938 35.792969 32.898438 35.558594 32.566406 C 35.425781 32.96875 35.460938 33.273438 35.457031 33.574219 C 35.386719 37.863281 33.804688 41.320312 29.761719 43.238281 C 27.066406 44.515625 24.15625 44.792969 21.925781 42.476562 Z M 22.671875 38.390625 C 22.472656 39.144531 22.296875 39.902344 22.0625 40.644531 C 21.769531 41.582031 22.140625 42.296875 22.882812 42.753906 C 23.503906 43.136719 24.238281 43.480469 24.949219 43.550781 C 28.710938 43.914062 32.269531 41.785156 33.84375 38.347656 C 34.722656 36.421875 34.867188 34.410156 34.671875 32.332031 C 34.617188 31.6875 34.378906 31.371094 33.859375 31.175781 C 33.859375 31.824219 33.910156 32.433594 33.851562 33.039062 C 33.464844 37.023438 29.117188 40.175781 26.4375 40.515625 C 24.5 40.757812 23.390625 40.097656 22.667969 38.386719 Z M 29.257812 33.742188 C 29.230469 34.460938 29.363281 35.125 30.039062 35.511719 C 30.679688 35.882812 31.292969 35.710938 31.859375 35.300781 C 32.9375 34.527344 33.324219 32.632812 32.652344 31.503906 C 32.179688 30.707031 31.433594 30.515625 30.671875 31.039062 C 29.734375 31.6875 29.292969 32.613281 29.257812 33.746094 Z M 30.148438 36.914062 C 29.617188 36.589844 29.296875 36.25 28.929688 36.203125 C 28.441406 36.136719 28.28125 36.65625 28.410156 36.984375 C 28.535156 37.296875 28.894531 37.644531 29.210938 37.714844 C 29.40625 37.757812 29.710938 37.308594 30.148438 36.917969 Z M 30.148438 36.914062 "/>
<path style=" stroke:none;fill-rule:nonzero;fill:rgb(0%,0%,0%);fill-opacity:1;" d="M 46 57.167969 C 43.59375 57.035156 41.847656 56.757812 40.332031 55.6875 C 39.613281 55.183594 39.050781 54.554688 38.902344 53.648438 C 38.699219 52.441406 39.503906 51.710938 40.664062 52.070312 C 42.421875 52.617188 44.183594 52.53125 45.9375 52.109375 C 47.09375 51.832031 47.933594 51.0625 48.527344 50.054688 C 48.957031 49.324219 49.300781 48.539062 49.71875 47.792969 C 49.949219 47.378906 50.195312 46.953125 50.515625 46.617188 C 51.3125 45.792969 52.421875 45.792969 53.265625 46.574219 C 54.402344 47.640625 54.621094 48.992188 54.375 50.4375 C 53.886719 53.316406 52.15625 55.246094 49.496094 56.285156 C 48.210938 56.789062 46.800781 56.972656 46.003906 57.164062 Z M 42.34375 52.84375 C 43.652344 54.511719 46.539062 54.570312 47.925781 53.738281 C 49.726562 52.660156 50.847656 50.40625 50.339844 48.523438 C 49.441406 49.902344 48.78125 51.40625 47.285156 52.191406 C 45.765625 52.992188 44.113281 52.878906 42.34375 52.84375 Z M 42.34375 52.84375 "/>
<path style=" stroke:none;fill-rule:nonzero;fill:rgb(0%,0%,0%);fill-opacity:1;" d="M 53.722656 17.703125 C 47.699219 17.796875 41.714844 18.765625 35.742188 17.234375 C 35.765625 16.53125 35.976562 16.105469 36.703125 16.027344 C 38.128906 15.875 39.554688 15.515625 40.976562 15.546875 C 43.433594 15.59375 45.886719 15.867188 48.34375 16.0625 C 48.683594 16.089844 49.015625 16.191406 49.339844 16.296875 C 50.765625 16.746094 52.1875 17.210938 53.71875 17.707031 Z M 46.453125 16.964844 C 43.292969 16.46875 40.097656 16.195312 36.890625 16.65625 L 36.890625 16.964844 Z M 46.453125 16.964844 "/>
<path style=" stroke:none;fill-rule:nonzero;fill:rgb(0%,0%,0%);fill-opacity:1;" d="M 60.960938 20.546875 C 59.816406 20.484375 59.1875 20.160156 57.730469 18.914062 C 59.007812 19.222656 60 19.660156 60.960938 20.546875 Z M 60.960938 20.546875 "/>
<path style=" stroke:none;fill-rule:nonzero;fill:rgb(0%,0%,0%);fill-opacity:1;" d="M 54.90625 79.714844 C 55.492188 79.714844 55.96875 80.226562 55.953125 80.839844 C 55.9375 81.523438 55.207031 82.203125 54.511719 82.175781 C 53.945312 82.160156 53.460938 81.675781 53.453125 81.128906 C 53.441406 80.367188 54.113281 79.710938 54.90625 79.710938 Z M 55.394531 80.085938 C 54.375 80.191406 53.8125 80.613281 54 81.171875 C 54.078125 81.398438 54.476562 81.671875 54.71875 81.664062 C 55.308594 81.644531 55.539062 81.0625 55.394531 80.085938 Z M 55.394531 80.085938 "/>
<path style=" stroke:none;fill-rule:nonzero;fill:rgb(0%,0%,0%);fill-opacity:1;" d="M 50.066406 84.6875 C 49.417969 84.6875 48.949219 84.3125 48.921875 83.785156 C 48.894531 83.21875 49.730469 82.429688 50.371094 82.421875 C 50.902344 82.414062 51.542969 83.039062 51.507812 83.527344 C 51.464844 84.179688 50.824219 84.691406 50.0625 84.6875 Z M 50.140625 84.628906 C 50.558594 84.140625 50.960938 83.855469 51.085938 83.472656 C 51.183594 83.179688 50.941406 82.621094 50.460938 82.808594 C 50.035156 82.972656 49.714844 83.402344 49.34375 83.710938 C 49.558594 83.960938 49.773438 84.210938 50.136719 84.628906 Z M 50.140625 84.628906 "/>
<path style=" stroke:none;fill-rule:nonzero;fill:rgb(0%,0%,0%);fill-opacity:1;" d="M 51.980469 77.863281 C 52.515625 78.390625 52.503906 78.882812 51.941406 79.449219 C 51.378906 80.019531 50.714844 80.066406 50.238281 79.582031 C 49.773438 79.097656 49.828125 78.476562 50.378906 77.980469 C 50.960938 77.457031 51.402344 77.4375 52.019531 77.898438 C 51.449219 77.730469 50.898438 77.792969 50.574219 78.300781 C 50.417969 78.554688 50.363281 79.082031 50.519531 79.261719 C 50.679688 79.445312 51.207031 79.464844 51.480469 79.347656 C 52.128906 79.0625 52.042969 78.4375 51.980469 77.859375 Z M 51.980469 77.863281 "/>
<path style=" stroke:none;fill-rule:nonzero;fill:rgb(0%,0%,0%);fill-opacity:1;" d="M 47.613281 79.679688 C 48.367188 80.019531 48.523438 80.460938 48.085938 81.039062 C 47.59375 81.695312 46.542969 81.742188 46.035156 81.109375 C 45.710938 80.707031 45.617188 80.253906 45.957031 79.804688 C 46.328125 79.3125 46.835938 79.292969 47.648438 79.714844 C 47.378906 79.71875 47.066406 79.640625 46.847656 79.75 C 46.566406 79.894531 46.355469 80.191406 46.113281 80.417969 C 46.359375 80.660156 46.582031 81.050781 46.859375 81.105469 C 47.152344 81.164062 47.691406 80.972656 47.789062 80.746094 C 47.90625 80.46875 47.6875 80.039062 47.609375 79.679688 Z M 47.613281 79.679688 "/>
<path style=" stroke:none;fill-rule:nonzero;fill:rgb(0%,0%,0%);fill-opacity:1;" d="M 9.007812 49.460938 C 9.152344 53.34375 7.136719 56.132812 4.144531 58.394531 C 4.648438 57.835938 5.140625 57.265625 5.652344 56.714844 C 7.121094 55.128906 8.199219 53.339844 8.566406 51.183594 C 8.664062 50.589844 8.699219 49.976562 8.761719 49.371094 C 8.84375 49.402344 8.921875 49.433594 9.003906 49.457031 Z M 9.007812 49.460938 "/>
<path style=" stroke:none;fill-rule:nonzero;fill:rgb(0%,0%,0%);fill-opacity:1;" d="M 54.625 73.523438 C 54.636719 73.390625 54.644531 73.253906 54.660156 73.117188 C 54.722656 72.648438 54.542969 72.277344 54.082031 72.179688 C 53.574219 72.078125 53.246094 72.382812 53.074219 72.847656 C 53.019531 72.992188 52.992188 73.152344 52.929688 73.402344 C 52.386719 72.742188 52.703125 72.308594 53.136719 71.957031 C 53.667969 71.519531 54.488281 71.617188 54.886719 72.09375 C 55.355469 72.660156 55.351562 73.066406 54.863281 73.503906 C 54.816406 73.546875 54.6875 73.5 54.597656 73.492188 Z M 54.625 73.523438 "/>
<path style=" stroke:none;fill-rule:nonzero;fill:rgb(100%,100%,100%);fill-opacity:1;" d="M 21.921875 42.472656 C 24.152344 44.789062 27.0625 44.511719 29.757812 43.238281 C 33.804688 41.316406 35.382812 37.859375 35.453125 33.570312 C 35.457031 33.269531 35.421875 32.964844 35.554688 32.5625 C 35.789062 32.894531 36.058594 33.207031 36.25 33.5625 C 38.621094 38 38.5625 46.453125 31.25 49.75 C 30.417969 50.125 29.507812 50.398438 28.601562 50.523438 C 26.484375 50.820312 24.90625 49.8125 23.625 48.230469 C 22.621094 46.984375 21.589844 44.21875 21.917969 42.472656 Z M 21.921875 42.472656 "/>
<path style=" stroke:none;fill-rule:nonzero;fill:url(#radial1);" d="M 22.667969 38.386719 C 23.390625 40.097656 24.5 40.757812 26.4375 40.515625 C 29.117188 40.175781 33.464844 37.023438 33.851562 33.039062 C 33.910156 32.4375 33.859375 31.824219 33.859375 31.175781 C 34.378906 31.367188 34.613281 31.6875 34.671875 32.332031 C 34.867188 34.410156 34.722656 36.421875 33.84375 38.347656 C 32.269531 41.785156 28.714844 43.914062 24.949219 43.550781 C 24.234375 43.480469 23.503906 43.136719 22.882812 42.753906 C 22.140625 42.296875 21.769531 41.582031 22.0625 40.644531 C 22.296875 39.902344 22.472656 39.140625 22.671875 38.390625 Z M 22.667969 38.386719 "/>
<path style=" stroke:none;fill-rule:nonzero;fill:rgb(100%,100%,100%);fill-opacity:1;" d="M 29.257812 33.738281 C 29.292969 32.605469 29.738281 31.679688 30.671875 31.035156 C 31.429688 30.507812 32.175781 30.703125 32.652344 31.496094 C 33.324219 32.625 32.9375 34.519531 31.859375 35.296875 C 31.292969 35.703125 30.679688 35.871094 30.039062 35.503906 C 29.363281 35.117188 29.230469 34.453125 29.257812 33.734375 Z M 29.257812 33.738281 "/>
<path style=" stroke:none;fill-rule:nonzero;fill:rgb(100%,100%,100%);fill-opacity:1;" d="M 30.144531 36.910156 C 29.707031 37.300781 29.402344 37.753906 29.207031 37.707031 C 28.890625 37.636719 28.53125 37.289062 28.40625 36.976562 C 28.28125 36.644531 28.4375 36.125 28.925781 36.195312 C 29.292969 36.246094 29.613281 36.582031 30.144531 36.90625 Z M 30.144531 36.910156 "/>
<path style=" stroke:none;fill-rule:nonzero;fill:rgb(100%,100%,100%);fill-opacity:1;" d="M 42.34375 52.84375 C 44.113281 52.878906 45.765625 52.992188 47.285156 52.191406 C 48.78125 51.402344 49.441406 49.898438 50.339844 48.523438 C 50.847656 50.40625 49.722656 52.664062 47.925781 53.738281 C 46.539062 54.570312 43.652344 54.511719 42.34375 52.84375 Z M 42.34375 52.84375 "/>
<path style=" stroke:none;fill-rule:nonzero;fill:rgb(2.352941%,27.843139%,29.803923%);fill-opacity:1;" d="M 46.453125 16.96875 L 36.886719 16.96875 L 36.886719 16.660156 C 40.097656 16.199219 43.292969 16.472656 46.453125 16.96875 Z M 46.453125 16.96875 "/>
<path style=" stroke:none;fill-rule:nonzero;fill:rgb(68.235296%,52.549022%,73.725492%);fill-opacity:1;" d="M 55.394531 80.085938 C 55.539062 81.0625 55.308594 81.644531 54.71875 81.664062 C 54.472656 81.671875 54.078125 81.398438 54 81.171875 C 53.8125 80.613281 54.375 80.1875 55.394531 80.085938 Z M 55.394531 80.085938 "/>
<path style=" stroke:none;fill-rule:nonzero;fill:rgb(68.235296%,52.549022%,73.725492%);fill-opacity:1;" d="M 50.136719 84.625 C 49.773438 84.207031 49.558594 83.957031 49.34375 83.710938 C 49.714844 83.398438 50.03125 82.96875 50.460938 82.804688 C 50.9375 82.617188 51.179688 83.175781 51.085938 83.46875 C 50.960938 83.847656 50.558594 84.132812 50.140625 84.625 Z M 50.136719 84.625 "/>
<path style=" stroke:none;fill-rule:nonzero;fill:rgb(68.235296%,52.549022%,73.725492%);fill-opacity:1;" d="M 51.980469 77.863281 C 52.046875 78.441406 52.128906 79.0625 51.480469 79.351562 C 51.207031 79.472656 50.675781 79.449219 50.519531 79.265625 C 50.363281 79.082031 50.417969 78.558594 50.574219 78.304688 C 50.894531 77.792969 51.449219 77.734375 52.019531 77.902344 Z M 51.980469 77.863281 "/>
<path style=" stroke:none;fill-rule:nonzero;fill:rgb(68.235296%,52.549022%,73.725492%);fill-opacity:1;" d="M 47.613281 79.679688 C 47.6875 80.039062 47.910156 80.46875 47.792969 80.746094 C 47.691406 80.972656 47.15625 81.164062 46.863281 81.105469 C 46.582031 81.050781 46.363281 80.660156 46.117188 80.417969 C 46.359375 80.191406 46.570312 79.894531 46.851562 79.75 C 47.066406 79.640625 47.382812 79.71875 47.652344 79.714844 Z M 47.613281 79.679688 "/>
<path style=" stroke:none;fill-rule:nonzero;fill:rgb(100%,100%,100%);fill-opacity:1;" d="M 25.40625 37.242188 C 25.40625 37.242188 25.40625 38.757812 23.339844 39.480469 C 23.339844 39.480469 25.40625 39.746094 25.40625 41.894531 C 25.40625 41.894531 25.542969 39.351562 27.191406 39.570312 C 27.191406 39.570312 25.816406 39.085938 25.40625 37.246094 Z M 25.40625 37.242188 "/>
<path style=" stroke:none;fill-rule:nonzero;fill:rgb(100%,100%,100%);fill-opacity:1;" d="M 45.050781 30.242188 C 45.050781 30.242188 45.050781 31.753906 42.984375 32.476562 C 42.984375 32.476562 45.050781 32.742188 45.050781 34.894531 C 45.050781 34.894531 45.1875 32.347656 46.835938 32.570312 C 46.835938 32.570312 45.460938 32.082031 45.050781 30.246094 Z M 45.050781 30.242188 "/>
</g>
</svg>
