<?xml version="1.0" encoding="UTF-8"?>
<svg xmlns="http://www.w3.org/2000/svg" xmlns:xlink="http://www.w3.org/1999/xlink" width="90px" height="90px" viewBox="0 0 90 173" version="1.1">
<g id="surface1">
<path style=" stroke:none;fill-rule:nonzero;fill:rgb(40.784314%,36.078432%,47.843137%);fill-opacity:1;" d="M 61.773438 23.953125 C 63.894531 23.007812 64.136719 20.226562 62.246094 18.691406 C 61.773438 18.320312 61.539062 18.253906 60.71875 18.21875 C 59.585938 18.152344 58.976562 18.417969 58.253906 19.246094 C 56.152344 21.628906 58.886719 25.277344 61.765625 23.953125 Z M 59.273438 21.226562 C 59.308594 20.652344 59.390625 20.507812 59.800781 20.242188 C 60.027344 20.070312 60.292969 19.949219 60.574219 19.902344 C 60.976562 19.902344 61.855469 20.8125 61.855469 21.191406 C 61.824219 21.972656 61.199219 22.605469 60.40625 22.648438 C 60.132812 22.582031 59.882812 22.457031 59.667969 22.277344 C 59.273438 21.929688 59.226562 21.8125 59.273438 21.230469 Z M 59.273438 21.226562 "/>
<path style=" stroke:none;fill-rule:nonzero;fill:rgb(61.960787%,8.627451%,33.333334%);fill-opacity:1;" d="M 52.871094 78.144531 C 52.9375 78.523438 53.066406 78.886719 53.246094 79.21875 C 53.589844 79.972656 53.605469 80.117188 53.554688 82.210938 L 53.507812 84.398438 L 54.738281 84.316406 C 55.320312 84.289062 55.898438 84.199219 56.460938 84.058594 L 56.953125 83.890625 L 56.855469 82.566406 C 56.722656 80.636719 56.707031 80.605469 55.921875 80.605469 C 55.015625 80.605469 54.671875 80.390625 55.214844 80.203125 C 55.457031 80.109375 55.699219 80.027344 55.953125 79.960938 C 56.265625 79.878906 56.3125 79.765625 56.378906 78.867188 C 56.460938 77.886719 56.511719 77.792969 57.085938 77.203125 L 57.6875 76.582031 L 56.839844 76.597656 C 55.394531 76.59375 52.867188 77.605469 52.867188 78.144531 Z M 52.871094 78.144531 "/>
<path style=" stroke:none;fill-rule:nonzero;fill:rgb(61.960787%,8.627451%,33.333334%);fill-opacity:1;" d="M 52.015625 78.832031 C 51.695312 78.609375 51.320312 78.496094 50.929688 78.507812 C 49.964844 78.421875 49.257812 78.863281 48.699219 79.945312 C 48.335938 80.632812 48.296875 80.824219 48.296875 82.414062 L 48.296875 84.144531 L 48.789062 84.425781 C 49.460938 84.828125 51.253906 84.847656 51.941406 84.476562 C 52.75 84.03125 52.894531 83.546875 52.832031 81.648438 C 52.761719 79.90625 52.628906 79.378906 52.019531 78.839844 Z M 52.015625 78.832031 "/>
<path style=" stroke:none;fill-rule:nonzero;fill:rgb(100%,100%,100%);fill-opacity:1;" d="M 62.671875 53.925781 C 61.179688 53.695312 59.898438 53.503906 59.800781 53.503906 C 59.566406 53.503906 59.523438 53.828125 59.558594 55.105469 L 59.605469 56.308594 L 60.839844 56.613281 C 62.1875 56.976562 64.175781 57.058594 65.078125 56.796875 C 65.71875 56.632812 65.984375 56.226562 66.132812 55.195312 C 66.25 54.421875 66.65625 54.566406 62.683594 53.925781 Z M 58.433594 56.199219 C 58.652344 56.410156 58.734375 55.984375 58.734375 54.679688 L 58.734375 53.289062 L 58.191406 53.242188 C 57.699219 53.191406 57.632812 53.222656 57.699219 53.453125 C 57.75 53.601562 57.914062 54.257812 58.058594 54.910156 C 58.203125 55.566406 58.367188 56.152344 58.433594 56.203125 Z M 67.703125 12.574219 C 66.960938 12.851562 66.570312 12.882812 64.828125 12.882812 C 61.738281 12.867188 59.765625 12.246094 57.816406 10.679688 C 57.308594 10.277344 56.867188 9.941406 56.828125 9.941406 C 56.679688 9.941406 55.402344 11.746094 54.972656 12.546875 C 54.3125 13.839844 53.738281 15.488281 53.738281 16.125 C 53.738281 16.566406 53.921875 16.894531 54.855469 18.054688 C 55.394531 18.707031 55.886719 19.394531 56.335938 20.117188 C 56.429688 20.347656 56.550781 20.566406 56.695312 20.769531 C 56.746094 20.769531 56.910156 20.460938 57.070312 20.050781 C 57.429688 19.269531 58.417969 18.269531 59.171875 17.945312 C 59.761719 17.699219 60.984375 17.679688 61.765625 17.910156 C 62.550781 18.140625 63.757812 19.351562 63.984375 20.132812 C 64.386719 21.472656 64.117188 22.738281 63.257812 23.738281 C 62.40625 24.683594 61.632812 25.011719 60.253906 24.941406 C 59.246094 24.890625 59.042969 24.824219 58.441406 24.4375 L 57.785156 23.945312 L 57.882812 24.347656 C 57.949219 24.5625 58 26.113281 57.980469 27.792969 L 57.980469 30.832031 L 58.558594 31.097656 C 59.265625 31.394531 62.5625 31.519531 65.011719 31.359375 L 66.519531 31.261719 L 67.636719 30.152344 C 68.855469 28.949219 69.730469 27.441406 70.164062 25.789062 C 70.476562 24.511719 70.609375 20.179688 70.398438 18.339844 C 70.304688 17.421875 70.15625 16.503906 69.957031 15.601562 C 69.648438 14.277344 68.855469 12.25 68.691406 12.25 C 68.355469 12.339844 68.023438 12.449219 67.695312 12.582031 Z M 58.851562 57.894531 C 58.699219 57.175781 58.585938 57.160156 56.632812 57.679688 C 55.949219 57.875 55.253906 58.015625 54.546875 58.105469 L 53.988281 58.105469 L 54.101562 59.066406 C 54.320312 61.242188 54.726562 62.121094 55.453125 61.925781 C 55.777344 61.84375 59.375 60.175781 59.507812 60.042969 C 59.539062 60.027344 59.425781 59.644531 59.273438 59.226562 C 59.109375 58.785156 58.964844 58.339844 58.84375 57.882812 Z M 54.101562 57.339844 C 54.828125 57.503906 57.652344 56.820312 57.652344 56.460938 C 57.652344 55.988281 57.007812 53.339844 56.828125 53.109375 C 56.679688 52.878906 56.335938 52.851562 54.136719 52.8125 C 52.753906 52.796875 51.539062 52.828125 51.429688 52.910156 C 51.148438 53.09375 51.3125 53.9375 51.855469 55.019531 C 52.328125 56 53.496094 57.175781 54.101562 57.339844 Z M 49.375 59.449219 L 50.40625 59.367188 C 51.054688 59.335938 51.683594 59.171875 52.261719 58.878906 C 53.429688 58.292969 53.496094 58.125 52.753906 57.347656 C 51.75 56.3125 51.058594 55.015625 50.765625 53.601562 C 50.714844 53.390625 50.632812 53.203125 50.566406 53.203125 C 50.417969 53.21875 48.335938 54.675781 47.5625 55.328125 L 46.921875 55.835938 L 47.523438 56.996094 C 47.863281 57.648438 48.28125 58.265625 48.753906 58.824219 L 49.367188 59.449219 Z M 49.40625 64.320312 C 49.980469 64.320312 54.101562 62.851562 54.414062 62.519531 C 54.445312 62.5 54.261719 62.175781 54.007812 61.832031 C 53.683594 61.375 53.515625 60.917969 53.40625 60.164062 C 53.324219 59.578125 53.230469 59.136719 53.164062 59.136719 C 53.097656 59.136719 52.789062 59.320312 52.421875 59.496094 C 51.714844 59.859375 50.089844 60.28125 49.40625 60.28125 C 49.003906 60.28125 48.949219 60.332031 48.863281 60.804688 C 48.765625 61.375 48.863281 63.660156 49.03125 64.058594 C 49.089844 64.210938 49.242188 64.316406 49.414062 64.320312 Z M 39.207031 23.3125 C 38.777344 23.605469 38.367188 23.917969 37.972656 24.257812 C 37.597656 24.878906 37.710938 27.578125 38.234375 29.929688 C 38.992188 33.425781 40.976562 37.625 42.4375 38.847656 C 43.503906 39.757812 43.835938 39.828125 46.394531 39.773438 L 48.726562 39.726562 L 49.992188 39.125 C 51.75 38.292969 52.800781 37.542969 53.96875 36.300781 C 56.5 33.585938 57.535156 30.371094 57.285156 25.910156 C 57.171875 23.703125 56.828125 22.378906 55.90625 20.648438 C 54.230469 17.476562 51.5 15.21875 48.511719 14.488281 C 47.78125 14.339844 47.046875 14.242188 46.3125 14.191406 C 44.882812 14.074219 45.046875 13.933594 44.605469 15.777344 C 43.832031 19.027344 42.324219 21.121094 39.199219 23.308594 Z M 44.070312 25.210938 C 44.378906 24.472656 45.433594 23.378906 46.125 23.074219 C 46.617188 22.875 47.140625 22.777344 47.667969 22.792969 C 50.148438 22.792969 51.773438 24.296875 51.753906 26.617188 C 51.753906 27.84375 51.414062 28.710938 50.605469 29.492188 C 49.046875 31.023438 46.75 31.082031 45.183594 29.625 C 43.9375 28.480469 43.476562 26.617188 44.070312 25.214844 Z M 48.550781 59.832031 L 47.925781 58.960938 C 47.570312 58.457031 47.273438 57.914062 47.042969 57.347656 C 46.929688 57.054688 46.796875 56.769531 46.636719 56.5 C 46.4375 56.300781 45.722656 57.234375 45.0625 58.5 C 44.472656 59.59375 44.460938 59.742188 44.460938 60.886719 C 44.460938 61.960938 44.496094 62.160156 44.863281 62.765625 C 45.46875 63.734375 46.273438 64.1875 47.589844 64.382812 C 48.394531 64.511719 48.476562 64.332031 48.164062 63.054688 C 47.914062 62.078125 47.914062 61.730469 48.3125 60.523438 L 48.554688 59.832031 Z M 48.550781 59.832031 "/>
<path style=" stroke:none;fill-rule:nonzero;fill:rgb(40.784314%,36.078432%,47.843137%);fill-opacity:1;" d="M 51.128906 26.578125 C 51.128906 25.214844 50.324219 23.980469 49.058594 23.441406 C 48.417969 23.183594 47.152344 23.164062 46.5625 23.425781 C 44.476562 24.324219 43.804688 27.085938 45.261719 28.699219 C 47.367188 31.003906 51.140625 29.628906 51.125 26.574219 Z M 47.074219 24.929688 C 47.695312 24.820312 48.335938 24.925781 48.886719 25.226562 C 49.195312 25.402344 49.347656 25.628906 49.445312 26.089844 C 49.742188 27.449219 49.082031 28.34375 47.789062 28.34375 C 47.195312 28.34375 47.015625 28.261719 46.605469 27.871094 C 46.195312 27.480469 46.148438 27.316406 46.148438 26.628906 C 46.125 25.75 46.484375 25.09375 47.074219 24.929688 Z M 47.074219 24.929688 "/>
<path style=" stroke:none;fill-rule:nonzero;fill:rgb(61.960787%,8.627451%,33.333334%);fill-opacity:1;" d="M 43.59375 80.1875 C 44.101562 80.1875 44.597656 80.351562 44.597656 80.484375 C 44.597656 80.566406 43.996094 80.617188 43.234375 80.617188 L 41.835938 80.617188 L 41.492188 81.371094 C 40.703125 83.050781 41.296875 85.097656 42.542969 85.097656 C 42.851562 85.097656 46.898438 83.347656 47.308594 83.050781 C 47.40625 82.96875 47.523438 82.480469 47.570312 81.941406 C 47.660156 81.324219 47.789062 80.714844 47.949219 80.109375 C 48.097656 79.636719 48.230469 79.210938 48.230469 79.148438 C 47.695312 78.710938 47.136719 78.296875 46.554688 77.921875 L 44.863281 76.796875 L 43.5 76.765625 L 42.136719 76.699219 L 41.644531 77.203125 C 41.21875 77.625 41.136719 77.800781 41.136719 78.3125 C 41.136719 78.824219 41.21875 79 41.609375 79.390625 C 42.152344 79.890625 42.859375 80.175781 43.59375 80.191406 Z M 43.59375 80.1875 "/>
<path style=" stroke:none;fill-rule:nonzero;fill:rgb(75.686276%,61.960787%,78.823531%);fill-opacity:1;" d="M 71.546875 76.066406 C 71.089844 75.984375 71.003906 76.015625 70.707031 76.375 C 70.304688 76.894531 70.230469 77.175781 70.304688 78.367188 C 70.335938 79.527344 70.5625 79.726562 71.15625 79.105469 C 71.335938 78.90625 71.53125 78.746094 71.613281 78.746094 C 71.855469 78.917969 72.082031 79.117188 72.269531 79.347656 C 72.894531 80.035156 73.847656 80.75 74.128906 80.75 C 74.292969 80.75 74.328125 80.347656 74.292969 78.542969 L 74.261719 76.355469 L 73.160156 76.273438 C 72.558594 76.230469 71.839844 76.132812 71.542969 76.066406 Z M 68.132812 76.148438 L 68.65625 76.148438 C 68.9375 76.148438 69.222656 76.171875 69.496094 76.230469 C 69.777344 76.296875 69.824219 76.230469 69.972656 75.691406 C 70.230469 74.78125 70.5625 73.976562 70.714844 73.976562 C 70.796875 73.976562 70.84375 74.308594 70.84375 74.695312 C 70.84375 75.15625 71.03125 75.417969 71.402344 75.484375 C 72.410156 75.648438 73.160156 75.582031 73.261719 75.335938 C 73.394531 75.054688 72.894531 73.015625 72.667969 72.851562 C 72.585938 72.769531 71.503906 72.449219 70.269531 72.113281 C 69.039062 71.777344 67.9375 71.492188 67.839844 71.460938 C 67.578125 71.359375 67.347656 71.859375 67.265625 72.75 C 67.199219 73.371094 67.265625 73.75 67.667969 74.824219 L 68.136719 76.148438 Z M 72.183594 79.972656 C 71.625 79.375 71.589844 79.351562 71.359375 79.601562 C 71.160156 79.832031 71.128906 80.042969 71.195312 80.644531 C 71.242188 81.074219 71.328125 82.035156 71.375 82.796875 C 71.457031 84.089844 71.492188 84.199219 71.824219 84.355469 C 72.265625 84.550781 73.25 84.550781 73.636719 84.355469 C 73.789062 84.265625 73.96875 84.234375 74.144531 84.253906 C 74.34375 84.269531 74.308594 84.386719 74.011719 84.742188 C 73.816406 84.984375 73.558594 85.171875 73.269531 85.28125 C 72.988281 85.363281 72.90625 85.496094 72.824219 86.003906 C 72.65625 87.144531 71.917969 87.925781 70.675781 88.257812 C 70.082031 88.382812 69.484375 88.464844 68.882812 88.515625 L 67.617188 88.613281 L 67.371094 89.332031 C 66.960938 90.507812 66.359375 91.609375 65.578125 92.585938 C 65.269531 92.949219 65 93.335938 64.757812 93.746094 C 64.757812 93.945312 65.480469 94.433594 66.121094 94.675781 C 66.710938 94.890625 66.796875 94.890625 67.203125 94.691406 C 67.730469 94.417969 69.386719 92.472656 71.867188 89.183594 C 76.386719 83.207031 76.480469 82.777344 73.90625 81.277344 C 73.28125 80.90625 72.703125 80.46875 72.175781 79.96875 Z M 70.996094 71.527344 L 72.769531 72.085938 L 72.667969 71.058594 C 72.488281 68.988281 72.042969 68.316406 70.730469 68.136719 C 70.1875 68.042969 69.648438 67.914062 69.121094 67.761719 C 68.53125 67.574219 67.957031 67.339844 67.414062 67.042969 L 66.640625 66.601562 L 66.441406 67.074219 C 66.296875 67.464844 66.191406 67.867188 66.132812 68.277344 C 65.984375 69.191406 66.25 69.554688 67.332031 69.960938 C 67.804688 70.136719 68.265625 70.359375 68.695312 70.628906 C 68.984375 70.816406 70.015625 71.222656 71.003906 71.53125 Z M 81.71875 36.59375 C 77.847656 34.636719 73.394531 33.234375 68.398438 32.34375 C 65.691406 31.871094 61.371094 31.789062 59.859375 32.195312 C 58.746094 32.503906 58.679688 32.503906 58.679688 32.230469 C 58.679688 32.113281 58.417969 31.886719 58.105469 31.738281 L 57.546875 31.441406 L 57.445312 31.84375 C 57.230469 32.679688 56.214844 34.601562 55.375 35.703125 C 55.175781 35.984375 54.960938 36.246094 54.734375 36.503906 C 53.203125 38.285156 51.363281 39.578125 49.460938 40.183594 C 47.886719 40.703125 45.339844 40.820312 43.617188 40.480469 C 43.207031 40.367188 42.792969 40.300781 42.367188 40.28125 C 42.332031 40.296875 42.53125 40.902344 42.816406 41.621094 C 43.621094 43.621094 44.015625 45.199219 44.164062 46.707031 C 44.363281 48.976562 44.179688 49.875 42.4375 55.167969 C 41.699219 57.40625 41.289062 58.679688 41.074219 59.675781 C 40.863281 60.644531 40.753906 61.628906 40.742188 62.617188 C 40.675781 64.347656 40.710938 64.871094 40.910156 65.457031 C 41.273438 66.519531 42.117188 67.402344 43.371094 68.007812 C 44.523438 68.546875 44.929688 68.910156 44.261719 68.777344 C 44.0625 68.726562 43.886719 68.710938 43.886719 68.746094 C 43.886719 68.777344 44.003906 69.265625 44.117188 69.839844 C 44.417969 71.277344 44.417969 72.761719 44.117188 74.203125 C 44.003906 74.839844 43.886719 75.445312 43.886719 75.558594 C 43.886719 75.675781 44.261719 75.902344 44.726562 76.097656 C 45.476562 76.476562 46.191406 76.921875 46.863281 77.421875 C 47.589844 77.976562 48.257812 78.46875 48.355469 78.515625 C 48.457031 78.566406 48.816406 78.46875 49.230469 78.238281 C 49.769531 77.914062 50.148438 77.8125 51.019531 77.78125 L 52.121094 77.714844 L 52.5625 76.945312 C 53.21875 75.867188 54.535156 74.28125 57.242188 71.339844 C 62.511719 65.617188 63.585938 64.296875 64.75 62.054688 C 65.507812 60.617188 65.617188 60.472656 66.359375 60.054688 C 66.761719 59.832031 67.148438 59.582031 67.523438 59.320312 L 67.882812 59.023438 L 67.226562 58.839844 C 66.375 58.609375 64.578125 58.757812 63.402344 59.148438 C 62.925781 59.332031 61.347656 59.996094 59.921875 60.683594 C 51.695312 64.519531 50.179688 65.113281 48.179688 65.113281 C 47.082031 65.113281 46.769531 65.0625 46.222656 64.769531 C 45.382812 64.347656 44.382812 63.398438 44.007812 62.660156 C 43.683594 62.074219 43.605469 60.859375 43.765625 59.835938 C 43.804688 59.515625 43.886719 59.203125 44.007812 58.90625 C 44.898438 56.632812 47.703125 53.796875 50.152344 52.648438 C 52.1875 51.695312 53.941406 51.71875 59.878906 52.796875 C 64.375 53.582031 65.917969 53.804688 67.597656 53.804688 C 69.171875 53.804688 69.796875 53.574219 70.144531 52.921875 C 70.410156 52.449219 70.210938 51.828125 68.996094 49.292969 C 67.386719 45.964844 67.238281 45.503906 67.039062 43.414062 L 66.871094 41.632812 L 64.65625 40.050781 L 62.441406 38.5 L 61.652344 38.796875 C 60.699219 39.152344 59.679688 39.199219 59.417969 38.878906 C 59.359375 38.820312 59.308594 38.746094 59.269531 38.664062 L 59.285156 38.648438 C 59.320312 38.648438 60.042969 38.484375 60.894531 38.324219 L 62.4375 37.984375 L 64.011719 39.0625 C 64.863281 39.648438 66.628906 40.777344 67.964844 41.609375 C 75.175781 46.089844 79.023438 47.523438 83.835938 47.523438 C 86.101562 47.523438 87.199219 47.328125 87.992188 46.804688 C 89.273438 45.96875 89.566406 44.074219 88.699219 42.308594 C 87.753906 40.421875 85.257812 38.378906 81.726562 36.597656 Z M 55.832031 38.488281 C 54.292969 41.785156 51.167969 45.207031 49.191406 45.742188 C 48.617188 45.890625 48.449219 45.890625 48.007812 45.679688 C 47.46875 45.414062 46.925781 44.675781 46.925781 44.210938 C 46.925781 44.011719 47.074219 44.113281 47.550781 44.613281 C 47.894531 44.96875 48.308594 45.28125 48.449219 45.28125 C 49.992188 45.28125 53.246094 41.878906 55.460938 37.960938 C 55.695312 37.515625 55.976562 37.09375 56.300781 36.703125 C 56.640625 36.402344 56.507812 37.042969 55.832031 38.488281 Z M 57.441406 80.605469 C 57.707031 82.113281 57.707031 83.957031 57.457031 84.671875 C 57.132812 85.535156 56.007812 87.222656 54.617188 88.90625 C 53.5 90.261719 53.300781 90.535156 53.300781 91.007812 C 53.300781 91.960938 54.191406 93.578125 55.441406 94.902344 L 56.097656 95.585938 L 56.621094 95.375 C 56.988281 95.207031 57.679688 95.144531 58.90625 95.109375 C 60.644531 95.09375 60.660156 95.09375 61.878906 94.488281 C 64.410156 93.230469 65.789062 91.664062 66.640625 89.046875 C 66.839844 88.476562 67.042969 87.988281 67.097656 87.953125 C 67.199219 87.886719 67.824219 87.804688 68.492188 87.753906 C 71.136719 87.542969 72.007812 87.117188 72.007812 86.074219 C 72.027344 85.753906 71.917969 85.441406 71.695312 85.210938 C 71.292969 84.808594 70.449219 84.886719 68.449219 85.507812 C 67.683594 85.753906 66.894531 85.9375 66.097656 86.046875 L 65.214844 86.128906 L 64.625 87.03125 C 64.359375 87.449219 64.058594 87.84375 63.71875 88.207031 C 63.417969 88.46875 63.410156 88.46875 63.519531 88.109375 C 63.667969 87.617188 64.492188 86.394531 65 85.921875 C 65.324219 85.625 65.640625 85.496094 66.425781 85.382812 C 67.523438 85.234375 69.695312 84.53125 70.402344 84.140625 C 70.636719 83.996094 70.8125 83.789062 70.910156 83.539062 C 71.078125 82.917969 70.335938 80.1875 70.003906 80.1875 C 69.921875 80.1875 69.5625 80.445312 69.183594 80.742188 C 68.449219 81.347656 67.519531 81.660156 66.5625 81.628906 C 65.574219 81.628906 65.023438 81.953125 64.082031 83.066406 C 62.75 84.667969 62.375 84.574219 63.574219 82.9375 C 64.757812 81.347656 64.957031 81.222656 66.53125 80.933594 C 67.664062 80.722656 68.0625 80.578125 68.734375 80.117188 C 69.175781 79.808594 69.574219 79.414062 69.617188 79.238281 C 69.75 78.746094 69.386719 77.015625 69.144531 76.917969 C 69.042969 76.882812 68.335938 77.066406 67.601562 77.355469 C 66.769531 77.675781 65.917969 77.945312 65.054688 78.175781 C 63.480469 78.617188 63.148438 78.914062 62.640625 80.445312 C 62.277344 81.554688 62 81.980469 62 81.375 C 62 80.820312 62.558594 78.839844 62.824219 78.484375 C 63.117188 78.191406 63.46875 77.972656 63.855469 77.828125 C 64.53125 77.582031 64.613281 77.53125 64.613281 77.125 C 64.613281 76.71875 64.613281 76.703125 65.089844 76.820312 C 65.976562 77.050781 67.0625 76.949219 67.386719 76.636719 C 67.683594 76.339844 67.683594 76.3125 67.453125 75.625 C 67.144531 74.769531 66.679688 73.976562 66.070312 73.289062 C 65.960938 73.160156 65.828125 73.046875 65.667969 72.980469 C 65.414062 73.128906 65.183594 73.3125 64.976562 73.519531 C 64.042969 74.339844 62.90625 75.019531 60.113281 76.429688 C 58.683594 77.164062 57.453125 77.886719 57.359375 78.027344 C 57.164062 78.394531 57.179688 79.199219 57.441406 80.617188 Z M 52.378906 15.695312 L 53.085938 16.167969 L 53.320312 14.964844 C 53.683594 13.117188 54.386719 11.746094 55.601562 10.503906 C 56.175781 9.914062 56.640625 9.375 56.640625 9.277344 C 56.640625 9.179688 56.507812 9.035156 56.359375 8.9375 C 55.953125 8.738281 55.898438 8.753906 55.148438 9.234375 C 53.832031 10.050781 52.550781 11.699219 51.816406 13.480469 C 51.269531 14.816406 51.328125 15.015625 52.378906 15.695312 Z M 37.199219 26.183594 C 37.199219 24.535156 37.183594 24.371094 36.957031 24.378906 C 36.554688 24.414062 36.167969 24.527344 35.445312 24.820312 C 34.59375 25.175781 34.539062 25.417969 34.738281 27.941406 C 34.984375 30.980469 35.707031 33.125 37.117188 35.097656 C 37.941406 36.242188 39.683594 37.875 40.664062 38.394531 L 41.421875 38.796875 L 40.472656 37.355469 C 38.238281 33.988281 37.199219 30.425781 37.199219 26.179688 Z M 37.199219 26.183594 "/>
<path style=" stroke:none;fill-rule:nonzero;fill:rgb(19.607843%,10.588235%,23.529412%);fill-opacity:1;" d="M 64.386719 12.171875 C 66.585938 12.191406 67.816406 11.867188 68.867188 10.949219 C 69.609375 10.292969 70.332031 9.183594 70.214844 8.886719 C 70.164062 8.789062 69.722656 8.605469 69.210938 8.523438 C 66.863281 8.066406 63.230469 6.546875 60.898438 5.046875 C 59.671875 4.265625 58.894531 3.601562 57.007812 1.90625 C 56.367188 1.335938 55.8125 0.855469 55.746094 0.855469 C 55.578125 0.855469 55.460938 1.742188 55.460938 3.160156 C 55.460938 5.695312 56.351562 8.097656 57.894531 9.792969 C 59.324219 11.382812 61.390625 12.128906 64.378906 12.164062 Z M 37.554688 23.3125 C 40.019531 22.171875 41.941406 20.375 43.074219 18.1875 C 44.007812 16.371094 44.222656 15.382812 44.242188 12.628906 C 44.242188 10.628906 44.207031 10.179688 43.929688 9.300781 C 43.730469 8.695312 43.460938 8.113281 43.125 7.566406 C 42.875 7.195312 42.582031 6.847656 42.5 6.832031 C 42.417969 6.816406 42.050781 7.402344 41.710938 8.1875 C 40.835938 10.183594 38.964844 13.886719 38.226562 15.082031 C 36.519531 17.855469 33.648438 20.960938 31.808594 22.007812 C 31.265625 22.3125 30.839844 22.605469 30.839844 22.675781 C 30.839844 22.917969 32.207031 23.636719 32.941406 23.804688 C 33.640625 23.914062 34.347656 23.953125 35.058594 23.917969 C 36.265625 23.871094 36.566406 23.804688 37.554688 23.3125 Z M 37.554688 23.3125 "/>
<path style=" stroke:none;fill-rule:nonzero;fill:rgb(73.725492%,80.784315%,91.764706%);fill-opacity:1;" d="M 64.828125 94.449219 L 64.238281 93.910156 L 63.664062 94.253906 C 63.351562 94.464844 62.628906 94.839844 62.105469 95.136719 C 60.894531 95.773438 60.707031 96.050781 61.113281 96.605469 C 61.523438 97.160156 62.5625 97.582031 63.824219 97.699219 L 64.855469 97.792969 L 64.9375 97.253906 C 65.003906 96.851562 65.21875 96.515625 65.695312 96.050781 L 66.351562 95.363281 L 65.878906 95.164062 C 65.496094 94.972656 65.144531 94.730469 64.828125 94.4375 Z M 64.039062 98.433594 C 62.496094 98.285156 61.574219 97.960938 60.898438 97.292969 C 60.640625 97.050781 60.414062 96.773438 60.226562 96.472656 C 60.160156 96.308594 60.078125 96.324219 59.832031 96.621094 C 59.292969 97.21875 57.566406 100.835938 57.203125 102.078125 C 57.019531 102.714844 56.828125 103.253906 56.746094 103.253906 C 56.460938 103.253906 56.679688 102.128906 57.285156 100.429688 L 57.925781 98.617188 L 57.710938 97.71875 C 57.601562 97.265625 57.523438 96.796875 57.496094 96.328125 C 57.480469 95.484375 57.363281 95.46875 56.328125 96.089844 C 55.660156 96.488281 54.925781 96.773438 54.164062 96.933594 C 51.867188 97.472656 51.765625 97.523438 51.816406 97.917969 C 51.949219 98.863281 54.460938 104.179688 55.738281 106.234375 C 56.628906 107.652344 57.644531 108.800781 58.496094 109.355469 C 59.28125 109.84375 59.707031 109.859375 59.988281 109.421875 C 60.105469 109.238281 61.039062 107.3125 62.070312 105.140625 C 63.105469 102.96875 64.257812 100.632812 64.636719 99.957031 C 65.125 99.121094 65.292969 98.714844 65.175781 98.648438 C 64.800781 98.535156 64.417969 98.460938 64.027344 98.433594 Z M 50.835938 86.738281 C 49.921875 88.664062 49.769531 89.191406 49.886719 90.183594 C 50.003906 91.179688 49.9375 91.167969 52.054688 90.070312 C 53.21875 89.480469 53.628906 89.191406 54.136719 88.570312 C 54.710938 87.867188 54.761719 87.71875 54.679688 87.261719 C 54.527344 86.492188 54.074219 85.496094 53.621094 85.039062 C 53.167969 84.585938 53.019531 84.585938 52.148438 85.007812 C 51.582031 85.265625 51.46875 85.429688 50.832031 86.738281 Z M 55.347656 96.066406 C 55.460938 95.96875 55.261719 95.609375 54.789062 95.003906 C 53.671875 93.546875 53.066406 92.394531 52.800781 91.101562 C 52.75 90.859375 52.621094 90.703125 52.457031 90.730469 C 52.324219 90.746094 51.027344 91.183594 49.601562 91.730469 C 48.175781 92.273438 46.828125 92.773438 46.59375 92.855469 C 46.355469 92.898438 46.183594 93.109375 46.191406 93.34375 C 46.191406 93.746094 47.570312 96.644531 48.203125 97.5625 L 48.660156 98.199219 L 49.894531 97.609375 C 50.800781 97.179688 51.632812 96.941406 53.164062 96.625 C 54.296875 96.390625 55.28125 96.148438 55.347656 96.066406 Z M 45.457031 93.449219 C 45.457031 93.113281 45.5625 92.785156 45.765625 92.519531 L 46.0625 92.148438 L 45.660156 92.230469 C 43.671875 92.667969 41.769531 93.488281 35.851562 96.433594 C 33.554688 97.5625 31.597656 98.507812 31.515625 98.507812 C 31.171875 98.507812 31.730469 98.066406 33.207031 97.199219 L 34.699219 96.3125 L 35.453125 94.921875 C 36.144531 93.648438 37.652344 91.003906 40.050781 86.855469 L 40.902344 85.347656 L 40.625 84.46875 C 40.378906 83.683594 40.363281 83.457031 40.511719 82.703125 C 40.632812 82.144531 40.808594 81.601562 41.035156 81.074219 L 41.378906 80.285156 L 40.976562 79.78125 C 40.089844 78.65625 40.234375 78.71875 39.417969 79.128906 C 38.511719 79.601562 35.542969 82.554688 34.34375 84.1875 C 31.585938 88.003906 28.789062 93.308594 27.46875 97.269531 C 27.042969 98.527344 26.996094 98.933594 26.929688 100.621094 C 26.878906 102.484375 26.894531 102.585938 27.210938 102.910156 C 27.867188 103.59375 28.769531 103.726562 32.546875 103.644531 C 36.078125 103.5625 37.527344 103.402344 40.515625 102.734375 C 43.753906 102.011719 46.710938 100.769531 48.035156 99.578125 L 48.695312 98.988281 L 47.804688 97.917969 C 46.675781 96.621094 45.445312 94.253906 45.445312 93.457031 Z M 47.261719 83.667969 C 46.6875 83.910156 46.136719 84.195312 45.605469 84.511719 C 43.832031 85.511719 43.222656 85.753906 42.125 85.871094 L 41.285156 85.96875 L 39.835938 88.585938 C 39.03125 90.042969 37.78125 92.179688 37.078125 93.371094 C 36.378906 94.566406 35.796875 95.566406 35.8125 95.578125 C 35.832031 95.585938 36.980469 95.039062 38.378906 94.351562 C 39.804688 93.625 41.273438 92.988281 42.78125 92.445312 C 44.503906 91.871094 44.792969 91.804688 46.179688 91.789062 L 47.675781 91.773438 L 49.167969 88.683594 C 50.007812 86.988281 50.683594 85.546875 50.683594 85.496094 C 50.683594 85.449219 50.257812 85.332031 49.714844 85.234375 C 48.828125 85.066406 48.660156 84.992188 48.054688 84.355469 C 47.675781 83.964844 47.3125 83.648438 47.261719 83.667969 Z M 45.664062 105.25 C 45.796875 103.941406 45.949219 102.644531 45.996094 102.34375 C 46.0625 101.941406 46.03125 101.820312 45.882812 101.835938 C 45.765625 101.851562 44.765625 102.160156 43.648438 102.558594 C 40.460938 103.652344 36.199219 104.402344 31.859375 104.644531 L 30.066406 104.726562 L 29.769531 105.398438 C 28.519531 108.222656 26.5625 120.429688 26.238281 127.625 L 26.140625 129.734375 L 26.914062 130.40625 C 28.375 131.714844 30.703125 132.476562 32.101562 132.105469 C 32.476562 132.003906 33.972656 131.417969 35.449219 130.796875 C 41.035156 128.425781 42.625 128.019531 46.222656 128.082031 C 48.554688 128.128906 48.769531 128.113281 49.445312 127.789062 C 50.777344 127.191406 51.257812 126.515625 51.257812 125.253906 C 51.257812 124.246094 50.808594 122.917969 48.660156 117.527344 C 46.753906 112.789062 46.035156 110.679688 45.671875 108.851562 C 45.433594 107.699219 45.433594 107.453125 45.664062 105.25 Z M 45.664062 105.25 "/>
<path style=" stroke:none;fill-rule:nonzero;fill:rgb(16.078432%,5.882353%,2.352941%);fill-opacity:1;" d="M 50.0625 170.234375 C 48.34375 169.675781 46.472656 169.8125 44.855469 170.609375 C 44.328125 170.882812 44.277344 170.917969 44.527344 171.066406 C 44.824219 171.230469 50.179688 171.113281 51.097656 170.933594 C 51.722656 170.796875 51.539062 170.703125 50.0625 170.230469 Z M 53.085938 165.757812 C 50.070312 164.988281 48.015625 164.953125 45.335938 165.691406 L 44.710938 165.867188 L 45.417969 166.488281 C 45.941406 166.96875 46.855469 167.085938 48.15625 166.84375 C 48.660156 166.757812 49.175781 166.710938 49.6875 166.710938 C 50.480469 166.695312 50.59375 166.730469 51.902344 167.640625 C 53.496094 168.71875 55.234375 169.621094 56.207031 169.863281 C 56.671875 169.960938 57.140625 170 57.617188 169.976562 L 58.390625 169.925781 L 57.375 168.40625 C 56.179688 166.582031 56.070312 166.492188 53.09375 165.738281 Z M 51.722656 168.453125 C 51.269531 168.113281 50.78125 167.8125 50.273438 167.554688 C 49.847656 167.371094 47.582031 167.40625 46.902344 167.585938 C 46.460938 167.71875 46.3125 167.851562 45.9375 168.664062 C 45.410156 169.707031 45.378906 169.675781 46.855469 169.433594 C 48.085938 169.203125 49.351562 169.433594 52.058594 170.300781 C 55.03125 171.28125 55.882812 171.460938 57.546875 171.460938 C 58.660156 171.460938 58.945312 171.410156 58.945312 171.261719 C 58.945312 170.824219 58.519531 170.59375 57.660156 170.59375 C 55.867188 170.605469 53.523438 169.761719 51.714844 168.460938 Z M 27.433594 170.476562 C 28.714844 171 29.679688 171.164062 31.554688 171.164062 C 33.527344 171.164062 36.199219 170.839844 38.804688 170.253906 C 40.527344 169.851562 41.742188 169.390625 42.550781 168.769531 C 43.140625 168.324219 43.882812 167.21875 43.882812 166.738281 C 43.882812 166.414062 43.683594 166.339844 40.484375 165.398438 C 40.15625 165.300781 38.757812 165.199219 37.359375 165.167969 C 34.371094 165.117188 34.046875 165.152344 28.800781 166.492188 C 24.480469 167.585938 23.730469 167.8125 23.730469 168.042969 C 23.742188 168.394531 26.089844 169.9375 27.4375 170.476562 Z M 44.992188 167.015625 C 44.871094 166.894531 44.738281 166.789062 44.589844 166.707031 C 44.539062 166.707031 44.390625 166.980469 44.261719 167.328125 C 43.953125 168.175781 43.246094 168.945312 42.273438 169.582031 C 39.875 171.132812 32.828125 172.40625 29.890625 171.851562 C 27.613281 171.390625 25.496094 170.34375 23.746094 168.828125 C 22.972656 168.15625 22.5625 168.007812 22.148438 168.273438 C 21.871094 168.453125 22.035156 168.628906 23.003906 169.300781 C 24.894531 170.578125 27.949219 171.835938 30.050781 172.191406 C 32.382812 172.59375 39.84375 172.078125 41.929688 171.390625 C 43.277344 170.945312 44.382812 169.972656 44.984375 168.695312 C 45.417969 167.832031 45.417969 167.421875 44.992188 167.015625 Z M 44.992188 167.015625 "/>
<path style=" stroke:none;fill-rule:nonzero;fill:rgb(20.392157%,18.431373%,40.784314%);fill-opacity:1;" d="M 49.289062 128.640625 C 49.140625 128.691406 47.550781 128.789062 45.742188 128.855469 L 42.496094 128.972656 L 40.832031 129.542969 C 39.914062 129.867188 38.089844 130.570312 36.773438 131.125 C 33.460938 132.515625 32.179688 132.957031 31.386719 132.957031 C 30.273438 132.957031 29.105469 132.648438 27.808594 131.988281 C 26.875 131.515625 26.542969 131.417969 26.398438 131.53125 C 26.132812 131.746094 25.941406 132.515625 25.824219 133.785156 L 25.707031 134.828125 L 26.347656 134.828125 C 27.730469 134.773438 29.09375 134.589844 30.4375 134.273438 C 31.601562 133.96875 33.246094 133.363281 36.691406 131.957031 C 40.515625 130.390625 43.179688 129.867188 48.042969 129.683594 C 49.507812 129.636719 50.6875 129.535156 50.6875 129.488281 C 50.601562 129.277344 50.46875 129.09375 50.3125 128.933594 C 49.914062 128.476562 49.789062 128.433594 49.289062 128.640625 Z M 42.457031 130.925781 C 40.5 131.328125 39.058594 131.796875 36.328125 132.890625 C 32.464844 134.441406 30.398438 135.015625 27.703125 135.273438 C 26.835938 135.339844 25.976562 135.40625 25.828125 135.40625 C 25.570312 135.40625 25.570312 135.523438 25.664062 137.171875 C 25.878906 141.0625 26.355469 142.152344 30.734375 148.949219 C 31.667969 150.40625 32.476562 151.691406 32.507812 151.789062 C 32.707031 152.28125 32.226562 151.921875 31.558594 151.054688 C 31.15625 150.53125 30.753906 150.125 30.6875 150.125 C 30.621094 150.125 30.328125 150.746094 30.011719 151.5 C 29.078125 153.933594 28.023438 155.242188 24.800781 158.105469 C 23.105469 159.554688 21.574219 161.199219 20.253906 162.992188 C 18.53125 165.460938 17.722656 168.515625 18.5625 169.425781 C 19.070312 170 19.628906 169.75 20.503906 168.609375 C 21.144531 167.773438 22.09375 167.449219 29.878906 165.394531 C 30.585938 165.195312 31.144531 165.050781 31.621094 164.9375 C 33.292969 164.535156 33.886719 164.480469 35.90625 164.367188 C 38.527344 164.199219 38.632812 164.199219 39.980469 164.53125 L 41.378906 164.875 L 42.328125 164.476562 C 43.84375 163.820312 43.804688 163.902344 43.496094 162.5625 C 43.167969 161.0625 43.101562 160.929688 42.476562 160.929688 C 41.328125 160.929688 34.132812 161.800781 33.421875 162.007812 C 33.304688 162.058594 32.914062 162.597656 32.570312 163.234375 C 32.027344 164.179688 31.664062 164.671875 31.554688 164.671875 C 31.441406 164.671875 31.585938 164.234375 31.996094 163.347656 C 32.238281 162.808594 32.398438 162.320312 32.359375 162.289062 C 32.320312 162.253906 31.113281 162.386719 29.664062 162.597656 C 27.316406 162.9375 26.65625 162.96875 26.921875 162.710938 C 26.988281 162.679688 28.355469 162.335938 29.980469 161.976562 C 31.601562 161.613281 32.933594 161.320312 32.953125 161.304688 C 33.050781 161.1875 35.660156 155.730469 36.238281 154.429688 C 37.472656 151.570312 37.554688 150.769531 36.832031 147.976562 C 36.15625 145.25 35.074219 142.484375 33.347656 138.875 C 32.746094 137.648438 32.28125 136.570312 32.316406 136.488281 C 32.414062 136.230469 33.582031 138.171875 34.730469 140.523438 C 36.703125 144.53125 37.902344 148.101562 38.03125 150.390625 C 38.113281 151.730469 38.097656 151.8125 37.554688 153.113281 C 37.273438 153.851562 36.304688 155.917969 35.449219 157.703125 C 34.59375 159.492188 33.890625 160.984375 33.941406 161.039062 C 34.34375 161.058594 34.742188 161.023438 35.140625 160.941406 C 37.046875 160.632812 39.542969 160.34375 40.25 160.34375 L 40.890625 160.34375 L 41.664062 158.148438 C 42.488281 155.796875 42.488281 155.746094 41.632812 155.730469 C 41.074219 155.730469 40.53125 155.582031 40.53125 155.433594 C 40.53125 155.386719 41.089844 155.269531 41.765625 155.171875 C 43.257812 154.972656 43.863281 154.679688 44.835938 153.6875 C 45.703125 152.78125 46.351562 151.691406 46.726562 150.5 C 47.050781 149.613281 47.101562 149.191406 47.101562 147.722656 C 47.101562 146.257812 47.070312 145.84375 46.726562 144.867188 C 46.21875 143.425781 45.261719 141.535156 43.523438 138.578125 C 42.125 136.226562 41.582031 135.03125 41.75 134.867188 C 41.878906 134.753906 41.632812 134.410156 43.980469 138.214844 C 47.25 143.558594 47.921875 145.171875 47.921875 147.640625 C 47.921875 150.640625 46.195312 153.902344 43.929688 155.171875 C 43.597656 155.347656 43.285156 155.554688 42.992188 155.792969 C 42.859375 155.972656 41.691406 159.910156 41.691406 160.222656 C 41.691406 160.289062 42.097656 160.335938 42.609375 160.371094 L 43.496094 160.417969 L 44.035156 161.917969 C 44.742188 163.964844 44.742188 164.140625 43.953125 164.503906 C 43.621094 164.65625 43.285156 164.792969 42.9375 164.902344 C 42.363281 165.050781 42.363281 165.210938 42.917969 165.394531 C 43.59375 165.625 44.3125 165.542969 46.109375 165.03125 C 47.375 164.691406 47.816406 164.628906 49.589844 164.628906 C 51.363281 164.628906 51.753906 164.664062 53.285156 165.085938 C 54.203125 165.347656 55.425781 165.707031 55.992188 165.90625 C 56.5625 166.101562 57.058594 166.246094 57.09375 166.246094 C 57.324219 166.246094 57.667969 164.265625 57.550781 163.664062 C 57.484375 163.402344 57.253906 163.15625 56.761719 162.894531 L 56.054688 162.492188 L 54.773438 162.734375 C 53.800781 162.914062 52.683594 162.996094 50.15625 162.996094 C 48.335938 163.011719 46.59375 162.964844 46.3125 162.898438 C 45.769531 162.78125 44.714844 162.03125 44.902344 161.855469 C 44.953125 161.804688 45.308594 161.917969 45.660156 162.144531 C 46.46875 162.617188 47.75 162.734375 50.390625 162.570312 L 52.203125 162.476562 L 52.21875 158.929688 C 52.21875 156.59375 52.285156 154.921875 52.433594 154.058594 C 52.574219 152.9375 52.632812 151.808594 52.617188 150.679688 C 52.617188 148.898438 52.550781 148.261719 52.160156 146.398438 C 51.007812 141.023438 49.285156 136.550781 47.34375 133.902344 C 46.941406 133.347656 46.65625 132.875 46.6875 132.824219 C 46.820312 132.691406 47.753906 133.660156 48.445312 134.625 C 50.367188 137.277344 52.601562 143.710938 53.355469 148.773438 C 53.65625 150.621094 53.640625 151.242188 53.292969 153.023438 C 53.140625 153.839844 52.949219 155.050781 52.867188 155.738281 C 52.683594 157.136719 52.40625 162.273438 52.507812 162.34375 C 52.554688 162.390625 53.109375 162.34375 53.773438 162.246094 C 56.390625 161.871094 56.777344 161.574219 56.777344 160.089844 C 56.695312 158.871094 56.550781 157.65625 56.335938 156.445312 C 55.792969 153.066406 55.792969 152.394531 56.367188 150.039062 C 56.792969 148.355469 56.84375 147.933594 56.828125 146.070312 C 56.828125 143.394531 56.453125 141.605469 55.015625 137.769531 C 54.257812 135.746094 52.140625 131.457031 51.550781 130.742188 L 51.109375 130.21875 L 48.910156 130.234375 C 46.738281 130.222656 44.570312 130.453125 42.457031 130.917969 Z M 42.457031 130.925781 "/>
<path style=" stroke:none;fill-rule:nonzero;fill:rgb(0%,0%,0%);fill-opacity:1;" d="M 59.667969 22.269531 C 59.878906 22.453125 60.132812 22.582031 60.40625 22.644531 C 61.191406 22.601562 61.816406 21.972656 61.855469 21.1875 C 61.855469 20.8125 60.972656 19.894531 60.574219 19.894531 C 60.292969 19.945312 60.027344 20.066406 59.800781 20.238281 C 59.398438 20.5 59.308594 20.636719 59.273438 21.21875 C 59.242188 21.804688 59.273438 21.925781 59.667969 22.265625 Z M 47.777344 28.347656 C 49.074219 28.347656 49.734375 27.449219 49.433594 26.09375 C 49.335938 25.640625 49.1875 25.410156 48.875 25.234375 C 48.324219 24.929688 47.683594 24.824219 47.0625 24.9375 C 46.472656 25.101562 46.113281 25.753906 46.128906 26.632812 C 46.128906 27.320312 46.195312 27.484375 46.589844 27.875 C 46.980469 28.265625 47.183594 28.347656 47.777344 28.347656 Z M 55.46875 37.972656 C 53.253906 41.875 49.996094 45.292969 48.457031 45.292969 C 48.308594 45.292969 47.898438 44.984375 47.554688 44.621094 C 47.082031 44.117188 46.929688 44.023438 46.929688 44.222656 C 46.929688 44.695312 47.472656 45.425781 48.015625 45.6875 C 48.457031 45.902344 48.617188 45.902344 49.195312 45.753906 C 51.167969 45.214844 54.292969 41.796875 55.839844 38.5 C 56.511719 37.042969 56.644531 36.40625 56.3125 36.71875 C 55.988281 37.105469 55.707031 37.523438 55.46875 37.96875 Z M 50.601562 29.492188 C 51.40625 28.710938 51.75 27.84375 51.75 26.617188 C 51.765625 24.296875 50.140625 22.792969 47.660156 22.792969 C 47.128906 22.777344 46.605469 22.871094 46.117188 23.074219 C 45.429688 23.378906 44.378906 24.472656 44.0625 25.210938 C 43.472656 26.613281 43.929688 28.476562 45.179688 29.617188 C 46.738281 31.082031 49.035156 31.023438 50.601562 29.492188 Z M 46.5625 23.429688 C 47.152344 23.171875 48.417969 23.1875 49.058594 23.445312 C 50.316406 23.984375 51.128906 25.222656 51.128906 26.585938 C 51.148438 29.640625 47.367188 31.015625 45.269531 28.710938 C 43.804688 27.09375 44.484375 24.332031 46.566406 23.433594 Z M 89.410156 42.023438 C 88.820312 40.765625 86.945312 38.875 85.039062 37.660156 C 82.351562 35.910156 78.554688 34.277344 74.59375 33.164062 C 72.503906 32.574219 69.121094 31.839844 67.65625 31.65625 L 66.851562 31.542969 L 67.292969 31.246094 C 68.308594 30.542969 69.390625 29.222656 70.035156 27.929688 C 71.089844 25.726562 71.183594 25.203125 71.183594 21.480469 C 71.183594 17.445312 70.882812 15.855469 69.558594 12.988281 L 69.15625 12.035156 L 69.777344 11.257812 C 70.4375 10.402344 71.171875 8.722656 71.09375 8.28125 C 71.042969 8.050781 70.828125 7.976562 69.746094 7.828125 C 65.425781 7.226562 60.828125 4.851562 56.882812 1.175781 C 56.1875 0.539062 55.59375 0 55.5625 0 C 55.414062 0.257812 55.296875 0.539062 55.21875 0.835938 C 54.816406 2.0625 54.855469 4.726562 55.320312 6.277344 C 55.691406 7.609375 55.613281 8.378906 55.085938 8.578125 C 54.300781 8.882812 52.707031 10.292969 52.113281 11.238281 C 51.871094 11.585938 51.488281 12.480469 51.246094 13.21875 C 51.003906 13.953125 50.738281 14.574219 50.65625 14.574219 C 50.574219 14.574219 49.898438 14.394531 49.125 14.203125 C 48.21875 13.972656 47.296875 13.824219 46.367188 13.746094 L 45.035156 13.664062 L 44.953125 12.570312 C 44.769531 10.429688 44.328125 8.714844 43.65625 7.589844 C 43.210938 6.835938 42.472656 6.148438 42.222656 6.25 C 42.105469 6.296875 41.550781 7.34375 40.976562 8.601562 C 39.890625 11.003906 38.617188 13.316406 37.152344 15.511719 C 35.570312 17.828125 33.898438 19.757812 33.453125 19.757812 C 32.746094 19.757812 30.597656 19.121094 29.425781 18.53125 C 28.515625 18.097656 27.679688 17.523438 26.949219 16.828125 C 25.226562 15.230469 24.371094 14.097656 22.1875 10.542969 C 19.496094 6.160156 18.890625 5.316406 17.757812 4.148438 C 16.507812 2.90625 15.324219 2.171875 13.960938 1.714844 C 13.09375 1.433594 12.59375 1.367188 11.238281 1.367188 C 9.773438 1.367188 9.445312 1.417969 8.488281 1.769531 C 5.75 2.769531 2.609375 6.148438 1.214844 9.578125 C 0.300781 11.941406 0.0546875 13.21875 0.0234375 15.925781 C 0.0078125 18.066406 0.0585938 18.511719 0.351562 19.53125 C 1.125 22.210938 2.816406 24.269531 5.230469 25.464844 C 7.261719 26.472656 10.234375 26.640625 12.65625 25.886719 C 15.921875 24.859375 18.71875 21.71875 19.390625 18.355469 C 19.625 17.261719 19.359375 15.316406 18.851562 14.398438 C 17.796875 12.488281 15.152344 11.101562 12.113281 10.855469 C 9.484375 10.628906 6.988281 12.046875 5.84375 14.410156 C 5.1875 15.703125 5.054688 16.730469 5.386719 17.566406 C 5.535156 17.90625 5.683594 18.164062 5.726562 18.164062 C 5.773438 18.164062 5.808594 17.542969 5.808594 16.761719 C 5.808594 15.097656 6.074219 14.445312 7.191406 13.234375 C 8.160156 12.171875 9.03125 11.730469 10.539062 11.554688 C 13.171875 11.222656 15.679688 11.953125 17.375 13.53125 C 18.558594 14.625 18.722656 15.066406 18.722656 17.09375 C 18.722656 18.550781 18.65625 18.957031 18.398438 19.644531 C 17.390625 22.144531 14.898438 24.546875 12.585938 25.265625 C 11.375 25.621094 8.886719 25.769531 7.707031 25.546875 C 5.308594 25.121094 2.84375 23.210938 1.710938 20.902344 C 0.953125 19.367188 0.828125 18.648438 0.828125 15.867188 C 0.828125 12.910156 1.136719 11.535156 2.46875 8.875 C 3.996094 5.851562 5.699219 3.972656 8.113281 2.738281 C 9.152344 2.183594 9.378906 2.148438 10.660156 2.066406 C 13.632812 1.902344 15.03125 2.46875 17.28125 4.699219 C 18.777344 6.183594 19.292969 6.917969 21.828125 11.035156 C 25.292969 16.648438 27.199219 18.421875 31.222656 19.6875 C 32.113281 19.984375 32.863281 20.257812 32.863281 20.339844 C 32.863281 20.488281 32.339844 20.863281 30.941406 21.632812 C 30.316406 21.972656 29.808594 22.351562 29.808594 22.46875 C 29.808594 23.136719 31.054688 24.035156 32.824219 24.605469 L 33.957031 24.980469 L 34.058594 27.464844 C 34.140625 30.304688 34.367188 31.265625 35.386719 33.445312 C 36.433594 35.6875 38.066406 37.605469 40.117188 39 C 41.542969 40.011719 41.992188 40.617188 42.617188 42.496094 C 43.324219 44.632812 43.464844 45.808594 43.390625 48.308594 L 43.324219 50.398438 L 42.378906 53.046875 C 40.390625 58.503906 39.898438 60.609375 39.996094 63.210938 C 40.03125 64.761719 40.097656 65.074219 40.457031 65.835938 C 40.898438 66.820312 41.554688 67.550781 42.65625 68.253906 L 43.363281 68.710938 L 43.363281 72.046875 C 43.363281 74.53125 43.328125 75.429688 43.179688 75.59375 C 43.078125 75.726562 42.738281 75.855469 42.421875 75.917969 C 41.714844 76.03125 40.847656 76.769531 40.484375 77.53125 C 40.285156 77.957031 39.925781 78.269531 39.007812 78.875 C 35.277344 81.257812 30.367188 88.300781 27.394531 95.523438 C 26.042969 98.777344 25.667969 101.585938 26.375 102.957031 C 26.753906 103.726562 27.527344 104.199219 28.527344 104.34375 C 28.902344 104.410156 29.28125 104.523438 29.382812 104.625 C 29.480469 104.722656 29.398438 105.179688 29.082031 106.046875 C 27.074219 111.945312 24.8125 128.773438 25.8125 130.304688 C 26.09375 130.730469 26.054688 130.90625 25.515625 132.308594 C 25.136719 133.234375 25.109375 133.484375 25.054688 135.914062 C 24.941406 140.34375 25.332031 141.679688 27.78125 145.585938 C 28.519531 146.761719 29.386719 148.191406 29.6875 148.707031 L 30.261719 149.652344 L 29.734375 151.011719 C 28.621094 153.769531 28.046875 154.523438 24.890625 157.296875 C 21.492188 160.296875 19.929688 162.101562 18.796875 164.253906 C 17.21875 167.277344 17.152344 169.714844 18.664062 170.285156 C 19.4375 170.566406 19.910156 170.398438 20.703125 169.566406 L 21.375 168.828125 L 22.148438 169.300781 C 26.023438 171.71875 28.1875 172.570312 31.375 172.90625 C 33.972656 173.203125 39.195312 172.726562 42.117188 171.945312 C 43.398438 171.597656 43.550781 171.582031 44.796875 171.761719 C 46.3125 171.945312 48.953125 171.847656 51.1875 171.523438 C 52.632812 171.273438 52.632812 171.289062 53.925781 171.652344 C 57.148438 172.597656 59.804688 172.5 59.804688 171.472656 C 59.804688 171.097656 58.921875 169.335938 58.097656 168.09375 L 57.359375 166.980469 L 57.816406 166.003906 C 58.667969 164.191406 58.441406 162.667969 57.273438 162.425781 L 56.765625 162.34375 L 57.066406 161.871094 C 57.308594 161.46875 57.347656 161.167969 57.347656 159.761719 C 57.320312 158.605469 57.226562 157.457031 57.058594 156.3125 C 56.695312 154.160156 56.683594 152.132812 56.992188 150.757812 C 57.980469 146.300781 57.898438 144.4375 56.46875 140.089844 C 55.1875 136.15625 53.820312 133.289062 51.855469 130.316406 L 50.527344 128.316406 L 51.101562 127.613281 C 51.859375 126.667969 52.035156 126.046875 51.941406 124.9375 C 51.828125 123.710938 51.449219 122.667969 49.476562 117.945312 C 46.753906 111.425781 46.230469 109.855469 46.082031 107.765625 C 45.996094 106.625 46.195312 104.1875 46.484375 102.410156 C 46.648438 101.539062 46.683594 101.457031 47.417969 100.917969 C 48.007812 100.445312 48.539062 99.902344 48.996094 99.304688 C 49.769531 98.304688 50.40625 97.769531 50.871094 97.769531 C 51.113281 97.769531 51.273438 98.066406 52.121094 100.222656 C 53.070312 102.574219 55.09375 106.53125 55.882812 107.574219 C 57.441406 109.621094 58.871094 110.628906 59.871094 110.378906 C 60.414062 110.246094 60.578125 109.976562 61.859375 107.355469 C 62.503906 106.015625 63.71875 103.53125 64.539062 101.832031 C 65.363281 100.132812 66.054688 98.628906 66.054688 98.496094 C 66.015625 98.296875 65.910156 98.121094 65.757812 97.988281 C 65.605469 97.867188 65.503906 97.703125 65.457031 97.515625 C 65.457031 97.386719 66.332031 96.40625 67.398438 95.324219 C 72.585938 90.046875 76.332031 84.929688 76.332031 83.121094 C 76.332031 82.632812 76.023438 82.0625 75.414062 81.492188 L 74.90625 81 L 74.988281 78.683594 C 75.089844 76.148438 74.988281 75.660156 74.386719 75.433594 C 74.171875 75.335938 73.988281 75.167969 73.878906 74.960938 C 73.730469 74.558594 73.371094 72.410156 73.15625 70.554688 C 73.007812 69.097656 72.78125 68.425781 72.347656 68.050781 C 72.183594 67.921875 71.34375 67.597656 70.476562 67.347656 C 69.613281 67.105469 68.777344 66.789062 67.976562 66.402344 C 67.625 66.183594 67.230469 66.019531 66.828125 65.914062 C 66.203125 65.914062 65.546875 67.058594 65.378906 68.433594 C 65.296875 69.101562 65.332031 69.300781 65.5625 69.542969 C 65.871094 69.90625 66.4375 70.179688 67.417969 70.542969 C 68.011719 70.757812 68.078125 70.800781 67.761719 70.800781 C 67.269531 70.816406 66.921875 71.304688 66.828125 72.125 C 66.710938 72.828125 66.585938 72.945312 66.121094 72.628906 C 65.964844 72.515625 65.785156 72.4375 65.597656 72.398438 C 65.480469 72.398438 64.90625 72.800781 64.3125 73.285156 C 63.558594 73.882812 62.503906 74.511719 60.894531 75.285156 L 58.546875 76.410156 L 57.695312 76.113281 C 56.9375 75.855469 56.722656 75.839844 55.871094 75.964844 C 55.257812 76.066406 54.65625 76.242188 54.082031 76.488281 C 53.621094 76.703125 53.242188 76.847656 53.207031 76.8125 C 53.125 76.746094 54.65625 75.050781 57.679688 71.859375 C 62.277344 66.976562 63.707031 65.160156 65.039062 62.519531 C 65.828125 60.953125 65.84375 60.917969 66.828125 60.332031 C 67.304688 60.050781 67.75 59.730469 68.175781 59.378906 L 68.550781 59.023438 L 67.976562 58.679688 C 67.484375 58.351562 67.269531 58.335938 65.761719 58.335938 C 64.171875 58.335938 64.023438 58.351562 62.363281 58.957031 C 61.414062 59.28125 60.523438 59.554688 60.359375 59.554688 C 60.027344 59.554688 59.699219 58.835938 59.566406 57.855469 L 59.484375 57.203125 L 60.191406 57.300781 C 63.011719 57.675781 63.523438 57.703125 64.597656 57.53125 C 65.351562 57.402344 65.761719 57.257812 65.976562 57.027344 C 66.285156 56.734375 66.636719 55.609375 66.636719 54.890625 C 66.636719 54.59375 66.734375 54.542969 67.917969 54.417969 C 69.449219 54.25 70.230469 53.894531 70.625 53.175781 C 70.890625 52.703125 70.890625 52.585938 70.722656 51.949219 C 70.625 51.574219 70.015625 50.199219 69.390625 48.875 C 68.769531 47.550781 68.109375 46.167969 67.945312 45.769531 C 67.46875 44.527344 67.253906 42.242188 67.636719 42.242188 C 67.734375 42.242188 68.625 42.730469 71.496094 44.335938 C 76.210938 46.984375 79.503906 48.089844 83.253906 48.253906 C 87.070312 48.4375 89.007812 47.65625 89.777344 45.671875 C 90.144531 44.675781 90.011719 43.277344 89.421875 42.015625 Z M 69.957031 15.601562 C 70.160156 16.511719 70.308594 17.429688 70.414062 18.347656 C 70.628906 20.191406 70.496094 24.523438 70.183594 25.792969 C 69.746094 27.449219 68.871094 28.953125 67.652344 30.15625 L 66.53125 31.265625 L 65.023438 31.367188 C 62.574219 31.53125 59.269531 31.398438 58.566406 31.101562 L 57.988281 30.832031 L 57.988281 27.789062 C 58.003906 26.105469 57.953125 24.550781 57.886719 24.34375 L 57.789062 23.941406 L 58.445312 24.429688 C 59.039062 24.832031 59.253906 24.886719 60.257812 24.9375 C 61.640625 25 62.40625 24.671875 63.265625 23.730469 C 64.117188 22.75 64.378906 21.480469 63.988281 20.125 C 63.757812 19.339844 62.523438 18.125 61.773438 17.90625 C 61.019531 17.6875 59.765625 17.691406 59.175781 17.9375 C 58.417969 18.261719 57.433594 19.265625 57.074219 20.042969 C 56.910156 20.445312 56.75 20.765625 56.699219 20.765625 C 56.554688 20.5625 56.433594 20.339844 56.339844 20.109375 C 55.894531 19.390625 55.402344 18.703125 54.859375 18.042969 C 53.925781 16.882812 53.742188 16.554688 53.742188 16.113281 C 53.742188 15.476562 54.320312 13.828125 54.976562 12.535156 C 55.40625 11.734375 56.683594 9.929688 56.832031 9.929688 C 56.867188 9.929688 57.308594 10.273438 57.820312 10.667969 C 59.777344 12.234375 61.746094 12.855469 64.832031 12.871094 C 66.574219 12.871094 66.972656 12.839844 67.707031 12.5625 C 68.027344 12.4375 68.359375 12.328125 68.691406 12.234375 C 68.84375 12.246094 69.636719 14.273438 69.960938 15.59375 Z M 58.257812 19.246094 C 58.980469 18.410156 59.589844 18.152344 60.722656 18.21875 C 61.546875 18.253906 61.773438 18.320312 62.253906 18.691406 C 64.144531 20.226562 63.894531 23.007812 61.777344 23.953125 C 58.886719 25.277344 56.152344 21.628906 58.253906 19.246094 L 58.265625 19.246094 Z M 55.460938 3.171875 C 55.460938 1.746094 55.578125 0.867188 55.746094 0.867188 C 55.8125 0.867188 56.367188 1.339844 57.007812 1.917969 C 58.886719 3.609375 59.667969 4.269531 60.898438 5.054688 C 63.230469 6.5625 66.863281 8.078125 69.210938 8.535156 C 69.71875 8.617188 70.164062 8.800781 70.214844 8.898438 C 70.332031 9.1875 69.613281 10.300781 68.867188 10.960938 C 67.816406 11.871094 66.585938 12.203125 64.386719 12.183594 C 61.398438 12.152344 59.324219 11.398438 57.898438 9.816406 C 56.347656 8.117188 55.46875 5.714844 55.46875 3.183594 Z M 51.800781 13.480469 C 52.539062 11.699219 53.808594 10.050781 55.132812 9.234375 C 55.886719 8.761719 55.953125 8.746094 56.339844 8.9375 C 56.492188 9.035156 56.621094 9.179688 56.621094 9.277344 C 56.621094 9.375 56.164062 9.914062 55.585938 10.503906 C 54.375 11.746094 53.660156 13.117188 53.300781 14.964844 L 53.070312 16.167969 L 52.363281 15.695312 C 51.320312 15.019531 51.257812 14.816406 51.800781 13.480469 Z M 46.3125 14.203125 C 47.050781 14.25 47.789062 14.351562 48.511719 14.5 C 51.5 15.21875 54.226562 17.488281 55.90625 20.660156 C 56.820312 22.390625 57.171875 23.714844 57.285156 25.917969 C 57.527344 30.382812 56.496094 33.597656 53.96875 36.3125 C 52.804688 37.554688 51.753906 38.308594 49.992188 39.136719 L 48.726562 39.738281 L 46.394531 39.785156 C 43.835938 39.835938 43.503906 39.769531 42.4375 38.855469 C 40.976562 37.632812 38.992188 33.433594 38.234375 29.9375 C 37.710938 27.585938 37.59375 24.886719 37.972656 24.265625 C 38.367188 23.925781 38.777344 23.609375 39.207031 23.320312 C 42.328125 21.132812 43.835938 19.039062 44.609375 15.789062 C 45.050781 13.949219 44.890625 14.09375 46.316406 14.207031 Z M 32.925781 23.816406 C 32.183594 23.648438 30.824219 22.929688 30.824219 22.6875 C 30.824219 22.621094 31.25 22.324219 31.792969 22.015625 C 33.632812 20.972656 36.503906 17.867188 38.210938 15.09375 C 38.953125 13.886719 40.832031 10.191406 41.691406 8.199219 C 42.035156 7.414062 42.382812 6.808594 42.484375 6.84375 C 42.582031 6.875 42.859375 7.199219 43.109375 7.578125 C 43.445312 8.125 43.714844 8.707031 43.914062 9.308594 C 44.195312 10.191406 44.222656 10.628906 44.222656 12.640625 C 44.207031 15.398438 43.992188 16.382812 43.058594 18.199219 C 41.925781 20.386719 40.003906 22.183594 37.539062 23.324219 C 36.546875 23.816406 36.257812 23.878906 35.039062 23.925781 C 34.328125 23.964844 33.613281 23.925781 32.914062 23.808594 L 32.917969 23.808594 Z M 40.660156 38.417969 C 39.671875 37.894531 37.929688 36.261719 37.113281 35.121094 C 35.703125 33.140625 34.980469 31.003906 34.730469 27.964844 C 34.53125 25.445312 34.582031 25.203125 35.4375 24.84375 C 36.160156 24.546875 36.539062 24.441406 36.953125 24.402344 C 37.183594 24.386719 37.195312 24.550781 37.195312 26.207031 C 37.195312 30.453125 38.226562 34.015625 40.464844 37.394531 L 41.417969 38.835938 L 40.660156 38.421875 Z M 41.625 77.203125 L 42.117188 76.699219 L 43.484375 76.765625 L 44.847656 76.796875 L 46.539062 77.921875 C 47.117188 78.296875 47.683594 78.710938 48.214844 79.148438 C 48.214844 79.214844 48.082031 79.636719 47.929688 80.109375 C 47.769531 80.714844 47.644531 81.324219 47.554688 81.941406 C 47.503906 82.480469 47.390625 82.96875 47.289062 83.050781 C 46.886719 83.347656 42.835938 85.097656 42.527344 85.097656 C 41.277344 85.097656 40.6875 83.050781 41.476562 81.371094 L 41.820312 80.617188 L 43.21875 80.617188 C 43.976562 80.617188 44.582031 80.566406 44.582031 80.484375 C 44.582031 80.351562 44.089844 80.1875 43.578125 80.1875 C 42.835938 80.171875 42.128906 79.886719 41.589844 79.386719 C 41.183594 78.984375 41.113281 78.796875 41.113281 78.308594 C 41.113281 77.820312 41.203125 77.617188 41.625 77.191406 Z M 51.941406 84.476562 C 51.253906 84.847656 49.460938 84.816406 48.789062 84.425781 L 48.296875 84.144531 L 48.296875 82.414062 C 48.296875 80.824219 48.328125 80.632812 48.699219 79.945312 C 49.257812 78.867188 49.964844 78.421875 50.929688 78.507812 C 51.320312 78.5 51.699219 78.609375 52.015625 78.832031 C 52.617188 79.367188 52.753906 79.890625 52.839844 81.632812 C 52.894531 83.53125 52.75 84.019531 51.941406 84.464844 Z M 53.617188 85.046875 C 54.066406 85.503906 54.523438 86.503906 54.671875 87.265625 C 54.753906 87.722656 54.707031 87.867188 54.132812 88.574219 C 53.621094 89.195312 53.214844 89.488281 52.046875 90.074219 C 49.929688 91.167969 50.007812 91.167969 49.882812 90.191406 C 49.753906 89.210938 49.914062 88.667969 50.832031 86.746094 C 51.472656 85.4375 51.589844 85.273438 52.148438 85.011719 C 53.015625 84.585938 53.179688 84.601562 53.621094 85.039062 Z M 49.710938 85.246094 C 50.253906 85.34375 50.675781 85.457031 50.675781 85.507812 C 50.675781 85.558594 50.003906 86.992188 49.164062 88.695312 L 47.671875 91.785156 L 46.175781 91.800781 C 44.792969 91.816406 44.5 91.882812 42.777344 92.453125 C 41.265625 93 39.804688 93.636719 38.378906 94.367188 C 36.980469 95.054688 35.8125 95.59375 35.8125 95.59375 C 35.8125 95.59375 36.355469 94.582031 37.078125 93.390625 C 37.804688 92.195312 39.035156 90.058594 39.835938 88.601562 L 41.285156 85.984375 L 42.125 85.886719 C 43.222656 85.773438 43.832031 85.53125 45.605469 84.53125 C 46.136719 84.207031 46.6875 83.925781 47.261719 83.683594 C 47.3125 83.667969 47.667969 83.980469 48.046875 84.371094 C 48.65625 84.996094 48.816406 85.078125 49.710938 85.238281 C 49.710938 85.238281 49.710938 85.246094 49.710938 85.246094 Z M 49.203125 90.882812 C 49.222656 91.058594 49.1875 91.242188 49.085938 91.390625 C 48.980469 91.492188 48.855469 91.566406 48.710938 91.585938 C 48.5625 91.585938 48.59375 91.453125 48.828125 91.082031 C 49.125 90.648438 49.167969 90.609375 49.203125 90.871094 Z M 41.910156 171.40625 C 39.824219 172.09375 32.367188 172.609375 30.027344 172.207031 C 27.929688 171.851562 24.875 170.59375 22.984375 169.316406 C 22.011719 168.648438 21.851562 168.472656 22.128906 168.289062 C 22.53125 168.027344 22.949219 168.175781 23.722656 168.84375 C 25.476562 170.367188 27.59375 171.40625 29.867188 171.867188 C 32.808594 172.421875 39.851562 171.148438 42.25 169.597656 C 43.222656 168.960938 43.925781 168.195312 44.242188 167.34375 C 44.371094 167 44.515625 166.722656 44.566406 166.722656 C 44.714844 166.8125 44.847656 166.914062 44.96875 167.03125 C 45.394531 167.433594 45.394531 167.851562 44.953125 168.714844 C 44.351562 169.988281 43.25 170.960938 41.910156 171.40625 Z M 23.707031 168.058594 C 23.707031 167.828125 24.464844 167.601562 28.78125 166.507812 C 34.011719 165.167969 34.347656 165.136719 37.339844 165.183594 C 38.730469 165.21875 40.128906 165.316406 40.460938 165.414062 C 43.664062 166.359375 43.859375 166.425781 43.859375 166.757812 C 43.859375 167.230469 43.117188 168.339844 42.527344 168.785156 C 41.71875 169.40625 40.515625 169.878906 38.78125 170.269531 C 36.183594 170.855469 33.507812 171.179688 31.53125 171.179688 C 29.554688 171.179688 28.691406 171.015625 27.410156 170.492188 C 26.0625 169.949219 23.71875 168.40625 23.703125 168.054688 Z M 51.085938 170.949219 C 50.167969 171.132812 44.808594 171.246094 44.515625 171.082031 C 44.273438 170.933594 44.316406 170.902344 44.84375 170.625 C 46.460938 169.824219 48.328125 169.691406 50.054688 170.253906 C 51.535156 170.71875 51.714844 170.8125 51.09375 170.949219 Z M 58.9375 171.273438 C 58.9375 171.421875 58.65625 171.472656 57.539062 171.472656 C 55.882812 171.472656 55.027344 171.289062 52.054688 170.3125 C 49.347656 169.445312 48.082031 169.21875 46.847656 169.445312 C 45.371094 169.691406 45.402344 169.722656 45.929688 168.675781 C 46.308594 167.855469 46.457031 167.722656 46.898438 167.597656 C 47.570312 167.414062 49.835938 167.382812 50.269531 167.5625 C 50.777344 167.824219 51.261719 168.121094 51.714844 168.464844 C 53.527344 169.773438 55.871094 170.605469 57.660156 170.605469 C 58.519531 170.605469 58.945312 170.824219 58.945312 171.261719 Z M 58.378906 169.949219 L 57.605469 170 C 57.132812 170.019531 56.660156 169.984375 56.199219 169.882812 C 55.230469 169.640625 53.488281 168.742188 51.894531 167.664062 C 50.578125 166.75 50.460938 166.71875 49.675781 166.734375 C 49.164062 166.734375 48.65625 166.777344 48.148438 166.867188 C 46.84375 167.109375 45.929688 166.988281 45.40625 166.507812 L 44.699219 165.886719 L 45.324219 165.710938 C 48.003906 164.976562 50.054688 165.007812 53.074219 165.777344 C 56.046875 166.53125 56.164062 166.613281 57.363281 168.445312 L 58.375 169.964844 Z M 51.546875 130.757812 C 52.136719 131.476562 54.257812 135.765625 55.007812 137.796875 C 56.441406 141.632812 56.820312 143.421875 56.820312 146.097656 C 56.839844 147.960938 56.789062 148.382812 56.363281 150.066406 C 55.789062 152.417969 55.789062 153.085938 56.328125 156.472656 C 56.546875 157.675781 56.695312 158.890625 56.773438 160.117188 C 56.773438 161.605469 56.367188 161.898438 53.765625 162.273438 C 53.109375 162.371094 52.554688 162.421875 52.5 162.371094 C 52.402344 162.289062 52.675781 157.164062 52.859375 155.765625 C 52.941406 155.078125 53.140625 153.867188 53.285156 153.050781 C 53.632812 151.269531 53.648438 150.648438 53.351562 148.800781 C 52.59375 143.738281 50.363281 137.296875 48.441406 134.652344 C 47.75 133.691406 46.816406 132.726562 46.683594 132.851562 C 46.648438 132.902344 46.929688 133.375 47.339844 133.929688 C 49.273438 136.578125 51.003906 141.050781 52.152344 146.425781 C 52.554688 148.289062 52.613281 148.925781 52.613281 150.707031 C 52.628906 151.835938 52.566406 152.96875 52.429688 154.089844 C 52.28125 154.949219 52.214844 156.621094 52.214844 158.957031 L 52.195312 162.503906 L 50.382812 162.597656 C 47.742188 162.761719 46.460938 162.644531 45.65625 162.171875 C 45.296875 161.941406 44.949219 161.832031 44.898438 161.882812 C 44.714844 162.058594 45.769531 162.808594 46.308594 162.925781 C 46.582031 162.992188 48.316406 163.042969 50.152344 163.023438 C 52.683594 163.023438 53.800781 162.941406 54.765625 162.761719 L 56.046875 162.519531 L 56.753906 162.921875 C 57.246094 163.179688 57.480469 163.425781 57.546875 163.691406 C 57.660156 164.289062 57.3125 166.273438 57.085938 166.273438 C 57.054688 166.273438 56.5625 166.125 55.988281 165.933594 C 55.414062 165.738281 54.195312 165.375 53.28125 165.113281 C 51.75 164.691406 51.421875 164.65625 49.582031 164.65625 C 47.742188 164.65625 47.367188 164.707031 46.101562 165.058594 C 44.3125 165.5625 43.589844 165.644531 42.914062 165.421875 C 42.355469 165.238281 42.355469 165.082031 42.929688 164.933594 C 43.277344 164.820312 43.621094 164.691406 43.949219 164.53125 C 44.730469 164.171875 44.730469 163.992188 44.03125 161.949219 L 43.488281 160.445312 L 42.605469 160.398438 C 42.097656 160.363281 41.6875 160.316406 41.6875 160.25 C 41.6875 159.941406 42.851562 156 42.984375 155.820312 C 43.273438 155.582031 43.59375 155.375 43.925781 155.199219 C 46.191406 153.921875 47.914062 150.675781 47.914062 147.667969 C 47.914062 145.199219 47.242188 143.585938 43.976562 138.242188 C 41.625 134.441406 41.875 134.78125 41.742188 134.894531 C 41.578125 135.0625 42.117188 136.253906 43.515625 138.605469 C 45.257812 141.5625 46.207031 143.457031 46.722656 144.894531 C 47.0625 145.875 47.097656 146.25 47.097656 147.75 C 47.097656 149.25 47.046875 149.648438 46.722656 150.527344 C 46.34375 151.71875 45.699219 152.808594 44.832031 153.714844 C 43.863281 154.714844 43.257812 155.003906 41.757812 155.199219 C 41.085938 155.296875 40.527344 155.414062 40.527344 155.460938 C 40.527344 155.609375 41.070312 155.757812 41.625 155.757812 C 42.484375 155.773438 42.484375 155.824219 41.660156 158.175781 L 40.886719 160.371094 L 40.246094 160.371094 C 39.539062 160.371094 37.039062 160.667969 35.132812 160.96875 C 34.742188 161.050781 34.339844 161.078125 33.933594 161.066406 C 33.886719 161.019531 34.574219 159.535156 35.445312 157.730469 C 36.3125 155.929688 37.265625 153.878906 37.550781 153.144531 C 38.089844 151.835938 38.105469 151.757812 38.023438 150.417969 C 37.890625 148.128906 36.691406 144.550781 34.726562 140.550781 C 33.574219 138.199219 32.410156 136.253906 32.3125 136.515625 C 32.277344 136.597656 32.734375 137.675781 33.34375 138.902344 C 35.066406 142.507812 36.152344 145.273438 36.824219 148.003906 C 37.550781 150.808594 37.464844 151.609375 36.234375 154.457031 C 35.660156 155.765625 33.046875 161.222656 32.945312 161.332031 C 32.929688 161.347656 31.582031 161.65625 29.972656 162.003906 C 28.367188 162.347656 26.984375 162.707031 26.917969 162.738281 C 26.652344 162.996094 27.320312 162.96875 29.660156 162.625 C 31.105469 162.410156 32.320312 162.261719 32.355469 162.316406 C 32.386719 162.371094 32.238281 162.835938 31.988281 163.375 C 31.585938 164.261719 31.449219 164.699219 31.546875 164.699219 C 31.648438 164.699219 32.023438 164.210938 32.566406 163.261719 C 32.90625 162.625 33.304688 162.085938 33.414062 162.035156 C 34.121094 161.820312 41.316406 160.957031 42.472656 160.957031 C 43.097656 160.957031 43.164062 161.089844 43.488281 162.589844 C 43.796875 163.929688 43.835938 163.847656 42.324219 164.503906 L 41.371094 164.902344 L 39.972656 164.558594 C 38.625 164.234375 38.511719 164.234375 35.902344 164.394531 C 33.890625 164.507812 33.28125 164.558594 31.613281 164.964844 C 31.140625 165.082031 30.582031 165.230469 29.875 165.421875 C 22.089844 167.480469 21.136719 167.804688 20.496094 168.636719 C 19.625 169.78125 19.066406 170.027344 18.558594 169.453125 C 17.71875 168.542969 18.523438 165.488281 20.25 163.019531 C 21.574219 161.214844 23.101562 159.574219 24.796875 158.117188 C 28.015625 155.257812 29.066406 153.949219 30.007812 151.511719 C 30.316406 150.757812 30.609375 150.136719 30.679688 150.136719 C 30.753906 150.136719 31.140625 150.539062 31.554688 151.066406 C 32.226562 151.933594 32.703125 152.289062 32.503906 151.800781 C 32.472656 151.703125 31.664062 150.417969 30.730469 148.960938 C 26.335938 142.160156 25.855469 141.066406 25.65625 137.171875 C 25.558594 135.523438 25.558594 135.40625 25.824219 135.40625 C 25.972656 135.40625 26.828125 135.339844 27.695312 135.273438 C 30.386719 135.015625 32.460938 134.441406 36.320312 132.890625 C 39.046875 131.796875 40.492188 131.339844 42.449219 130.925781 C 44.570312 130.460938 46.738281 130.234375 48.902344 130.242188 L 51.101562 130.222656 L 51.539062 130.761719 Z M 50.675781 129.5 C 50.675781 129.546875 49.496094 129.648438 48.03125 129.695312 C 43.167969 129.878906 40.511719 130.398438 36.679688 131.964844 C 33.234375 133.367188 31.59375 133.96875 30.425781 134.285156 C 29.082031 134.597656 27.714844 134.785156 26.335938 134.839844 L 25.695312 134.839844 L 25.8125 133.796875 C 25.929688 132.519531 26.121094 131.75 26.386719 131.542969 C 26.535156 131.425781 26.863281 131.527344 27.796875 132 C 29.09375 132.652344 30.261719 132.964844 31.375 132.964844 C 32.167969 132.964844 33.449219 132.527344 36.765625 131.136719 C 38.078125 130.582031 39.902344 129.878906 40.820312 129.554688 L 42.484375 128.980469 L 45.730469 128.867188 C 47.542969 128.800781 49.128906 128.703125 49.28125 128.652344 C 49.769531 128.4375 49.902344 128.488281 50.296875 128.949219 C 50.457031 129.101562 50.582031 129.289062 50.675781 129.492188 Z M 48.65625 117.539062 C 50.804688 122.929688 51.253906 124.253906 51.253906 125.265625 C 51.253906 126.523438 50.777344 127.195312 49.441406 127.800781 C 48.765625 128.125 48.550781 128.140625 46.21875 128.089844 C 42.621094 128.027344 41.03125 128.4375 35.445312 130.804688 C 33.96875 131.425781 32.472656 132.011719 32.09375 132.113281 C 30.695312 132.488281 28.367188 131.714844 26.90625 130.417969 L 26.132812 129.746094 L 26.234375 127.636719 C 26.558594 120.425781 28.515625 108.230469 29.761719 105.410156 L 30.0625 104.738281 L 31.851562 104.65625 C 36.207031 104.414062 40.460938 103.65625 43.644531 102.566406 C 44.757812 102.167969 45.757812 101.863281 45.875 101.847656 C 46.023438 101.832031 46.058594 101.964844 45.992188 102.351562 C 45.941406 102.660156 45.792969 103.953125 45.660156 105.261719 C 45.429688 107.464844 45.429688 107.710938 45.660156 108.867188 C 46.03125 110.683594 46.75 112.796875 48.65625 117.539062 Z M 48.03125 99.582031 C 46.699219 100.777344 43.742188 102.019531 40.511719 102.738281 C 37.519531 103.410156 36.078125 103.574219 32.542969 103.652344 C 28.769531 103.734375 27.863281 103.601562 27.207031 102.914062 C 26.894531 102.589844 26.875 102.492188 26.921875 100.628906 C 26.988281 98.945312 27.039062 98.539062 27.464844 97.273438 C 28.796875 93.308594 31.585938 88.015625 34.367188 84.1875 C 35.578125 82.554688 38.539062 79.601562 39.4375 79.128906 C 40.261719 78.726562 40.113281 78.65625 40.996094 79.78125 L 41.398438 80.285156 L 41.058594 81.074219 C 40.832031 81.601562 40.652344 82.144531 40.53125 82.703125 C 40.382812 83.457031 40.398438 83.6875 40.648438 84.46875 L 40.925781 85.347656 L 40.074219 86.855469 C 37.675781 91.003906 36.160156 93.652344 35.476562 94.921875 L 34.714844 96.308594 L 33.222656 97.191406 C 31.742188 98.054688 31.183594 98.5 31.53125 98.5 C 31.613281 98.5 33.570312 97.554688 35.867188 96.429688 C 41.78125 93.488281 43.6875 92.667969 45.675781 92.222656 L 46.082031 92.140625 L 45.78125 92.515625 C 45.578125 92.785156 45.46875 93.109375 45.472656 93.445312 C 45.472656 94.246094 46.703125 96.617188 47.820312 97.90625 L 48.710938 98.984375 L 48.042969 99.582031 Z M 49.886719 97.605469 L 48.65625 98.191406 L 48.195312 97.554688 C 47.570312 96.644531 46.183594 93.730469 46.183594 93.339844 C 46.179688 93.097656 46.351562 92.890625 46.589844 92.851562 C 46.820312 92.769531 48.167969 92.261719 49.59375 91.722656 C 51.019531 91.183594 52.324219 90.746094 52.449219 90.722656 C 52.617188 90.707031 52.75 90.855469 52.792969 91.097656 C 53.058594 92.390625 53.667969 93.546875 54.78125 95 C 55.257812 95.597656 55.457031 95.96875 55.339844 96.058594 C 55.273438 96.144531 54.292969 96.382812 53.160156 96.617188 C 51.640625 96.921875 50.792969 97.171875 49.886719 97.597656 Z M 64.636719 99.957031 C 64.257812 100.628906 63.105469 102.957031 62.070312 105.140625 C 61.039062 107.320312 60.097656 109.238281 59.988281 109.421875 C 59.707031 109.859375 59.28125 109.84375 58.496094 109.355469 C 57.640625 108.800781 56.621094 107.65625 55.738281 106.234375 C 54.457031 104.171875 51.941406 98.863281 51.816406 97.917969 C 51.765625 97.515625 51.867188 97.472656 54.164062 96.933594 C 54.925781 96.773438 55.660156 96.484375 56.328125 96.089844 C 57.363281 95.46875 57.480469 95.488281 57.496094 96.328125 C 57.523438 96.796875 57.59375 97.265625 57.710938 97.71875 L 57.925781 98.617188 L 57.28125 100.425781 C 56.679688 102.121094 56.457031 103.25 56.738281 103.25 C 56.820312 103.25 57.015625 102.710938 57.199219 102.074219 C 57.5625 100.832031 59.28125 97.21875 59.828125 96.617188 C 60.070312 96.320312 60.152344 96.308594 60.21875 96.46875 C 60.40625 96.769531 60.632812 97.042969 60.894531 97.285156 C 61.566406 97.957031 62.484375 98.285156 64.03125 98.429688 C 64.425781 98.457031 64.804688 98.527344 65.183594 98.644531 C 65.308594 98.714844 65.132812 99.117188 64.644531 99.953125 C 64.644531 99.953125 64.644531 99.957031 64.644531 99.957031 Z M 58.707031 95.753906 C 58.949219 95.734375 59.199219 95.773438 59.429688 95.867188 C 59.480469 95.949219 59.28125 96.40625 58.972656 96.914062 L 58.429688 97.8125 L 58.265625 97.109375 C 57.953125 95.820312 57.988281 95.757812 58.710938 95.753906 Z M 65.683594 96.042969 C 65.210938 96.515625 64.992188 96.863281 64.929688 97.246094 L 64.84375 97.785156 L 63.8125 97.691406 C 62.546875 97.578125 61.496094 97.152344 61.105469 96.597656 C 60.710938 96.042969 60.886719 95.761719 62.09375 95.132812 C 62.617188 94.835938 63.34375 94.460938 63.652344 94.246094 L 64.226562 93.90625 L 64.816406 94.445312 C 65.132812 94.730469 65.484375 94.976562 65.867188 95.164062 L 66.34375 95.363281 L 65.683594 96.050781 Z M 71.84375 89.183594 C 69.363281 92.464844 67.707031 94.410156 67.183594 94.691406 C 66.777344 94.890625 66.691406 94.890625 66.097656 94.675781 C 65.457031 94.433594 64.734375 93.9375 64.734375 93.746094 C 64.972656 93.335938 65.25 92.949219 65.558594 92.585938 C 66.335938 91.613281 66.9375 90.507812 67.347656 89.332031 L 67.597656 88.613281 L 68.863281 88.515625 C 69.464844 88.464844 70.0625 88.375 70.652344 88.257812 C 71.902344 87.925781 72.640625 87.144531 72.800781 86.003906 C 72.882812 85.496094 72.96875 85.363281 73.25 85.28125 C 73.535156 85.167969 73.789062 84.980469 73.988281 84.742188 C 74.289062 84.386719 74.316406 84.269531 74.121094 84.253906 C 73.945312 84.234375 73.769531 84.265625 73.613281 84.355469 C 73.238281 84.550781 72.25 84.550781 71.800781 84.355469 C 71.46875 84.207031 71.4375 84.089844 71.355469 82.796875 C 71.304688 82.027344 71.222656 81.066406 71.171875 80.644531 C 71.105469 80.042969 71.136719 79.824219 71.335938 79.601562 C 71.570312 79.359375 71.601562 79.367188 72.160156 79.972656 C 72.6875 80.472656 73.265625 80.914062 73.882812 81.28125 C 76.46875 82.789062 76.371094 83.210938 71.851562 89.191406 Z M 74.242188 76.355469 L 74.277344 78.542969 C 74.308594 80.347656 74.277344 80.75 74.109375 80.75 C 73.828125 80.75 72.878906 80.027344 72.253906 79.347656 C 72.066406 79.117188 71.84375 78.914062 71.597656 78.746094 C 71.515625 78.746094 71.316406 78.914062 71.136719 79.105469 C 70.546875 79.726562 70.316406 79.535156 70.289062 78.367188 C 70.222656 77.175781 70.289062 76.902344 70.691406 76.375 C 70.988281 76.011719 71.066406 75.972656 71.53125 76.066406 C 71.828125 76.132812 72.546875 76.230469 73.136719 76.28125 Z M 67.316406 69.9375 C 66.230469 69.535156 65.964844 69.167969 66.117188 68.253906 C 66.183594 67.84375 66.285156 67.441406 66.425781 67.050781 L 66.625 66.578125 L 67.398438 67.019531 C 67.9375 67.316406 68.515625 67.550781 69.105469 67.738281 C 69.636719 67.894531 70.171875 68.019531 70.714844 68.113281 C 72.027344 68.289062 72.46875 68.960938 72.652344 71.035156 L 72.75 72.066406 L 70.976562 71.507812 C 69.988281 71.203125 68.96875 70.789062 68.679688 70.597656 C 68.25 70.332031 67.789062 70.109375 67.308594 69.9375 Z M 67.25 72.742188 C 67.332031 71.855469 67.5625 71.351562 67.824219 71.449219 C 67.921875 71.480469 69.03125 71.757812 70.253906 72.101562 C 71.476562 72.449219 72.570312 72.757812 72.652344 72.839844 C 72.882812 73.003906 73.375 75.042969 73.242188 75.324219 C 73.144531 75.566406 72.386719 75.632812 71.386719 75.472656 C 71.015625 75.40625 70.828125 75.144531 70.828125 74.6875 C 70.828125 74.296875 70.777344 73.964844 70.695312 73.964844 C 70.546875 73.964844 70.222656 74.769531 69.957031 75.679688 C 69.808594 76.21875 69.757812 76.28125 69.480469 76.21875 C 69.203125 76.164062 68.921875 76.136719 68.640625 76.136719 L 68.117188 76.136719 L 67.640625 74.8125 C 67.25 73.742188 67.183594 73.367188 67.25 72.746094 L 67.25 72.734375 Z M 60.105469 76.40625 C 62.894531 75.003906 64.027344 74.316406 64.964844 73.5 C 65.171875 73.289062 65.402344 73.109375 65.65625 72.960938 C 65.8125 73.03125 65.949219 73.136719 66.058594 73.269531 C 66.664062 73.957031 67.132812 74.746094 67.441406 75.605469 C 67.675781 76.292969 67.675781 76.324219 67.375 76.617188 C 67.050781 76.921875 65.964844 77.015625 65.078125 76.796875 C 64.601562 76.679688 64.601562 76.699219 64.601562 77.105469 C 64.601562 77.511719 64.519531 77.5625 63.84375 77.808594 C 63.457031 77.949219 63.105469 78.171875 62.8125 78.460938 C 62.546875 78.824219 61.988281 80.796875 61.988281 81.351562 C 61.988281 81.953125 62.265625 81.535156 62.628906 80.425781 C 63.136719 78.890625 63.46875 78.59375 65.042969 78.152344 C 65.90625 77.921875 66.757812 77.652344 67.589844 77.335938 C 68.332031 77.039062 69.039062 76.863281 69.132812 76.894531 C 69.375 76.996094 69.734375 78.726562 69.609375 79.214844 C 69.558594 79.390625 69.164062 79.785156 68.722656 80.09375 C 68.050781 80.550781 67.65625 80.695312 66.519531 80.914062 C 64.945312 81.210938 64.746094 81.335938 63.5625 82.914062 C 62.351562 84.546875 62.738281 84.644531 64.070312 83.046875 C 65.003906 81.933594 65.5625 81.605469 66.550781 81.605469 C 67.503906 81.644531 68.4375 81.324219 69.171875 80.722656 C 69.546875 80.425781 69.910156 80.164062 69.996094 80.164062 C 70.320312 80.164062 71.0625 82.898438 70.902344 83.519531 C 70.800781 83.765625 70.617188 83.980469 70.390625 84.117188 C 69.683594 84.519531 67.519531 85.210938 66.414062 85.359375 C 65.628906 85.476562 65.316406 85.601562 64.988281 85.898438 C 64.480469 86.371094 63.65625 87.597656 63.507812 88.085938 C 63.390625 88.449219 63.410156 88.449219 63.707031 88.183594 C 64.042969 87.820312 64.347656 87.425781 64.613281 87.007812 L 65.203125 86.105469 L 66.089844 86.023438 C 66.882812 85.914062 67.675781 85.734375 68.4375 85.484375 C 70.441406 84.863281 71.277344 84.78125 71.683594 85.1875 C 71.90625 85.421875 72.023438 85.734375 71.996094 86.050781 C 71.996094 87.101562 71.128906 87.523438 68.480469 87.734375 C 67.804688 87.785156 67.183594 87.867188 67.089844 87.933594 C 67.023438 87.964844 66.824219 88.453125 66.628906 89.027344 C 65.777344 91.640625 64.398438 93.207031 61.867188 94.464844 C 60.65625 95.066406 60.632812 95.066406 58.894531 95.085938 C 57.660156 95.121094 56.972656 95.1875 56.613281 95.351562 L 56.085938 95.566406 L 55.429688 94.894531 C 54.179688 93.570312 53.292969 91.953125 53.292969 91.003906 C 53.292969 90.53125 53.488281 90.25 54.605469 88.898438 C 56 87.21875 57.121094 85.535156 57.445312 84.667969 C 57.695312 83.945312 57.695312 82.101562 57.429688 80.601562 C 57.171875 79.175781 57.152344 78.378906 57.347656 77.996094 C 57.441406 77.847656 58.683594 77.125 60.105469 76.390625 Z M 55.574219 84.984375 C 56.605469 84.585938 56.640625 84.585938 56.527344 84.886719 C 56.460938 85.035156 56.199219 85.574219 55.925781 86.089844 L 55.417969 87.003906 L 55.167969 86.449219 C 54.671875 85.28125 54.660156 85.308594 55.578125 84.984375 Z M 56.839844 76.585938 L 57.6875 76.570312 L 57.085938 77.191406 C 56.511719 77.78125 56.460938 77.878906 56.378906 78.859375 C 56.3125 79.757812 56.265625 79.867188 55.953125 79.953125 C 55.699219 80.015625 55.457031 80.101562 55.214844 80.191406 C 54.671875 80.390625 55.015625 80.59375 55.921875 80.59375 C 56.707031 80.59375 56.726562 80.628906 56.855469 82.554688 L 56.953125 83.882812 L 56.460938 84.046875 C 55.898438 84.1875 55.320312 84.277344 54.738281 84.304688 L 53.507812 84.386719 L 53.554688 82.199219 C 53.605469 80.105469 53.589844 79.960938 53.246094 79.210938 C 53.058594 78.875 52.933594 78.507812 52.871094 78.132812 C 52.871094 77.597656 55.394531 76.585938 56.84375 76.585938 Z M 59.496094 60.054688 C 59.363281 60.1875 55.765625 61.859375 55.441406 61.933594 C 54.714844 62.132812 54.308594 61.25 54.09375 59.078125 L 53.976562 58.117188 L 54.535156 58.117188 C 55.242188 58.027344 55.9375 57.882812 56.621094 57.691406 C 58.574219 57.171875 58.695312 57.1875 58.839844 57.90625 C 58.953125 58.363281 59.097656 58.808594 59.265625 59.246094 C 59.414062 59.675781 59.53125 60.050781 59.496094 60.066406 Z M 48.164062 63.054688 C 48.472656 64.332031 48.394531 64.511719 47.589844 64.382812 C 46.273438 64.183594 45.46875 63.726562 44.863281 62.765625 C 44.488281 62.167969 44.460938 61.960938 44.460938 60.886719 C 44.460938 59.742188 44.476562 59.59375 45.0625 58.5 C 45.722656 57.226562 46.445312 56.296875 46.636719 56.5 C 46.792969 56.773438 46.929688 57.054688 47.042969 57.347656 C 47.277344 57.917969 47.570312 58.457031 47.925781 58.960938 L 48.550781 59.832031 L 48.316406 60.535156 C 47.910156 61.738281 47.910156 62.078125 48.15625 63.054688 Z M 47.523438 56.996094 L 46.921875 55.835938 L 47.5625 55.328125 C 48.335938 54.675781 50.417969 53.21875 50.566406 53.203125 C 50.632812 53.203125 50.714844 53.382812 50.765625 53.601562 C 51.058594 55.011719 51.742188 56.3125 52.753906 57.347656 C 53.496094 58.132812 53.429688 58.296875 52.261719 58.878906 C 51.683594 59.171875 51.054688 59.335938 50.40625 59.367188 L 49.375 59.449219 L 48.769531 58.828125 C 48.289062 58.265625 47.871094 57.648438 47.527344 56.996094 Z M 51.417969 52.910156 C 51.535156 52.828125 52.75 52.796875 54.125 52.8125 C 56.328125 52.84375 56.671875 52.878906 56.816406 53.109375 C 57 53.339844 57.640625 55.984375 57.640625 56.460938 C 57.640625 56.820312 54.820312 57.503906 54.09375 57.339844 C 53.488281 57.175781 52.320312 56 51.84375 55.019531 C 51.300781 53.945312 51.136719 53.097656 51.417969 52.910156 Z M 48.855469 60.804688 C 48.9375 60.332031 49.003906 60.28125 49.394531 60.28125 C 50.085938 60.28125 51.710938 59.859375 52.414062 59.496094 C 52.773438 59.320312 53.101562 59.152344 53.152344 59.136719 C 53.203125 59.121094 53.320312 59.578125 53.394531 60.164062 C 53.511719 60.917969 53.679688 61.371094 54 61.832031 C 54.246094 62.175781 54.421875 62.5 54.402344 62.519531 C 54.09375 62.84375 49.96875 64.320312 49.394531 64.320312 C 49.230469 64.316406 49.082031 64.210938 49.019531 64.0625 C 48.855469 63.671875 48.753906 61.378906 48.855469 60.804688 Z M 58.1875 53.242188 L 58.726562 53.289062 L 58.726562 54.679688 C 58.726562 55.988281 58.644531 56.410156 58.429688 56.199219 C 58.363281 56.148438 58.199219 55.578125 58.054688 54.90625 C 57.910156 54.234375 57.746094 53.597656 57.695312 53.449219 C 57.628906 53.21875 57.695312 53.191406 58.1875 53.234375 Z M 66.121094 55.203125 C 65.972656 56.230469 65.71875 56.640625 65.066406 56.800781 C 64.164062 57.066406 62.175781 56.984375 60.828125 56.621094 L 59.59375 56.3125 L 59.546875 55.109375 C 59.511719 53.835938 59.5625 53.511719 59.789062 53.511719 C 59.886719 53.511719 61.171875 53.707031 62.664062 53.933594 C 66.640625 54.566406 66.226562 54.417969 66.109375 55.203125 Z M 87.964844 46.792969 C 87.171875 47.316406 86.074219 47.511719 83.808594 47.511719 C 78.996094 47.511719 75.148438 46.074219 67.9375 41.601562 C 66.609375 40.765625 64.832031 39.636719 63.984375 39.050781 L 62.40625 37.972656 L 60.867188 38.3125 C 60.011719 38.476562 59.285156 38.636719 59.257812 38.636719 L 59.242188 38.652344 C 59.273438 38.738281 59.324219 38.808594 59.390625 38.867188 C 59.65625 39.175781 60.671875 39.144531 61.625 38.785156 L 62.414062 38.488281 L 64.628906 40.039062 L 66.84375 41.621094 L 67.011719 43.402344 C 67.210938 45.492188 67.351562 45.953125 68.96875 49.285156 C 70.175781 51.816406 70.375 52.4375 70.117188 52.910156 C 69.773438 53.566406 69.148438 53.796875 67.570312 53.796875 C 65.894531 53.796875 64.347656 53.566406 59.851562 52.785156 C 53.921875 51.707031 52.164062 51.691406 50.125 52.636719 C 47.675781 53.777344 44.871094 56.621094 43.980469 58.894531 C 43.859375 59.191406 43.777344 59.507812 43.738281 59.824219 C 43.570312 60.835938 43.65625 62.0625 43.980469 62.648438 C 44.355469 63.386719 45.363281 64.332031 46.195312 64.761719 C 46.738281 65.058594 47.050781 65.101562 48.152344 65.101562 C 50.164062 65.101562 51.667969 64.511719 59.894531 60.671875 C 61.324219 59.984375 62.898438 59.3125 63.375 59.136719 C 64.558594 58.738281 66.347656 58.597656 67.199219 58.828125 L 67.855469 59.011719 L 67.496094 59.308594 C 67.121094 59.570312 66.734375 59.820312 66.332031 60.042969 C 65.589844 60.46875 65.476562 60.617188 64.722656 62.046875 C 63.558594 64.28125 62.492188 65.605469 57.214844 71.328125 C 54.507812 74.269531 53.1875 75.851562 52.535156 76.933594 L 52.09375 77.703125 L 50.992188 77.769531 C 50.125 77.800781 49.742188 77.902344 49.203125 78.226562 C 48.796875 78.457031 48.429688 78.566406 48.328125 78.507812 C 48.230469 78.445312 47.554688 77.96875 46.835938 77.414062 C 46.167969 76.917969 45.457031 76.472656 44.710938 76.09375 C 44.25 75.894531 43.871094 75.652344 43.871094 75.554688 C 43.871094 75.457031 43.984375 74.835938 44.101562 74.195312 C 44.402344 72.757812 44.402344 71.273438 44.101562 69.832031 C 43.984375 69.261719 43.871094 68.757812 43.871094 68.738281 C 43.871094 68.722656 44.050781 68.722656 44.246094 68.773438 C 44.917969 68.90625 44.503906 68.542969 43.355469 68.003906 C 42.105469 67.402344 41.257812 66.519531 40.890625 65.453125 C 40.691406 64.863281 40.660156 64.34375 40.726562 62.609375 C 40.738281 61.621094 40.847656 60.636719 41.058594 59.671875 C 41.273438 58.671875 41.683594 57.402344 42.421875 55.164062 C 44.164062 49.871094 44.34375 48.96875 44.144531 46.699219 C 43.996094 45.195312 43.605469 43.628906 42.796875 41.617188 C 42.515625 40.894531 42.324219 40.292969 42.351562 40.273438 C 42.777344 40.296875 43.191406 40.363281 43.597656 40.472656 C 45.324219 40.8125 47.871094 40.703125 49.445312 40.175781 C 51.351562 39.578125 53.191406 38.28125 54.714844 36.5 C 54.941406 36.242188 55.160156 35.976562 55.359375 35.695312 C 56.199219 34.601562 57.214844 32.675781 57.429688 31.839844 L 57.527344 31.4375 L 58.085938 31.734375 C 58.398438 31.882812 58.660156 32.109375 58.660156 32.222656 C 58.660156 32.503906 58.726562 32.503906 59.84375 32.191406 C 61.351562 31.789062 65.683594 31.859375 68.382812 32.339844 C 73.375 33.230469 77.824219 34.628906 81.703125 36.585938 C 85.234375 38.367188 87.730469 40.414062 88.671875 42.292969 C 89.539062 44.054688 89.246094 45.953125 87.964844 46.789062 Z M 87.964844 46.792969 "/>
</g>
</svg>
