<?xml version="1.0" encoding="UTF-8"?>
<svg xmlns="http://www.w3.org/2000/svg" xmlns:xlink="http://www.w3.org/1999/xlink" width="90px" height="90px" viewBox="0 0 90 148" version="1.1">
<g id="surface1">
<path style=" stroke:none;fill-rule:nonzero;fill:rgb(91.37255%,90.980393%,40.784314%);fill-opacity:1;" d="M 84.558594 98.546875 C 84.308594 97.394531 83.792969 97.777344 83.726562 97.246094 C 83.453125 94.421875 83.132812 96.21875 82.074219 97.269531 C 81.929688 96.796875 83.253906 94.851562 82.839844 94.699219 C 82.28125 94.851562 81.765625 95.398438 81.207031 95.015625 C 81.566406 94.558594 82.511719 94.707031 82.6875 94.128906 C 82.257812 92.96875 80.480469 93.351562 80.21875 92.113281 C 80.929688 92.167969 81.488281 92.828125 82.136719 93.140625 C 80.078125 86.78125 76.292969 80.730469 70.9375 76.550781 C 70.007812 76.179688 67.972656 77.820312 67.054688 78.261719 C 64.597656 79.824219 62.214844 81.523438 59.78125 83.140625 C 59.199219 83.523438 58.566406 83.828125 57.941406 84.152344 C 57.355469 84.371094 57.789062 85.007812 57.742188 85.476562 C 57.792969 85.96875 57.75 86.5 57.941406 86.941406 C 58.445312 88.792969 58.210938 90.539062 58.246094 92.46875 C 58.378906 98.386719 56.953125 104.136719 55.898438 109.929688 C 55.429688 112.761719 54.597656 115.523438 53.957031 118.320312 C 53.785156 118.988281 53.835938 119.460938 54.464844 119.917969 C 57.425781 122.46875 60.960938 122.414062 64.5625 121.527344 C 65.472656 121.167969 68.410156 120.816406 68.507812 119.789062 C 69.847656 114.238281 71.972656 108.832031 72.839844 103.179688 C 73.277344 101.277344 73.183594 99.328125 73.171875 97.390625 C 73.203125 96.929688 72.917969 96.417969 73.28125 96.035156 C 73.675781 96.4375 73.523438 97.074219 73.589844 97.597656 C 73.761719 102.128906 73.21875 106.671875 71.824219 110.992188 C 71.449219 112.535156 70.964844 114.039062 70.496094 115.546875 C 70.109375 117.179688 69.761719 118.800781 69.15625 120.386719 C 69.121094 120.769531 68.6875 121.679688 69.09375 121.855469 C 70.925781 121.757812 72.667969 121.40625 74.28125 120.519531 C 78.449219 118.605469 81.859375 115.449219 85.160156 112.351562 C 89.382812 107.40625 89.976562 110.414062 87.082031 104.570312 C 86.21875 102.570312 85.398438 100.554688 84.5625 98.542969 Z M 79.296875 107.167969 C 79.332031 107.160156 79.367188 107.152344 79.40625 107.144531 C 79.578125 107.101562 79.75 107.058594 79.941406 107.015625 C 79.730469 107.445312 79.285156 107.714844 78.800781 107.699219 C 78.921875 107.496094 79.117188 107.378906 79.296875 107.167969 Z M 71.496094 91.902344 C 71.539062 91.597656 71.75 91.453125 71.96875 91.246094 C 72.1875 91.042969 72.414062 90.753906 72.625 90.984375 C 72.910156 91.378906 71.847656 91.902344 71.496094 91.902344 Z M 71.210938 90.492188 C 71.53125 90.007812 71.8125 89.539062 72.128906 89.089844 C 72.207031 88.96875 72.402344 88.9375 72.558594 88.859375 C 72.414062 89.941406 71.457031 90.777344 70.964844 91.726562 C 70.921875 91.804688 70.78125 91.804688 70.695312 91.847656 C 70.671875 91.355469 71.023438 90.96875 71.210938 90.492188 Z M 68.226562 87.9375 C 68.742188 88.410156 68.753906 89.199219 69.074219 89.820312 C 69.214844 90.238281 69.359375 90.632812 69.464844 91.019531 C 69.484375 91.121094 69.484375 91.222656 69.464844 91.324219 C 68.929688 91.167969 67.910156 88.453125 68.226562 87.9375 Z M 69.039062 91.574219 C 68.402344 91.695312 66.878906 90.445312 66.898438 89.777344 C 67.710938 90.226562 68.378906 90.929688 69.039062 91.574219 Z M 67.207031 91.179688 C 67.6875 91.433594 68.125 91.683594 68.566406 91.945312 C 68.628906 91.980469 68.664062 92.078125 68.71875 92.15625 C 67.828125 92.328125 66.960938 91.695312 66.535156 90.972656 C 66.808594 90.839844 66.992188 91.003906 67.207031 91.179688 Z M 68.71875 92.601562 C 68.375 93.355469 66.488281 93.566406 65.703125 93.972656 C 65.414062 94.070312 65.132812 94.171875 64.859375 93.972656 C 65.453125 93.269531 67.765625 92.625 68.71875 92.601562 Z M 64.464844 104.71875 C 64.292969 104.75 64.113281 104.761719 63.9375 104.75 C 64.210938 104.140625 64.925781 103.964844 65.410156 103.554688 C 65.714844 103.257812 66.054688 102.933594 66.539062 103.105469 C 66.308594 103.71875 65.507812 103.917969 65.011719 104.378906 C 64.839844 104.507812 64.65625 104.625 64.464844 104.722656 Z M 65.199219 105.914062 C 64.648438 106.109375 64.042969 106.070312 63.519531 105.808594 C 63.773438 105.476562 64.144531 105.574219 64.507812 105.574219 C 64.648438 105.644531 64.78125 105.664062 64.894531 105.714844 C 65 105.773438 65.105469 105.839844 65.199219 105.917969 L 65.199219 105.910156 Z M 64.386719 102.148438 C 64.453125 102.085938 64.527344 102.039062 64.605469 102.007812 C 64.628906 102.128906 64.703125 102.269531 64.648438 102.367188 C 64.183594 103.078125 63.914062 104.042969 63.277344 104.59375 C 63.078125 103.90625 63.773438 103.269531 64.003906 102.613281 C 64.148438 102.449219 64.257812 102.285156 64.390625 102.15625 L 64.390625 102.148438 Z M 60.144531 101.210938 C 60.726562 101.359375 62.339844 104.042969 62.128906 104.632812 C 61.417969 103.976562 61 103.023438 60.414062 102.203125 C 60.300781 101.929688 60.183594 101.710938 60.097656 101.457031 C 60.066406 101.402344 60.132812 101.304688 60.144531 101.214844 Z M 57.941406 102.980469 C 59.09375 103.34375 60 104.097656 60.945312 104.789062 C 61.058594 104.867188 61.097656 105.050781 61.175781 105.183594 C 59.976562 104.972656 59.015625 103.984375 57.929688 103.429688 C 57.773438 103.339844 57.578125 103.164062 57.941406 102.988281 Z M 57.152344 105.226562 C 57.273438 105.207031 57.390625 105.199219 57.511719 105.203125 C 58.429688 105.421875 59.464844 105.210938 60.253906 105.769531 C 59.394531 106.023438 58.5 105.738281 57.621094 105.707031 C 57.351562 105.714844 57.226562 105.472656 57.148438 105.230469 L 57.148438 105.226562 Z M 58.160156 107.742188 C 58.75 107.207031 59.671875 106.734375 60.503906 106.726562 C 60.449219 106.867188 60.394531 107.070312 60.261719 107.128906 C 59.589844 107.34375 58.871094 107.945312 58.15625 107.746094 Z M 59.78125 108.355469 C 59.609375 107.992188 60.671875 107.480469 60.914062 107.128906 C 60.957031 107.085938 60.964844 107.050781 60.988281 107.042969 L 61.578125 106.910156 C 61.171875 107.441406 60.496094 108.480469 59.78125 108.363281 Z M 62.371094 109.183594 C 62.164062 109.71875 62.371094 110.410156 61.976562 110.894531 C 61.539062 110.269531 61.910156 109.539062 61.722656 108.8125 C 61.625 108.386719 61.910156 107.894531 62.042969 107.402344 C 62.546875 106.734375 62.589844 108.914062 62.371094 109.1875 L 62.371094 109.179688 Z M 62.542969 104.359375 C 62.742188 103.832031 62.785156 102.34375 63.257812 102.132812 C 63.738281 102.261719 62.914062 104.253906 62.683594 104.539062 C 62.644531 104.480469 62.597656 104.417969 62.546875 104.363281 L 62.546875 104.359375 Z M 64.648438 110.484375 C 64.003906 110.136719 63.90625 109.289062 63.519531 108.714844 C 63.347656 108.21875 62.796875 107.785156 62.972656 107.238281 C 63.332031 107.367188 63.410156 107.730469 63.628906 108.046875 C 64.210938 108.660156 64.429688 109.425781 64.695312 110.167969 C 64.703125 110.28125 64.6875 110.390625 64.652344 110.496094 L 64.652344 110.488281 Z M 63.609375 107.28125 C 63.71875 106.976562 64.257812 107.507812 64.527344 107.554688 C 64.628906 107.621094 64.714844 107.664062 64.746094 107.726562 C 64.796875 107.875 64.832031 108.027344 64.859375 108.183594 C 64.292969 108.226562 64.019531 107.605469 63.613281 107.289062 L 63.613281 107.28125 Z M 64.671875 106.90625 C 64.355469 106.785156 64.070312 106.699219 63.785156 106.589844 C 63.710938 106.558594 63.671875 106.417969 63.613281 106.339844 C 64.355469 106.363281 66.574219 106.734375 66.792969 107.507812 C 66.058594 107.558594 65.402344 107.132812 64.675781 106.914062 L 64.675781 106.90625 Z M 67.019531 105.277344 C 66.4375 105.351562 65.878906 105.417969 65.320312 105.460938 C 65.257812 105.460938 65.179688 105.351562 65.113281 105.308594 C 65.289062 105.003906 67.507812 104.59375 67.023438 105.28125 L 67.023438 105.277344 Z M 66.066406 96.671875 C 66.492188 95.347656 67.863281 94.617188 68.828125 93.707031 C 68.882812 93.664062 69.171875 93.375 69.136719 93.835938 C 68.171875 94.808594 67.375 96.285156 66.070312 96.679688 L 66.070312 96.671875 Z M 67.964844 97.898438 C 67.976562 97.734375 67.996094 97.574219 68.027344 97.414062 C 68.554688 96.390625 68.683594 95.152344 69.507812 94.335938 C 69.367188 95.550781 69.09375 97.257812 67.964844 97.902344 Z M 69.976562 88.734375 C 70.039062 88.449219 70.074219 88.191406 70.148438 87.9375 C 70.199219 87.832031 70.273438 87.734375 70.355469 87.652344 C 70.421875 87.75 70.566406 87.859375 70.554688 87.9375 C 70.382812 88.539062 70.574219 89.632812 70.058594 89.992188 C 69.757812 89.628906 69.984375 89.203125 69.976562 88.734375 Z M 70.019531 91.671875 C 70 91.605469 69.988281 91.539062 69.984375 91.472656 C 70.074219 90.976562 70.15625 90.476562 70.644531 90.15625 C 70.703125 90.675781 70.535156 91.195312 70.179688 91.582031 C 70.148438 91.632812 70.070312 91.648438 70.015625 91.679688 L 70.015625 91.671875 Z M 70.820312 97.1875 C 70.164062 97.230469 69.933594 93.300781 70.648438 95.007812 C 70.671875 95.78125 70.996094 96.480469 70.820312 97.195312 Z M 70.820312 94.515625 C 70.796875 94.449219 70.769531 94.429688 70.769531 94.40625 C 70.757812 94.234375 70.757812 94.0625 70.757812 93.871094 C 71.371094 94.339844 71.886719 95.066406 71.753906 95.871094 C 71.292969 95.878906 71.109375 94.898438 70.820312 94.523438 Z M 71.394531 93.53125 C 70.792969 92.457031 74.621094 93.882812 74.675781 94.285156 C 73.554688 94.402344 72.425781 93.996094 71.394531 93.53125 Z M 72.875 92.429688 C 72.402344 92.539062 71.953125 92.8125 71.492188 92.539062 C 71.875 92.089844 72.460938 92.054688 72.996094 91.839844 C 73.566406 91.535156 74.160156 91.542969 74.738281 91.511719 C 74.839844 91.511719 74.921875 91.621094 75.011719 91.679688 C 74.40625 92.152344 73.574219 92.1875 72.875 92.433594 Z M 75.789062 107.496094 C 76.105469 107.582031 76.402344 107.703125 76.710938 107.792969 C 76.773438 107.824219 76.851562 107.769531 76.929688 107.757812 C 76.796875 107.414062 76.445312 107.113281 76.542969 106.734375 C 76.914062 106.828125 77.128906 107.246094 77.347656 107.53125 C 77.519531 107.796875 76.886719 108.507812 76.660156 108.472656 C 76.539062 108.4375 76.449219 108.300781 76.34375 108.21875 C 76.175781 108.054688 75.230469 107.726562 75.789062 107.507812 Z M 76.285156 108.941406 C 76.667969 108.886719 77.207031 108.734375 77.4375 109.152344 C 77.132812 109.378906 76.824219 109.320312 76.429688 109.320312 C 76.222656 109.332031 76.046875 109.355469 75.855469 109.367188 C 76 109.21875 76.109375 109 76.285156 108.953125 Z M 76.742188 110.140625 C 76.601562 110.21875 76.46875 110.292969 76.347656 110.359375 C 76.359375 110.21875 76.296875 110.015625 76.371094 109.953125 C 76.519531 109.847656 76.683594 109.777344 76.855469 109.734375 C 76.832031 109.871094 76.792969 110.003906 76.746094 110.140625 Z M 77.160156 110.824219 C 76.875 110.457031 77.25 110.140625 77.347656 109.742188 C 77.410156 109.652344 77.484375 109.566406 77.566406 109.492188 C 77.601562 109.882812 77.601562 110.671875 77.160156 110.828125 Z M 77.785156 107.050781 C 77.785156 107.027344 77.96875 107.019531 78.058594 106.988281 C 78.410156 106.964844 78.574219 106.34375 78.695312 106.902344 C 78.695312 107.511719 78.160156 107.492188 77.851562 107.855469 C 77.820312 107.589844 77.796875 107.316406 77.785156 107.054688 Z M 78.203125 109.183594 C 78.3125 109.273438 78.421875 109.355469 78.523438 109.445312 C 78.570312 109.507812 78.601562 109.578125 78.609375 109.65625 C 78.019531 111.308594 77.605469 109.953125 78.203125 109.179688 Z M 79.09375 109.4375 C 78.875 109.292969 78.6875 109.195312 78.5 109.09375 C 78.441406 109.027344 78.402344 108.949219 78.378906 108.863281 C 78.894531 108.839844 79.867188 109.015625 80.199219 109.445312 C 79.859375 109.6875 79.492188 109.492188 79.089844 109.4375 Z M 80.121094 108.308594 C 79.726562 108.386719 79.308594 108.429688 78.859375 108.480469 C 78.761719 108.398438 78.683594 108.304688 78.609375 108.195312 C 79.136719 107.972656 79.726562 107.925781 80.285156 108.0625 C 80.230469 108.15625 80.1875 108.296875 80.125 108.304688 Z M 80.714844 94.355469 C 80.648438 94.355469 80.59375 94.292969 80.542969 94.257812 C 80.914062 93.777344 81.78125 93.832031 82.222656 94.15625 C 82.0625 94.304688 81.847656 94.378906 81.628906 94.355469 C 81.296875 94.355469 81.011719 94.367188 80.714844 94.355469 Z M 57.78125 83.484375 C 60.570312 82.289062 62.871094 80.222656 65.363281 78.539062 C 66.019531 78.0625 66.710938 77.632812 67.421875 77.246094 C 68.28125 76.796875 69.164062 76.425781 70.03125 76.046875 C 70.300781 75.925781 70.292969 75.785156 70.160156 75.585938 C 68.210938 72.785156 66.574219 69.765625 64.972656 66.753906 C 64.371094 67.523438 63.921875 68.417969 62.988281 68.847656 C 63.054688 67.988281 63.957031 67.402344 64.378906 66.691406 C 65.203125 65.664062 61.292969 61.242188 60.605469 60.113281 C 59.929688 59.375 59.417969 58.300781 58.613281 57.753906 C 56.488281 58.152344 56.429688 59.714844 55.101562 60.910156 C 55.003906 60.472656 55.421875 60.167969 55.5625 59.792969 C 55.835938 59.136719 56.34375 58.71875 56.824219 58.230469 C 54.816406 57.738281 55.246094 57.363281 54.671875 59.007812 C 54.136719 58.953125 54.925781 57.496094 54.472656 57.277344 C 52.394531 55.800781 50.855469 53.683594 50.097656 51.253906 C 50 50.910156 49.800781 51.230469 49.726562 51.425781 C 49.339844 52.507812 48.945312 53.582031 48.574219 54.675781 C 48.453125 55.453125 49.175781 56.125 49.40625 56.832031 C 50.039062 58.289062 50.273438 59.828125 50.445312 61.378906 C 50.5 61.804688 50.632812 61.902344 51.050781 61.816406 C 51.695312 61.742188 52.398438 61.445312 53.046875 61.597656 C 52.5625 62.222656 51.542969 62.109375 50.832031 62.351562 C 49.589844 62.855469 51.117188 64.125 47.742188 65.6875 C 44.113281 67.179688 44.386719 64.574219 43.738281 69.390625 C 43.773438 70.089844 43.003906 71.457031 44.035156 71.632812 C 45.40625 71.917969 47.183594 71.566406 48.09375 72.855469 C 49.113281 74.496094 50.410156 75.789062 51.746094 77.234375 C 53.171875 78.722656 53.664062 77.664062 54.886719 78.25 C 54.449219 78.4375 53.917969 78.316406 53.46875 78.539062 C 53.832031 79.042969 54.273438 78.589844 54.71875 78.707031 C 54.675781 78.730469 54.597656 78.730469 54.589844 78.761719 C 54.523438 78.933594 54.457031 79.121094 54.402344 79.3125 C 54.710938 79.210938 54.964844 79.003906 55.292969 79.023438 C 55.082031 79.238281 54.949219 79.523438 54.917969 79.820312 C 55.3125 79.734375 55.335938 79.21875 55.742188 79.21875 C 55.570312 80.347656 54.808594 79.601562 56.257812 81.167969 C 56.441406 80.671875 55.941406 80.113281 56.28125 79.667969 C 56.921875 80.0625 56.839844 83.890625 57.777344 83.488281 Z M 63.960938 73.546875 C 63.761719 72.933594 63.234375 72.347656 63.324219 71.695312 C 63.539062 71.796875 63.703125 71.980469 63.785156 72.199219 C 63.984375 72.691406 64.191406 73.140625 64.378906 73.589844 C 64.402344 73.644531 64.402344 73.722656 64.421875 73.789062 C 64.238281 73.773438 64.074219 73.6875 63.960938 73.546875 Z M 63.273438 70.464844 C 63.894531 70.441406 65.925781 71.875 66.035156 72.488281 C 65.460938 72.488281 63.472656 71.019531 63.273438 70.472656 L 63.269531 70.464844 Z M 65.980469 70.292969 C 65.082031 70.25 64.039062 70.292969 63.273438 69.8125 C 64.058594 69.515625 65.027344 69.910156 65.859375 69.933594 C 66.195312 70 66.195312 70.066406 65.984375 70.308594 L 65.976562 70.292969 Z M 64.144531 68.882812 C 64.527344 68.851562 64.90625 68.84375 65.289062 68.855469 C 65.410156 68.882812 65.523438 68.925781 65.632812 68.988281 C 65.203125 69.46875 64.535156 69.21875 63.960938 69.273438 C 63.710938 69.25 63.4375 69.328125 63.195312 69.195312 C 63.445312 68.960938 63.804688 69.003906 64.144531 68.882812 Z M 60.632812 72.703125 C 60.570312 72.601562 60.5 72.503906 60.421875 72.359375 C 60.59375 71.941406 60.765625 71.566406 60.9375 71.199219 C 60.992188 71.132812 61.054688 71.074219 61.125 71.027344 C 61.234375 71.300781 60.925781 72.59375 60.628906 72.707031 Z M 60.511719 69.824219 C 60.179688 70.375 59.558594 70.683594 58.921875 70.609375 C 58.460938 70.6875 58.03125 70.78125 57.605469 70.863281 C 57.550781 70.871094 57.484375 70.828125 57.40625 70.816406 C 57.769531 70.238281 59.90625 69.453125 60.511719 69.824219 Z M 58.675781 67.960938 C 59.0625 67.832031 60.488281 68.609375 60.566406 69.015625 C 60.355469 69.046875 60.144531 69.015625 59.953125 68.929688 C 59.558594 68.699219 59.183594 68.5 58.808594 68.28125 C 58.730469 68.230469 58.730469 68.078125 58.675781 67.96875 Z M 60.367188 70.730469 C 60.445312 70.644531 60.609375 70.652344 60.726562 70.621094 C 60.703125 70.707031 60.691406 70.804688 60.664062 70.925781 C 59.957031 71.691406 59.578125 73.070312 58.414062 73.152344 C 58.765625 72.210938 59.757812 71.542969 60.367188 70.734375 Z M 62.460938 71.429688 C 62.429688 71.222656 62.199219 70.453125 62.585938 70.730469 C 63.078125 71.230469 62.835938 73.035156 62.460938 71.433594 Z M 62.867188 64.089844 C 62.96875 64.382812 63.066406 64.601562 63.023438 64.917969 C 62.804688 65.992188 62.585938 67.03125 62.335938 68.058594 C 62.320312 68.136719 62.191406 68.203125 62.117188 68.269531 C 61.703125 68.074219 62.515625 64.398438 62.867188 64.089844 Z M 61.714844 70.871094 C 62.308594 71.386719 62.164062 72.285156 62.1875 73.027344 C 62.1875 73.371094 62.195312 73.683594 62.1875 73.988281 C 62.152344 74.097656 62.101562 74.199219 62.035156 74.285156 C 61.476562 73.5625 61.835938 72.445312 61.691406 71.570312 C 61.597656 71.347656 61.605469 71.089844 61.714844 70.875 Z M 60.585938 64.175781 C 61.101562 65.105469 61.15625 66.230469 61.429688 67.257812 C 61.441406 67.429688 61.425781 67.601562 61.382812 67.769531 C 60.738281 67.101562 60.519531 65.734375 60.421875 64.761719 C 60.484375 64.527344 60.53125 64.355469 60.585938 64.179688 Z M 60.027344 67.328125 C 60.132812 67.472656 60.230469 67.625 60.3125 67.789062 C 60.347656 67.890625 60.375 67.988281 60.390625 68.09375 C 59.6875 67.921875 59.191406 67.011719 58.765625 66.453125 C 59.335938 66.457031 59.597656 67.015625 60.027344 67.332031 Z M 57.238281 60.160156 C 57.007812 60.71875 56.4375 60.761719 55.945312 60.992188 C 55.613281 60.675781 56.921875 60.027344 57.238281 60.164062 Z M 59.335938 61.046875 C 58.949219 61.417969 58.28125 61.332031 57.777344 61.496094 C 57.195312 61.625 56.683594 61.746094 56.0625 61.839844 C 55.945312 61.78125 55.832031 61.710938 55.730469 61.628906 C 56.8125 61.179688 58.214844 60.664062 59.335938 61.050781 Z M 55.757812 65.175781 C 55.605469 65.003906 55.460938 64.886719 55.414062 64.660156 C 55.292969 64.113281 54.660156 63.378906 54.976562 62.921875 C 55.574219 63.425781 56.089844 64.433594 55.757812 65.179688 Z M 55.003906 59.265625 C 55.519531 59.417969 54.730469 60.261719 54.644531 60.609375 C 54.566406 60.722656 54.414062 60.585938 54.402344 60.5 C 54.367188 59.96875 54.6875 59.660156 55.003906 59.265625 Z M 54.554688 63.675781 C 54.609375 63.726562 54.726562 63.785156 54.726562 63.859375 C 54.664062 64.472656 55.023438 65.753906 54.640625 66.179688 C 54.28125 65.417969 54.136719 64.421875 54.554688 63.679688 Z M 52.953125 56.734375 C 53.347656 57.867188 53.632812 59.03125 53.796875 60.21875 C 53.710938 60.152344 53.628906 60.078125 53.554688 60 C 53.433594 59.082031 52.152344 57.398438 52.949219 56.738281 Z M 51.503906 58.585938 C 52.085938 58.929688 52.503906 59.539062 53.003906 59.988281 C 53.175781 60.128906 53.175781 60.390625 53.257812 60.589844 C 52.800781 60.449219 52.511719 60.132812 52.152344 59.8125 C 52.011719 59.511719 50.980469 58.742188 51.503906 58.59375 Z M 50.878906 59.769531 C 51.769531 59.8125 52.40625 60.601562 53.125 61.050781 C 52.191406 61.238281 51.378906 60.460938 50.878906 59.773438 Z M 50.101562 65.421875 C 49.609375 65.113281 52.863281 62.566406 53.292969 62.617188 C 53.203125 63.152344 52.753906 63.371094 52.371094 63.746094 C 51.578125 64.261719 51.019531 65.222656 50.101562 65.421875 Z M 51.933594 66.769531 C 51.832031 66.558594 53.808594 62.488281 53.710938 63.660156 C 53.195312 64.480469 52.875 66.59375 51.933594 66.769531 Z M 53.132812 76.890625 C 53.03125 76.785156 52.9375 76.667969 52.859375 76.542969 C 53.367188 76.433594 54.84375 77.179688 54.976562 77.683594 C 54.289062 77.792969 53.785156 77.148438 53.140625 76.894531 L 53.132812 76.894531 Z M 55.363281 77.382812 C 55.113281 77.066406 54.628906 76.320312 54.945312 75.972656 C 55.242188 76.238281 55.277344 76.628906 55.453125 77 C 55.4375 77.132812 55.414062 77.257812 55.378906 77.382812 Z M 55.757812 76.890625 C 55.695312 76.804688 55.585938 76.722656 55.558594 76.640625 C 55.515625 76.34375 55.507812 76.046875 55.472656 75.722656 C 55.539062 75.585938 55.617188 75.453125 55.703125 75.328125 C 55.972656 75.808594 56 76.390625 55.769531 76.890625 L 55.753906 76.890625 Z M 55.75 62.75 C 55.628906 62.695312 55.5625 62.550781 55.476562 62.445312 C 56.277344 62.070312 57.003906 62.550781 57.644531 62.949219 C 58.039062 63.210938 58.566406 63.273438 58.90625 63.632812 C 58.433594 63.921875 57.839844 63.53125 57.339844 63.414062 C 56.804688 63.179688 56.265625 62.980469 55.761719 62.75 Z M 56.464844 76.539062 C 56.808594 76.101562 56.878906 75.324219 57.472656 75.238281 C 57.742188 75.761719 55.925781 78.09375 56.472656 76.539062 L 56.460938 76.539062 Z M 56.761719 77.492188 C 57.398438 77.148438 57.933594 76.453125 58.65625 76.429688 C 58.515625 77.097656 57.703125 77.257812 57.222656 77.710938 C 57.015625 77.875 56.503906 77.8125 56.773438 77.492188 Z M 56.75 78.488281 C 56.847656 78.199219 59.28125 78.144531 59.492188 78.375 C 59.390625 78.464844 59.308594 78.617188 59.1875 78.628906 C 58.445312 78.808594 57.675781 78.851562 56.917969 78.75 C 57.058594 79.308594 58.117188 79.308594 57.96875 79.972656 C 57.683594 79.871094 57.488281 79.628906 57.191406 79.566406 C 57.347656 80.003906 57.828125 80.289062 57.816406 80.78125 C 57.71875 80.757812 57.632812 80.746094 57.511719 80.714844 C 56.75 79.902344 56.609375 79.542969 56.761719 78.480469 L 56.75 78.480469 Z M 56.75 78.488281 "/>
<path style=" stroke:none;fill-rule:nonzero;fill:rgb(97.254902%,71.764708%,71.764708%);fill-opacity:1;" d="M 39.644531 55.429688 C 39.472656 56.921875 39.699219 58.40625 39.84375 59.882812 C 40.785156 58.703125 41.785156 57.335938 41.808594 55.738281 C 41.71875 54.730469 41.523438 52.246094 40.78125 51.644531 C 40.304688 52.917969 39.898438 54.078125 39.648438 55.433594 Z M 39.644531 55.429688 "/>
<path style=" stroke:none;fill-rule:nonzero;fill:rgb(0%,0%,0%);fill-opacity:1;" d="M 89.484375 106.480469 C 87.253906 101.664062 85.230469 96.761719 83.132812 91.878906 C 80.765625 86.023438 77.605469 79.96875 72.199219 76.382812 C 70.25 75.144531 69.578125 72.898438 68.558594 70.960938 C 67.648438 69.003906 66.703125 67.042969 65.539062 65.226562 C 63.960938 62.398438 62.042969 59.769531 59.835938 57.390625 C 59.136719 56.667969 58.464844 55.957031 58.148438 55.003906 C 57.433594 53.539062 57.75 52.058594 58.257812 50.59375 C 59.027344 48.253906 60.035156 46.007812 60.914062 43.710938 C 63.382812 36.234375 65.992188 28.734375 67.222656 20.9375 C 67.605469 19.097656 68.054688 17.28125 68.386719 15.441406 C 68.679688 14.3125 68.671875 13.023438 69.273438 12.003906 C 70.261719 10.488281 75.503906 5.15625 74.9375 3.792969 C 75.78125 2.183594 74.71875 -0.433594 72.636719 0.117188 C 71.527344 0.269531 70.847656 1.363281 70.035156 2.054688 C 69.53125 2.597656 69.441406 2.644531 69.070312 2.039062 C 68.8125 1.578125 68.230469 1.40625 67.765625 1.667969 C 67.585938 1.769531 67.441406 1.921875 67.351562 2.109375 C 67.1875 2.515625 66.984375 2.90625 66.75 3.277344 C 65.953125 4.351562 64.777344 5.347656 64.722656 6.769531 C 64.722656 9.089844 64.5 11.367188 63.777344 13.578125 C 63.121094 16.214844 62.449219 18.839844 61.582031 21.414062 C 59.597656 27.285156 57.304688 33.050781 54.71875 38.683594 C 52.855469 42.875 50.507812 46.816406 48.667969 51.011719 C 48.113281 52.128906 47.722656 53.320312 47.503906 54.546875 C 47.152344 55.445312 46.476562 54.117188 46.363281 53.734375 C 45.976562 51.875 45.789062 49.96875 45.320312 48.140625 C 44.746094 46.097656 43.839844 44.179688 43.015625 42.234375 C 42.433594 40.613281 41.195312 39.367188 40.40625 37.878906 C 40.132812 36.980469 39.832031 36.125 39.242188 35.339844 C 37.136719 32.46875 33.878906 30.621094 30.460938 29.777344 C 28.988281 29.667969 29.996094 28.214844 28.671875 28.539062 C 25.019531 29.566406 21.3125 27.257812 17.714844 28.628906 C 16.980469 28.898438 16.214844 29.167969 15.554688 29.582031 C 14.960938 29.953125 14.742188 29.722656 14.679688 29.238281 C 14.609375 28.855469 14.347656 28.707031 13.992188 28.878906 C 13.148438 29.460938 12.863281 30.621094 11.785156 30.960938 C 11.050781 31.148438 9.066406 32.359375 9.320312 30.8125 C 9.492188 29.964844 9.703125 29.136719 9.933594 28.304688 C 10.195312 27.691406 9.449219 27.242188 8.988281 27.714844 C 6.722656 29.519531 7.761719 32.464844 5.492188 28.445312 C 4.976562 27.582031 4.289062 28.261719 4.289062 28.972656 C 4.238281 29.234375 4.136719 29.4375 3.820312 29.375 C 2.789062 29.089844 1.011719 28.542969 1.78125 30.273438 C 3.574219 32.601562 1.929688 31.191406 1.765625 32.777344 C 1.789062 33.523438 2.140625 34.105469 2.589844 34.648438 C 3.355469 35.554688 1.601562 35.589844 1.5625 36.46875 C 1.386719 36.992188 1.121094 37.492188 1.035156 38.042969 C 1.757812 38.214844 2.484375 38.007812 3.195312 38.214844 C 4.765625 39.582031 2.042969 41.71875 0.640625 42.078125 C 0.136719 42.25 -0.160156 42.625 0.105469 43.0625 C 0.449219 43.972656 1.976562 43.613281 2.011719 44.375 C 0.847656 47.558594 -0.0859375 50.878906 0.597656 54.28125 C 0.726562 55.078125 1.023438 55.820312 1.285156 56.578125 C 1.4375 56.972656 1.667969 57.355469 2.175781 57.476562 C 2.367188 57.550781 2.519531 57.695312 2.601562 57.882812 C 3.445312 61.40625 5.433594 64.417969 7.164062 67.570312 C 7.492188 68.171875 7.582031 68.226562 8.230469 68.03125 C 8.4375 67.9375 8.675781 68.03125 8.765625 68.234375 C 8.769531 68.246094 8.773438 68.253906 8.777344 68.257812 C 9.820312 70.117188 11.488281 71.792969 13.703125 72.125 C 15.863281 72.332031 13.617188 70.109375 13.75 69.234375 C 13.824219 69.195312 13.917969 69.1875 14 69.210938 C 14.902344 69.648438 15.84375 70.042969 16.699219 70.570312 C 18.398438 71.632812 20.046875 72.777344 21.484375 74.214844 C 21.691406 74.417969 22.027344 74.410156 22.226562 74.203125 C 22.324219 74.101562 22.378906 73.964844 22.371094 73.820312 C 22.5 73.375 21.734375 72.070312 22.433594 72.039062 C 23.007812 72.082031 23.089844 71.710938 23.222656 71.324219 C 23.421875 70.351562 24.96875 72.191406 25.472656 72.378906 C 26.730469 73.078125 25.890625 70.933594 27.160156 71.382812 C 27.9375 71.472656 29.277344 71.515625 29.574219 70.640625 C 29.652344 70.324219 29.847656 70.269531 30.089844 70.167969 C 31.109375 69.824219 32.085938 69.292969 33.0625 68.855469 C 36.339844 67.949219 39.335938 66.097656 41.878906 63.878906 C 45.082031 60.144531 43.152344 65.390625 42.832031 67.011719 C 41.484375 72.417969 43.347656 77.8125 44.839844 82.992188 C 46.367188 90.792969 48.15625 98.554688 49.097656 106.46875 C 49.054688 107.652344 49.492188 108.714844 48.660156 109.699219 C 46.894531 111.734375 43.195312 111.679688 42.382812 114.664062 C 41.769531 116.007812 42.679688 116.226562 42.296875 117.136719 C 41.230469 118.917969 41.078125 120.40625 43.570312 119.761719 C 44.445312 119.417969 48.71875 115.140625 49.117188 116.804688 C 49.117188 118.597656 51.355469 119.148438 51.871094 117.382812 C 51.90625 116.074219 52.457031 114.878906 52.925781 113.683594 C 53.140625 113.207031 53.296875 112.707031 53.398438 112.195312 C 53.5625 111.320312 53.589844 110.429688 53.472656 109.542969 C 53.464844 106.085938 53.199219 102.648438 53.300781 99.179688 C 53.101562 94.769531 52.929688 90.355469 52.46875 85.980469 C 52.46875 83.660156 51.65625 81.359375 51.679688 79.03125 C 52.863281 79.433594 53.675781 80.628906 54.71875 81.308594 C 55.882812 82.242188 56.488281 83.476562 56.738281 84.902344 C 56.851562 87.171875 57.253906 89.433594 57.15625 91.726562 C 56.894531 96.09375 56.457031 100.492188 55.488281 104.78125 C 55.007812 107.300781 54.597656 109.839844 54.054688 112.332031 C 53.835938 113.339844 53.589844 114.335938 53.320312 115.332031 C 52.410156 119.644531 51.652344 119.875 55.863281 122.414062 C 56.058594 122.476562 56.1875 122.664062 56.171875 122.871094 C 56.222656 127.835938 55.882812 132.851562 56.738281 137.765625 C 57.34375 142.21875 58.042969 146.097656 62.917969 147.574219 C 64.632812 148.066406 66.394531 147.976562 68.128906 147.871094 C 69.195312 147.640625 69.957031 146.449219 69.84375 145.398438 C 69.8125 144.953125 69.605469 144.542969 69.261719 144.257812 C 68.914062 144.003906 68.511719 143.832031 68.089844 143.753906 C 66.117188 143.402344 64.484375 142.066406 63.226562 140.558594 C 61.59375 138.542969 62.757812 133.804688 63.019531 131.253906 C 63.402344 128.828125 63.71875 126.382812 64.289062 124 C 64.433594 122.5 65.5625 122.6875 66.671875 122.160156 C 67.714844 121.558594 67.179688 123.175781 68.140625 123.089844 C 68.5625 123.070312 68.980469 123.074219 69.402344 123.101562 C 70.652344 123.222656 71.804688 122.796875 72.96875 122.476562 C 73.449219 122.355469 73.65625 122.476562 73.667969 122.960938 C 73.691406 123.484375 73.59375 124.0625 73.78125 124.535156 C 74.140625 125.476562 73.921875 126.453125 74.140625 127.394531 C 74.351562 130.109375 74.457031 132.890625 74.503906 135.625 C 74.722656 138.667969 73.832031 141.839844 71.386719 143.832031 C 71.003906 144.222656 70.816406 144.761719 70.871094 145.308594 C 70.898438 145.617188 71 145.914062 71.167969 146.171875 C 72.054688 147.472656 75.488281 147.269531 76.597656 146.207031 C 78.191406 144.75 78 142.375 78.441406 140.445312 C 79.285156 136.363281 80.261719 132.3125 81.015625 128.199219 C 81.710938 124.726562 82.007812 121.183594 81.902344 117.648438 C 81.902344 116.539062 85.085938 114.40625 85.953125 113.34375 C 87.242188 112.105469 88.449219 110.773438 89.554688 109.371094 C 90.34375 108.480469 89.96875 107.363281 89.496094 106.480469 Z M 50.457031 49.980469 C 51.105469 48.695312 51.785156 47.460938 52.433594 46.179688 C 54.757812 41.152344 57.371094 36.230469 59.265625 31 C 61.65625 24.808594 63.632812 18.464844 65.179688 12.011719 C 65.851562 7.902344 64.894531 5.75 68.328125 2.46875 C 68.785156 3.464844 68.128906 4.535156 67.515625 5.3125 C 67.4375 5.402344 67.4375 5.566406 67.394531 5.707031 C 68.566406 5.214844 69.222656 3.945312 70.191406 3.136719 C 70.890625 2.4375 71.628906 1.769531 72.339844 1.082031 C 72.605469 0.777344 73.03125 0.898438 73.371094 0.875 C 72.855469 1.769531 70.625 3.390625 70.671875 4.222656 C 71.714844 3.867188 73.226562 1.074219 73.988281 1.359375 C 74.226562 1.730469 73.765625 1.941406 73.570312 2.191406 C 72.898438 3.15625 71.878906 3.972656 71.417969 5.039062 C 72.523438 4.785156 73.292969 2.511719 74.324219 2.332031 C 74.507812 2.761719 74.332031 3.054688 74.003906 3.328125 C 73.144531 4.191406 72.097656 4.960938 71.480469 6.023438 C 72.480469 5.78125 73.179688 4.410156 74.039062 3.796875 C 74.085938 4.859375 73.28125 5.667969 72.660156 6.457031 C 71.332031 8.019531 70.003906 9.609375 68.785156 11.257812 C 67.691406 13.078125 67.515625 15.285156 66.960938 17.316406 C 66.347656 19.527344 66.097656 21.8125 65.546875 24.035156 C 64.363281 29.652344 62.554688 35.058594 60.753906 40.488281 C 60.105469 42.183594 59.460938 43.882812 58.867188 45.609375 C 58.042969 47.625 57.152344 49.625 56.714844 51.78125 C 55.855469 54.652344 58.132812 55.535156 57.957031 57.3125 C 54.972656 58.691406 51.121094 53.164062 50.3125 50.722656 C 50.226562 50.535156 50.347656 50.199219 50.457031 49.980469 Z M 45.839844 54.722656 C 46.335938 55.046875 46.363281 55.695312 46.992188 55.917969 C 48.824219 56.519531 47.785156 53.691406 49.273438 58.109375 C 49.832031 60.792969 50.558594 63.910156 47.386719 65.167969 C 46.972656 65.351562 44.28125 66.363281 44.414062 65.492188 C 44.523438 64.828125 44.597656 64.160156 44.730469 63.492188 C 44.839844 61.75 43.316406 61.425781 43.84375 60.777344 C 44.996094 59.222656 45.664062 57.359375 45.761719 55.425781 C 45.707031 55.171875 45.621094 54.949219 45.839844 54.722656 Z M 16.738281 67.449219 C 17.296875 67.753906 17.867188 68.03125 18.40625 68.367188 C 19.433594 69.273438 20.121094 70.753906 20.609375 72.003906 C 18.308594 69.777344 15.292969 68.554688 12.617188 66.816406 C 11.164062 65.796875 9.953125 64.476562 9.0625 62.941406 C 8.890625 62.636719 8.878906 62.226562 8.40625 62.121094 C 8.175781 62.066406 8.1875 62.183594 8.234375 62.273438 C 9.03125 64.113281 10.097656 65.699219 11.621094 67.023438 C 12.050781 67.738281 11.992188 68.675781 12.269531 69.476562 C 12.335938 69.835938 12.707031 70.113281 12.652344 70.503906 C 9.867188 68.835938 8.363281 64.984375 7.039062 62.113281 C 6.882812 61.808594 6.75 61.425781 6.335938 61.425781 C 6.554688 62.378906 6.851562 63.3125 7.082031 64.261719 C 7.148438 64.621094 7.410156 64.996094 7.214844 65.355469 C 5.542969 62.617188 4.125 59.421875 3.515625 56.175781 C 3.414062 55.648438 3.34375 55.109375 3.285156 54.585938 C 3.199219 53.414062 3.46875 52.242188 4.066406 51.226562 C 4.273438 50.996094 4.195312 50.667969 4.238281 50.386719 C 2.875 51.480469 2.910156 53.417969 2.109375 54.820312 C 1.054688 52.34375 1.660156 49.566406 2.363281 47.070312 C 2.9375 45.160156 3.835938 43.367188 5.027344 41.761719 C 5.253906 41.578125 5.472656 41.417969 5.496094 41.09375 C 4.902344 40.90625 4.355469 42.019531 3.894531 42.382812 C 3.796875 42.507812 3.71875 42.644531 3.65625 42.792969 C 3.257812 43.316406 2.371094 42.960938 1.871094 42.800781 C 3 41.9375 4.503906 41.367188 4.777344 39.746094 C 5.101562 38.09375 3.929688 36.921875 2.371094 37.195312 C 2.996094 36.21875 4.359375 35.859375 5.5 36.042969 C 5.664062 36.046875 5.824219 36.015625 5.96875 35.941406 C 5.882812 35.820312 5.796875 35.617188 5.671875 35.601562 C 4.949219 35.457031 4.511719 34.847656 3.894531 34.539062 C 3.695312 34.398438 3.566406 34.175781 3.550781 33.933594 C 3.796875 34 5.898438 35.027344 5.347656 34.25 C 4.867188 33.933594 4.230469 33.910156 4.210938 33.1875 C 4.117188 32.277344 3.835938 31.394531 3.386719 30.59375 C 3.9375 30.453125 5.207031 31.808594 5.308594 32.378906 C 5.386719 32.652344 5.703125 32.699219 5.910156 32.816406 C 5.945312 32.015625 5.253906 31.347656 5.429688 30.5625 C 5.925781 31.207031 6.921875 31.625 7.175781 32.402344 C 6.878906 33.519531 7.195312 34.601562 7.316406 35.71875 C 7.351562 35.871094 7.46875 36.136719 7.535156 36.136719 C 7.800781 36.125 7.734375 35.882812 7.722656 35.707031 C 7.710938 34.261719 7.390625 32.523438 8.269531 31.320312 C 8.382812 32.488281 8.402344 33.933594 9.234375 34.824219 C 9.644531 34.296875 9.027344 33.609375 9.007812 33.015625 C 8.929688 32.054688 10.652344 33.136719 12.199219 32.097656 C 12.976562 31.871094 13.253906 31.074219 13.914062 30.675781 C 13.898438 31.210938 13.496094 31.605469 13.554688 32.144531 C 14.242188 31.988281 14.695312 31.398438 15.285156 31.070312 C 17.191406 29.832031 19.660156 29.035156 21.933594 29.550781 C 22.941406 29.613281 23.949219 29.691406 24.957031 29.722656 C 25.660156 29.796875 26.4375 29.46875 27.085938 29.785156 C 26.011719 30.542969 24.800781 31.085938 23.523438 31.394531 C 22.929688 31.582031 22.171875 31.417969 21.722656 31.921875 C 21.855469 31.964844 21.964844 32.09375 22.082031 32.070312 C 24.035156 32.125 25.6875 31.097656 27.425781 30.398438 C 29.3125 30.285156 31.011719 31.152344 32.734375 31.808594 C 34.742188 32.652344 36.652344 34.007812 37.980469 35.695312 C 37.394531 35.796875 36.804688 35.277344 36.3125 35.007812 C 35.6875 34.546875 35.304688 33.769531 34.492188 33.574219 C 35.269531 35.019531 36.433594 36.226562 37.101562 37.746094 C 37.226562 37.882812 37.25 38.085938 37.167969 38.25 C 35.335938 36.984375 33.316406 36.011719 31.1875 35.363281 C 30.515625 35.21875 29.796875 34.574219 29.179688 34.976562 C 29.246094 35.066406 29.300781 35.195312 29.378906 35.21875 C 30.550781 35.664062 31.800781 36.242188 32.699219 37.109375 C 32.570312 37.109375 32.429688 37.1875 32.332031 37.144531 C 31.492188 36.777344 30.585938 36.582031 29.664062 36.566406 C 28.949219 36.542969 28.214844 36.347656 27.523438 36.445312 C 26.710938 36.617188 25.792969 36.257812 25.078125 36.617188 C 25.382812 37.273438 27.117188 36.726562 27.675781 37.339844 C 27.511719 37.480469 27.292969 37.539062 27.082031 37.492188 C 26.304688 37.339844 25.59375 37.644531 24.867188 37.832031 C 22.464844 38.40625 20.730469 40.417969 18.464844 41.164062 C 18.015625 41.261719 14.582031 40.832031 14.78125 41.292969 C 14.765625 41.582031 15.007812 41.480469 15.175781 41.503906 C 17.542969 41.984375 19.96875 41.703125 22.3125 41.382812 C 21.074219 43.011719 19.253906 44.269531 17.464844 45.300781 C 16.960938 45.617188 16.3125 45.804688 15.9375 46.296875 C 17.242188 46.566406 18.570312 46.175781 19.847656 46.109375 C 19.550781 46.722656 17.992188 47.480469 17.289062 47.632812 C 16.269531 47.65625 15.203125 47.371094 14.175781 47.285156 C 11.070312 46.847656 9.820312 46.925781 7.925781 44.203125 C 8.472656 48.339844 14.507812 47.421875 17.464844 48.691406 C 18.035156 48.863281 20.648438 50.507812 19.496094 51.03125 C 18.769531 51.269531 18.230469 51.929688 17.410156 51.972656 C 17.332031 51.972656 17.277344 52.144531 17.199219 52.246094 C 18.042969 52.738281 19.171875 52.519531 20.125 52.738281 C 18.164062 54.171875 15.5625 54.371094 13.304688 55.070312 C 12.195312 55.464844 11.035156 55.367188 9.902344 55.527344 C 9.167969 55.726562 8.222656 54.992188 7.558594 55.484375 C 8.367188 56.128906 10.824219 56.195312 11.910156 56.128906 C 13.195312 56.128906 14.828125 55.003906 15.839844 56.117188 C 11.703125 55.84375 8.578125 60.054688 6.273438 58.546875 C 4.78125 57.703125 4.453125 55.777344 4.300781 54.191406 C 4.375 53.761719 4.433594 53.390625 4.101562 53.039062 C 3.820312 54.023438 3.773438 55.058594 3.960938 56.058594 C 4.277344 57.898438 5.320312 59.609375 7.195312 59.628906 C 7.800781 59.695312 8.6875 59.136719 9.074219 59.800781 C 10.730469 62.371094 13.050781 64.453125 15.785156 65.832031 C 17.167969 66.703125 20.488281 67.621094 20.851562 69.15625 C 20.707031 69.136719 20.507812 69.15625 20.433594 69.082031 C 19.796875 68.339844 18.933594 67.964844 18.097656 67.542969 C 16.988281 67.050781 15.863281 66.316406 14.683594 66.066406 C 15.0625 66.824219 16.09375 66.976562 16.742188 67.449219 Z M 23.671875 42.527344 C 22.128906 43.640625 21.847656 45.765625 22.527344 47.429688 C 22.402344 47.417969 22.277344 47.394531 22.15625 47.367188 C 21.984375 47.296875 21.835938 47.195312 21.664062 47.113281 C 19.992188 46.226562 21.59375 46.128906 21.773438 44.886719 C 20.996094 44.746094 20.3125 45.664062 19.601562 45.058594 C 20.03125 44.148438 21.160156 43.785156 21.808594 43.042969 C 22.621094 42.257812 23.375 41.402344 23.914062 40.382812 C 24.417969 39.714844 20.746094 41.195312 20.371094 40.886719 C 21.664062 39.980469 23.324219 39.464844 24.714844 38.660156 C 28.082031 36.949219 31.617188 40.714844 31.042969 44.046875 C 29.363281 41.996094 25.953125 40.761719 23.675781 42.527344 Z M 29.242188 47.921875 C 28.1875 48.9375 26.488281 48.722656 25.183594 48.308594 C 24.285156 48.097656 23.089844 48.089844 22.878906 46.9375 C 21.453125 41.75 27.769531 40.851562 30.589844 44.148438 C 31.699219 44.652344 29.855469 47.398438 29.242188 47.921875 Z M 18.933594 45.460938 C 18.9375 45.550781 18.894531 45.636719 18.820312 45.691406 C 18.382812 45.722656 17.832031 46.082031 17.4375 45.820312 C 17.488281 45.773438 17.539062 45.730469 17.589844 45.691406 C 17.761719 45.613281 17.960938 45.519531 18.148438 45.4375 C 18.445312 45.351562 18.773438 45.132812 18.929688 45.460938 Z M 18.636719 60.304688 C 20.140625 62.515625 23.15625 62.875 25.570312 62.207031 C 23.320312 66.039062 17.488281 64.476562 14.710938 61.96875 C 13.554688 60.980469 12.769531 59.632812 12.480469 58.136719 C 12.351562 57.601562 12.523438 57.40625 13.007812 57.265625 C 14.277344 56.816406 15.59375 56.386719 16.914062 56.96875 C 16.878906 56.28125 16.046875 55.894531 15.671875 55.335938 C 15.773438 55.292969 15.882812 55.257812 15.980469 55.226562 C 16.695312 54.996094 17.394531 54.753906 18.105469 54.511719 C 18.984375 54.148438 19.972656 54.148438 20.851562 54.511719 C 17.976562 55.183594 16.75 57.84375 18.636719 60.304688 Z M 21.433594 54.929688 C 23.855469 54.984375 26.84375 57.625 26.40625 60.203125 C 26.121094 62.085938 24.675781 61.886719 23.40625 62.0625 C 21.132812 61.984375 18.675781 60.773438 18.28125 58.328125 C 17.914062 56.449219 19.734375 55.066406 21.433594 54.925781 Z M 26.480469 70.167969 C 25.667969 70.234375 24.964844 69.675781 24.195312 69.46875 C 24.058594 69.421875 23.90625 69.445312 23.792969 69.535156 C 23.507812 69.875 22.542969 69.164062 22.09375 69.105469 C 21.65625 68.996094 21.5 68.757812 21.292969 68.394531 C 22.136719 68.457031 22.9375 68.753906 23.75 68.941406 C 25.558594 69.414062 27.457031 68.855469 29.238281 69.140625 C 28.914062 69.773438 24.683594 69.09375 26.480469 70.167969 Z M 40.023438 63.820312 C 36.890625 66.277344 33.136719 67.824219 29.179688 68.285156 C 26.226562 68.808594 23.199219 68.15625 20.40625 67.222656 C 17.191406 65.941406 13.996094 64.3125 11.574219 61.785156 C 11.269531 61.28125 9.25 59.558594 9.710938 59.089844 C 13.359375 56.453125 9.996094 60.1875 15.554688 63.601562 C 18.210938 65.265625 22.027344 65.921875 24.746094 64.070312 C 27.300781 62.277344 28.027344 58.171875 25.328125 56.15625 C 23.773438 54.746094 21.699219 54.175781 19.714844 53.773438 C 20.371094 53.222656 21.269531 52.855469 21.636719 52 C 20.691406 51.828125 19.671875 52.402344 18.78125 52.109375 C 19.21875 51.484375 21 51.476562 20.511719 50.480469 C 19.988281 49.34375 18.9375 48.816406 18.023438 48.070312 C 18.648438 47.820312 20.042969 46.78125 20.582031 47.214844 C 22.796875 48.5625 25.40625 49.296875 27.996094 49.132812 C 31.835938 48.34375 32.769531 42.222656 30.253906 39.644531 C 29.671875 38.957031 29.101562 38.363281 28.234375 38.167969 C 28.179688 38.152344 28.132812 38.054688 28.078125 38.011719 C 28.527344 37.804688 29.046875 37.96875 29.503906 37.757812 C 29.253906 37.3125 28.644531 37.429688 28.332031 37.050781 C 28.816406 36.832031 29.320312 37.09375 29.800781 37.171875 C 30.832031 37.421875 31.863281 37.664062 32.890625 37.9375 C 33.394531 38.046875 33.824219 38.460938 34.371094 38.296875 C 34.199219 37.589844 33.382812 37.324219 33.019531 36.722656 C 34.984375 37.019531 36.851562 39.21875 38.582031 40.179688 C 38.738281 39.46875 38.238281 38.769531 38.011719 38.097656 C 37.726562 37.414062 37.152344 36.839844 37.015625 36.085938 C 39.890625 37.125 42.785156 44.511719 43.75 47.4375 C 45.855469 54.164062 45.992188 59.128906 40.023438 63.824219 Z M 45.40625 112.84375 C 45.375 112.90625 45.332031 112.964844 45.28125 113.015625 C 45.140625 113.167969 44.988281 113.3125 44.84375 113.460938 C 44.363281 114.042969 43.816406 114.5 43.644531 115.226562 C 43.601562 115.398438 43.347656 115.519531 43.195312 115.664062 C 43.03125 114.679688 44.457031 112.90625 45.402344 112.84375 Z M 52.203125 100.21875 C 52.335938 103.761719 52.402344 107.3125 52.546875 110.855469 C 52.601562 111.917969 52.308594 112.910156 51.898438 113.84375 C 51.5 114.71875 51.207031 115.636719 51.035156 116.582031 C 50.933594 116.808594 50.863281 117.597656 50.472656 117.421875 C 49.234375 116.558594 51.121094 113.582031 50.289062 113.109375 C 50.015625 113.03125 50.117188 113.28125 50.117188 113.40625 C 50.238281 115.460938 47.835938 115.527344 46.460938 116.4375 C 45.835938 116.898438 45.261719 117.292969 44.675781 117.726562 C 43.953125 118.15625 43.402344 119.027344 42.503906 119.007812 C 43.195312 117.550781 44.953125 116.828125 45.871094 115.503906 C 45.070312 115.527344 44.570312 116.34375 43.941406 116.777344 C 43.929688 115.578125 45.738281 114.945312 46.058594 113.941406 C 45.191406 113.972656 44.929688 115.136719 44.117188 115.25 C 44.289062 114.265625 45.816406 113.097656 46.441406 112.199219 C 47.464844 111.828125 48.460938 111.429688 49.1875 110.589844 C 50.558594 109.167969 49.941406 106.933594 49.765625 105.171875 C 49.820312 102.710938 49.109375 100.300781 48.757812 97.859375 C 48.453125 94.816406 47.640625 91.867188 47.167969 88.863281 C 46.519531 84.242188 45.136719 79.757812 44 75.246094 C 43.828125 74.351562 43.746094 73.417969 43.648438 72.5 C 43.613281 72.074219 43.804688 71.964844 44.222656 72.050781 C 44.964844 72.222656 45.8125 72.164062 46.535156 72.402344 C 47.984375 73.289062 48.769531 75.003906 49.859375 76.261719 C 50.265625 77.140625 50.148438 78.199219 50.351562 79.152344 C 51.558594 86.109375 52.007812 93.148438 52.210938 100.210938 Z M 56.269531 79.652344 C 55.925781 80.097656 56.441406 80.65625 56.246094 81.152344 C 54.796875 79.582031 55.558594 80.328125 55.730469 79.203125 C 55.324219 79.203125 55.304688 79.71875 54.910156 79.804688 C 54.941406 79.503906 55.070312 79.222656 55.285156 79.007812 C 54.953125 78.984375 54.699219 79.191406 54.394531 79.292969 C 54.449219 79.109375 54.515625 78.921875 54.578125 78.746094 C 54.59375 78.710938 54.667969 78.710938 54.710938 78.691406 C 54.261719 78.582031 53.820312 79.035156 53.460938 78.519531 C 53.910156 78.300781 54.4375 78.421875 54.875 78.234375 C 53.660156 77.640625 53.160156 78.707031 51.738281 77.21875 C 50.398438 75.773438 49.105469 74.480469 48.085938 72.839844 C 47.175781 71.546875 45.398438 71.898438 44.027344 71.617188 C 42.996094 71.445312 43.761719 70.074219 43.730469 69.371094 C 44.375 64.554688 44.101562 67.164062 47.734375 65.671875 C 51.101562 64.109375 49.578125 62.839844 50.820312 62.335938 C 51.53125 62.09375 52.554688 62.203125 53.035156 61.578125 C 52.386719 61.425781 51.6875 61.722656 51.039062 61.796875 C 50.621094 61.886719 50.492188 61.789062 50.4375 61.359375 C 50.265625 59.820312 50.027344 58.28125 49.394531 56.816406 C 49.164062 56.101562 48.441406 55.4375 48.5625 54.660156 C 48.933594 53.566406 49.332031 52.496094 49.714844 51.40625 C 49.792969 51.222656 49.988281 50.902344 50.085938 51.238281 C 50.84375 53.671875 52.382812 55.789062 54.464844 57.265625 C 54.914062 57.484375 54.121094 58.941406 54.664062 58.996094 C 55.234375 57.355469 54.804688 57.726562 56.8125 58.21875 C 56.332031 58.714844 55.824219 59.128906 55.554688 59.78125 C 55.410156 60.15625 54.992188 60.46875 55.089844 60.898438 C 56.417969 59.703125 56.472656 58.140625 58.601562 57.746094 C 59.40625 58.292969 59.917969 59.367188 60.589844 60.109375 C 61.277344 61.234375 65.1875 65.660156 64.363281 66.6875 C 63.9375 67.402344 63.035156 67.988281 62.972656 68.84375 C 63.90625 68.417969 64.355469 67.519531 64.957031 66.75 C 66.558594 69.761719 68.191406 72.78125 70.144531 75.585938 C 70.277344 75.78125 70.285156 75.925781 70.011719 76.046875 C 69.152344 76.414062 68.261719 76.789062 67.402344 77.242188 C 66.691406 77.628906 66.003906 78.058594 65.34375 78.535156 C 62.855469 80.21875 60.550781 82.289062 57.765625 83.480469 C 56.835938 83.894531 56.917969 80.0625 56.28125 79.648438 L 56.273438 79.648438 Z M 63.390625 123.039062 C 62.390625 126.496094 61.964844 130.097656 61.503906 133.667969 C 61.390625 136.207031 60.910156 138.964844 62.5 141.1875 C 63.914062 142.828125 65.605469 144.480469 67.765625 144.953125 C 68.140625 145.109375 68.519531 145.25 68.542969 145.746094 C 68.160156 148.238281 61.507812 146.171875 60.285156 144.953125 C 58.769531 143.507812 58.421875 141.53125 58.144531 139.546875 C 57.496094 136.253906 57.421875 132.859375 57.390625 129.507812 C 57.136719 127.375 57.367188 125.242188 57.234375 123.117188 C 57.074219 121.949219 58.992188 123.042969 59.660156 122.867188 C 60.570312 122.890625 61.480469 122.832031 62.386719 122.800781 C 62.703125 122.828125 63.539062 122.457031 63.394531 123.039062 L 63.386719 123.039062 Z M 77.253906 142.363281 C 77.019531 143.25 76.855469 144.179688 76.308594 144.933594 C 75.925781 145.949219 71.140625 146.367188 72.390625 144.660156 C 73.730469 143.609375 74.109375 141.980469 74.761719 140.5 C 75.640625 138.34375 75.75 136.035156 75.660156 133.738281 C 75.519531 130.519531 75.332031 127.289062 75.003906 124.085938 C 75.046875 123.058594 74.050781 121.402344 75.257812 120.898438 C 76.53125 120.414062 77.582031 119.597656 78.667969 118.832031 C 79.382812 118.4375 79.929688 117.632812 80.765625 117.539062 C 81.0625 125.773438 78.457031 134.191406 77.257812 142.367188 Z M 85.144531 112.363281 C 81.847656 115.460938 78.4375 118.617188 74.265625 120.527344 C 72.652344 121.417969 70.910156 121.765625 69.078125 121.863281 C 68.675781 121.691406 69.113281 120.78125 69.144531 120.398438 C 69.746094 118.820312 70.101562 117.1875 70.480469 115.558594 C 70.953125 114.046875 71.433594 112.546875 71.808594 111.003906 C 73.203125 106.683594 73.742188 102.136719 73.574219 97.609375 C 73.511719 97.082031 73.664062 96.445312 73.269531 96.042969 C 72.90625 96.425781 73.191406 96.941406 73.15625 97.402344 C 73.171875 99.339844 73.269531 101.289062 72.828125 103.191406 C 71.960938 108.839844 69.835938 114.246094 68.496094 119.800781 C 68.398438 120.824219 65.457031 121.167969 64.550781 121.539062 C 60.945312 122.425781 57.421875 122.480469 54.457031 119.941406 C 53.832031 119.484375 53.785156 119.011719 53.953125 118.34375 C 54.585938 115.542969 55.421875 112.78125 55.894531 109.953125 C 56.949219 104.152344 58.375 98.40625 58.238281 92.492188 C 58.207031 90.566406 58.4375 88.816406 57.933594 86.964844 C 57.746094 86.527344 57.792969 85.992188 57.734375 85.5 C 57.777344 85.027344 57.351562 84.394531 57.933594 84.175781 C 58.558594 83.84375 59.191406 83.546875 59.777344 83.164062 C 62.210938 81.542969 64.589844 79.847656 67.046875 78.285156 C 67.96875 77.847656 70 76.207031 70.929688 76.574219 C 76.28125 80.753906 80.066406 86.808594 82.128906 93.164062 C 81.484375 92.847656 80.929688 92.1875 80.210938 92.140625 C 80.476562 93.375 82.25 92.996094 82.679688 94.152344 C 82.507812 94.730469 81.558594 94.582031 81.199219 95.039062 C 81.757812 95.421875 82.273438 94.875 82.835938 94.722656 C 83.253906 94.863281 81.925781 96.8125 82.066406 97.292969 C 83.128906 96.238281 83.449219 94.445312 83.71875 97.269531 C 83.789062 97.800781 84.304688 97.421875 84.554688 98.570312 C 85.386719 100.585938 86.207031 102.59375 87.0625 104.601562 C 89.960938 110.429688 89.367188 107.410156 85.144531 112.367188 Z M 82.207031 94.160156 C 81.769531 93.832031 80.902344 93.777344 80.527344 94.261719 C 80.582031 94.292969 80.640625 94.359375 80.699219 94.359375 C 80.996094 94.371094 81.285156 94.359375 81.609375 94.359375 C 81.828125 94.382812 82.046875 94.3125 82.207031 94.160156 Z M 78.597656 108.203125 C 78.667969 108.304688 78.753906 108.402344 78.851562 108.488281 C 79.296875 108.433594 79.710938 108.390625 80.109375 108.316406 C 80.175781 108.304688 80.222656 108.164062 80.28125 108.074219 C 79.722656 107.9375 79.128906 107.980469 78.597656 108.203125 Z M 79.9375 107.023438 C 79.75 107.066406 79.574219 107.109375 79.398438 107.152344 C 79.363281 107.160156 79.324219 107.167969 79.289062 107.175781 C 79.117188 107.386719 78.914062 107.507812 78.792969 107.710938 C 79.273438 107.726562 79.722656 107.457031 79.9375 107.023438 Z M 78.484375 109.089844 C 78.671875 109.203125 78.855469 109.296875 79.078125 109.433594 C 79.472656 109.488281 79.847656 109.683594 80.1875 109.433594 C 79.859375 109.007812 78.882812 108.832031 78.367188 108.851562 C 78.386719 108.9375 78.429688 109.019531 78.488281 109.089844 Z M 78.683594 106.894531 C 78.5625 106.335938 78.398438 106.960938 78.046875 106.980469 C 77.960938 107.015625 77.773438 107.023438 77.773438 107.046875 C 77.789062 107.308594 77.808594 107.578125 77.84375 107.847656 C 78.148438 107.488281 78.683594 107.507812 78.683594 106.890625 Z M 78.191406 109.1875 C 77.585938 109.953125 78.003906 111.3125 78.597656 109.660156 C 78.585938 109.585938 78.558594 109.511719 78.511719 109.449219 C 78.410156 109.363281 78.300781 109.273438 78.191406 109.1875 Z M 77.332031 109.746094 C 77.230469 110.148438 76.863281 110.457031 77.148438 110.828125 C 77.585938 110.675781 77.597656 109.890625 77.554688 109.492188 C 77.476562 109.570312 77.402344 109.65625 77.335938 109.746094 Z M 76.640625 108.484375 C 76.871094 108.519531 77.503906 107.796875 77.332031 107.546875 C 77.109375 107.261719 76.902344 106.84375 76.527344 106.746094 C 76.429688 107.128906 76.78125 107.433594 76.914062 107.773438 C 76.835938 107.78125 76.757812 107.835938 76.691406 107.804688 C 76.386719 107.71875 76.089844 107.597656 75.773438 107.507812 C 75.214844 107.726562 76.15625 108.058594 76.324219 108.234375 C 76.4375 108.308594 76.523438 108.453125 76.644531 108.484375 Z M 77.421875 109.164062 C 77.191406 108.746094 76.652344 108.902344 76.269531 108.957031 C 76.097656 109 75.980469 109.21875 75.839844 109.371094 C 76.027344 109.363281 76.199219 109.339844 76.414062 109.328125 C 76.8125 109.328125 77.117188 109.394531 77.421875 109.164062 Z M 76.335938 110.367188 C 76.457031 110.304688 76.589844 110.226562 76.730469 110.148438 C 76.777344 110.019531 76.816406 109.882812 76.839844 109.746094 C 76.667969 109.785156 76.503906 109.859375 76.359375 109.964844 C 76.28125 110.03125 76.347656 110.226562 76.335938 110.371094 Z M 72.980469 91.847656 C 72.441406 92.066406 71.859375 92.101562 71.476562 92.550781 C 71.9375 92.820312 72.386719 92.550781 72.859375 92.4375 C 73.558594 92.1875 74.402344 92.152344 74.996094 91.695312 C 74.90625 91.632812 74.824219 91.523438 74.722656 91.523438 C 74.136719 91.554688 73.546875 91.542969 72.980469 91.847656 Z M 71.378906 93.539062 C 72.40625 94 73.539062 94.402344 74.65625 94.292969 C 74.601562 93.894531 70.773438 92.472656 71.378906 93.539062 Z M 71.957031 91.246094 C 71.738281 91.457031 71.53125 91.589844 71.484375 91.902344 C 71.835938 91.902344 72.902344 91.378906 72.613281 90.984375 C 72.40625 90.753906 72.152344 91.027344 71.957031 91.246094 Z M 72.550781 88.859375 C 72.394531 88.9375 72.207031 88.96875 72.121094 89.089844 C 71.804688 89.539062 71.519531 90.007812 71.203125 90.492188 C 71.015625 90.960938 70.667969 91.347656 70.6875 91.847656 C 70.773438 91.804688 70.917969 91.804688 70.960938 91.726562 C 71.453125 90.777344 72.40625 89.941406 72.550781 88.859375 Z M 70.742188 93.882812 C 70.742188 94.066406 70.742188 94.242188 70.75 94.414062 C 70.75 94.4375 70.785156 94.460938 70.804688 94.527344 C 71.089844 94.910156 71.277344 95.882812 71.738281 95.882812 C 71.871094 95.078125 71.355469 94.355469 70.742188 93.882812 Z M 70.804688 97.203125 C 70.976562 96.492188 70.652344 95.792969 70.632812 95.023438 C 69.914062 93.316406 70.148438 97.246094 70.804688 97.203125 Z M 70.628906 90.175781 C 70.132812 90.492188 70.054688 90.996094 69.972656 91.488281 C 69.972656 91.558594 69.984375 91.625 70.007812 91.6875 C 70.058594 91.65625 70.136719 91.644531 70.179688 91.601562 C 70.527344 91.214844 70.695312 90.695312 70.632812 90.175781 Z M 70.542969 87.953125 C 70.550781 87.878906 70.410156 87.769531 70.34375 87.667969 C 70.257812 87.75 70.183594 87.847656 70.132812 87.953125 C 70.054688 88.207031 70.023438 88.46875 69.960938 88.75 C 69.972656 89.210938 69.742188 89.640625 70.050781 90.011719 C 70.5625 89.652344 70.378906 88.558594 70.542969 87.953125 Z M 67.953125 97.914062 C 69.082031 97.269531 69.34375 95.5625 69.496094 94.355469 C 68.675781 95.164062 68.542969 96.410156 68.015625 97.4375 C 67.988281 97.59375 67.964844 97.753906 67.953125 97.914062 Z M 69.457031 91.324219 C 69.472656 91.222656 69.472656 91.121094 69.457031 91.019531 C 69.34375 90.636719 69.203125 90.242188 69.0625 89.820312 C 68.742188 89.199219 68.730469 88.410156 68.214844 87.9375 C 67.898438 88.460938 68.921875 91.171875 69.457031 91.324219 Z M 68.820312 93.722656 C 67.851562 94.632812 66.484375 95.363281 66.054688 96.6875 C 67.359375 96.296875 68.164062 94.820312 69.125 93.855469 C 69.160156 93.398438 68.875 93.679688 68.820312 93.722656 Z M 69.027344 91.578125 C 68.371094 90.929688 67.699219 90.226562 66.886719 89.78125 C 66.863281 90.457031 68.390625 91.699219 69.027344 91.578125 Z M 65.691406 93.976562 C 66.46875 93.566406 68.367188 93.363281 68.707031 92.605469 C 67.753906 92.625 65.449219 93.277344 64.847656 93.976562 C 65.121094 94.171875 65.40625 94.074219 65.691406 93.976562 Z M 68.707031 92.160156 C 68.65625 92.082031 68.621094 91.988281 68.558594 91.949219 C 68.117188 91.6875 67.675781 91.4375 67.195312 91.183594 C 66.984375 91.011719 66.800781 90.839844 66.523438 90.976562 C 66.949219 91.699219 67.820312 92.320312 68.707031 92.160156 Z M 65.097656 105.328125 C 65.164062 105.371094 65.238281 105.476562 65.308594 105.476562 C 65.867188 105.433594 66.425781 105.367188 67.007812 105.292969 C 67.492188 104.601562 65.273438 105.015625 65.097656 105.328125 Z M 63.59375 106.355469 C 63.660156 106.433594 63.695312 106.574219 63.765625 106.609375 C 64.054688 106.71875 64.339844 106.804688 64.65625 106.925781 C 65.382812 107.144531 66.039062 107.570312 66.773438 107.527344 C 66.558594 106.75 64.34375 106.382812 63.59375 106.355469 Z M 66.523438 103.101562 C 66.042969 102.933594 65.703125 103.257812 65.394531 103.550781 C 64.910156 103.96875 64.195312 104.144531 63.925781 104.75 C 64.101562 104.761719 64.28125 104.75 64.453125 104.714844 C 64.644531 104.617188 64.824219 104.503906 64.996094 104.371094 C 65.492188 103.910156 66.292969 103.710938 66.523438 103.101562 Z M 63.253906 69.828125 C 64.023438 70.308594 65.066406 70.265625 65.964844 70.308594 C 66.171875 70.066406 66.171875 70.003906 65.84375 69.949219 C 65.011719 69.925781 64.042969 69.535156 63.253906 69.828125 Z M 63.9375 69.28125 C 64.507812 69.226562 65.175781 69.480469 65.605469 68.996094 C 65.496094 68.929688 65.382812 68.886719 65.261719 68.863281 C 64.878906 68.851562 64.5 68.855469 64.117188 68.886719 C 63.773438 69.007812 63.417969 68.964844 63.164062 69.203125 C 63.40625 69.335938 63.6875 69.257812 63.9375 69.28125 Z M 63.519531 105.816406 C 64.039062 106.078125 64.644531 106.121094 65.195312 105.925781 C 65.097656 105.851562 64.996094 105.785156 64.890625 105.726562 C 64.777344 105.671875 64.648438 105.652344 64.503906 105.585938 C 64.132812 105.585938 63.765625 105.488281 63.519531 105.816406 Z M 64.519531 107.566406 C 64.246094 107.523438 63.707031 106.988281 63.597656 107.292969 C 64.007812 107.609375 64.285156 108.234375 64.847656 108.203125 C 64.820312 108.046875 64.785156 107.894531 64.738281 107.746094 C 64.703125 107.675781 64.617188 107.632812 64.519531 107.570312 Z M 63.257812 70.476562 C 63.457031 71.019531 65.441406 72.488281 66.023438 72.5 C 65.921875 71.886719 63.882812 70.453125 63.257812 70.476562 Z M 62.960938 107.25 C 62.789062 107.796875 63.335938 108.234375 63.511719 108.726562 C 63.894531 109.296875 63.992188 110.148438 64.640625 110.5 C 64.675781 110.394531 64.691406 110.289062 64.683594 110.179688 C 64.421875 109.4375 64.203125 108.667969 63.617188 108.058594 C 63.398438 107.75 63.320312 107.378906 62.960938 107.246094 Z M 63.269531 104.601562 C 63.90625 104.050781 64.167969 103.089844 64.640625 102.375 C 64.695312 102.277344 64.621094 102.132812 64.597656 102.011719 C 64.515625 102.046875 64.441406 102.09375 64.378906 102.15625 C 64.246094 102.285156 64.132812 102.449219 63.992188 102.617188 C 63.761719 103.273438 63.070312 103.910156 63.269531 104.601562 Z M 63.765625 72.203125 C 63.683594 71.980469 63.519531 71.800781 63.304688 71.699219 C 63.21875 72.34375 63.742188 72.9375 63.9375 73.550781 C 64.054688 73.691406 64.21875 73.777344 64.402344 73.792969 C 64.378906 73.722656 64.378906 73.648438 64.355469 73.59375 C 64.171875 73.144531 63.960938 72.695312 63.765625 72.203125 Z M 63.25 102.148438 C 62.777344 102.355469 62.730469 103.84375 62.535156 104.375 C 62.585938 104.433594 62.632812 104.496094 62.675781 104.558594 C 62.902344 104.269531 63.730469 102.28125 63.25 102.148438 Z M 62.328125 68.0625 C 62.566406 67.039062 62.785156 65.996094 63.015625 64.921875 C 63.058594 64.601562 62.960938 64.382812 62.859375 64.089844 C 62.515625 64.398438 61.699219 68.078125 62.117188 68.273438 C 62.183594 68.203125 62.320312 68.140625 62.328125 68.0625 Z M 62.449219 71.433594 C 62.820312 73.03125 63.0625 71.226562 62.570312 70.734375 C 62.1875 70.460938 62.417969 71.230469 62.449219 71.433594 Z M 62.03125 107.421875 C 61.898438 107.917969 61.613281 108.40625 61.714844 108.835938 C 61.898438 109.558594 61.527344 110.289062 61.96875 110.917969 C 62.363281 110.421875 62.152344 109.734375 62.363281 109.203125 C 62.582031 108.925781 62.535156 106.746094 62.03125 107.425781 Z M 62.019531 74.292969 C 62.089844 74.207031 62.140625 74.105469 62.171875 73.996094 C 62.183594 73.691406 62.171875 73.382812 62.171875 73.035156 C 62.148438 72.292969 62.292969 71.394531 61.699219 70.878906 C 61.585938 71.097656 61.578125 71.351562 61.667969 71.578125 C 61.824219 72.457031 61.457031 73.574219 62.019531 74.292969 Z M 62.117188 104.644531 C 62.328125 104.050781 60.71875 101.371094 60.132812 101.21875 C 60.125 101.308594 60.054688 101.40625 60.089844 101.472656 C 60.175781 101.722656 60.300781 101.941406 60.40625 102.214844 C 60.988281 103.035156 61.40625 103.980469 62.117188 104.644531 Z M 60.902344 107.140625 C 60.660156 107.484375 59.597656 107.996094 59.773438 108.363281 C 60.488281 108.484375 61.164062 107.445312 61.574219 106.917969 L 60.980469 107.046875 C 60.960938 107.0625 60.949219 107.09375 60.90625 107.136719 Z M 61.417969 67.253906 C 61.144531 66.226562 61.085938 65.105469 60.574219 64.171875 C 60.519531 64.34375 60.472656 64.515625 60.402344 64.753906 C 60.5 65.730469 60.71875 67.09375 61.367188 67.765625 C 61.410156 67.597656 61.429688 67.429688 61.417969 67.257812 Z M 60.921875 71.203125 C 60.75 71.574219 60.578125 71.949219 60.40625 72.367188 C 60.484375 72.507812 60.546875 72.605469 60.617188 72.707031 C 60.914062 72.597656 61.21875 71.308594 61.109375 71.035156 C 61.039062 71.082031 60.976562 71.136719 60.925781 71.203125 Z M 57.917969 103.441406 C 59.003906 103.988281 59.96875 104.980469 61.164062 105.191406 C 61.085938 105.0625 61.042969 104.875 60.9375 104.796875 C 59.992188 104.113281 59.082031 103.351562 57.929688 102.992188 C 57.570312 103.167969 57.765625 103.34375 57.917969 103.441406 Z M 60.648438 70.9375 C 60.683594 70.816406 60.691406 70.71875 60.714844 70.628906 C 60.59375 70.664062 60.425781 70.652344 60.351562 70.742188 C 59.738281 71.550781 58.75 72.21875 58.402344 73.167969 C 59.5625 73.078125 59.949219 71.699219 60.648438 70.9375 Z M 60.546875 69.015625 C 60.472656 68.609375 59.046875 67.832031 58.660156 67.960938 C 58.703125 68.074219 58.714844 68.226562 58.792969 68.277344 C 59.167969 68.496094 59.539062 68.695312 59.933594 68.925781 C 60.128906 69.011719 60.339844 69.042969 60.546875 69.011719 Z M 60.371094 68.097656 C 60.359375 67.992188 60.332031 67.890625 60.296875 67.792969 C 60.214844 67.628906 60.121094 67.476562 60.007812 67.332031 C 59.582031 67.015625 59.320312 66.457031 58.75 66.457031 C 59.175781 67.015625 59.667969 67.933594 60.371094 68.097656 Z M 60.496094 106.734375 C 59.660156 106.742188 58.738281 107.214844 58.148438 107.75 C 58.863281 107.945312 59.585938 107.34375 60.253906 107.136719 C 60.386719 107.082031 60.441406 106.875 60.496094 106.734375 Z M 57.390625 70.816406 C 57.46875 70.832031 57.53125 70.871094 57.589844 70.863281 C 58.015625 70.773438 58.449219 70.691406 58.902344 70.609375 C 59.539062 70.679688 60.164062 70.375 60.496094 69.824219 C 59.890625 69.449219 57.753906 70.238281 57.390625 70.816406 Z M 60.242188 105.777344 C 59.453125 105.21875 58.421875 105.433594 57.496094 105.207031 C 57.375 105.207031 57.253906 105.210938 57.136719 105.230469 C 57.214844 105.472656 57.335938 105.714844 57.609375 105.714844 C 58.488281 105.746094 59.390625 106.03125 60.246094 105.777344 Z M 57.808594 80.78125 C 57.816406 80.285156 57.335938 80.003906 57.179688 79.566406 C 57.476562 79.628906 57.675781 79.871094 57.960938 79.972656 C 58.101562 79.304688 57.050781 79.304688 56.90625 78.75 C 57.667969 78.851562 58.433594 78.808594 59.175781 78.628906 C 59.296875 78.617188 59.386719 78.457031 59.484375 78.375 C 59.273438 78.136719 56.839844 78.203125 56.738281 78.488281 C 56.585938 79.550781 56.726562 79.910156 57.496094 80.714844 C 57.621094 80.753906 57.707031 80.765625 57.804688 80.789062 Z M 57.765625 61.496094 C 58.269531 61.324219 58.9375 61.417969 59.320312 61.046875 C 58.191406 60.652344 56.800781 61.167969 55.71875 61.625 C 55.820312 61.707031 55.929688 61.777344 56.046875 61.835938 C 56.667969 61.746094 57.179688 61.625 57.765625 61.496094 Z M 58.90625 63.617188 C 58.5625 63.273438 58.039062 63.199219 57.644531 62.929688 C 57 62.535156 56.273438 62.054688 55.476562 62.425781 C 55.5625 62.535156 55.628906 62.679688 55.75 62.734375 C 56.253906 62.964844 56.789062 63.160156 57.339844 63.386719 C 57.84375 63.515625 58.433594 63.898438 58.90625 63.613281 Z M 57.472656 75.230469 C 56.878906 75.320312 56.8125 76.089844 56.464844 76.53125 C 55.914062 78.085938 57.734375 75.753906 57.472656 75.230469 Z M 57.21875 77.703125 C 57.699219 77.253906 58.511719 77.089844 58.652344 76.421875 C 57.929688 76.445312 57.394531 77.144531 56.757812 77.484375 C 56.488281 77.804688 57.003906 77.867188 57.21875 77.703125 Z M 57.226562 60.160156 C 56.910156 60.027344 55.605469 60.675781 55.933594 60.992188 C 56.425781 60.757812 57.003906 60.71875 57.226562 60.160156 Z M 55.472656 75.710938 C 55.507812 76.042969 55.515625 76.335938 55.558594 76.628906 C 55.582031 76.71875 55.691406 76.800781 55.757812 76.882812 C 55.996094 76.382812 55.972656 75.800781 55.703125 75.320312 C 55.621094 75.441406 55.542969 75.574219 55.476562 75.710938 Z M 55.410156 64.65625 C 55.453125 64.886719 55.59375 65.007812 55.753906 65.171875 C 56.082031 64.429688 55.566406 63.417969 54.972656 62.917969 C 54.652344 63.378906 55.285156 64.113281 55.410156 64.660156 Z M 55.363281 77.375 C 55.40625 77.25 55.433594 77.121094 55.453125 76.988281 C 55.28125 76.617188 55.242188 76.222656 54.945312 75.964844 C 54.628906 76.3125 55.113281 77.058594 55.363281 77.375 Z M 54.628906 60.605469 C 54.71875 60.257812 55.507812 59.410156 54.992188 59.261719 C 54.671875 59.65625 54.351562 59.960938 54.386719 60.5 C 54.402344 60.585938 54.550781 60.71875 54.628906 60.609375 Z M 52.851562 76.53125 C 52.933594 76.65625 53.023438 76.773438 53.125 76.882812 C 53.773438 77.132812 54.277344 77.78125 54.96875 77.667969 C 54.839844 77.164062 53.355469 76.421875 52.851562 76.527344 Z M 54.71875 63.859375 C 54.707031 63.78125 54.597656 63.726562 54.546875 63.675781 C 54.128906 64.417969 54.273438 65.414062 54.632812 66.179688 C 55.015625 65.753906 54.652344 64.472656 54.71875 63.859375 Z M 51.917969 66.757812 C 52.863281 66.585938 53.179688 64.472656 53.695312 63.652344 C 53.792969 62.480469 51.820312 66.550781 51.917969 66.757812 Z M 53.785156 60.214844 C 53.617188 59.03125 53.335938 57.863281 52.941406 56.730469 C 52.140625 57.386719 53.421875 59.074219 53.542969 59.996094 C 53.613281 60.074219 53.695312 60.148438 53.785156 60.214844 Z M 53.277344 62.613281 C 52.851562 62.558594 49.59375 65.105469 50.085938 65.414062 C 51.007812 65.214844 51.566406 64.261719 52.359375 63.738281 C 52.742188 63.367188 53.191406 63.144531 53.277344 62.613281 Z M 50.863281 59.765625 C 51.371094 60.453125 52.179688 61.234375 53.113281 61.046875 C 52.386719 60.601562 51.75 59.804688 50.863281 59.765625 Z M 53.246094 60.585938 C 53.15625 60.386719 53.15625 60.128906 52.992188 59.984375 C 52.484375 59.535156 52.070312 58.921875 51.492188 58.582031 C 50.964844 58.738281 51.996094 59.5 52.140625 59.804688 C 52.5 60.125 52.785156 60.441406 53.246094 60.582031 Z M 36.847656 45.40625 C 36.1875 45.066406 36.855469 44.664062 37.007812 44.210938 C 36.835938 44.199219 36.605469 44.15625 36.472656 44.3125 C 36.253906 44.671875 35.683594 45.140625 35.816406 45.59375 C 36.199219 45.890625 36.175781 46.300781 36.210938 46.734375 C 36.878906 50.828125 36.4375 55.085938 34.652344 58.863281 C 33.964844 60.308594 33.183594 61.664062 32.117188 62.855469 C 31.878906 63.144531 31.910156 63.328125 32.273438 63.4375 C 33.929688 63.832031 35.519531 63.152344 37.023438 62.53125 C 40.640625 61.21875 42.953125 57.769531 42.308594 53.90625 C 41.675781 50.46875 39.714844 47.417969 36.847656 45.417969 Z M 33.960938 61.386719 C 36.296875 57.511719 37.503906 52.9375 37.03125 48.417969 C 36.910156 47.539062 36.636719 46.675781 36.636719 45.800781 C 39.898438 50.046875 38.894531 58.78125 33.960938 61.386719 Z M 39.828125 59.886719 C 39.6875 58.410156 39.457031 56.921875 39.628906 55.433594 C 39.882812 54.078125 40.289062 52.917969 40.761719 51.648438 C 41.503906 52.25 41.699219 54.726562 41.789062 55.738281 C 41.769531 57.335938 40.769531 58.703125 39.828125 59.882812 Z M 29.28125 51.722656 C 29.726562 51.378906 30.386719 51.304688 30.738281 50.824219 C 29.289062 50.667969 27.371094 52.167969 27.402344 53.722656 C 27.21875 54.9375 28.292969 57.082031 29.574219 56.917969 C 27.9375 55.441406 27.019531 53.164062 29.277344 51.71875 Z M 25.714844 44.433594 C 24.660156 44.878906 24.464844 45.308594 24.5625 46.46875 C 24.683594 47.75 26.46875 48.019531 27.648438 47.953125 C 31.773438 47.011719 28.71875 42.960938 25.710938 44.429688 Z M 24.496094 60.019531 C 25.523438 59.699219 25.683594 58.167969 25.023438 57.480469 C 24.003906 56.492188 22.183594 56.089844 21 56.921875 C 18.566406 58.777344 22.292969 61.363281 24.496094 60.019531 Z M 24.496094 60.019531 "/>
<path style=" stroke:none;fill-rule:nonzero;fill:rgb(100%,100%,100%);fill-opacity:1;" d="M 37.046875 48.417969 C 37.515625 52.9375 36.3125 57.511719 33.976562 61.386719 C 38.914062 58.78125 39.910156 50.046875 36.652344 45.808594 C 36.652344 46.679688 36.925781 47.542969 37.046875 48.417969 Z M 24.714844 38.644531 C 23.324219 39.453125 21.664062 39.96875 20.371094 40.871094 C 20.746094 41.175781 24.417969 39.699219 23.914062 40.367188 C 23.378906 41.382812 22.621094 42.234375 21.808594 43.027344 C 21.160156 43.769531 20.03125 44.132812 19.601562 45.042969 C 20.3125 45.652344 20.996094 44.734375 21.773438 44.871094 C 21.601562 46.117188 19.996094 46.214844 21.664062 47.097656 C 21.835938 47.183594 21.980469 47.28125 22.15625 47.347656 C 22.277344 47.382812 22.402344 47.402344 22.527344 47.414062 C 21.839844 45.746094 22.121094 43.625 23.671875 42.507812 C 25.953125 40.746094 29.363281 41.972656 31.050781 44.007812 C 31.613281 40.703125 28.078125 36.9375 24.710938 38.644531 Z M 18.113281 54.511719 C 17.402344 54.753906 16.699219 54.996094 15.988281 55.226562 C 15.890625 55.257812 15.777344 55.289062 15.679688 55.335938 C 16.054688 55.894531 16.878906 56.273438 16.921875 56.96875 C 15.605469 56.386719 14.289062 56.816406 13.011719 57.265625 C 12.53125 57.40625 12.355469 57.605469 12.488281 58.136719 C 12.773438 59.632812 13.558594 60.984375 14.71875 61.96875 C 17.492188 64.476562 23.328125 66.042969 25.574219 62.207031 C 23.164062 62.863281 20.144531 62.515625 18.640625 60.304688 C 16.753906 57.84375 17.984375 55.183594 20.875 54.511719 C 19.992188 54.144531 18.996094 54.144531 18.113281 54.511719 Z M 18.113281 54.511719 "/>
<path style=" stroke:none;fill-rule:nonzero;fill:rgb(21.176471%,51.764709%,77.64706%);fill-opacity:1;" d="M 22.886719 46.9375 C 23.09375 48.089844 24.292969 48.097656 25.191406 48.308594 C 26.496094 48.722656 28.195312 48.9375 29.25 47.921875 C 29.863281 47.398438 31.707031 44.652344 30.597656 44.148438 C 27.78125 40.851562 21.460938 41.75 22.886719 46.9375 Z M 27.671875 47.953125 C 26.488281 48.019531 24.699219 47.746094 24.585938 46.46875 C 24.484375 45.308594 24.683594 44.878906 25.738281 44.433594 C 28.734375 42.964844 31.789062 47.015625 27.675781 47.957031 Z M 23.753906 68.9375 C 22.941406 68.753906 22.140625 68.453125 21.296875 68.390625 C 21.503906 68.75 21.65625 68.992188 22.097656 69.101562 C 22.546875 69.15625 23.511719 69.878906 23.796875 69.53125 C 23.910156 69.441406 24.0625 69.414062 24.199219 69.464844 C 24.96875 69.675781 25.671875 70.234375 26.480469 70.164062 C 24.6875 69.09375 28.914062 69.773438 29.246094 69.140625 C 27.460938 68.855469 25.5625 69.414062 23.75 68.941406 Z M 18.277344 58.328125 C 18.671875 60.773438 21.128906 61.984375 23.402344 62.0625 C 24.671875 61.890625 26.121094 62.085938 26.40625 60.203125 C 26.84375 57.621094 23.859375 54.984375 21.429688 54.929688 C 19.738281 55.070312 17.914062 56.453125 18.277344 58.332031 Z M 21.007812 56.921875 C 22.195312 56.089844 24.015625 56.492188 25.03125 57.480469 C 25.691406 58.164062 25.539062 59.707031 24.507812 60.019531 C 22.304688 61.363281 18.578125 58.777344 21.007812 56.921875 Z M 20.425781 69.101562 C 20.503906 69.175781 20.699219 69.15625 20.84375 69.175781 C 20.484375 67.644531 17.160156 66.726562 15.777344 65.851562 C 13.042969 64.472656 10.726562 62.390625 9.066406 59.820312 C 8.683594 59.152344 7.792969 59.707031 7.1875 59.648438 C 5.316406 59.628906 4.273438 57.917969 3.953125 56.078125 C 3.765625 55.078125 3.8125 54.042969 4.09375 53.058594 C 4.421875 53.410156 4.367188 53.78125 4.292969 54.210938 C 4.445312 55.796875 4.777344 57.722656 6.265625 58.570312 C 8.570312 60.078125 11.695312 55.863281 15.832031 56.136719 C 14.824219 55.019531 13.1875 56.152344 11.90625 56.152344 C 10.820312 56.214844 8.363281 56.152344 7.550781 55.503906 C 8.222656 55.011719 9.164062 55.742188 9.894531 55.546875 C 11.023438 55.375 12.1875 55.484375 13.296875 55.089844 C 15.554688 54.390625 18.15625 54.191406 20.117188 52.761719 C 19.164062 52.542969 18.035156 52.761719 17.191406 52.265625 C 17.265625 52.167969 17.324219 51.992188 17.402344 51.992188 C 18.222656 51.949219 18.765625 51.289062 19.488281 51.050781 C 20.640625 50.527344 18.027344 48.871094 17.460938 48.710938 C 14.496094 47.4375 8.464844 48.359375 7.917969 44.222656 C 9.816406 46.9375 11.066406 46.859375 14.167969 47.304688 C 15.199219 47.390625 16.265625 47.675781 17.285156 47.65625 C 17.984375 47.5 19.542969 46.746094 19.839844 46.132812 C 18.566406 46.195312 17.242188 46.589844 15.933594 46.316406 C 16.308594 45.820312 16.953125 45.628906 17.460938 45.320312 C 19.246094 44.292969 21.0625 43.035156 22.304688 41.402344 C 19.960938 41.722656 17.535156 42.003906 15.167969 41.523438 C 14.996094 41.5 14.757812 41.601562 14.773438 41.316406 C 14.574219 40.855469 18.007812 41.28125 18.457031 41.183594 C 20.726562 40.441406 22.460938 38.425781 24.859375 37.855469 C 25.585938 37.667969 26.296875 37.363281 27.074219 37.511719 C 27.289062 37.554688 27.503906 37.496094 27.667969 37.359375 C 27.109375 36.746094 25.375 37.292969 25.070312 36.636719 C 25.785156 36.277344 26.703125 36.621094 27.515625 36.464844 C 28.203125 36.367188 28.941406 36.566406 29.65625 36.585938 C 30.574219 36.601562 31.480469 36.796875 32.324219 37.164062 C 32.421875 37.207031 32.566406 37.128906 32.695312 37.128906 C 31.792969 36.265625 30.542969 35.683594 29.371094 35.238281 C 29.296875 35.21875 29.238281 35.085938 29.171875 35 C 29.785156 34.589844 30.511719 35.238281 31.179688 35.382812 C 33.3125 36.03125 35.328125 37.007812 37.160156 38.269531 C 37.246094 38.105469 37.21875 37.90625 37.097656 37.765625 C 36.425781 36.246094 35.261719 35.042969 34.484375 33.59375 C 35.296875 33.792969 35.683594 34.566406 36.304688 35.027344 C 36.800781 35.289062 37.390625 35.804688 37.972656 35.714844 C 36.644531 34.03125 34.738281 32.671875 32.726562 31.828125 C 31.011719 31.175781 29.308594 30.304688 27.417969 30.417969 C 25.6875 31.117188 24.03125 32.144531 22.078125 32.09375 C 21.957031 32.105469 21.847656 31.980469 21.714844 31.941406 C 22.164062 31.4375 22.917969 31.597656 23.515625 31.417969 C 24.796875 31.109375 26.003906 30.5625 27.078125 29.804688 C 26.433594 29.488281 25.652344 29.820312 24.953125 29.742188 C 23.945312 29.707031 22.933594 29.628906 21.925781 29.570312 C 19.652344 29.054688 17.1875 29.855469 15.277344 31.089844 C 14.683594 31.417969 14.222656 32.007812 13.546875 32.164062 C 13.492188 31.625 13.890625 31.230469 13.90625 30.695312 C 13.25 31.089844 12.972656 31.894531 12.191406 32.117188 C 10.648438 33.160156 8.921875 32.074219 9 33.039062 C 9.023438 33.628906 9.636719 34.320312 9.230469 34.84375 C 8.394531 33.957031 8.367188 32.511719 8.265625 31.339844 C 7.386719 32.535156 7.703125 34.285156 7.714844 35.726562 C 7.730469 35.898438 7.792969 36.144531 7.53125 36.15625 C 7.460938 36.15625 7.34375 35.894531 7.3125 35.738281 C 7.1875 34.621094 6.871094 33.539062 7.167969 32.421875 C 6.917969 31.644531 5.917969 31.222656 5.421875 30.582031 C 5.25 31.367188 5.9375 32.039062 5.90625 32.835938 C 5.695312 32.714844 5.378906 32.664062 5.300781 32.398438 C 5.199219 31.828125 3.929688 30.472656 3.378906 30.617188 C 3.828125 31.417969 4.113281 32.296875 4.203125 33.207031 C 4.222656 33.921875 4.859375 33.953125 5.34375 34.273438 C 5.890625 35.046875 3.785156 34.019531 3.546875 33.957031 C 3.558594 34.199219 3.6875 34.417969 3.890625 34.558594 C 4.503906 34.863281 4.945312 35.476562 5.664062 35.621094 C 5.789062 35.644531 5.875 35.847656 5.960938 35.964844 C 5.8125 36.03125 5.65625 36.066406 5.492188 36.0625 C 4.351562 35.878906 2.992188 36.234375 2.367188 37.214844 C 3.921875 36.941406 5.097656 38.113281 4.769531 39.765625 C 4.496094 41.386719 2.992188 41.957031 1.863281 42.820312 C 2.371094 42.992188 3.257812 43.335938 3.648438 42.8125 C 3.710938 42.667969 3.792969 42.527344 3.890625 42.40625 C 4.351562 42.042969 4.898438 40.929688 5.492188 41.113281 C 5.46875 41.441406 5.246094 41.59375 5.019531 41.78125 C 3.835938 43.382812 2.9375 45.171875 2.363281 47.078125 C 1.660156 49.574219 1.058594 52.351562 2.109375 54.828125 C 2.910156 53.429688 2.878906 51.488281 4.238281 50.394531 C 4.191406 50.683594 4.269531 51.007812 4.066406 51.238281 C 3.472656 52.253906 3.199219 53.425781 3.285156 54.597656 C 3.339844 55.121094 3.417969 55.660156 3.515625 56.183594 C 4.128906 59.4375 5.542969 62.632812 7.214844 65.367188 C 7.410156 65.007812 7.148438 64.632812 7.082031 64.273438 C 6.851562 63.320312 6.554688 62.390625 6.335938 61.4375 C 6.753906 61.4375 6.882812 61.820312 7.039062 62.125 C 8.367188 65.003906 9.867188 68.855469 12.652344 70.511719 C 12.707031 70.117188 12.335938 69.84375 12.269531 69.488281 C 11.996094 68.6875 12.050781 67.746094 11.621094 67.035156 C 10.09375 65.710938 9.03125 64.125 8.234375 62.285156 C 8.191406 62.199219 8.179688 62.078125 8.40625 62.128906 C 8.878906 62.242188 8.886719 62.644531 9.0625 62.953125 C 9.953125 64.484375 11.167969 65.808594 12.617188 66.824219 C 15.292969 68.566406 18.308594 69.792969 20.609375 72.011719 C 20.117188 70.765625 19.429688 69.277344 18.398438 68.367188 C 17.863281 68.023438 17.289062 67.753906 16.730469 67.449219 C 16.085938 66.976562 15.054688 66.824219 14.671875 66.078125 C 15.855469 66.332031 16.972656 67.066406 18.082031 67.554688 C 18.910156 67.984375 19.785156 68.367188 20.417969 69.101562 Z M 20.425781 69.101562 "/>
<path style=" stroke:none;fill-rule:nonzero;fill:rgb(94.117647%,80.392158%,52.549022%);fill-opacity:1;" d="M 78.671875 118.828125 C 77.585938 119.59375 76.535156 120.414062 75.261719 120.894531 C 74.0625 121.398438 75.050781 123.050781 75.007812 124.082031 C 75.339844 127.285156 75.523438 130.519531 75.664062 133.734375 C 75.753906 136.035156 75.640625 138.339844 74.765625 140.496094 C 74.109375 141.972656 73.738281 143.605469 72.394531 144.65625 C 71.144531 146.371094 75.929688 145.949219 76.3125 144.929688 C 76.859375 144.175781 77.023438 143.246094 77.257812 142.359375 C 78.457031 134.183594 81.0625 125.765625 80.765625 117.535156 C 79.933594 117.621094 79.382812 118.429688 78.667969 118.824219 Z M 57.953125 57.3125 C 58.125 55.542969 55.855469 54.652344 56.710938 51.785156 C 57.152344 49.628906 58.039062 47.625 58.863281 45.613281 C 59.457031 43.882812 60.101562 42.1875 60.75 40.492188 C 62.546875 35.0625 64.355469 29.65625 65.542969 24.039062 C 66.09375 21.8125 66.34375 19.53125 66.960938 17.320312 C 67.519531 15.296875 67.695312 13.085938 68.789062 11.265625 C 70.007812 9.613281 71.335938 8.027344 72.660156 6.464844 C 73.285156 5.671875 74.085938 4.867188 74.042969 3.804688 C 73.183594 4.414062 72.488281 5.785156 71.484375 6.03125 C 72.097656 4.964844 73.140625 4.199219 74.007812 3.335938 C 74.335938 3.0625 74.511719 2.765625 74.328125 2.339844 C 73.300781 2.511719 72.527344 4.792969 71.421875 5.042969 C 71.878906 3.980469 72.902344 3.160156 73.570312 2.199219 C 73.769531 1.945312 74.230469 1.742188 73.988281 1.367188 C 73.230469 1.078125 71.71875 3.871094 70.675781 4.21875 C 70.632812 3.390625 72.859375 1.769531 73.375 0.871094 C 73.027344 0.894531 72.609375 0.769531 72.347656 1.078125 C 71.632812 1.765625 70.898438 2.4375 70.199219 3.132812 C 69.230469 3.945312 68.574219 5.214844 67.402344 5.703125 C 67.445312 5.5625 67.445312 5.398438 67.523438 5.308594 C 68.136719 4.53125 68.792969 3.460938 68.335938 2.464844 C 64.902344 5.746094 65.851562 7.902344 65.1875 12.007812 C 63.640625 18.464844 61.664062 24.808594 59.273438 31 C 57.375 36.234375 54.765625 41.15625 52.4375 46.179688 C 51.792969 47.460938 51.109375 48.695312 50.464844 49.980469 C 50.351562 50.199219 50.234375 50.535156 50.3125 50.722656 C 51.121094 53.171875 54.972656 58.695312 57.957031 57.316406 Z M 62.40625 122.789062 C 61.496094 122.824219 60.585938 122.875 59.675781 122.851562 C 59.003906 123.023438 57.085938 121.933594 57.25 123.105469 C 57.382812 125.226562 57.152344 127.363281 57.40625 129.496094 C 57.441406 132.847656 57.519531 136.238281 58.160156 139.53125 C 58.433594 141.511719 58.785156 143.496094 60.300781 144.941406 C 61.519531 146.15625 68.175781 148.222656 68.558594 145.730469 C 68.535156 145.238281 68.15625 145.09375 67.78125 144.941406 C 65.621094 144.46875 63.933594 142.816406 62.515625 141.171875 C 60.925781 138.945312 61.40625 136.195312 61.519531 133.652344 C 61.980469 130.085938 62.410156 126.484375 63.40625 123.023438 C 63.546875 122.445312 62.714844 122.820312 62.410156 122.785156 Z M 49.878906 76.261719 C 48.78125 75.003906 48.003906 73.285156 46.558594 72.398438 C 45.832031 72.15625 44.988281 72.226562 44.242188 72.050781 C 43.824219 71.960938 43.636719 72.074219 43.667969 72.496094 C 43.769531 73.414062 43.839844 74.347656 44.019531 75.246094 C 45.160156 79.753906 46.539062 84.230469 47.1875 88.859375 C 47.660156 91.871094 48.472656 94.816406 48.777344 97.855469 C 49.128906 100.296875 49.84375 102.707031 49.785156 105.167969 C 49.957031 106.929688 50.578125 109.164062 49.207031 110.585938 C 48.472656 111.429688 47.472656 111.824219 46.460938 112.195312 C 45.839844 113.09375 44.3125 114.261719 44.136719 115.25 C 44.949219 115.136719 45.210938 113.96875 46.078125 113.9375 C 45.761719 114.941406 43.953125 115.566406 43.960938 116.773438 C 44.585938 116.34375 45.089844 115.523438 45.894531 115.5 C 44.972656 116.824219 43.21875 117.554688 42.527344 119.003906 C 43.425781 119.027344 43.976562 118.148438 44.695312 117.722656 C 45.28125 117.296875 45.859375 116.894531 46.484375 116.433594 C 47.855469 115.523438 50.257812 115.457031 50.136719 113.402344 C 50.136719 113.28125 50.027344 113.027344 50.308594 113.105469 C 51.140625 113.578125 49.257812 116.554688 50.492188 117.417969 C 50.886719 117.589844 50.957031 116.804688 51.054688 116.578125 C 51.226562 115.632812 51.519531 114.710938 51.917969 113.839844 C 52.328125 112.902344 52.621094 111.910156 52.566406 110.851562 C 52.425781 107.308594 52.359375 103.757812 52.222656 100.214844 C 52.015625 93.15625 51.566406 86.113281 50.378906 79.15625 C 50.15625 78.203125 50.277344 77.144531 49.875 76.265625 Z M 44.734375 63.5 C 44.601562 64.167969 44.523438 64.835938 44.417969 65.5 C 44.285156 66.378906 46.976562 65.359375 47.390625 65.175781 C 50.5625 63.917969 49.835938 60.796875 49.277344 58.113281 C 47.789062 53.695312 48.828125 56.527344 46.996094 55.925781 C 46.371094 55.695312 46.339844 55.046875 45.84375 54.726562 C 45.625 54.957031 45.710938 55.175781 45.765625 55.4375 C 45.667969 57.371094 45 59.234375 43.847656 60.789062 C 43.320312 61.425781 44.84375 61.757812 44.734375 63.5 Z M 43.636719 115.226562 C 43.808594 114.5 44.363281 114.042969 44.839844 113.460938 C 44.980469 113.3125 45.136719 113.167969 45.277344 113.015625 C 45.324219 112.964844 45.363281 112.90625 45.398438 112.84375 C 44.457031 112.90625 43.027344 114.683594 43.183594 115.664062 C 43.339844 115.519531 43.59375 115.398438 43.636719 115.226562 Z M 43.75 47.429688 C 42.785156 44.507812 39.890625 37.117188 37.015625 36.078125 C 37.15625 36.832031 37.730469 37.402344 38.011719 38.09375 C 38.230469 38.761719 38.738281 39.460938 38.582031 40.175781 C 36.851562 39.210938 34.980469 37.007812 33.019531 36.71875 C 33.382812 37.320312 34.195312 37.582031 34.371094 38.289062 C 33.824219 38.460938 33.390625 38.039062 32.890625 37.929688 C 31.871094 37.660156 30.839844 37.417969 29.800781 37.164062 C 29.320312 37.085938 28.816406 36.820312 28.332031 37.042969 C 28.652344 37.425781 29.253906 37.304688 29.503906 37.753906 C 29.046875 37.960938 28.527344 37.796875 28.078125 38.003906 C 28.132812 38.046875 28.179688 38.144531 28.234375 38.160156 C 29.101562 38.359375 29.671875 38.957031 30.253906 39.636719 C 32.765625 42.21875 31.835938 48.335938 27.996094 49.125 C 25.40625 49.296875 22.796875 48.554688 20.582031 47.207031 C 20.042969 46.769531 18.648438 47.808594 18.023438 48.066406 C 18.933594 48.808594 19.988281 49.335938 20.511719 50.472656 C 21 51.46875 19.21875 51.480469 18.78125 52.105469 C 19.671875 52.398438 20.691406 51.820312 21.636719 51.992188 C 21.273438 52.851562 20.371094 53.21875 19.714844 53.765625 C 21.699219 54.167969 23.773438 54.738281 25.328125 56.152344 C 28.027344 58.164062 27.300781 62.269531 24.746094 64.066406 C 22.027344 65.914062 18.207031 65.261719 15.554688 63.59375 C 10.003906 60.175781 13.367188 56.445312 9.71875 59.082031 C 9.253906 59.554688 11.273438 61.273438 11.582031 61.777344 C 14.003906 64.308594 17.199219 65.9375 20.410156 67.214844 C 23.210938 68.144531 26.234375 68.804688 29.183594 68.277344 C 33.140625 67.816406 36.898438 66.269531 40.027344 63.8125 C 46 59.117188 45.863281 54.152344 43.75 47.425781 Z M 29.589844 56.921875 C 28.304688 57.09375 27.234375 54.941406 27.417969 53.726562 C 27.386719 52.171875 29.308594 50.671875 30.757812 50.828125 C 30.40625 51.308594 29.75 51.375 29.296875 51.722656 C 27.039062 53.171875 27.957031 55.449219 29.59375 56.925781 Z M 37.039062 62.515625 C 35.535156 63.140625 33.953125 63.816406 32.289062 63.421875 C 31.929688 63.3125 31.894531 63.125 32.132812 62.839844 C 33.199219 61.644531 33.988281 60.289062 34.667969 58.84375 C 36.457031 55.066406 36.902344 50.808594 36.226562 46.714844 C 36.191406 46.289062 36.214844 45.871094 35.832031 45.574219 C 35.699219 45.128906 36.269531 44.65625 36.488281 44.292969 C 36.621094 44.140625 36.851562 44.183594 37.023438 44.195312 C 36.875 44.65625 36.203125 45.050781 36.863281 45.390625 C 39.730469 47.390625 41.695312 50.441406 42.324219 53.875 C 42.972656 57.742188 40.65625 61.191406 37.039062 62.503906 Z M 18.160156 45.441406 C 17.976562 45.527344 17.777344 45.613281 17.601562 45.695312 C 17.546875 45.734375 17.496094 45.777344 17.449219 45.824219 C 17.84375 46.085938 18.390625 45.726562 18.832031 45.695312 C 18.902344 45.640625 18.945312 45.550781 18.941406 45.464844 C 18.789062 45.136719 18.460938 45.355469 18.164062 45.441406 Z M 18.160156 45.441406 "/>
</g>
</svg>
